ISO-10303-21;
HEADER;
FILE_DESCRIPTION(('FreeCAD Model'),'2;1');
FILE_NAME('Open CASCADE Shape Model','2026-08-14T18:38:22',(''),(''),
  'Open CASCADE STEP processor 7.8','FreeCAD','Unknown');
FILE_SCHEMA(('AUTOMOTIVE_DESIGN { 1 0 10303 214 1 1 1 1 }'));
ENDSEC;
DATA;
#1 = APPLICATION_PROTOCOL_DEFINITION('international standard',
  'automotive_design',2000,#2);
#2 = APPLICATION_CONTEXT(
  'core data for automotive mechanical design processes');
#3 = SHAPE_DEFINITION_REPRESENTATION(#4,#10);
#4 = PRODUCT_DEFINITION_SHAPE('','',#5);
#5 = PRODUCT_DEFINITION('design','',#6,#9);
#6 = PRODUCT_DEFINITION_FORMATION('','',#7);
#7 = PRODUCT('Base','Base','',(#8));
#8 = PRODUCT_CONTEXT('',#2,'mechanical');
#9 = PRODUCT_DEFINITION_CONTEXT('part definition',#2,'design');
#10 = ADVANCED_BREP_SHAPE_REPRESENTATION('',(#11,#15),#965);
#11 = AXIS2_PLACEMENT_3D('',#12,#13,#14);
#12 = CARTESIAN_POINT('',(0.,0.,0.));
#13 = DIRECTION('',(0.,0.,1.));
#14 = DIRECTION('',(1.,0.,-0.));
#15 = MANIFOLD_SOLID_BREP('',#16);
#16 = CLOSED_SHELL('',(#17,#286,#318,#353,#378,#403,#428,#446,#471,#496,
    #521,#546,#571,#596,#621,#646,#671,#696,#721,#746,#771,#796,#821,
    #846,#871,#896));
#17 = ADVANCED_FACE('',(#18,#83,#94,#105,#116,#127,#138,#149,#160,#171,
    #182,#193,#204,#215,#226,#237,#248,#259,#270),#281,.F.);
#18 = FACE_BOUND('',#19,.F.);
#19 = EDGE_LOOP('',(#20,#31,#40,#49,#58,#67,#76));
#20 = ORIENTED_EDGE('',*,*,#21,.F.);
#21 = EDGE_CURVE('',#22,#24,#26,.T.);
#22 = VERTEX_POINT('',#23);
#23 = CARTESIAN_POINT('',(28.19871073051,-85.46831408853,0.));
#24 = VERTEX_POINT('',#25);
#25 = CARTESIAN_POINT('',(-28.19871073051,-85.46831408853,0.));
#26 = CIRCLE('',#27,35.5);
#27 = AXIS2_PLACEMENT_3D('',#28,#29,#30);
#28 = CARTESIAN_POINT('',(0.,-107.034090521,0.));
#29 = DIRECTION('',(0.,0.,1.));
#30 = DIRECTION('',(1.,0.,0.));
#31 = ORIENTED_EDGE('',*,*,#32,.T.);
#32 = EDGE_CURVE('',#22,#33,#35,.T.);
#33 = VERTEX_POINT('',#34);
#34 = CARTESIAN_POINT('',(90.,0.,0.));
#35 = CIRCLE('',#36,90.);
#36 = AXIS2_PLACEMENT_3D('',#37,#38,#39);
#37 = CARTESIAN_POINT('',(0.,0.,0.));
#38 = DIRECTION('',(0.,0.,1.));
#39 = DIRECTION('',(1.,0.,0.));
#40 = ORIENTED_EDGE('',*,*,#41,.T.);
#41 = EDGE_CURVE('',#33,#42,#44,.T.);
#42 = VERTEX_POINT('',#43);
#43 = CARTESIAN_POINT('',(88.117086584556,18.313357197679,0.));
#44 = CIRCLE('',#45,90.);
#45 = AXIS2_PLACEMENT_3D('',#46,#47,#48);
#46 = CARTESIAN_POINT('',(0.,0.,0.));
#47 = DIRECTION('',(0.,0.,1.));
#48 = DIRECTION('',(1.,0.,0.));
#49 = ORIENTED_EDGE('',*,*,#50,.F.);
#50 = EDGE_CURVE('',#51,#42,#53,.T.);
#51 = VERTEX_POINT('',#52);
#52 = CARTESIAN_POINT('',(59.918375854047,67.154956890859,0.));
#53 = CIRCLE('',#54,35.5);
#54 = AXIS2_PLACEMENT_3D('',#55,#56,#57);
#55 = CARTESIAN_POINT('',(92.694241462192,53.517045260525,0.));
#56 = DIRECTION('',(0.,0.,1.));
#57 = DIRECTION('',(-0.5,0.866025403784,0.));
#58 = ORIENTED_EDGE('',*,*,#59,.T.);
#59 = EDGE_CURVE('',#51,#60,#62,.T.);
#60 = VERTEX_POINT('',#61);
#61 = CARTESIAN_POINT('',(-59.91837585404,67.154956890859,0.));
#62 = CIRCLE('',#63,90.);
#63 = AXIS2_PLACEMENT_3D('',#64,#65,#66);
#64 = CARTESIAN_POINT('',(0.,0.,0.));
#65 = DIRECTION('',(0.,0.,1.));
#66 = DIRECTION('',(1.,0.,0.));
#67 = ORIENTED_EDGE('',*,*,#68,.F.);
#68 = EDGE_CURVE('',#69,#60,#71,.T.);
#69 = VERTEX_POINT('',#70);
#70 = CARTESIAN_POINT('',(-88.11708658455,18.313357197679,0.));
#71 = CIRCLE('',#72,35.5);
#72 = AXIS2_PLACEMENT_3D('',#73,#74,#75);
#73 = CARTESIAN_POINT('',(-92.69424146219,53.517045260525,0.));
#74 = DIRECTION('',(0.,0.,1.));
#75 = DIRECTION('',(-0.5,-0.866025403784,0.));
#76 = ORIENTED_EDGE('',*,*,#77,.T.);
#77 = EDGE_CURVE('',#69,#24,#78,.T.);
#78 = CIRCLE('',#79,90.);
#79 = AXIS2_PLACEMENT_3D('',#80,#81,#82);
#80 = CARTESIAN_POINT('',(0.,0.,0.));
#81 = DIRECTION('',(0.,0.,1.));
#82 = DIRECTION('',(1.,0.,0.));
#83 = FACE_BOUND('',#84,.F.);
#84 = EDGE_LOOP('',(#85));
#85 = ORIENTED_EDGE('',*,*,#86,.T.);
#86 = EDGE_CURVE('',#87,#87,#89,.T.);
#87 = VERTEX_POINT('',#88);
#88 = CARTESIAN_POINT('',(-28.3,-70.,0.));
#89 = CIRCLE('',#90,1.7);
#90 = AXIS2_PLACEMENT_3D('',#91,#92,#93);
#91 = CARTESIAN_POINT('',(-30.,-70.,0.));
#92 = DIRECTION('',(0.,0.,-1.));
#93 = DIRECTION('',(1.,0.,0.));
#94 = FACE_BOUND('',#95,.F.);
#95 = EDGE_LOOP('',(#96));
#96 = ORIENTED_EDGE('',*,*,#97,.T.);
#97 = EDGE_CURVE('',#98,#98,#100,.T.);
#98 = VERTEX_POINT('',#99);
#99 = CARTESIAN_POINT('',(-27.3,-43.5,0.));
#100 = CIRCLE('',#101,1.7);
#101 = AXIS2_PLACEMENT_3D('',#102,#103,#104);
#102 = CARTESIAN_POINT('',(-29.,-43.5,0.));
#103 = DIRECTION('',(0.,0.,-1.));
#104 = DIRECTION('',(1.,0.,0.));
#105 = FACE_BOUND('',#106,.F.);
#106 = EDGE_LOOP('',(#107));
#107 = ORIENTED_EDGE('',*,*,#108,.T.);
#108 = EDGE_CURVE('',#109,#109,#111,.T.);
#109 = VERTEX_POINT('',#110);
#110 = CARTESIAN_POINT('',(-20.3,-43.5,0.));
#111 = CIRCLE('',#112,1.7);
#112 = AXIS2_PLACEMENT_3D('',#113,#114,#115);
#113 = CARTESIAN_POINT('',(-22.,-43.5,0.));
#114 = DIRECTION('',(0.,0.,-1.));
#115 = DIRECTION('',(1.,0.,0.));
#116 = FACE_BOUND('',#117,.F.);
#117 = EDGE_LOOP('',(#118));
#118 = ORIENTED_EDGE('',*,*,#119,.T.);
#119 = EDGE_CURVE('',#120,#120,#122,.T.);
#120 = VERTEX_POINT('',#121);
#121 = CARTESIAN_POINT('',(31.7,-70.,0.));
#122 = CIRCLE('',#123,1.7);
#123 = AXIS2_PLACEMENT_3D('',#124,#125,#126);
#124 = CARTESIAN_POINT('',(30.,-70.,0.));
#125 = DIRECTION('',(0.,0.,-1.));
#126 = DIRECTION('',(1.,0.,0.));
#127 = FACE_BOUND('',#128,.F.);
#128 = EDGE_LOOP('',(#129));
#129 = ORIENTED_EDGE('',*,*,#130,.T.);
#130 = EDGE_CURVE('',#131,#131,#133,.T.);
#131 = VERTEX_POINT('',#132);
#132 = CARTESIAN_POINT('',(23.7,-43.5,0.));
#133 = CIRCLE('',#134,1.7);
#134 = AXIS2_PLACEMENT_3D('',#135,#136,#137);
#135 = CARTESIAN_POINT('',(22.,-43.5,0.));
#136 = DIRECTION('',(0.,0.,-1.));
#137 = DIRECTION('',(1.,0.,0.));
#138 = FACE_BOUND('',#139,.F.);
#139 = EDGE_LOOP('',(#140));
#140 = ORIENTED_EDGE('',*,*,#141,.T.);
#141 = EDGE_CURVE('',#142,#142,#144,.T.);
#142 = VERTEX_POINT('',#143);
#143 = CARTESIAN_POINT('',(30.7,-43.5,0.));
#144 = CIRCLE('',#145,1.7);
#145 = AXIS2_PLACEMENT_3D('',#146,#147,#148);
#146 = CARTESIAN_POINT('',(29.,-43.5,0.));
#147 = DIRECTION('',(0.,0.,-1.));
#148 = DIRECTION('',(1.,0.,0.));
#149 = FACE_BOUND('',#150,.F.);
#150 = EDGE_LOOP('',(#151));
#151 = ORIENTED_EDGE('',*,*,#152,.T.);
#152 = EDGE_CURVE('',#153,#153,#155,.T.);
#153 = VERTEX_POINT('',#154);
#154 = CARTESIAN_POINT('',(-76.47177826491,7.546994700033,0.));
#155 = CIRCLE('',#156,1.7);
#156 = AXIS2_PLACEMENT_3D('',#157,#158,#159);
#157 = CARTESIAN_POINT('',(-75.62177826491,9.019237886467,0.));
#158 = DIRECTION('',(0.,0.,-1.));
#159 = DIRECTION('',(-0.5,-0.866025403784,-0.));
#160 = FACE_BOUND('',#161,.F.);
#161 = EDGE_LOOP('',(#162));
#162 = ORIENTED_EDGE('',*,*,#163,.T.);
#163 = EDGE_CURVE('',#164,#164,#166,.T.);
#164 = VERTEX_POINT('',#165);
#165 = CARTESIAN_POINT('',(-53.02210506462,-4.836979896182,0.));
#166 = CIRCLE('',#167,1.7);
#167 = AXIS2_PLACEMENT_3D('',#168,#169,#170);
#168 = CARTESIAN_POINT('',(-52.17210506462,-3.364736709749,0.));
#169 = DIRECTION('',(0.,0.,-1.));
#170 = DIRECTION('',(-0.5,-0.866025403784,-0.));
#171 = FACE_BOUND('',#172,.F.);
#172 = EDGE_LOOP('',(#173));
#173 = ORIENTED_EDGE('',*,*,#174,.T.);
#174 = EDGE_CURVE('',#175,#175,#177,.T.);
#175 = VERTEX_POINT('',#176);
#176 = CARTESIAN_POINT('',(-49.52210506462,1.225197930309,0.));
#177 = CIRCLE('',#178,1.7);
#178 = AXIS2_PLACEMENT_3D('',#179,#180,#181);
#179 = CARTESIAN_POINT('',(-48.67210506462,2.697441116742,0.));
#180 = DIRECTION('',(0.,0.,-1.));
#181 = DIRECTION('',(-0.5,-0.866025403784,-0.));
#182 = FACE_BOUND('',#183,.F.);
#183 = EDGE_LOOP('',(#184));
#184 = ORIENTED_EDGE('',*,*,#185,.T.);
#185 = EDGE_CURVE('',#186,#186,#188,.T.);
#186 = VERTEX_POINT('',#187);
#187 = CARTESIAN_POINT('',(-46.47177826491,59.5085189271,0.));
#188 = CIRCLE('',#189,1.7);
#189 = AXIS2_PLACEMENT_3D('',#190,#191,#192);
#190 = CARTESIAN_POINT('',(-45.62177826491,60.980762113533,0.));
#191 = DIRECTION('',(0.,0.,-1.));
#192 = DIRECTION('',(-0.5,-0.866025403784,-0.));
#193 = FACE_BOUND('',#194,.F.);
#194 = EDGE_LOOP('',(#195));
#195 = ORIENTED_EDGE('',*,*,#196,.T.);
#196 = EDGE_CURVE('',#197,#197,#199,.T.);
#197 = VERTEX_POINT('',#198);
#198 = CARTESIAN_POINT('',(-27.52210506462,39.330315696824,0.));
#199 = CIRCLE('',#200,1.7);
#200 = AXIS2_PLACEMENT_3D('',#201,#202,#203);
#201 = CARTESIAN_POINT('',(-26.67210506462,40.802558883258,0.));
#202 = DIRECTION('',(0.,0.,-1.));
#203 = DIRECTION('',(-0.5,-0.866025403784,-0.));
#204 = FACE_BOUND('',#205,.F.);
#205 = EDGE_LOOP('',(#206));
#206 = ORIENTED_EDGE('',*,*,#207,.T.);
#207 = EDGE_CURVE('',#208,#208,#210,.T.);
#208 = VERTEX_POINT('',#209);
#209 = CARTESIAN_POINT('',(-24.02210506462,45.392493523315,0.));
#210 = CIRCLE('',#211,1.7);
#211 = AXIS2_PLACEMENT_3D('',#212,#213,#214);
#212 = CARTESIAN_POINT('',(-23.17210506462,46.864736709749,0.));
#213 = DIRECTION('',(0.,0.,-1.));
#214 = DIRECTION('',(-0.5,-0.866025403784,-0.));
#215 = FACE_BOUND('',#216,.F.);
#216 = EDGE_LOOP('',(#217));
#217 = ORIENTED_EDGE('',*,*,#218,.T.);
#218 = EDGE_CURVE('',#219,#219,#221,.T.);
#219 = VERTEX_POINT('',#220);
#220 = CARTESIAN_POINT('',(51.322105064623,-1.892493523315,0.));
#221 = CIRCLE('',#222,1.7);
#222 = AXIS2_PLACEMENT_3D('',#223,#224,#225);
#223 = CARTESIAN_POINT('',(52.172105064623,-3.364736709749,0.));
#224 = DIRECTION('',(0.,0.,-1.));
#225 = DIRECTION('',(-0.5,0.866025403784,0.));
#226 = FACE_BOUND('',#227,.F.);
#227 = EDGE_LOOP('',(#228));
#228 = ORIENTED_EDGE('',*,*,#229,.T.);
#229 = EDGE_CURVE('',#230,#230,#232,.T.);
#230 = VERTEX_POINT('',#231);
#231 = CARTESIAN_POINT('',(47.822105064623,4.169684303176,0.));
#232 = CIRCLE('',#233,1.7);
#233 = AXIS2_PLACEMENT_3D('',#234,#235,#236);
#234 = CARTESIAN_POINT('',(48.672105064623,2.697441116742,0.));
#235 = DIRECTION('',(0.,0.,-1.));
#236 = DIRECTION('',(-0.5,0.866025403784,0.));
#237 = FACE_BOUND('',#238,.F.);
#238 = EDGE_LOOP('',(#239));
#239 = ORIENTED_EDGE('',*,*,#240,.T.);
#240 = EDGE_CURVE('',#241,#241,#243,.T.);
#241 = VERTEX_POINT('',#242);
#242 = CARTESIAN_POINT('',(74.771778264911,10.4914810729,0.));
#243 = CIRCLE('',#244,1.7);
#244 = AXIS2_PLACEMENT_3D('',#245,#246,#247);
#245 = CARTESIAN_POINT('',(75.621778264911,9.019237886467,0.));
#246 = DIRECTION('',(0.,0.,-1.));
#247 = DIRECTION('',(-0.5,0.866025403784,0.));
#248 = FACE_BOUND('',#249,.F.);
#249 = EDGE_LOOP('',(#250));
#250 = ORIENTED_EDGE('',*,*,#251,.T.);
#251 = EDGE_CURVE('',#252,#252,#254,.T.);
#252 = VERTEX_POINT('',#253);
#253 = CARTESIAN_POINT('',(25.822105064623,42.274802069691,0.));
#254 = CIRCLE('',#255,1.7);
#255 = AXIS2_PLACEMENT_3D('',#256,#257,#258);
#256 = CARTESIAN_POINT('',(26.672105064623,40.802558883258,0.));
#257 = DIRECTION('',(0.,0.,-1.));
#258 = DIRECTION('',(-0.5,0.866025403784,0.));
#259 = FACE_BOUND('',#260,.F.);
#260 = EDGE_LOOP('',(#261));
#261 = ORIENTED_EDGE('',*,*,#262,.T.);
#262 = EDGE_CURVE('',#263,#263,#265,.T.);
#263 = VERTEX_POINT('',#264);
#264 = CARTESIAN_POINT('',(22.322105064623,48.336979896182,0.));
#265 = CIRCLE('',#266,1.7);
#266 = AXIS2_PLACEMENT_3D('',#267,#268,#269);
#267 = CARTESIAN_POINT('',(23.172105064623,46.864736709749,0.));
#268 = DIRECTION('',(0.,0.,-1.));
#269 = DIRECTION('',(-0.5,0.866025403784,0.));
#270 = FACE_BOUND('',#271,.F.);
#271 = EDGE_LOOP('',(#272));
#272 = ORIENTED_EDGE('',*,*,#273,.T.);
#273 = EDGE_CURVE('',#274,#274,#276,.T.);
#274 = VERTEX_POINT('',#275);
#275 = CARTESIAN_POINT('',(44.771778264911,62.453005299967,0.));
#276 = CIRCLE('',#277,1.7);
#277 = AXIS2_PLACEMENT_3D('',#278,#279,#280);
#278 = CARTESIAN_POINT('',(45.621778264911,60.980762113533,0.));
#279 = DIRECTION('',(0.,0.,-1.));
#280 = DIRECTION('',(-0.5,0.866025403784,0.));
#281 = PLANE('',#282);
#282 = AXIS2_PLACEMENT_3D('',#283,#284,#285);
#283 = CARTESIAN_POINT('',(-3.889607488112E-15,2.156670906701E-16,0.));
#284 = DIRECTION('',(0.,0.,1.));
#285 = DIRECTION('',(1.,0.,0.));
#286 = ADVANCED_FACE('',(#287),#313,.F.);
#287 = FACE_BOUND('',#288,.F.);
#288 = EDGE_LOOP('',(#289,#300,#306,#307));
#289 = ORIENTED_EDGE('',*,*,#290,.F.);
#290 = EDGE_CURVE('',#291,#293,#295,.T.);
#291 = VERTEX_POINT('',#292);
#292 = CARTESIAN_POINT('',(28.198710730508,-85.46831408853,3.5));
#293 = VERTEX_POINT('',#294);
#294 = CARTESIAN_POINT('',(-28.1987107305,-85.46831408853,3.5));
#295 = CIRCLE('',#296,35.5);
#296 = AXIS2_PLACEMENT_3D('',#297,#298,#299);
#297 = CARTESIAN_POINT('',(0.,-107.034090521,3.5));
#298 = DIRECTION('',(0.,0.,1.));
#299 = DIRECTION('',(1.,0.,0.));
#300 = ORIENTED_EDGE('',*,*,#301,.T.);
#301 = EDGE_CURVE('',#291,#22,#302,.T.);
#302 = LINE('',#303,#304);
#303 = CARTESIAN_POINT('',(28.19871073051,-85.46831408853,0.));
#304 = VECTOR('',#305,1.);
#305 = DIRECTION('',(-0.,-0.,-1.));
#306 = ORIENTED_EDGE('',*,*,#21,.T.);
#307 = ORIENTED_EDGE('',*,*,#308,.F.);
#308 = EDGE_CURVE('',#293,#24,#309,.T.);
#309 = LINE('',#310,#311);
#310 = CARTESIAN_POINT('',(-28.19871073051,-85.46831408853,0.));
#311 = VECTOR('',#312,1.);
#312 = DIRECTION('',(-0.,-0.,-1.));
#313 = CYLINDRICAL_SURFACE('',#314,35.5);
#314 = AXIS2_PLACEMENT_3D('',#315,#316,#317);
#315 = CARTESIAN_POINT('',(0.,-107.034090521,3.5));
#316 = DIRECTION('',(0.,0.,1.));
#317 = DIRECTION('',(1.,0.,0.));
#318 = ADVANCED_FACE('',(#319),#348,.T.);
#319 = FACE_BOUND('',#320,.F.);
#320 = EDGE_LOOP('',(#321,#322,#331,#340,#346,#347));
#321 = ORIENTED_EDGE('',*,*,#301,.F.);
#322 = ORIENTED_EDGE('',*,*,#323,.T.);
#323 = EDGE_CURVE('',#291,#324,#326,.T.);
#324 = VERTEX_POINT('',#325);
#325 = CARTESIAN_POINT('',(90.,0.,3.5));
#326 = CIRCLE('',#327,90.);
#327 = AXIS2_PLACEMENT_3D('',#328,#329,#330);
#328 = CARTESIAN_POINT('',(0.,0.,3.5));
#329 = DIRECTION('',(0.,0.,1.));
#330 = DIRECTION('',(1.,0.,0.));
#331 = ORIENTED_EDGE('',*,*,#332,.T.);
#332 = EDGE_CURVE('',#324,#333,#335,.T.);
#333 = VERTEX_POINT('',#334);
#334 = CARTESIAN_POINT('',(88.117086584557,18.313357197679,3.5));
#335 = CIRCLE('',#336,90.);
#336 = AXIS2_PLACEMENT_3D('',#337,#338,#339);
#337 = CARTESIAN_POINT('',(0.,0.,3.5));
#338 = DIRECTION('',(0.,0.,1.));
#339 = DIRECTION('',(1.,0.,0.));
#340 = ORIENTED_EDGE('',*,*,#341,.T.);
#341 = EDGE_CURVE('',#333,#42,#342,.T.);
#342 = LINE('',#343,#344);
#343 = CARTESIAN_POINT('',(88.117086584556,18.313357197679,0.));
#344 = VECTOR('',#345,1.);
#345 = DIRECTION('',(-0.,-0.,-1.));
#346 = ORIENTED_EDGE('',*,*,#41,.F.);
#347 = ORIENTED_EDGE('',*,*,#32,.F.);
#348 = CYLINDRICAL_SURFACE('',#349,90.);
#349 = AXIS2_PLACEMENT_3D('',#350,#351,#352);
#350 = CARTESIAN_POINT('',(0.,0.,0.));
#351 = DIRECTION('',(-0.,-0.,-1.));
#352 = DIRECTION('',(1.,0.,0.));
#353 = ADVANCED_FACE('',(#354),#373,.T.);
#354 = FACE_BOUND('',#355,.F.);
#355 = EDGE_LOOP('',(#356,#364,#371,#372));
#356 = ORIENTED_EDGE('',*,*,#357,.F.);
#357 = EDGE_CURVE('',#358,#69,#360,.T.);
#358 = VERTEX_POINT('',#359);
#359 = CARTESIAN_POINT('',(-88.11708658455,18.313357197678,3.5));
#360 = LINE('',#361,#362);
#361 = CARTESIAN_POINT('',(-88.11708658455,18.313357197679,0.));
#362 = VECTOR('',#363,1.);
#363 = DIRECTION('',(-0.,-0.,-1.));
#364 = ORIENTED_EDGE('',*,*,#365,.T.);
#365 = EDGE_CURVE('',#358,#293,#366,.T.);
#366 = CIRCLE('',#367,90.);
#367 = AXIS2_PLACEMENT_3D('',#368,#369,#370);
#368 = CARTESIAN_POINT('',(0.,0.,3.5));
#369 = DIRECTION('',(0.,0.,1.));
#370 = DIRECTION('',(1.,0.,0.));
#371 = ORIENTED_EDGE('',*,*,#308,.T.);
#372 = ORIENTED_EDGE('',*,*,#77,.F.);
#373 = CYLINDRICAL_SURFACE('',#374,90.);
#374 = AXIS2_PLACEMENT_3D('',#375,#376,#377);
#375 = CARTESIAN_POINT('',(0.,0.,0.));
#376 = DIRECTION('',(-0.,-0.,-1.));
#377 = DIRECTION('',(1.,0.,0.));
#378 = ADVANCED_FACE('',(#379),#398,.F.);
#379 = FACE_BOUND('',#380,.F.);
#380 = EDGE_LOOP('',(#381,#390,#391,#392));
#381 = ORIENTED_EDGE('',*,*,#382,.F.);
#382 = EDGE_CURVE('',#358,#383,#385,.T.);
#383 = VERTEX_POINT('',#384);
#384 = CARTESIAN_POINT('',(-59.91837585404,67.154956890862,3.5));
#385 = CIRCLE('',#386,35.5);
#386 = AXIS2_PLACEMENT_3D('',#387,#388,#389);
#387 = CARTESIAN_POINT('',(-92.69424146219,53.517045260525,3.5));
#388 = DIRECTION('',(0.,0.,1.));
#389 = DIRECTION('',(-0.5,-0.866025403784,0.));
#390 = ORIENTED_EDGE('',*,*,#357,.T.);
#391 = ORIENTED_EDGE('',*,*,#68,.T.);
#392 = ORIENTED_EDGE('',*,*,#393,.F.);
#393 = EDGE_CURVE('',#383,#60,#394,.T.);
#394 = LINE('',#395,#396);
#395 = CARTESIAN_POINT('',(-59.91837585404,67.154956890859,0.));
#396 = VECTOR('',#397,1.);
#397 = DIRECTION('',(-0.,-0.,-1.));
#398 = CYLINDRICAL_SURFACE('',#399,35.5);
#399 = AXIS2_PLACEMENT_3D('',#400,#401,#402);
#400 = CARTESIAN_POINT('',(-92.69424146219,53.517045260525,3.5));
#401 = DIRECTION('',(0.,0.,1.));
#402 = DIRECTION('',(-0.5,-0.866025403784,0.));
#403 = ADVANCED_FACE('',(#404),#423,.F.);
#404 = FACE_BOUND('',#405,.F.);
#405 = EDGE_LOOP('',(#406,#415,#421,#422));
#406 = ORIENTED_EDGE('',*,*,#407,.F.);
#407 = EDGE_CURVE('',#408,#333,#410,.T.);
#408 = VERTEX_POINT('',#409);
#409 = CARTESIAN_POINT('',(59.918375854046,67.154956890861,3.5));
#410 = CIRCLE('',#411,35.5);
#411 = AXIS2_PLACEMENT_3D('',#412,#413,#414);
#412 = CARTESIAN_POINT('',(92.694241462192,53.517045260525,3.5));
#413 = DIRECTION('',(0.,0.,1.));
#414 = DIRECTION('',(-0.5,0.866025403784,0.));
#415 = ORIENTED_EDGE('',*,*,#416,.T.);
#416 = EDGE_CURVE('',#408,#51,#417,.T.);
#417 = LINE('',#418,#419);
#418 = CARTESIAN_POINT('',(59.918375854047,67.154956890859,0.));
#419 = VECTOR('',#420,1.);
#420 = DIRECTION('',(-0.,-0.,-1.));
#421 = ORIENTED_EDGE('',*,*,#50,.T.);
#422 = ORIENTED_EDGE('',*,*,#341,.F.);
#423 = CYLINDRICAL_SURFACE('',#424,35.5);
#424 = AXIS2_PLACEMENT_3D('',#425,#426,#427);
#425 = CARTESIAN_POINT('',(92.694241462192,53.517045260525,3.5));
#426 = DIRECTION('',(0.,0.,1.));
#427 = DIRECTION('',(-0.5,0.866025403784,0.));
#428 = ADVANCED_FACE('',(#429),#441,.T.);
#429 = FACE_BOUND('',#430,.F.);
#430 = EDGE_LOOP('',(#431,#432,#439,#440));
#431 = ORIENTED_EDGE('',*,*,#416,.F.);
#432 = ORIENTED_EDGE('',*,*,#433,.T.);
#433 = EDGE_CURVE('',#408,#383,#434,.T.);
#434 = CIRCLE('',#435,90.);
#435 = AXIS2_PLACEMENT_3D('',#436,#437,#438);
#436 = CARTESIAN_POINT('',(0.,0.,3.5));
#437 = DIRECTION('',(0.,0.,1.));
#438 = DIRECTION('',(1.,0.,0.));
#439 = ORIENTED_EDGE('',*,*,#393,.T.);
#440 = ORIENTED_EDGE('',*,*,#59,.F.);
#441 = CYLINDRICAL_SURFACE('',#442,90.);
#442 = AXIS2_PLACEMENT_3D('',#443,#444,#445);
#443 = CARTESIAN_POINT('',(0.,0.,0.));
#444 = DIRECTION('',(-0.,-0.,-1.));
#445 = DIRECTION('',(1.,0.,0.));
#446 = ADVANCED_FACE('',(#447),#466,.F.);
#447 = FACE_BOUND('',#448,.T.);
#448 = EDGE_LOOP('',(#449,#457,#464,#465));
#449 = ORIENTED_EDGE('',*,*,#450,.F.);
#450 = EDGE_CURVE('',#451,#87,#453,.T.);
#451 = VERTEX_POINT('',#452);
#452 = CARTESIAN_POINT('',(-28.3,-70.,3.5));
#453 = LINE('',#454,#455);
#454 = CARTESIAN_POINT('',(-28.3,-70.,3.5));
#455 = VECTOR('',#456,1.);
#456 = DIRECTION('',(-4.440892098501E-17,0.,-1.));
#457 = ORIENTED_EDGE('',*,*,#458,.T.);
#458 = EDGE_CURVE('',#451,#451,#459,.T.);
#459 = CIRCLE('',#460,1.7);
#460 = AXIS2_PLACEMENT_3D('',#461,#462,#463);
#461 = CARTESIAN_POINT('',(-30.,-70.,3.5));
#462 = DIRECTION('',(0.,0.,1.));
#463 = DIRECTION('',(1.,0.,0.));
#464 = ORIENTED_EDGE('',*,*,#450,.T.);
#465 = ORIENTED_EDGE('',*,*,#86,.T.);
#466 = CYLINDRICAL_SURFACE('',#467,1.7);
#467 = AXIS2_PLACEMENT_3D('',#468,#469,#470);
#468 = CARTESIAN_POINT('',(-30.,-70.,3.5));
#469 = DIRECTION('',(-0.,-0.,-1.));
#470 = DIRECTION('',(1.,0.,0.));
#471 = ADVANCED_FACE('',(#472),#491,.F.);
#472 = FACE_BOUND('',#473,.T.);
#473 = EDGE_LOOP('',(#474,#482,#489,#490));
#474 = ORIENTED_EDGE('',*,*,#475,.F.);
#475 = EDGE_CURVE('',#476,#98,#478,.T.);
#476 = VERTEX_POINT('',#477);
#477 = CARTESIAN_POINT('',(-27.3,-43.5,3.5));
#478 = LINE('',#479,#480);
#479 = CARTESIAN_POINT('',(-27.3,-43.5,3.5));
#480 = VECTOR('',#481,1.);
#481 = DIRECTION('',(-4.440892098501E-17,0.,-1.));
#482 = ORIENTED_EDGE('',*,*,#483,.T.);
#483 = EDGE_CURVE('',#476,#476,#484,.T.);
#484 = CIRCLE('',#485,1.7);
#485 = AXIS2_PLACEMENT_3D('',#486,#487,#488);
#486 = CARTESIAN_POINT('',(-29.,-43.5,3.5));
#487 = DIRECTION('',(0.,0.,1.));
#488 = DIRECTION('',(1.,0.,0.));
#489 = ORIENTED_EDGE('',*,*,#475,.T.);
#490 = ORIENTED_EDGE('',*,*,#97,.T.);
#491 = CYLINDRICAL_SURFACE('',#492,1.7);
#492 = AXIS2_PLACEMENT_3D('',#493,#494,#495);
#493 = CARTESIAN_POINT('',(-29.,-43.5,3.5));
#494 = DIRECTION('',(-0.,-0.,-1.));
#495 = DIRECTION('',(1.,0.,0.));
#496 = ADVANCED_FACE('',(#497),#516,.F.);
#497 = FACE_BOUND('',#498,.T.);
#498 = EDGE_LOOP('',(#499,#507,#514,#515));
#499 = ORIENTED_EDGE('',*,*,#500,.F.);
#500 = EDGE_CURVE('',#501,#109,#503,.T.);
#501 = VERTEX_POINT('',#502);
#502 = CARTESIAN_POINT('',(-20.3,-43.5,3.5));
#503 = LINE('',#504,#505);
#504 = CARTESIAN_POINT('',(-20.3,-43.5,3.5));
#505 = VECTOR('',#506,1.);
#506 = DIRECTION('',(-4.440892098501E-17,0.,-1.));
#507 = ORIENTED_EDGE('',*,*,#508,.T.);
#508 = EDGE_CURVE('',#501,#501,#509,.T.);
#509 = CIRCLE('',#510,1.7);
#510 = AXIS2_PLACEMENT_3D('',#511,#512,#513);
#511 = CARTESIAN_POINT('',(-22.,-43.5,3.5));
#512 = DIRECTION('',(0.,0.,1.));
#513 = DIRECTION('',(1.,0.,0.));
#514 = ORIENTED_EDGE('',*,*,#500,.T.);
#515 = ORIENTED_EDGE('',*,*,#108,.T.);
#516 = CYLINDRICAL_SURFACE('',#517,1.7);
#517 = AXIS2_PLACEMENT_3D('',#518,#519,#520);
#518 = CARTESIAN_POINT('',(-22.,-43.5,3.5));
#519 = DIRECTION('',(-0.,-0.,-1.));
#520 = DIRECTION('',(1.,0.,0.));
#521 = ADVANCED_FACE('',(#522),#541,.F.);
#522 = FACE_BOUND('',#523,.T.);
#523 = EDGE_LOOP('',(#524,#532,#539,#540));
#524 = ORIENTED_EDGE('',*,*,#525,.F.);
#525 = EDGE_CURVE('',#526,#120,#528,.T.);
#526 = VERTEX_POINT('',#527);
#527 = CARTESIAN_POINT('',(31.7,-70.,3.5));
#528 = LINE('',#529,#530);
#529 = CARTESIAN_POINT('',(31.7,-70.,3.5));
#530 = VECTOR('',#531,1.);
#531 = DIRECTION('',(-4.440892098501E-17,0.,-1.));
#532 = ORIENTED_EDGE('',*,*,#533,.T.);
#533 = EDGE_CURVE('',#526,#526,#534,.T.);
#534 = CIRCLE('',#535,1.7);
#535 = AXIS2_PLACEMENT_3D('',#536,#537,#538);
#536 = CARTESIAN_POINT('',(30.,-70.,3.5));
#537 = DIRECTION('',(0.,0.,1.));
#538 = DIRECTION('',(1.,0.,0.));
#539 = ORIENTED_EDGE('',*,*,#525,.T.);
#540 = ORIENTED_EDGE('',*,*,#119,.T.);
#541 = CYLINDRICAL_SURFACE('',#542,1.7);
#542 = AXIS2_PLACEMENT_3D('',#543,#544,#545);
#543 = CARTESIAN_POINT('',(30.,-70.,3.5));
#544 = DIRECTION('',(-0.,-0.,-1.));
#545 = DIRECTION('',(1.,0.,0.));
#546 = ADVANCED_FACE('',(#547),#566,.F.);
#547 = FACE_BOUND('',#548,.T.);
#548 = EDGE_LOOP('',(#549,#557,#564,#565));
#549 = ORIENTED_EDGE('',*,*,#550,.F.);
#550 = EDGE_CURVE('',#551,#131,#553,.T.);
#551 = VERTEX_POINT('',#552);
#552 = CARTESIAN_POINT('',(23.7,-43.5,3.5));
#553 = LINE('',#554,#555);
#554 = CARTESIAN_POINT('',(23.7,-43.5,3.5));
#555 = VECTOR('',#556,1.);
#556 = DIRECTION('',(-4.440892098501E-17,0.,-1.));
#557 = ORIENTED_EDGE('',*,*,#558,.T.);
#558 = EDGE_CURVE('',#551,#551,#559,.T.);
#559 = CIRCLE('',#560,1.7);
#560 = AXIS2_PLACEMENT_3D('',#561,#562,#563);
#561 = CARTESIAN_POINT('',(22.,-43.5,3.5));
#562 = DIRECTION('',(0.,0.,1.));
#563 = DIRECTION('',(1.,0.,0.));
#564 = ORIENTED_EDGE('',*,*,#550,.T.);
#565 = ORIENTED_EDGE('',*,*,#130,.T.);
#566 = CYLINDRICAL_SURFACE('',#567,1.7);
#567 = AXIS2_PLACEMENT_3D('',#568,#569,#570);
#568 = CARTESIAN_POINT('',(22.,-43.5,3.5));
#569 = DIRECTION('',(-0.,-0.,-1.));
#570 = DIRECTION('',(1.,0.,0.));
#571 = ADVANCED_FACE('',(#572),#591,.F.);
#572 = FACE_BOUND('',#573,.T.);
#573 = EDGE_LOOP('',(#574,#582,#589,#590));
#574 = ORIENTED_EDGE('',*,*,#575,.F.);
#575 = EDGE_CURVE('',#576,#142,#578,.T.);
#576 = VERTEX_POINT('',#577);
#577 = CARTESIAN_POINT('',(30.7,-43.5,3.5));
#578 = LINE('',#579,#580);
#579 = CARTESIAN_POINT('',(30.7,-43.5,3.5));
#580 = VECTOR('',#581,1.);
#581 = DIRECTION('',(-4.440892098501E-17,0.,-1.));
#582 = ORIENTED_EDGE('',*,*,#583,.T.);
#583 = EDGE_CURVE('',#576,#576,#584,.T.);
#584 = CIRCLE('',#585,1.7);
#585 = AXIS2_PLACEMENT_3D('',#586,#587,#588);
#586 = CARTESIAN_POINT('',(29.,-43.5,3.5));
#587 = DIRECTION('',(0.,0.,1.));
#588 = DIRECTION('',(1.,0.,0.));
#589 = ORIENTED_EDGE('',*,*,#575,.T.);
#590 = ORIENTED_EDGE('',*,*,#141,.T.);
#591 = CYLINDRICAL_SURFACE('',#592,1.7);
#592 = AXIS2_PLACEMENT_3D('',#593,#594,#595);
#593 = CARTESIAN_POINT('',(29.,-43.5,3.5));
#594 = DIRECTION('',(-0.,-0.,-1.));
#595 = DIRECTION('',(1.,0.,0.));
#596 = ADVANCED_FACE('',(#597),#616,.F.);
#597 = FACE_BOUND('',#598,.T.);
#598 = EDGE_LOOP('',(#599,#607,#614,#615));
#599 = ORIENTED_EDGE('',*,*,#600,.F.);
#600 = EDGE_CURVE('',#601,#153,#603,.T.);
#601 = VERTEX_POINT('',#602);
#602 = CARTESIAN_POINT('',(-76.47177826491,7.546994700033,3.5));
#603 = LINE('',#604,#605);
#604 = CARTESIAN_POINT('',(-76.47177826491,7.546994700033,3.5));
#605 = VECTOR('',#606,1.);
#606 = DIRECTION('',(2.22044604925E-17,3.845925372767E-17,-1.));
#607 = ORIENTED_EDGE('',*,*,#608,.T.);
#608 = EDGE_CURVE('',#601,#601,#609,.T.);
#609 = CIRCLE('',#610,1.7);
#610 = AXIS2_PLACEMENT_3D('',#611,#612,#613);
#611 = CARTESIAN_POINT('',(-75.62177826491,9.019237886467,3.5));
#612 = DIRECTION('',(0.,0.,1.));
#613 = DIRECTION('',(-0.5,-0.866025403784,0.));
#614 = ORIENTED_EDGE('',*,*,#600,.T.);
#615 = ORIENTED_EDGE('',*,*,#152,.T.);
#616 = CYLINDRICAL_SURFACE('',#617,1.7);
#617 = AXIS2_PLACEMENT_3D('',#618,#619,#620);
#618 = CARTESIAN_POINT('',(-75.62177826491,9.019237886467,3.5));
#619 = DIRECTION('',(0.,0.,-1.));
#620 = DIRECTION('',(-0.5,-0.866025403784,0.));
#621 = ADVANCED_FACE('',(#622),#641,.F.);
#622 = FACE_BOUND('',#623,.T.);
#623 = EDGE_LOOP('',(#624,#632,#639,#640));
#624 = ORIENTED_EDGE('',*,*,#625,.F.);
#625 = EDGE_CURVE('',#626,#164,#628,.T.);
#626 = VERTEX_POINT('',#627);
#627 = CARTESIAN_POINT('',(-53.02210506462,-4.836979896182,3.5));
#628 = LINE('',#629,#630);
#629 = CARTESIAN_POINT('',(-53.02210506462,-4.836979896182,3.5));
#630 = VECTOR('',#631,1.);
#631 = DIRECTION('',(2.22044604925E-17,3.845925372767E-17,-1.));
#632 = ORIENTED_EDGE('',*,*,#633,.T.);
#633 = EDGE_CURVE('',#626,#626,#634,.T.);
#634 = CIRCLE('',#635,1.7);
#635 = AXIS2_PLACEMENT_3D('',#636,#637,#638);
#636 = CARTESIAN_POINT('',(-52.17210506462,-3.364736709749,3.5));
#637 = DIRECTION('',(0.,0.,1.));
#638 = DIRECTION('',(-0.5,-0.866025403784,0.));
#639 = ORIENTED_EDGE('',*,*,#625,.T.);
#640 = ORIENTED_EDGE('',*,*,#163,.T.);
#641 = CYLINDRICAL_SURFACE('',#642,1.7);
#642 = AXIS2_PLACEMENT_3D('',#643,#644,#645);
#643 = CARTESIAN_POINT('',(-52.17210506462,-3.364736709749,3.5));
#644 = DIRECTION('',(0.,0.,-1.));
#645 = DIRECTION('',(-0.5,-0.866025403784,0.));
#646 = ADVANCED_FACE('',(#647),#666,.F.);
#647 = FACE_BOUND('',#648,.T.);
#648 = EDGE_LOOP('',(#649,#657,#664,#665));
#649 = ORIENTED_EDGE('',*,*,#650,.F.);
#650 = EDGE_CURVE('',#651,#175,#653,.T.);
#651 = VERTEX_POINT('',#652);
#652 = CARTESIAN_POINT('',(-49.52210506462,1.225197930309,3.5));
#653 = LINE('',#654,#655);
#654 = CARTESIAN_POINT('',(-49.52210506462,1.225197930309,3.5));
#655 = VECTOR('',#656,1.);
#656 = DIRECTION('',(2.22044604925E-17,3.845925372767E-17,-1.));
#657 = ORIENTED_EDGE('',*,*,#658,.T.);
#658 = EDGE_CURVE('',#651,#651,#659,.T.);
#659 = CIRCLE('',#660,1.7);
#660 = AXIS2_PLACEMENT_3D('',#661,#662,#663);
#661 = CARTESIAN_POINT('',(-48.67210506462,2.697441116742,3.5));
#662 = DIRECTION('',(0.,0.,1.));
#663 = DIRECTION('',(-0.5,-0.866025403784,0.));
#664 = ORIENTED_EDGE('',*,*,#650,.T.);
#665 = ORIENTED_EDGE('',*,*,#174,.T.);
#666 = CYLINDRICAL_SURFACE('',#667,1.7);
#667 = AXIS2_PLACEMENT_3D('',#668,#669,#670);
#668 = CARTESIAN_POINT('',(-48.67210506462,2.697441116742,3.5));
#669 = DIRECTION('',(0.,0.,-1.));
#670 = DIRECTION('',(-0.5,-0.866025403784,0.));
#671 = ADVANCED_FACE('',(#672),#691,.F.);
#672 = FACE_BOUND('',#673,.T.);
#673 = EDGE_LOOP('',(#674,#682,#689,#690));
#674 = ORIENTED_EDGE('',*,*,#675,.F.);
#675 = EDGE_CURVE('',#676,#186,#678,.T.);
#676 = VERTEX_POINT('',#677);
#677 = CARTESIAN_POINT('',(-46.47177826491,59.5085189271,3.5));
#678 = LINE('',#679,#680);
#679 = CARTESIAN_POINT('',(-46.47177826491,59.5085189271,3.5));
#680 = VECTOR('',#681,1.);
#681 = DIRECTION('',(2.22044604925E-17,3.845925372767E-17,-1.));
#682 = ORIENTED_EDGE('',*,*,#683,.T.);
#683 = EDGE_CURVE('',#676,#676,#684,.T.);
#684 = CIRCLE('',#685,1.7);
#685 = AXIS2_PLACEMENT_3D('',#686,#687,#688);
#686 = CARTESIAN_POINT('',(-45.62177826491,60.980762113533,3.5));
#687 = DIRECTION('',(0.,0.,1.));
#688 = DIRECTION('',(-0.5,-0.866025403784,0.));
#689 = ORIENTED_EDGE('',*,*,#675,.T.);
#690 = ORIENTED_EDGE('',*,*,#185,.T.);
#691 = CYLINDRICAL_SURFACE('',#692,1.7);
#692 = AXIS2_PLACEMENT_3D('',#693,#694,#695);
#693 = CARTESIAN_POINT('',(-45.62177826491,60.980762113533,3.5));
#694 = DIRECTION('',(0.,0.,-1.));
#695 = DIRECTION('',(-0.5,-0.866025403784,0.));
#696 = ADVANCED_FACE('',(#697),#716,.F.);
#697 = FACE_BOUND('',#698,.T.);
#698 = EDGE_LOOP('',(#699,#707,#714,#715));
#699 = ORIENTED_EDGE('',*,*,#700,.F.);
#700 = EDGE_CURVE('',#701,#197,#703,.T.);
#701 = VERTEX_POINT('',#702);
#702 = CARTESIAN_POINT('',(-27.52210506462,39.330315696824,3.5));
#703 = LINE('',#704,#705);
#704 = CARTESIAN_POINT('',(-27.52210506462,39.330315696824,3.5));
#705 = VECTOR('',#706,1.);
#706 = DIRECTION('',(2.22044604925E-17,3.845925372767E-17,-1.));
#707 = ORIENTED_EDGE('',*,*,#708,.T.);
#708 = EDGE_CURVE('',#701,#701,#709,.T.);
#709 = CIRCLE('',#710,1.7);
#710 = AXIS2_PLACEMENT_3D('',#711,#712,#713);
#711 = CARTESIAN_POINT('',(-26.67210506462,40.802558883258,3.5));
#712 = DIRECTION('',(0.,0.,1.));
#713 = DIRECTION('',(-0.5,-0.866025403784,0.));
#714 = ORIENTED_EDGE('',*,*,#700,.T.);
#715 = ORIENTED_EDGE('',*,*,#196,.T.);
#716 = CYLINDRICAL_SURFACE('',#717,1.7);
#717 = AXIS2_PLACEMENT_3D('',#718,#719,#720);
#718 = CARTESIAN_POINT('',(-26.67210506462,40.802558883258,3.5));
#719 = DIRECTION('',(0.,0.,-1.));
#720 = DIRECTION('',(-0.5,-0.866025403784,0.));
#721 = ADVANCED_FACE('',(#722),#741,.F.);
#722 = FACE_BOUND('',#723,.T.);
#723 = EDGE_LOOP('',(#724,#732,#739,#740));
#724 = ORIENTED_EDGE('',*,*,#725,.F.);
#725 = EDGE_CURVE('',#726,#208,#728,.T.);
#726 = VERTEX_POINT('',#727);
#727 = CARTESIAN_POINT('',(-24.02210506462,45.392493523315,3.5));
#728 = LINE('',#729,#730);
#729 = CARTESIAN_POINT('',(-24.02210506462,45.392493523315,3.5));
#730 = VECTOR('',#731,1.);
#731 = DIRECTION('',(2.22044604925E-17,3.845925372767E-17,-1.));
#732 = ORIENTED_EDGE('',*,*,#733,.T.);
#733 = EDGE_CURVE('',#726,#726,#734,.T.);
#734 = CIRCLE('',#735,1.7);
#735 = AXIS2_PLACEMENT_3D('',#736,#737,#738);
#736 = CARTESIAN_POINT('',(-23.17210506462,46.864736709749,3.5));
#737 = DIRECTION('',(0.,0.,1.));
#738 = DIRECTION('',(-0.5,-0.866025403784,0.));
#739 = ORIENTED_EDGE('',*,*,#725,.T.);
#740 = ORIENTED_EDGE('',*,*,#207,.T.);
#741 = CYLINDRICAL_SURFACE('',#742,1.7);
#742 = AXIS2_PLACEMENT_3D('',#743,#744,#745);
#743 = CARTESIAN_POINT('',(-23.17210506462,46.864736709749,3.5));
#744 = DIRECTION('',(0.,0.,-1.));
#745 = DIRECTION('',(-0.5,-0.866025403784,0.));
#746 = ADVANCED_FACE('',(#747),#766,.F.);
#747 = FACE_BOUND('',#748,.T.);
#748 = EDGE_LOOP('',(#749,#757,#764,#765));
#749 = ORIENTED_EDGE('',*,*,#750,.F.);
#750 = EDGE_CURVE('',#751,#219,#753,.T.);
#751 = VERTEX_POINT('',#752);
#752 = CARTESIAN_POINT('',(51.322105064623,-1.892493523315,3.5));
#753 = LINE('',#754,#755);
#754 = CARTESIAN_POINT('',(51.322105064623,-1.892493523315,3.5));
#755 = VECTOR('',#756,1.);
#756 = DIRECTION('',(2.22044604925E-17,-3.845925372767E-17,-1.));
#757 = ORIENTED_EDGE('',*,*,#758,.T.);
#758 = EDGE_CURVE('',#751,#751,#759,.T.);
#759 = CIRCLE('',#760,1.7);
#760 = AXIS2_PLACEMENT_3D('',#761,#762,#763);
#761 = CARTESIAN_POINT('',(52.172105064623,-3.364736709749,3.5));
#762 = DIRECTION('',(0.,0.,1.));
#763 = DIRECTION('',(-0.5,0.866025403784,0.));
#764 = ORIENTED_EDGE('',*,*,#750,.T.);
#765 = ORIENTED_EDGE('',*,*,#218,.T.);
#766 = CYLINDRICAL_SURFACE('',#767,1.7);
#767 = AXIS2_PLACEMENT_3D('',#768,#769,#770);
#768 = CARTESIAN_POINT('',(52.172105064623,-3.364736709749,3.5));
#769 = DIRECTION('',(0.,0.,-1.));
#770 = DIRECTION('',(-0.5,0.866025403784,0.));
#771 = ADVANCED_FACE('',(#772),#791,.F.);
#772 = FACE_BOUND('',#773,.T.);
#773 = EDGE_LOOP('',(#774,#782,#789,#790));
#774 = ORIENTED_EDGE('',*,*,#775,.F.);
#775 = EDGE_CURVE('',#776,#230,#778,.T.);
#776 = VERTEX_POINT('',#777);
#777 = CARTESIAN_POINT('',(47.822105064623,4.169684303176,3.5));
#778 = LINE('',#779,#780);
#779 = CARTESIAN_POINT('',(47.822105064623,4.169684303176,3.5));
#780 = VECTOR('',#781,1.);
#781 = DIRECTION('',(2.22044604925E-17,-3.845925372767E-17,-1.));
#782 = ORIENTED_EDGE('',*,*,#783,.T.);
#783 = EDGE_CURVE('',#776,#776,#784,.T.);
#784 = CIRCLE('',#785,1.7);
#785 = AXIS2_PLACEMENT_3D('',#786,#787,#788);
#786 = CARTESIAN_POINT('',(48.672105064623,2.697441116742,3.5));
#787 = DIRECTION('',(0.,0.,1.));
#788 = DIRECTION('',(-0.5,0.866025403784,0.));
#789 = ORIENTED_EDGE('',*,*,#775,.T.);
#790 = ORIENTED_EDGE('',*,*,#229,.T.);
#791 = CYLINDRICAL_SURFACE('',#792,1.7);
#792 = AXIS2_PLACEMENT_3D('',#793,#794,#795);
#793 = CARTESIAN_POINT('',(48.672105064623,2.697441116742,3.5));
#794 = DIRECTION('',(0.,0.,-1.));
#795 = DIRECTION('',(-0.5,0.866025403784,0.));
#796 = ADVANCED_FACE('',(#797),#816,.F.);
#797 = FACE_BOUND('',#798,.T.);
#798 = EDGE_LOOP('',(#799,#807,#814,#815));
#799 = ORIENTED_EDGE('',*,*,#800,.F.);
#800 = EDGE_CURVE('',#801,#241,#803,.T.);
#801 = VERTEX_POINT('',#802);
#802 = CARTESIAN_POINT('',(74.771778264911,10.4914810729,3.5));
#803 = LINE('',#804,#805);
#804 = CARTESIAN_POINT('',(74.771778264911,10.4914810729,3.5));
#805 = VECTOR('',#806,1.);
#806 = DIRECTION('',(2.22044604925E-17,-3.845925372767E-17,-1.));
#807 = ORIENTED_EDGE('',*,*,#808,.T.);
#808 = EDGE_CURVE('',#801,#801,#809,.T.);
#809 = CIRCLE('',#810,1.7);
#810 = AXIS2_PLACEMENT_3D('',#811,#812,#813);
#811 = CARTESIAN_POINT('',(75.621778264911,9.019237886467,3.5));
#812 = DIRECTION('',(0.,0.,1.));
#813 = DIRECTION('',(-0.5,0.866025403784,0.));
#814 = ORIENTED_EDGE('',*,*,#800,.T.);
#815 = ORIENTED_EDGE('',*,*,#240,.T.);
#816 = CYLINDRICAL_SURFACE('',#817,1.7);
#817 = AXIS2_PLACEMENT_3D('',#818,#819,#820);
#818 = CARTESIAN_POINT('',(75.621778264911,9.019237886467,3.5));
#819 = DIRECTION('',(0.,0.,-1.));
#820 = DIRECTION('',(-0.5,0.866025403784,0.));
#821 = ADVANCED_FACE('',(#822),#841,.F.);
#822 = FACE_BOUND('',#823,.T.);
#823 = EDGE_LOOP('',(#824,#832,#839,#840));
#824 = ORIENTED_EDGE('',*,*,#825,.F.);
#825 = EDGE_CURVE('',#826,#252,#828,.T.);
#826 = VERTEX_POINT('',#827);
#827 = CARTESIAN_POINT('',(25.822105064623,42.274802069691,3.5));
#828 = LINE('',#829,#830);
#829 = CARTESIAN_POINT('',(25.822105064623,42.274802069691,3.5));
#830 = VECTOR('',#831,1.);
#831 = DIRECTION('',(2.22044604925E-17,-3.845925372767E-17,-1.));
#832 = ORIENTED_EDGE('',*,*,#833,.T.);
#833 = EDGE_CURVE('',#826,#826,#834,.T.);
#834 = CIRCLE('',#835,1.7);
#835 = AXIS2_PLACEMENT_3D('',#836,#837,#838);
#836 = CARTESIAN_POINT('',(26.672105064623,40.802558883258,3.5));
#837 = DIRECTION('',(0.,0.,1.));
#838 = DIRECTION('',(-0.5,0.866025403784,0.));
#839 = ORIENTED_EDGE('',*,*,#825,.T.);
#840 = ORIENTED_EDGE('',*,*,#251,.T.);
#841 = CYLINDRICAL_SURFACE('',#842,1.7);
#842 = AXIS2_PLACEMENT_3D('',#843,#844,#845);
#843 = CARTESIAN_POINT('',(26.672105064623,40.802558883258,3.5));
#844 = DIRECTION('',(0.,0.,-1.));
#845 = DIRECTION('',(-0.5,0.866025403784,0.));
#846 = ADVANCED_FACE('',(#847),#866,.F.);
#847 = FACE_BOUND('',#848,.T.);
#848 = EDGE_LOOP('',(#849,#857,#864,#865));
#849 = ORIENTED_EDGE('',*,*,#850,.F.);
#850 = EDGE_CURVE('',#851,#263,#853,.T.);
#851 = VERTEX_POINT('',#852);
#852 = CARTESIAN_POINT('',(22.322105064623,48.336979896182,3.5));
#853 = LINE('',#854,#855);
#854 = CARTESIAN_POINT('',(22.322105064623,48.336979896182,3.5));
#855 = VECTOR('',#856,1.);
#856 = DIRECTION('',(2.22044604925E-17,-3.845925372767E-17,-1.));
#857 = ORIENTED_EDGE('',*,*,#858,.T.);
#858 = EDGE_CURVE('',#851,#851,#859,.T.);
#859 = CIRCLE('',#860,1.7);
#860 = AXIS2_PLACEMENT_3D('',#861,#862,#863);
#861 = CARTESIAN_POINT('',(23.172105064623,46.864736709749,3.5));
#862 = DIRECTION('',(0.,0.,1.));
#863 = DIRECTION('',(-0.5,0.866025403784,0.));
#864 = ORIENTED_EDGE('',*,*,#850,.T.);
#865 = ORIENTED_EDGE('',*,*,#262,.T.);
#866 = CYLINDRICAL_SURFACE('',#867,1.7);
#867 = AXIS2_PLACEMENT_3D('',#868,#869,#870);
#868 = CARTESIAN_POINT('',(23.172105064623,46.864736709749,3.5));
#869 = DIRECTION('',(0.,0.,-1.));
#870 = DIRECTION('',(-0.5,0.866025403784,0.));
#871 = ADVANCED_FACE('',(#872),#891,.F.);
#872 = FACE_BOUND('',#873,.T.);
#873 = EDGE_LOOP('',(#874,#882,#889,#890));
#874 = ORIENTED_EDGE('',*,*,#875,.F.);
#875 = EDGE_CURVE('',#876,#274,#878,.T.);
#876 = VERTEX_POINT('',#877);
#877 = CARTESIAN_POINT('',(44.771778264911,62.453005299967,3.5));
#878 = LINE('',#879,#880);
#879 = CARTESIAN_POINT('',(44.771778264911,62.453005299967,3.5));
#880 = VECTOR('',#881,1.);
#881 = DIRECTION('',(2.22044604925E-17,-3.845925372767E-17,-1.));
#882 = ORIENTED_EDGE('',*,*,#883,.T.);
#883 = EDGE_CURVE('',#876,#876,#884,.T.);
#884 = CIRCLE('',#885,1.7);
#885 = AXIS2_PLACEMENT_3D('',#886,#887,#888);
#886 = CARTESIAN_POINT('',(45.621778264911,60.980762113533,3.5));
#887 = DIRECTION('',(0.,0.,1.));
#888 = DIRECTION('',(-0.5,0.866025403784,0.));
#889 = ORIENTED_EDGE('',*,*,#875,.T.);
#890 = ORIENTED_EDGE('',*,*,#273,.T.);
#891 = CYLINDRICAL_SURFACE('',#892,1.7);
#892 = AXIS2_PLACEMENT_3D('',#893,#894,#895);
#893 = CARTESIAN_POINT('',(45.621778264911,60.980762113533,3.5));
#894 = DIRECTION('',(0.,0.,-1.));
#895 = DIRECTION('',(-0.5,0.866025403784,0.));
#896 = ADVANCED_FACE('',(#897,#906,#909,#912,#915,#918,#921,#924,#927,
    #930,#933,#936,#939,#942,#945,#948,#951,#954,#957),#960,.T.);
#897 = FACE_BOUND('',#898,.T.);
#898 = EDGE_LOOP('',(#899,#900,#901,#902,#903,#904,#905));
#899 = ORIENTED_EDGE('',*,*,#290,.F.);
#900 = ORIENTED_EDGE('',*,*,#323,.T.);
#901 = ORIENTED_EDGE('',*,*,#332,.T.);
#902 = ORIENTED_EDGE('',*,*,#407,.F.);
#903 = ORIENTED_EDGE('',*,*,#433,.T.);
#904 = ORIENTED_EDGE('',*,*,#382,.F.);
#905 = ORIENTED_EDGE('',*,*,#365,.T.);
#906 = FACE_BOUND('',#907,.T.);
#907 = EDGE_LOOP('',(#908));
#908 = ORIENTED_EDGE('',*,*,#458,.F.);
#909 = FACE_BOUND('',#910,.T.);
#910 = EDGE_LOOP('',(#911));
#911 = ORIENTED_EDGE('',*,*,#483,.F.);
#912 = FACE_BOUND('',#913,.T.);
#913 = EDGE_LOOP('',(#914));
#914 = ORIENTED_EDGE('',*,*,#508,.F.);
#915 = FACE_BOUND('',#916,.T.);
#916 = EDGE_LOOP('',(#917));
#917 = ORIENTED_EDGE('',*,*,#533,.F.);
#918 = FACE_BOUND('',#919,.T.);
#919 = EDGE_LOOP('',(#920));
#920 = ORIENTED_EDGE('',*,*,#558,.F.);
#921 = FACE_BOUND('',#922,.T.);
#922 = EDGE_LOOP('',(#923));
#923 = ORIENTED_EDGE('',*,*,#583,.F.);
#924 = FACE_BOUND('',#925,.T.);
#925 = EDGE_LOOP('',(#926));
#926 = ORIENTED_EDGE('',*,*,#608,.F.);
#927 = FACE_BOUND('',#928,.T.);
#928 = EDGE_LOOP('',(#929));
#929 = ORIENTED_EDGE('',*,*,#633,.F.);
#930 = FACE_BOUND('',#931,.T.);
#931 = EDGE_LOOP('',(#932));
#932 = ORIENTED_EDGE('',*,*,#658,.F.);
#933 = FACE_BOUND('',#934,.T.);
#934 = EDGE_LOOP('',(#935));
#935 = ORIENTED_EDGE('',*,*,#683,.F.);
#936 = FACE_BOUND('',#937,.T.);
#937 = EDGE_LOOP('',(#938));
#938 = ORIENTED_EDGE('',*,*,#708,.F.);
#939 = FACE_BOUND('',#940,.T.);
#940 = EDGE_LOOP('',(#941));
#941 = ORIENTED_EDGE('',*,*,#733,.F.);
#942 = FACE_BOUND('',#943,.T.);
#943 = EDGE_LOOP('',(#944));
#944 = ORIENTED_EDGE('',*,*,#758,.F.);
#945 = FACE_BOUND('',#946,.T.);
#946 = EDGE_LOOP('',(#947));
#947 = ORIENTED_EDGE('',*,*,#783,.F.);
#948 = FACE_BOUND('',#949,.T.);
#949 = EDGE_LOOP('',(#950));
#950 = ORIENTED_EDGE('',*,*,#808,.F.);
#951 = FACE_BOUND('',#952,.T.);
#952 = EDGE_LOOP('',(#953));
#953 = ORIENTED_EDGE('',*,*,#833,.F.);
#954 = FACE_BOUND('',#955,.T.);
#955 = EDGE_LOOP('',(#956));
#956 = ORIENTED_EDGE('',*,*,#858,.F.);
#957 = FACE_BOUND('',#958,.T.);
#958 = EDGE_LOOP('',(#959));
#959 = ORIENTED_EDGE('',*,*,#883,.F.);
#960 = PLANE('',#961);
#961 = AXIS2_PLACEMENT_3D('',#962,#963,#964);
#962 = CARTESIAN_POINT('',(-3.889607488112E-15,2.156670906701E-16,3.5));
#963 = DIRECTION('',(0.,0.,1.));
#964 = DIRECTION('',(1.,0.,0.));
#965 = ( GEOMETRIC_REPRESENTATION_CONTEXT(3) 
GLOBAL_UNCERTAINTY_ASSIGNED_CONTEXT((#969)) GLOBAL_UNIT_ASSIGNED_CONTEXT
((#966,#967,#968)) REPRESENTATION_CONTEXT('Context #1',
  '3D Context with UNIT and UNCERTAINTY') );
#966 = ( LENGTH_UNIT() NAMED_UNIT(*) SI_UNIT(.MILLI.,.METRE.) );
#967 = ( NAMED_UNIT(*) PLANE_ANGLE_UNIT() SI_UNIT($,.RADIAN.) );
#968 = ( NAMED_UNIT(*) SI_UNIT($,.STERADIAN.) SOLID_ANGLE_UNIT() );
#969 = UNCERTAINTY_MEASURE_WITH_UNIT(LENGTH_MEASURE(1.E-07),#966,
  'distance_accuracy_value','confusion accuracy');
#970 = PRODUCT_RELATED_PRODUCT_CATEGORY('part',$,(#7));
#971 = MECHANICAL_DESIGN_GEOMETRIC_PRESENTATION_REPRESENTATION('',(#972)
  ,#965);
#972 = STYLED_ITEM('color',(#973),#15);
#973 = PRESENTATION_STYLE_ASSIGNMENT((#974,#980));
#974 = SURFACE_STYLE_USAGE(.BOTH.,#975);
#975 = SURFACE_SIDE_STYLE('',(#976));
#976 = SURFACE_STYLE_FILL_AREA(#977);
#977 = FILL_AREA_STYLE('',(#978));
#978 = FILL_AREA_STYLE_COLOUR('',#979);
#979 = COLOUR_RGB('',0.678431390124,0.709803936702,0.741176476869);
#980 = CURVE_STYLE('',#981,POSITIVE_LENGTH_MEASURE(0.1),#982);
#981 = DRAUGHTING_PRE_DEFINED_CURVE_FONT('continuous');
#982 = COLOUR_RGB('',9.803921802644E-02,9.803921802644E-02,
  9.803921802644E-02);
ENDSEC;
END-ISO-10303-21;
