ISO-10303-21;
HEADER;
FILE_DESCRIPTION(('FreeCAD Model'),'2;1');
FILE_NAME('Open CASCADE Shape Model','2026-08-14T18:38:43',(''),(''),
  'Open CASCADE STEP processor 7.8','FreeCAD','Unknown');
FILE_SCHEMA(('AUTOMOTIVE_DESIGN { 1 0 10303 214 1 1 1 1 }'));
ENDSEC;
DATA;
#1 = APPLICATION_PROTOCOL_DEFINITION('international standard',
  'automotive_design',2000,#2);
#2 = APPLICATION_CONTEXT(
  'core data for automotive mechanical design processes');
#3 = SHAPE_DEFINITION_REPRESENTATION(#4,#10);
#4 = PRODUCT_DEFINITION_SHAPE('','',#5);
#5 = PRODUCT_DEFINITION('design','',#6,#9);
#6 = PRODUCT_DEFINITION_FORMATION('','',#7);
#7 = PRODUCT('Body','Body','',(#8));
#8 = PRODUCT_CONTEXT('',#2,'mechanical');
#9 = PRODUCT_DEFINITION_CONTEXT('part definition',#2,'design');
#10 = ADVANCED_BREP_SHAPE_REPRESENTATION('',(#11,#15),#885);
#11 = AXIS2_PLACEMENT_3D('',#12,#13,#14);
#12 = CARTESIAN_POINT('',(0.,0.,0.));
#13 = DIRECTION('',(0.,0.,1.));
#14 = DIRECTION('',(1.,0.,-0.));
#15 = MANIFOLD_SOLID_BREP('',#16);
#16 = CLOSED_SHELL('',(#17,#57,#88,#119,#282,#445,#484,#501,#518,#557,
    #574,#613,#630,#647,#664,#703,#715,#732,#749,#766,#783,#800,#817,
    #834,#851,#868));
#17 = ADVANCED_FACE('',(#18),#52,.T.);
#18 = FACE_BOUND('',#19,.T.);
#19 = EDGE_LOOP('',(#20,#30,#38,#46));
#20 = ORIENTED_EDGE('',*,*,#21,.T.);
#21 = EDGE_CURVE('',#22,#24,#26,.T.);
#22 = VERTEX_POINT('',#23);
#23 = CARTESIAN_POINT('',(-17.7,-41.,48.1));
#24 = VERTEX_POINT('',#25);
#25 = CARTESIAN_POINT('',(-17.7,-46.,48.1));
#26 = LINE('',#27,#28);
#27 = CARTESIAN_POINT('',(-17.7,-41.,48.1));
#28 = VECTOR('',#29,1.);
#29 = DIRECTION('',(1.478279455809E-16,-1.,-2.22044604925E-16));
#30 = ORIENTED_EDGE('',*,*,#31,.T.);
#31 = EDGE_CURVE('',#24,#32,#34,.T.);
#32 = VERTEX_POINT('',#33);
#33 = CARTESIAN_POINT('',(-12.70197055831,-46.,54.09));
#34 = LINE('',#35,#36);
#35 = CARTESIAN_POINT('',(-17.7,-46.,48.1));
#36 = VECTOR('',#37,1.);
#37 = DIRECTION('',(0.640665613874,-7.578200976852E-17,0.767820012242));
#38 = ORIENTED_EDGE('',*,*,#39,.F.);
#39 = EDGE_CURVE('',#40,#32,#42,.T.);
#40 = VERTEX_POINT('',#41);
#41 = CARTESIAN_POINT('',(-12.70197055831,-41.,54.09));
#42 = LINE('',#43,#44);
#43 = CARTESIAN_POINT('',(-12.70197055831,-41.,54.09));
#44 = VECTOR('',#45,1.);
#45 = DIRECTION('',(1.478279455809E-16,-1.,-2.22044604925E-16));
#46 = ORIENTED_EDGE('',*,*,#47,.F.);
#47 = EDGE_CURVE('',#22,#40,#48,.T.);
#48 = LINE('',#49,#50);
#49 = CARTESIAN_POINT('',(-17.7,-41.,48.1));
#50 = VECTOR('',#51,1.);
#51 = DIRECTION('',(0.640665613874,-7.578200976852E-17,0.767820012242));
#52 = PLANE('',#53);
#53 = AXIS2_PLACEMENT_3D('',#54,#55,#56);
#54 = CARTESIAN_POINT('',(-17.7,-41.,48.1));
#55 = DIRECTION('',(-0.767820012242,-2.557615981074E-16,0.640665613874)
  );
#56 = DIRECTION('',(0.640665613874,-7.578200976852E-17,0.767820012242));
#57 = ADVANCED_FACE('',(#58),#83,.F.);
#58 = FACE_BOUND('',#59,.F.);
#59 = EDGE_LOOP('',(#60,#61,#69,#77));
#60 = ORIENTED_EDGE('',*,*,#21,.T.);
#61 = ORIENTED_EDGE('',*,*,#62,.T.);
#62 = EDGE_CURVE('',#24,#63,#65,.T.);
#63 = VERTEX_POINT('',#64);
#64 = CARTESIAN_POINT('',(-17.7,-46.,8.5));
#65 = LINE('',#66,#67);
#66 = CARTESIAN_POINT('',(-17.7,-46.,48.1));
#67 = VECTOR('',#68,1.);
#68 = DIRECTION('',(2.536326566618E-17,2.22044604925E-16,-1.));
#69 = ORIENTED_EDGE('',*,*,#70,.F.);
#70 = EDGE_CURVE('',#71,#63,#73,.T.);
#71 = VERTEX_POINT('',#72);
#72 = CARTESIAN_POINT('',(-17.7,-41.,8.5));
#73 = LINE('',#74,#75);
#74 = CARTESIAN_POINT('',(-17.7,-41.,8.5));
#75 = VECTOR('',#76,1.);
#76 = DIRECTION('',(1.478279455809E-16,-1.,-2.22044604925E-16));
#77 = ORIENTED_EDGE('',*,*,#78,.F.);
#78 = EDGE_CURVE('',#22,#71,#79,.T.);
#79 = LINE('',#80,#81);
#80 = CARTESIAN_POINT('',(-17.7,-41.,48.1));
#81 = VECTOR('',#82,1.);
#82 = DIRECTION('',(2.536326566618E-17,2.22044604925E-16,-1.));
#83 = PLANE('',#84);
#84 = AXIS2_PLACEMENT_3D('',#85,#86,#87);
#85 = CARTESIAN_POINT('',(-17.7,-41.,48.1));
#86 = DIRECTION('',(1.,1.478279455809E-16,2.536326566618E-17));
#87 = DIRECTION('',(2.536326566618E-17,2.22044604925E-16,-1.));
#88 = ADVANCED_FACE('',(#89),#114,.T.);
#89 = FACE_BOUND('',#90,.T.);
#90 = EDGE_LOOP('',(#91,#92,#100,#108));
#91 = ORIENTED_EDGE('',*,*,#39,.T.);
#92 = ORIENTED_EDGE('',*,*,#93,.T.);
#93 = EDGE_CURVE('',#32,#94,#96,.T.);
#94 = VERTEX_POINT('',#95);
#95 = CARTESIAN_POINT('',(12.671545137988,-46.,54.11));
#96 = LINE('',#97,#98);
#97 = CARTESIAN_POINT('',(-12.70197055831,-46.,54.09));
#98 = VECTOR('',#99,1.);
#99 = DIRECTION('',(0.999999689352,1.47652878949E-16,7.882232019568E-04)
  );
#100 = ORIENTED_EDGE('',*,*,#101,.F.);
#101 = EDGE_CURVE('',#102,#94,#104,.T.);
#102 = VERTEX_POINT('',#103);
#103 = CARTESIAN_POINT('',(12.671545137988,-41.,54.11));
#104 = LINE('',#105,#106);
#105 = CARTESIAN_POINT('',(12.671545137988,-41.,54.11));
#106 = VECTOR('',#107,1.);
#107 = DIRECTION('',(1.478279455809E-16,-1.,-2.22044604925E-16));
#108 = ORIENTED_EDGE('',*,*,#109,.F.);
#109 = EDGE_CURVE('',#40,#102,#110,.T.);
#110 = LINE('',#111,#112);
#111 = CARTESIAN_POINT('',(-12.70197055831,-41.,54.09));
#112 = VECTOR('',#113,1.);
#113 = DIRECTION('',(0.999999689352,1.47652878949E-16,7.882232019568E-04
    ));
#114 = PLANE('',#115);
#115 = AXIS2_PLACEMENT_3D('',#116,#117,#118);
#116 = CARTESIAN_POINT('',(-12.70197055831,-41.,54.09));
#117 = DIRECTION('',(-7.882232019568E-04,-2.221610573639E-16,
    0.999999689352));
#118 = DIRECTION('',(0.999999689352,1.47652878949E-16,7.882232019568E-04
    ));
#119 = ADVANCED_FACE('',(#120,#211,#222,#233,#244,#255,#266),#277,.F.);
#120 = FACE_BOUND('',#121,.T.);
#121 = EDGE_LOOP('',(#122,#123,#124,#132,#140,#148,#156,#164,#172,#180,
    #188,#196,#204,#210));
#122 = ORIENTED_EDGE('',*,*,#47,.T.);
#123 = ORIENTED_EDGE('',*,*,#109,.T.);
#124 = ORIENTED_EDGE('',*,*,#125,.T.);
#125 = EDGE_CURVE('',#102,#126,#128,.T.);
#126 = VERTEX_POINT('',#127);
#127 = CARTESIAN_POINT('',(17.7,-41.,48.1));
#128 = LINE('',#129,#130);
#129 = CARTESIAN_POINT('',(12.671545137988,-41.,54.11));
#130 = VECTOR('',#131,1.);
#131 = DIRECTION('',(0.64169856411,2.651596318759E-16,-0.766956943263));
#132 = ORIENTED_EDGE('',*,*,#133,.T.);
#133 = EDGE_CURVE('',#126,#134,#136,.T.);
#134 = VERTEX_POINT('',#135);
#135 = CARTESIAN_POINT('',(17.7,-41.,8.5));
#136 = LINE('',#137,#138);
#137 = CARTESIAN_POINT('',(17.7,-41.,48.1));
#138 = VECTOR('',#139,1.);
#139 = DIRECTION('',(2.536326566618E-17,2.22044604925E-16,-1.));
#140 = ORIENTED_EDGE('',*,*,#141,.F.);
#141 = EDGE_CURVE('',#142,#134,#144,.T.);
#142 = VERTEX_POINT('',#143);
#143 = CARTESIAN_POINT('',(32.7,-41.,8.5));
#144 = LINE('',#145,#146);
#145 = CARTESIAN_POINT('',(32.7,-41.,8.5));
#146 = VECTOR('',#147,1.);
#147 = DIRECTION('',(-1.,-1.478279455809E-16,-2.536326566618E-17));
#148 = ORIENTED_EDGE('',*,*,#149,.F.);
#149 = EDGE_CURVE('',#150,#142,#152,.T.);
#150 = VERTEX_POINT('',#151);
#151 = CARTESIAN_POINT('',(32.7,-41.,3.5));
#152 = LINE('',#153,#154);
#153 = CARTESIAN_POINT('',(32.7,-41.,3.5));
#154 = VECTOR('',#155,1.);
#155 = DIRECTION('',(-2.536326566618E-17,-2.22044604925E-16,1.));
#156 = ORIENTED_EDGE('',*,*,#157,.F.);
#157 = EDGE_CURVE('',#158,#150,#160,.T.);
#158 = VERTEX_POINT('',#159);
#159 = CARTESIAN_POINT('',(12.7,-41.,3.5));
#160 = LINE('',#161,#162);
#161 = CARTESIAN_POINT('',(12.7,-41.,3.5));
#162 = VECTOR('',#163,1.);
#163 = DIRECTION('',(1.,1.478279455809E-16,2.536326566618E-17));
#164 = ORIENTED_EDGE('',*,*,#165,.F.);
#165 = EDGE_CURVE('',#166,#158,#168,.T.);
#166 = VERTEX_POINT('',#167);
#167 = CARTESIAN_POINT('',(12.7,-41.,49.09));
#168 = LINE('',#169,#170);
#169 = CARTESIAN_POINT('',(12.7,-41.,49.09));
#170 = VECTOR('',#171,1.);
#171 = DIRECTION('',(2.536326566618E-17,2.22044604925E-16,-1.));
#172 = ORIENTED_EDGE('',*,*,#173,.F.);
#173 = EDGE_CURVE('',#174,#166,#176,.T.);
#174 = VERTEX_POINT('',#175);
#175 = CARTESIAN_POINT('',(-12.7,-41.,49.09));
#176 = LINE('',#177,#178);
#177 = CARTESIAN_POINT('',(-12.7,-41.,49.09));
#178 = VECTOR('',#179,1.);
#179 = DIRECTION('',(1.,1.478279455809E-16,2.536326566618E-17));
#180 = ORIENTED_EDGE('',*,*,#181,.F.);
#181 = EDGE_CURVE('',#182,#174,#184,.T.);
#182 = VERTEX_POINT('',#183);
#183 = CARTESIAN_POINT('',(-12.7,-41.,3.5));
#184 = LINE('',#185,#186);
#185 = CARTESIAN_POINT('',(-12.7,-41.,3.5));
#186 = VECTOR('',#187,1.);
#187 = DIRECTION('',(-2.536326566618E-17,-2.22044604925E-16,1.));
#188 = ORIENTED_EDGE('',*,*,#189,.F.);
#189 = EDGE_CURVE('',#190,#182,#192,.T.);
#190 = VERTEX_POINT('',#191);
#191 = CARTESIAN_POINT('',(-32.7,-41.,3.5));
#192 = LINE('',#193,#194);
#193 = CARTESIAN_POINT('',(-32.7,-41.,3.5));
#194 = VECTOR('',#195,1.);
#195 = DIRECTION('',(1.,1.478279455809E-16,2.536326566618E-17));
#196 = ORIENTED_EDGE('',*,*,#197,.F.);
#197 = EDGE_CURVE('',#198,#190,#200,.T.);
#198 = VERTEX_POINT('',#199);
#199 = CARTESIAN_POINT('',(-32.7,-41.,8.5));
#200 = LINE('',#201,#202);
#201 = CARTESIAN_POINT('',(-32.7,-41.,8.5));
#202 = VECTOR('',#203,1.);
#203 = DIRECTION('',(2.536326566618E-17,2.22044604925E-16,-1.));
#204 = ORIENTED_EDGE('',*,*,#205,.F.);
#205 = EDGE_CURVE('',#71,#198,#206,.T.);
#206 = LINE('',#207,#208);
#207 = CARTESIAN_POINT('',(-17.7,-41.,8.5));
#208 = VECTOR('',#209,1.);
#209 = DIRECTION('',(-1.,-1.478279455809E-16,-2.536326566618E-17));
#210 = ORIENTED_EDGE('',*,*,#78,.F.);
#211 = FACE_BOUND('',#212,.T.);
#212 = EDGE_LOOP('',(#213));
#213 = ORIENTED_EDGE('',*,*,#214,.T.);
#214 = EDGE_CURVE('',#215,#215,#217,.T.);
#215 = VERTEX_POINT('',#216);
#216 = CARTESIAN_POINT('',(7.15,-41.,51.3));
#217 = CIRCLE('',#218,1.35);
#218 = AXIS2_PLACEMENT_3D('',#219,#220,#221);
#219 = CARTESIAN_POINT('',(8.5,-41.,51.3));
#220 = DIRECTION('',(1.478279455809E-16,-1.,-2.22044604925E-16));
#221 = DIRECTION('',(-1.,-1.478279455809E-16,-2.536326566618E-17));
#222 = FACE_BOUND('',#223,.T.);
#223 = EDGE_LOOP('',(#224));
#224 = ORIENTED_EDGE('',*,*,#225,.T.);
#225 = EDGE_CURVE('',#226,#226,#228,.T.);
#226 = VERTEX_POINT('',#227);
#227 = CARTESIAN_POINT('',(-9.85,-41.,51.3));
#228 = CIRCLE('',#229,1.35);
#229 = AXIS2_PLACEMENT_3D('',#230,#231,#232);
#230 = CARTESIAN_POINT('',(-8.5,-41.,51.3));
#231 = DIRECTION('',(1.478279455809E-16,-1.,-2.22044604925E-16));
#232 = DIRECTION('',(-1.,-1.478279455809E-16,-2.536326566618E-17));
#233 = FACE_BOUND('',#234,.T.);
#234 = EDGE_LOOP('',(#235));
#235 = ORIENTED_EDGE('',*,*,#236,.T.);
#236 = EDGE_CURVE('',#237,#237,#239,.T.);
#237 = VERTEX_POINT('',#238);
#238 = CARTESIAN_POINT('',(13.65,-41.,45.));
#239 = CIRCLE('',#240,1.35);
#240 = AXIS2_PLACEMENT_3D('',#241,#242,#243);
#241 = CARTESIAN_POINT('',(15.,-41.,45.));
#242 = DIRECTION('',(1.478279455809E-16,-1.,-2.22044604925E-16));
#243 = DIRECTION('',(-1.,-1.478279455809E-16,-2.536326566618E-17));
#244 = FACE_BOUND('',#245,.T.);
#245 = EDGE_LOOP('',(#246));
#246 = ORIENTED_EDGE('',*,*,#247,.T.);
#247 = EDGE_CURVE('',#248,#248,#250,.T.);
#248 = VERTEX_POINT('',#249);
#249 = CARTESIAN_POINT('',(-16.35,-41.,45.));
#250 = CIRCLE('',#251,1.35);
#251 = AXIS2_PLACEMENT_3D('',#252,#253,#254);
#252 = CARTESIAN_POINT('',(-15.,-41.,45.));
#253 = DIRECTION('',(1.478279455809E-16,-1.,-2.22044604925E-16));
#254 = DIRECTION('',(-1.,-1.478279455809E-16,-2.536326566618E-17));
#255 = FACE_BOUND('',#256,.T.);
#256 = EDGE_LOOP('',(#257));
#257 = ORIENTED_EDGE('',*,*,#258,.T.);
#258 = EDGE_CURVE('',#259,#259,#261,.T.);
#259 = VERTEX_POINT('',#260);
#260 = CARTESIAN_POINT('',(-16.35,-41.,28.));
#261 = CIRCLE('',#262,1.35);
#262 = AXIS2_PLACEMENT_3D('',#263,#264,#265);
#263 = CARTESIAN_POINT('',(-15.,-41.,28.));
#264 = DIRECTION('',(1.478279455809E-16,-1.,-2.22044604925E-16));
#265 = DIRECTION('',(-1.,-1.478279455809E-16,-2.536326566618E-17));
#266 = FACE_BOUND('',#267,.T.);
#267 = EDGE_LOOP('',(#268));
#268 = ORIENTED_EDGE('',*,*,#269,.T.);
#269 = EDGE_CURVE('',#270,#270,#272,.T.);
#270 = VERTEX_POINT('',#271);
#271 = CARTESIAN_POINT('',(13.65,-41.,28.));
#272 = CIRCLE('',#273,1.35);
#273 = AXIS2_PLACEMENT_3D('',#274,#275,#276);
#274 = CARTESIAN_POINT('',(15.,-41.,28.));
#275 = DIRECTION('',(1.478279455809E-16,-1.,-2.22044604925E-16));
#276 = DIRECTION('',(-1.,-1.478279455809E-16,-2.536326566618E-17));
#277 = PLANE('',#278);
#278 = AXIS2_PLACEMENT_3D('',#279,#280,#281);
#279 = CARTESIAN_POINT('',(6.864833152991E-05,-41.,28.579169257359));
#280 = DIRECTION('',(1.478279455809E-16,-1.,-2.22044604925E-16));
#281 = DIRECTION('',(-1.,-1.478279455809E-16,-2.536326566618E-17));
#282 = ADVANCED_FACE('',(#283,#374,#385,#396,#407,#418,#429),#440,.T.);
#283 = FACE_BOUND('',#284,.F.);
#284 = EDGE_LOOP('',(#285,#286,#287,#295,#303,#311,#319,#327,#335,#343,
    #351,#359,#367,#373));
#285 = ORIENTED_EDGE('',*,*,#31,.T.);
#286 = ORIENTED_EDGE('',*,*,#93,.T.);
#287 = ORIENTED_EDGE('',*,*,#288,.T.);
#288 = EDGE_CURVE('',#94,#289,#291,.T.);
#289 = VERTEX_POINT('',#290);
#290 = CARTESIAN_POINT('',(17.7,-46.,48.1));
#291 = LINE('',#292,#293);
#292 = CARTESIAN_POINT('',(12.671545137988,-46.,54.11));
#293 = VECTOR('',#294,1.);
#294 = DIRECTION('',(0.64169856411,2.651596318759E-16,-0.766956943263));
#295 = ORIENTED_EDGE('',*,*,#296,.T.);
#296 = EDGE_CURVE('',#289,#297,#299,.T.);
#297 = VERTEX_POINT('',#298);
#298 = CARTESIAN_POINT('',(17.7,-46.,8.5));
#299 = LINE('',#300,#301);
#300 = CARTESIAN_POINT('',(17.7,-46.,48.1));
#301 = VECTOR('',#302,1.);
#302 = DIRECTION('',(2.536326566618E-17,2.22044604925E-16,-1.));
#303 = ORIENTED_EDGE('',*,*,#304,.F.);
#304 = EDGE_CURVE('',#305,#297,#307,.T.);
#305 = VERTEX_POINT('',#306);
#306 = CARTESIAN_POINT('',(32.7,-46.,8.5));
#307 = LINE('',#308,#309);
#308 = CARTESIAN_POINT('',(32.7,-46.,8.5));
#309 = VECTOR('',#310,1.);
#310 = DIRECTION('',(-1.,-1.478279455809E-16,-2.536326566618E-17));
#311 = ORIENTED_EDGE('',*,*,#312,.F.);
#312 = EDGE_CURVE('',#313,#305,#315,.T.);
#313 = VERTEX_POINT('',#314);
#314 = CARTESIAN_POINT('',(32.7,-46.,3.5));
#315 = LINE('',#316,#317);
#316 = CARTESIAN_POINT('',(32.7,-46.,3.5));
#317 = VECTOR('',#318,1.);
#318 = DIRECTION('',(-2.536326566618E-17,-2.22044604925E-16,1.));
#319 = ORIENTED_EDGE('',*,*,#320,.F.);
#320 = EDGE_CURVE('',#321,#313,#323,.T.);
#321 = VERTEX_POINT('',#322);
#322 = CARTESIAN_POINT('',(12.7,-46.,3.5));
#323 = LINE('',#324,#325);
#324 = CARTESIAN_POINT('',(12.7,-46.,3.5));
#325 = VECTOR('',#326,1.);
#326 = DIRECTION('',(1.,1.478279455809E-16,2.536326566618E-17));
#327 = ORIENTED_EDGE('',*,*,#328,.F.);
#328 = EDGE_CURVE('',#329,#321,#331,.T.);
#329 = VERTEX_POINT('',#330);
#330 = CARTESIAN_POINT('',(12.7,-46.,49.09));
#331 = LINE('',#332,#333);
#332 = CARTESIAN_POINT('',(12.7,-46.,49.09));
#333 = VECTOR('',#334,1.);
#334 = DIRECTION('',(2.536326566618E-17,2.22044604925E-16,-1.));
#335 = ORIENTED_EDGE('',*,*,#336,.F.);
#336 = EDGE_CURVE('',#337,#329,#339,.T.);
#337 = VERTEX_POINT('',#338);
#338 = CARTESIAN_POINT('',(-12.7,-46.,49.09));
#339 = LINE('',#340,#341);
#340 = CARTESIAN_POINT('',(-12.7,-46.,49.09));
#341 = VECTOR('',#342,1.);
#342 = DIRECTION('',(1.,1.478279455809E-16,2.536326566618E-17));
#343 = ORIENTED_EDGE('',*,*,#344,.F.);
#344 = EDGE_CURVE('',#345,#337,#347,.T.);
#345 = VERTEX_POINT('',#346);
#346 = CARTESIAN_POINT('',(-12.7,-46.,3.5));
#347 = LINE('',#348,#349);
#348 = CARTESIAN_POINT('',(-12.7,-46.,3.5));
#349 = VECTOR('',#350,1.);
#350 = DIRECTION('',(-2.536326566618E-17,-2.22044604925E-16,1.));
#351 = ORIENTED_EDGE('',*,*,#352,.F.);
#352 = EDGE_CURVE('',#353,#345,#355,.T.);
#353 = VERTEX_POINT('',#354);
#354 = CARTESIAN_POINT('',(-32.7,-46.,3.5));
#355 = LINE('',#356,#357);
#356 = CARTESIAN_POINT('',(-32.7,-46.,3.5));
#357 = VECTOR('',#358,1.);
#358 = DIRECTION('',(1.,1.478279455809E-16,2.536326566618E-17));
#359 = ORIENTED_EDGE('',*,*,#360,.F.);
#360 = EDGE_CURVE('',#361,#353,#363,.T.);
#361 = VERTEX_POINT('',#362);
#362 = CARTESIAN_POINT('',(-32.7,-46.,8.5));
#363 = LINE('',#364,#365);
#364 = CARTESIAN_POINT('',(-32.7,-46.,8.5));
#365 = VECTOR('',#366,1.);
#366 = DIRECTION('',(2.536326566618E-17,2.22044604925E-16,-1.));
#367 = ORIENTED_EDGE('',*,*,#368,.F.);
#368 = EDGE_CURVE('',#63,#361,#369,.T.);
#369 = LINE('',#370,#371);
#370 = CARTESIAN_POINT('',(-17.7,-46.,8.5));
#371 = VECTOR('',#372,1.);
#372 = DIRECTION('',(-1.,-1.478279455809E-16,-2.536326566618E-17));
#373 = ORIENTED_EDGE('',*,*,#62,.F.);
#374 = FACE_BOUND('',#375,.F.);
#375 = EDGE_LOOP('',(#376));
#376 = ORIENTED_EDGE('',*,*,#377,.T.);
#377 = EDGE_CURVE('',#378,#378,#380,.T.);
#378 = VERTEX_POINT('',#379);
#379 = CARTESIAN_POINT('',(7.15,-46.,51.3));
#380 = CIRCLE('',#381,1.35);
#381 = AXIS2_PLACEMENT_3D('',#382,#383,#384);
#382 = CARTESIAN_POINT('',(8.5,-46.,51.3));
#383 = DIRECTION('',(1.478279455809E-16,-1.,-2.22044604925E-16));
#384 = DIRECTION('',(-1.,-1.478279455809E-16,-2.536326566618E-17));
#385 = FACE_BOUND('',#386,.F.);
#386 = EDGE_LOOP('',(#387));
#387 = ORIENTED_EDGE('',*,*,#388,.T.);
#388 = EDGE_CURVE('',#389,#389,#391,.T.);
#389 = VERTEX_POINT('',#390);
#390 = CARTESIAN_POINT('',(-9.85,-46.,51.3));
#391 = CIRCLE('',#392,1.35);
#392 = AXIS2_PLACEMENT_3D('',#393,#394,#395);
#393 = CARTESIAN_POINT('',(-8.5,-46.,51.3));
#394 = DIRECTION('',(1.478279455809E-16,-1.,-2.22044604925E-16));
#395 = DIRECTION('',(-1.,-1.478279455809E-16,-2.536326566618E-17));
#396 = FACE_BOUND('',#397,.F.);
#397 = EDGE_LOOP('',(#398));
#398 = ORIENTED_EDGE('',*,*,#399,.T.);
#399 = EDGE_CURVE('',#400,#400,#402,.T.);
#400 = VERTEX_POINT('',#401);
#401 = CARTESIAN_POINT('',(13.65,-46.,45.));
#402 = CIRCLE('',#403,1.35);
#403 = AXIS2_PLACEMENT_3D('',#404,#405,#406);
#404 = CARTESIAN_POINT('',(15.,-46.,45.));
#405 = DIRECTION('',(1.478279455809E-16,-1.,-2.22044604925E-16));
#406 = DIRECTION('',(-1.,-1.478279455809E-16,-2.536326566618E-17));
#407 = FACE_BOUND('',#408,.F.);
#408 = EDGE_LOOP('',(#409));
#409 = ORIENTED_EDGE('',*,*,#410,.T.);
#410 = EDGE_CURVE('',#411,#411,#413,.T.);
#411 = VERTEX_POINT('',#412);
#412 = CARTESIAN_POINT('',(-16.35,-46.,45.));
#413 = CIRCLE('',#414,1.35);
#414 = AXIS2_PLACEMENT_3D('',#415,#416,#417);
#415 = CARTESIAN_POINT('',(-15.,-46.,45.));
#416 = DIRECTION('',(1.478279455809E-16,-1.,-2.22044604925E-16));
#417 = DIRECTION('',(-1.,-1.478279455809E-16,-2.536326566618E-17));
#418 = FACE_BOUND('',#419,.F.);
#419 = EDGE_LOOP('',(#420));
#420 = ORIENTED_EDGE('',*,*,#421,.T.);
#421 = EDGE_CURVE('',#422,#422,#424,.T.);
#422 = VERTEX_POINT('',#423);
#423 = CARTESIAN_POINT('',(-16.35,-46.,28.));
#424 = CIRCLE('',#425,1.35);
#425 = AXIS2_PLACEMENT_3D('',#426,#427,#428);
#426 = CARTESIAN_POINT('',(-15.,-46.,28.));
#427 = DIRECTION('',(1.478279455809E-16,-1.,-2.22044604925E-16));
#428 = DIRECTION('',(-1.,-1.478279455809E-16,-2.536326566618E-17));
#429 = FACE_BOUND('',#430,.F.);
#430 = EDGE_LOOP('',(#431));
#431 = ORIENTED_EDGE('',*,*,#432,.T.);
#432 = EDGE_CURVE('',#433,#433,#435,.T.);
#433 = VERTEX_POINT('',#434);
#434 = CARTESIAN_POINT('',(13.65,-46.,28.));
#435 = CIRCLE('',#436,1.35);
#436 = AXIS2_PLACEMENT_3D('',#437,#438,#439);
#437 = CARTESIAN_POINT('',(15.,-46.,28.));
#438 = DIRECTION('',(1.478279455809E-16,-1.,-2.22044604925E-16));
#439 = DIRECTION('',(-1.,-1.478279455809E-16,-2.536326566618E-17));
#440 = PLANE('',#441);
#441 = AXIS2_PLACEMENT_3D('',#442,#443,#444);
#442 = CARTESIAN_POINT('',(6.864833153065E-05,-46.,28.579169257359));
#443 = DIRECTION('',(1.478279455809E-16,-1.,-2.22044604925E-16));
#444 = DIRECTION('',(-1.,-1.478279455809E-16,-2.536326566618E-17));
#445 = ADVANCED_FACE('',(#446,#457,#468),#479,.F.);
#446 = FACE_BOUND('',#447,.F.);
#447 = EDGE_LOOP('',(#448,#449,#450,#456));
#448 = ORIENTED_EDGE('',*,*,#70,.T.);
#449 = ORIENTED_EDGE('',*,*,#368,.T.);
#450 = ORIENTED_EDGE('',*,*,#451,.F.);
#451 = EDGE_CURVE('',#198,#361,#452,.T.);
#452 = LINE('',#453,#454);
#453 = CARTESIAN_POINT('',(-32.7,-41.,8.5));
#454 = VECTOR('',#455,1.);
#455 = DIRECTION('',(1.478279455809E-16,-1.,-2.22044604925E-16));
#456 = ORIENTED_EDGE('',*,*,#205,.F.);
#457 = FACE_BOUND('',#458,.F.);
#458 = EDGE_LOOP('',(#459));
#459 = ORIENTED_EDGE('',*,*,#460,.F.);
#460 = EDGE_CURVE('',#461,#461,#463,.T.);
#461 = VERTEX_POINT('',#462);
#462 = CARTESIAN_POINT('',(-23.7,-43.5,8.5));
#463 = CIRCLE('',#464,1.7);
#464 = AXIS2_PLACEMENT_3D('',#465,#466,#467);
#465 = CARTESIAN_POINT('',(-22.,-43.5,8.5));
#466 = DIRECTION('',(2.536326566618E-17,4.440892098501E-16,-1.));
#467 = DIRECTION('',(-1.,-1.478279455809E-16,-2.536326566618E-17));
#468 = FACE_BOUND('',#469,.F.);
#469 = EDGE_LOOP('',(#470));
#470 = ORIENTED_EDGE('',*,*,#471,.F.);
#471 = EDGE_CURVE('',#472,#472,#474,.T.);
#472 = VERTEX_POINT('',#473);
#473 = CARTESIAN_POINT('',(-30.7,-43.5,8.5));
#474 = CIRCLE('',#475,1.7);
#475 = AXIS2_PLACEMENT_3D('',#476,#477,#478);
#476 = CARTESIAN_POINT('',(-29.,-43.5,8.5));
#477 = DIRECTION('',(2.536326566618E-17,4.440892098501E-16,-1.));
#478 = DIRECTION('',(-1.,-1.478279455809E-16,-2.536326566618E-17));
#479 = PLANE('',#480);
#480 = AXIS2_PLACEMENT_3D('',#481,#482,#483);
#481 = CARTESIAN_POINT('',(-17.7,-41.,8.5));
#482 = DIRECTION('',(2.536326566618E-17,2.22044604925E-16,-1.));
#483 = DIRECTION('',(-1.,-1.478279455809E-16,-2.536326566618E-17));
#484 = ADVANCED_FACE('',(#485),#496,.T.);
#485 = FACE_BOUND('',#486,.T.);
#486 = EDGE_LOOP('',(#487,#488,#489,#495));
#487 = ORIENTED_EDGE('',*,*,#101,.T.);
#488 = ORIENTED_EDGE('',*,*,#288,.T.);
#489 = ORIENTED_EDGE('',*,*,#490,.F.);
#490 = EDGE_CURVE('',#126,#289,#491,.T.);
#491 = LINE('',#492,#493);
#492 = CARTESIAN_POINT('',(17.7,-41.,48.1));
#493 = VECTOR('',#494,1.);
#494 = DIRECTION('',(1.478279455809E-16,-1.,-2.22044604925E-16));
#495 = ORIENTED_EDGE('',*,*,#125,.F.);
#496 = PLANE('',#497);
#497 = AXIS2_PLACEMENT_3D('',#498,#499,#500);
#498 = CARTESIAN_POINT('',(12.671545137988,-41.,54.11));
#499 = DIRECTION('',(0.766956943263,-2.910803487728E-17,0.64169856411));
#500 = DIRECTION('',(0.64169856411,2.651596318759E-16,-0.766956943263));
#501 = ADVANCED_FACE('',(#502),#513,.T.);
#502 = FACE_BOUND('',#503,.T.);
#503 = EDGE_LOOP('',(#504,#505,#506,#512));
#504 = ORIENTED_EDGE('',*,*,#490,.T.);
#505 = ORIENTED_EDGE('',*,*,#296,.T.);
#506 = ORIENTED_EDGE('',*,*,#507,.F.);
#507 = EDGE_CURVE('',#134,#297,#508,.T.);
#508 = LINE('',#509,#510);
#509 = CARTESIAN_POINT('',(17.7,-41.,8.5));
#510 = VECTOR('',#511,1.);
#511 = DIRECTION('',(1.478279455809E-16,-1.,-2.22044604925E-16));
#512 = ORIENTED_EDGE('',*,*,#133,.F.);
#513 = PLANE('',#514);
#514 = AXIS2_PLACEMENT_3D('',#515,#516,#517);
#515 = CARTESIAN_POINT('',(17.7,-41.,48.1));
#516 = DIRECTION('',(1.,1.478279455809E-16,2.536326566618E-17));
#517 = DIRECTION('',(2.536326566618E-17,2.22044604925E-16,-1.));
#518 = ADVANCED_FACE('',(#519,#530,#541),#552,.F.);
#519 = FACE_BOUND('',#520,.F.);
#520 = EDGE_LOOP('',(#521,#527,#528,#529));
#521 = ORIENTED_EDGE('',*,*,#522,.T.);
#522 = EDGE_CURVE('',#142,#305,#523,.T.);
#523 = LINE('',#524,#525);
#524 = CARTESIAN_POINT('',(32.7,-41.,8.5));
#525 = VECTOR('',#526,1.);
#526 = DIRECTION('',(1.478279455809E-16,-1.,-2.22044604925E-16));
#527 = ORIENTED_EDGE('',*,*,#304,.T.);
#528 = ORIENTED_EDGE('',*,*,#507,.F.);
#529 = ORIENTED_EDGE('',*,*,#141,.F.);
#530 = FACE_BOUND('',#531,.F.);
#531 = EDGE_LOOP('',(#532));
#532 = ORIENTED_EDGE('',*,*,#533,.T.);
#533 = EDGE_CURVE('',#534,#534,#536,.T.);
#534 = VERTEX_POINT('',#535);
#535 = CARTESIAN_POINT('',(23.7,-43.5,8.5));
#536 = CIRCLE('',#537,1.7);
#537 = AXIS2_PLACEMENT_3D('',#538,#539,#540);
#538 = CARTESIAN_POINT('',(22.,-43.5,8.5));
#539 = DIRECTION('',(-2.536326566618E-17,-4.440892098501E-16,1.));
#540 = DIRECTION('',(1.,1.478279455809E-16,2.536326566618E-17));
#541 = FACE_BOUND('',#542,.F.);
#542 = EDGE_LOOP('',(#543));
#543 = ORIENTED_EDGE('',*,*,#544,.T.);
#544 = EDGE_CURVE('',#545,#545,#547,.T.);
#545 = VERTEX_POINT('',#546);
#546 = CARTESIAN_POINT('',(30.7,-43.5,8.5));
#547 = CIRCLE('',#548,1.7);
#548 = AXIS2_PLACEMENT_3D('',#549,#550,#551);
#549 = CARTESIAN_POINT('',(29.,-43.5,8.5));
#550 = DIRECTION('',(-2.536326566618E-17,-4.440892098501E-16,1.));
#551 = DIRECTION('',(1.,1.478279455809E-16,2.536326566618E-17));
#552 = PLANE('',#553);
#553 = AXIS2_PLACEMENT_3D('',#554,#555,#556);
#554 = CARTESIAN_POINT('',(32.7,-41.,8.5));
#555 = DIRECTION('',(2.536326566618E-17,2.22044604925E-16,-1.));
#556 = DIRECTION('',(-1.,-1.478279455809E-16,-2.536326566618E-17));
#557 = ADVANCED_FACE('',(#558),#569,.F.);
#558 = FACE_BOUND('',#559,.F.);
#559 = EDGE_LOOP('',(#560,#566,#567,#568));
#560 = ORIENTED_EDGE('',*,*,#561,.T.);
#561 = EDGE_CURVE('',#150,#313,#562,.T.);
#562 = LINE('',#563,#564);
#563 = CARTESIAN_POINT('',(32.7,-41.,3.5));
#564 = VECTOR('',#565,1.);
#565 = DIRECTION('',(1.478279455809E-16,-1.,-2.22044604925E-16));
#566 = ORIENTED_EDGE('',*,*,#312,.T.);
#567 = ORIENTED_EDGE('',*,*,#522,.F.);
#568 = ORIENTED_EDGE('',*,*,#149,.F.);
#569 = PLANE('',#570);
#570 = AXIS2_PLACEMENT_3D('',#571,#572,#573);
#571 = CARTESIAN_POINT('',(32.7,-41.,3.5));
#572 = DIRECTION('',(-1.,-1.478279455809E-16,-2.536326566618E-17));
#573 = DIRECTION('',(-2.536326566618E-17,-2.22044604925E-16,1.));
#574 = ADVANCED_FACE('',(#575,#586,#597),#608,.F.);
#575 = FACE_BOUND('',#576,.F.);
#576 = EDGE_LOOP('',(#577,#583,#584,#585));
#577 = ORIENTED_EDGE('',*,*,#578,.T.);
#578 = EDGE_CURVE('',#158,#321,#579,.T.);
#579 = LINE('',#580,#581);
#580 = CARTESIAN_POINT('',(12.7,-41.,3.5));
#581 = VECTOR('',#582,1.);
#582 = DIRECTION('',(1.478279455809E-16,-1.,-2.22044604925E-16));
#583 = ORIENTED_EDGE('',*,*,#320,.T.);
#584 = ORIENTED_EDGE('',*,*,#561,.F.);
#585 = ORIENTED_EDGE('',*,*,#157,.F.);
#586 = FACE_BOUND('',#587,.F.);
#587 = EDGE_LOOP('',(#588));
#588 = ORIENTED_EDGE('',*,*,#589,.F.);
#589 = EDGE_CURVE('',#590,#590,#592,.T.);
#590 = VERTEX_POINT('',#591);
#591 = CARTESIAN_POINT('',(23.7,-43.5,3.5));
#592 = CIRCLE('',#593,1.7);
#593 = AXIS2_PLACEMENT_3D('',#594,#595,#596);
#594 = CARTESIAN_POINT('',(22.,-43.5,3.5));
#595 = DIRECTION('',(-2.536326566618E-17,-4.440892098501E-16,1.));
#596 = DIRECTION('',(1.,1.478279455809E-16,2.536326566618E-17));
#597 = FACE_BOUND('',#598,.F.);
#598 = EDGE_LOOP('',(#599));
#599 = ORIENTED_EDGE('',*,*,#600,.F.);
#600 = EDGE_CURVE('',#601,#601,#603,.T.);
#601 = VERTEX_POINT('',#602);
#602 = CARTESIAN_POINT('',(30.7,-43.5,3.5));
#603 = CIRCLE('',#604,1.7);
#604 = AXIS2_PLACEMENT_3D('',#605,#606,#607);
#605 = CARTESIAN_POINT('',(29.,-43.5,3.5));
#606 = DIRECTION('',(-2.536326566618E-17,-4.440892098501E-16,1.));
#607 = DIRECTION('',(1.,1.478279455809E-16,2.536326566618E-17));
#608 = PLANE('',#609);
#609 = AXIS2_PLACEMENT_3D('',#610,#611,#612);
#610 = CARTESIAN_POINT('',(12.7,-41.,3.5));
#611 = DIRECTION('',(-2.536326566618E-17,-2.22044604925E-16,1.));
#612 = DIRECTION('',(1.,1.478279455809E-16,2.536326566618E-17));
#613 = ADVANCED_FACE('',(#614),#625,.F.);
#614 = FACE_BOUND('',#615,.F.);
#615 = EDGE_LOOP('',(#616,#622,#623,#624));
#616 = ORIENTED_EDGE('',*,*,#617,.T.);
#617 = EDGE_CURVE('',#166,#329,#618,.T.);
#618 = LINE('',#619,#620);
#619 = CARTESIAN_POINT('',(12.7,-41.,49.09));
#620 = VECTOR('',#621,1.);
#621 = DIRECTION('',(1.478279455809E-16,-1.,-2.22044604925E-16));
#622 = ORIENTED_EDGE('',*,*,#328,.T.);
#623 = ORIENTED_EDGE('',*,*,#578,.F.);
#624 = ORIENTED_EDGE('',*,*,#165,.F.);
#625 = PLANE('',#626);
#626 = AXIS2_PLACEMENT_3D('',#627,#628,#629);
#627 = CARTESIAN_POINT('',(12.7,-41.,49.09));
#628 = DIRECTION('',(1.,1.478279455809E-16,2.536326566618E-17));
#629 = DIRECTION('',(2.536326566618E-17,2.22044604925E-16,-1.));
#630 = ADVANCED_FACE('',(#631),#642,.F.);
#631 = FACE_BOUND('',#632,.F.);
#632 = EDGE_LOOP('',(#633,#639,#640,#641));
#633 = ORIENTED_EDGE('',*,*,#634,.T.);
#634 = EDGE_CURVE('',#174,#337,#635,.T.);
#635 = LINE('',#636,#637);
#636 = CARTESIAN_POINT('',(-12.7,-41.,49.09));
#637 = VECTOR('',#638,1.);
#638 = DIRECTION('',(1.478279455809E-16,-1.,-2.22044604925E-16));
#639 = ORIENTED_EDGE('',*,*,#336,.T.);
#640 = ORIENTED_EDGE('',*,*,#617,.F.);
#641 = ORIENTED_EDGE('',*,*,#173,.F.);
#642 = PLANE('',#643);
#643 = AXIS2_PLACEMENT_3D('',#644,#645,#646);
#644 = CARTESIAN_POINT('',(-12.7,-41.,49.09));
#645 = DIRECTION('',(-2.536326566618E-17,-2.22044604925E-16,1.));
#646 = DIRECTION('',(1.,1.478279455809E-16,2.536326566618E-17));
#647 = ADVANCED_FACE('',(#648),#659,.F.);
#648 = FACE_BOUND('',#649,.F.);
#649 = EDGE_LOOP('',(#650,#656,#657,#658));
#650 = ORIENTED_EDGE('',*,*,#651,.T.);
#651 = EDGE_CURVE('',#182,#345,#652,.T.);
#652 = LINE('',#653,#654);
#653 = CARTESIAN_POINT('',(-12.7,-41.,3.5));
#654 = VECTOR('',#655,1.);
#655 = DIRECTION('',(1.478279455809E-16,-1.,-2.22044604925E-16));
#656 = ORIENTED_EDGE('',*,*,#344,.T.);
#657 = ORIENTED_EDGE('',*,*,#634,.F.);
#658 = ORIENTED_EDGE('',*,*,#181,.F.);
#659 = PLANE('',#660);
#660 = AXIS2_PLACEMENT_3D('',#661,#662,#663);
#661 = CARTESIAN_POINT('',(-12.7,-41.,3.5));
#662 = DIRECTION('',(-1.,-1.478279455809E-16,-2.536326566618E-17));
#663 = DIRECTION('',(-2.536326566618E-17,-2.22044604925E-16,1.));
#664 = ADVANCED_FACE('',(#665,#676,#687),#698,.F.);
#665 = FACE_BOUND('',#666,.F.);
#666 = EDGE_LOOP('',(#667,#673,#674,#675));
#667 = ORIENTED_EDGE('',*,*,#668,.T.);
#668 = EDGE_CURVE('',#190,#353,#669,.T.);
#669 = LINE('',#670,#671);
#670 = CARTESIAN_POINT('',(-32.7,-41.,3.5));
#671 = VECTOR('',#672,1.);
#672 = DIRECTION('',(1.478279455809E-16,-1.,-2.22044604925E-16));
#673 = ORIENTED_EDGE('',*,*,#352,.T.);
#674 = ORIENTED_EDGE('',*,*,#651,.F.);
#675 = ORIENTED_EDGE('',*,*,#189,.F.);
#676 = FACE_BOUND('',#677,.F.);
#677 = EDGE_LOOP('',(#678));
#678 = ORIENTED_EDGE('',*,*,#679,.T.);
#679 = EDGE_CURVE('',#680,#680,#682,.T.);
#680 = VERTEX_POINT('',#681);
#681 = CARTESIAN_POINT('',(-23.7,-43.5,3.5));
#682 = CIRCLE('',#683,1.7);
#683 = AXIS2_PLACEMENT_3D('',#684,#685,#686);
#684 = CARTESIAN_POINT('',(-22.,-43.5,3.5));
#685 = DIRECTION('',(2.536326566618E-17,4.440892098501E-16,-1.));
#686 = DIRECTION('',(-1.,-1.478279455809E-16,-2.536326566618E-17));
#687 = FACE_BOUND('',#688,.F.);
#688 = EDGE_LOOP('',(#689));
#689 = ORIENTED_EDGE('',*,*,#690,.T.);
#690 = EDGE_CURVE('',#691,#691,#693,.T.);
#691 = VERTEX_POINT('',#692);
#692 = CARTESIAN_POINT('',(-30.7,-43.5,3.5));
#693 = CIRCLE('',#694,1.7);
#694 = AXIS2_PLACEMENT_3D('',#695,#696,#697);
#695 = CARTESIAN_POINT('',(-29.,-43.5,3.5));
#696 = DIRECTION('',(2.536326566618E-17,4.440892098501E-16,-1.));
#697 = DIRECTION('',(-1.,-1.478279455809E-16,-2.536326566618E-17));
#698 = PLANE('',#699);
#699 = AXIS2_PLACEMENT_3D('',#700,#701,#702);
#700 = CARTESIAN_POINT('',(-32.7,-41.,3.5));
#701 = DIRECTION('',(-2.536326566618E-17,-2.22044604925E-16,1.));
#702 = DIRECTION('',(1.,1.478279455809E-16,2.536326566618E-17));
#703 = ADVANCED_FACE('',(#704),#710,.F.);
#704 = FACE_BOUND('',#705,.F.);
#705 = EDGE_LOOP('',(#706,#707,#708,#709));
#706 = ORIENTED_EDGE('',*,*,#451,.T.);
#707 = ORIENTED_EDGE('',*,*,#360,.T.);
#708 = ORIENTED_EDGE('',*,*,#668,.F.);
#709 = ORIENTED_EDGE('',*,*,#197,.F.);
#710 = PLANE('',#711);
#711 = AXIS2_PLACEMENT_3D('',#712,#713,#714);
#712 = CARTESIAN_POINT('',(-32.7,-41.,8.5));
#713 = DIRECTION('',(1.,1.478279455809E-16,2.536326566618E-17));
#714 = DIRECTION('',(2.536326566618E-17,2.22044604925E-16,-1.));
#715 = ADVANCED_FACE('',(#716),#727,.F.);
#716 = FACE_BOUND('',#717,.T.);
#717 = EDGE_LOOP('',(#718,#724,#725,#726));
#718 = ORIENTED_EDGE('',*,*,#719,.T.);
#719 = EDGE_CURVE('',#215,#378,#720,.T.);
#720 = LINE('',#721,#722);
#721 = CARTESIAN_POINT('',(7.15,-41.,51.3));
#722 = VECTOR('',#723,1.);
#723 = DIRECTION('',(1.478279455809E-16,-1.,-2.22044604925E-16));
#724 = ORIENTED_EDGE('',*,*,#377,.T.);
#725 = ORIENTED_EDGE('',*,*,#719,.F.);
#726 = ORIENTED_EDGE('',*,*,#214,.F.);
#727 = CYLINDRICAL_SURFACE('',#728,1.35);
#728 = AXIS2_PLACEMENT_3D('',#729,#730,#731);
#729 = CARTESIAN_POINT('',(8.5,-41.,51.3));
#730 = DIRECTION('',(-1.478279455809E-16,1.,2.22044604925E-16));
#731 = DIRECTION('',(-1.,-1.478279455809E-16,-2.536326566618E-17));
#732 = ADVANCED_FACE('',(#733),#744,.F.);
#733 = FACE_BOUND('',#734,.T.);
#734 = EDGE_LOOP('',(#735,#741,#742,#743));
#735 = ORIENTED_EDGE('',*,*,#736,.T.);
#736 = EDGE_CURVE('',#226,#389,#737,.T.);
#737 = LINE('',#738,#739);
#738 = CARTESIAN_POINT('',(-9.85,-41.,51.3));
#739 = VECTOR('',#740,1.);
#740 = DIRECTION('',(1.478279455809E-16,-1.,-2.22044604925E-16));
#741 = ORIENTED_EDGE('',*,*,#388,.T.);
#742 = ORIENTED_EDGE('',*,*,#736,.F.);
#743 = ORIENTED_EDGE('',*,*,#225,.F.);
#744 = CYLINDRICAL_SURFACE('',#745,1.35);
#745 = AXIS2_PLACEMENT_3D('',#746,#747,#748);
#746 = CARTESIAN_POINT('',(-8.5,-41.,51.3));
#747 = DIRECTION('',(-1.478279455809E-16,1.,2.22044604925E-16));
#748 = DIRECTION('',(-1.,-1.478279455809E-16,-2.536326566618E-17));
#749 = ADVANCED_FACE('',(#750),#761,.F.);
#750 = FACE_BOUND('',#751,.T.);
#751 = EDGE_LOOP('',(#752,#758,#759,#760));
#752 = ORIENTED_EDGE('',*,*,#753,.T.);
#753 = EDGE_CURVE('',#237,#400,#754,.T.);
#754 = LINE('',#755,#756);
#755 = CARTESIAN_POINT('',(13.65,-41.,45.));
#756 = VECTOR('',#757,1.);
#757 = DIRECTION('',(1.478279455809E-16,-1.,-2.22044604925E-16));
#758 = ORIENTED_EDGE('',*,*,#399,.T.);
#759 = ORIENTED_EDGE('',*,*,#753,.F.);
#760 = ORIENTED_EDGE('',*,*,#236,.F.);
#761 = CYLINDRICAL_SURFACE('',#762,1.35);
#762 = AXIS2_PLACEMENT_3D('',#763,#764,#765);
#763 = CARTESIAN_POINT('',(15.,-41.,45.));
#764 = DIRECTION('',(-1.478279455809E-16,1.,2.22044604925E-16));
#765 = DIRECTION('',(-1.,-1.478279455809E-16,-2.536326566618E-17));
#766 = ADVANCED_FACE('',(#767),#778,.F.);
#767 = FACE_BOUND('',#768,.T.);
#768 = EDGE_LOOP('',(#769,#775,#776,#777));
#769 = ORIENTED_EDGE('',*,*,#770,.T.);
#770 = EDGE_CURVE('',#248,#411,#771,.T.);
#771 = LINE('',#772,#773);
#772 = CARTESIAN_POINT('',(-16.35,-41.,45.));
#773 = VECTOR('',#774,1.);
#774 = DIRECTION('',(1.478279455809E-16,-1.,-2.22044604925E-16));
#775 = ORIENTED_EDGE('',*,*,#410,.T.);
#776 = ORIENTED_EDGE('',*,*,#770,.F.);
#777 = ORIENTED_EDGE('',*,*,#247,.F.);
#778 = CYLINDRICAL_SURFACE('',#779,1.35);
#779 = AXIS2_PLACEMENT_3D('',#780,#781,#782);
#780 = CARTESIAN_POINT('',(-15.,-41.,45.));
#781 = DIRECTION('',(-1.478279455809E-16,1.,2.22044604925E-16));
#782 = DIRECTION('',(-1.,-1.478279455809E-16,-2.536326566618E-17));
#783 = ADVANCED_FACE('',(#784),#795,.F.);
#784 = FACE_BOUND('',#785,.T.);
#785 = EDGE_LOOP('',(#786,#792,#793,#794));
#786 = ORIENTED_EDGE('',*,*,#787,.T.);
#787 = EDGE_CURVE('',#259,#422,#788,.T.);
#788 = LINE('',#789,#790);
#789 = CARTESIAN_POINT('',(-16.35,-41.,28.));
#790 = VECTOR('',#791,1.);
#791 = DIRECTION('',(1.478279455809E-16,-1.,-2.22044604925E-16));
#792 = ORIENTED_EDGE('',*,*,#421,.T.);
#793 = ORIENTED_EDGE('',*,*,#787,.F.);
#794 = ORIENTED_EDGE('',*,*,#258,.F.);
#795 = CYLINDRICAL_SURFACE('',#796,1.35);
#796 = AXIS2_PLACEMENT_3D('',#797,#798,#799);
#797 = CARTESIAN_POINT('',(-15.,-41.,28.));
#798 = DIRECTION('',(-1.478279455809E-16,1.,2.22044604925E-16));
#799 = DIRECTION('',(-1.,-1.478279455809E-16,-2.536326566618E-17));
#800 = ADVANCED_FACE('',(#801),#812,.F.);
#801 = FACE_BOUND('',#802,.T.);
#802 = EDGE_LOOP('',(#803,#809,#810,#811));
#803 = ORIENTED_EDGE('',*,*,#804,.T.);
#804 = EDGE_CURVE('',#270,#433,#805,.T.);
#805 = LINE('',#806,#807);
#806 = CARTESIAN_POINT('',(13.65,-41.,28.));
#807 = VECTOR('',#808,1.);
#808 = DIRECTION('',(1.478279455809E-16,-1.,-2.22044604925E-16));
#809 = ORIENTED_EDGE('',*,*,#432,.T.);
#810 = ORIENTED_EDGE('',*,*,#804,.F.);
#811 = ORIENTED_EDGE('',*,*,#269,.F.);
#812 = CYLINDRICAL_SURFACE('',#813,1.35);
#813 = AXIS2_PLACEMENT_3D('',#814,#815,#816);
#814 = CARTESIAN_POINT('',(15.,-41.,28.));
#815 = DIRECTION('',(-1.478279455809E-16,1.,2.22044604925E-16));
#816 = DIRECTION('',(-1.,-1.478279455809E-16,-2.536326566618E-17));
#817 = ADVANCED_FACE('',(#818),#829,.F.);
#818 = FACE_BOUND('',#819,.F.);
#819 = EDGE_LOOP('',(#820,#826,#827,#828));
#820 = ORIENTED_EDGE('',*,*,#821,.F.);
#821 = EDGE_CURVE('',#461,#680,#822,.T.);
#822 = LINE('',#823,#824);
#823 = CARTESIAN_POINT('',(-23.7,-43.5,8.5));
#824 = VECTOR('',#825,1.);
#825 = DIRECTION('',(6.977218665119E-17,4.440892098501E-16,-1.));
#826 = ORIENTED_EDGE('',*,*,#460,.T.);
#827 = ORIENTED_EDGE('',*,*,#821,.T.);
#828 = ORIENTED_EDGE('',*,*,#679,.F.);
#829 = CYLINDRICAL_SURFACE('',#830,1.7);
#830 = AXIS2_PLACEMENT_3D('',#831,#832,#833);
#831 = CARTESIAN_POINT('',(-22.,-43.5,8.5));
#832 = DIRECTION('',(2.536326566618E-17,4.440892098501E-16,-1.));
#833 = DIRECTION('',(-1.,-1.478279455809E-16,-2.536326566618E-17));
#834 = ADVANCED_FACE('',(#835),#846,.F.);
#835 = FACE_BOUND('',#836,.F.);
#836 = EDGE_LOOP('',(#837,#843,#844,#845));
#837 = ORIENTED_EDGE('',*,*,#838,.F.);
#838 = EDGE_CURVE('',#472,#691,#839,.T.);
#839 = LINE('',#840,#841);
#840 = CARTESIAN_POINT('',(-30.7,-43.5,8.5));
#841 = VECTOR('',#842,1.);
#842 = DIRECTION('',(6.977218665119E-17,4.440892098501E-16,-1.));
#843 = ORIENTED_EDGE('',*,*,#471,.T.);
#844 = ORIENTED_EDGE('',*,*,#838,.T.);
#845 = ORIENTED_EDGE('',*,*,#690,.F.);
#846 = CYLINDRICAL_SURFACE('',#847,1.7);
#847 = AXIS2_PLACEMENT_3D('',#848,#849,#850);
#848 = CARTESIAN_POINT('',(-29.,-43.5,8.5));
#849 = DIRECTION('',(2.536326566618E-17,4.440892098501E-16,-1.));
#850 = DIRECTION('',(-1.,-1.478279455809E-16,-2.536326566618E-17));
#851 = ADVANCED_FACE('',(#852),#863,.F.);
#852 = FACE_BOUND('',#853,.T.);
#853 = EDGE_LOOP('',(#854,#860,#861,#862));
#854 = ORIENTED_EDGE('',*,*,#855,.F.);
#855 = EDGE_CURVE('',#534,#590,#856,.T.);
#856 = LINE('',#857,#858);
#857 = CARTESIAN_POINT('',(23.7,-43.5,8.5));
#858 = VECTOR('',#859,1.);
#859 = DIRECTION('',(-1.904565531882E-17,4.440892098501E-16,-1.));
#860 = ORIENTED_EDGE('',*,*,#533,.T.);
#861 = ORIENTED_EDGE('',*,*,#855,.T.);
#862 = ORIENTED_EDGE('',*,*,#589,.F.);
#863 = CYLINDRICAL_SURFACE('',#864,1.7);
#864 = AXIS2_PLACEMENT_3D('',#865,#866,#867);
#865 = CARTESIAN_POINT('',(22.,-43.5,8.5));
#866 = DIRECTION('',(2.536326566618E-17,4.440892098501E-16,-1.));
#867 = DIRECTION('',(1.,1.478279455809E-16,2.536326566618E-17));
#868 = ADVANCED_FACE('',(#869),#880,.F.);
#869 = FACE_BOUND('',#870,.T.);
#870 = EDGE_LOOP('',(#871,#877,#878,#879));
#871 = ORIENTED_EDGE('',*,*,#872,.F.);
#872 = EDGE_CURVE('',#545,#601,#873,.T.);
#873 = LINE('',#874,#875);
#874 = CARTESIAN_POINT('',(30.7,-43.5,8.5));
#875 = VECTOR('',#876,1.);
#876 = DIRECTION('',(-1.904565531882E-17,4.440892098501E-16,-1.));
#877 = ORIENTED_EDGE('',*,*,#544,.T.);
#878 = ORIENTED_EDGE('',*,*,#872,.T.);
#879 = ORIENTED_EDGE('',*,*,#600,.F.);
#880 = CYLINDRICAL_SURFACE('',#881,1.7);
#881 = AXIS2_PLACEMENT_3D('',#882,#883,#884);
#882 = CARTESIAN_POINT('',(29.,-43.5,8.5));
#883 = DIRECTION('',(2.536326566618E-17,4.440892098501E-16,-1.));
#884 = DIRECTION('',(1.,1.478279455809E-16,2.536326566618E-17));
#885 = ( GEOMETRIC_REPRESENTATION_CONTEXT(3) 
GLOBAL_UNCERTAINTY_ASSIGNED_CONTEXT((#889)) GLOBAL_UNIT_ASSIGNED_CONTEXT
((#886,#887,#888)) REPRESENTATION_CONTEXT('Context #1',
  '3D Context with UNIT and UNCERTAINTY') );
#886 = ( LENGTH_UNIT() NAMED_UNIT(*) SI_UNIT(.MILLI.,.METRE.) );
#887 = ( NAMED_UNIT(*) PLANE_ANGLE_UNIT() SI_UNIT($,.RADIAN.) );
#888 = ( NAMED_UNIT(*) SI_UNIT($,.STERADIAN.) SOLID_ANGLE_UNIT() );
#889 = UNCERTAINTY_MEASURE_WITH_UNIT(LENGTH_MEASURE(1.E-07),#886,
  'distance_accuracy_value','confusion accuracy');
#890 = PRODUCT_RELATED_PRODUCT_CATEGORY('part',$,(#7));
#891 = MECHANICAL_DESIGN_GEOMETRIC_PRESENTATION_REPRESENTATION('',(#892)
  ,#885);
#892 = STYLED_ITEM('color',(#893),#15);
#893 = PRESENTATION_STYLE_ASSIGNMENT((#894,#900));
#894 = SURFACE_STYLE_USAGE(.BOTH.,#895);
#895 = SURFACE_SIDE_STYLE('',(#896));
#896 = SURFACE_STYLE_FILL_AREA(#897);
#897 = FILL_AREA_STYLE('',(#898));
#898 = FILL_AREA_STYLE_COLOUR('',#899);
#899 = COLOUR_RGB('',0.678431390124,0.709803936702,0.741176476869);
#900 = CURVE_STYLE('',#901,POSITIVE_LENGTH_MEASURE(0.1),#902);
#901 = DRAUGHTING_PRE_DEFINED_CURVE_FONT('continuous');
#902 = COLOUR_RGB('',9.803921802644E-02,9.803921802644E-02,
  9.803921802644E-02);
ENDSEC;
END-ISO-10303-21;
