<COLLADA xmlns="http://www.collada.org/2005/11/COLLADASchema" version="1.4.1">
  <asset>
    <contributor/>
    <created>2026-08-18T17:07:08.491973</created>
    <modified>2026-08-18T17:07:08.491976</modified>
    <unit name="meter" meter="1.0"/>
    <up_axis>Z_UP</up_axis>
  </asset>
  <library_effects>
    <effect id="effect_Body003_shape" name="effect_Body003_shape">
      <profile_COMMON>
        <technique sid="common">
          <phong>
            <emission>
              <color>0.0 0.0 0.0 1.0</color>
            </emission>
            <ambient>
              <color>0.0 0.0 0.0 1.0</color>
            </ambient>
            <diffuse>
              <color>0.6784313917160034 0.7098039388656616 0.7411764860153198 1.0</color>
            </diffuse>
            <specular>
              <color>1 1 1 1.0</color>
            </specular>
            <shininess>
              <float>0.0</float>
            </shininess>
            <reflective>
              <color>0.0 0.0 0.0 1.0</color>
            </reflective>
            <reflectivity>
              <float>0.0</float>
            </reflectivity>
            <transparent>
              <color>0.0 0.0 0.0 1.0</color>
            </transparent>
            <transparency>
              <float>1.0</float>
            </transparency>
          </phong>
        </technique>
        <extra>
          <technique profile="GOOGLEEARTH">
            <double_sided>0</double_sided>
          </technique>
        </extra>
      </profile_COMMON>
    </effect>
  </library_effects>
  <library_geometries>
    <geometry id="geometry0" name="Body003_shape">
      <mesh>
        <source id="cubeverts-array0">
          <float_array count="1968" id="cubeverts-array0-array">0.08988812 -0.00448613 0.0035 0.09 0 0.0035 0.09 0 0.0065 0.08988812 -0.00448613 0.0065 0.08955277 -0.008961106 0.0035 0.08955277 -0.008961106 0.0065 0.08899477 -0.0134138 0.0035 0.08899477 -0.0134138 0.0065 0.08821552 -0.01783315 0.0035 0.08821552 -0.01783315 0.0065 0.08721696 -0.02220817 0.0035 0.08721696 -0.02220817 0.0065 0.08600155 -0.02652797 0.0035 0.08600155 -0.02652797 0.0065 0.08457233 -0.03078181 0.0035 0.08457233 -0.03078181 0.0065 0.08293286 -0.03495913 0.0035 0.08293286 -0.03495913 0.0065 0.0810872 -0.03904954 0.0035 0.0810872 -0.03904954 0.0065 0.07903994 -0.04304286 0.0035 0.07903994 -0.04304286 0.0065 0.07679618 -0.04692917 0.0065 0.07679618 -0.04692917 0.0035 0.07436149 -0.05069881 0.0065 0.07436149 -0.05069881 0.0035 0.07174193 -0.0543424 0.0035 0.07174193 -0.0543424 0.0065 0.068944 -0.05785088 0.0035 0.068944 -0.05785088 0.0065 0.06597467 -0.06121555 0.0065 0.06597467 -0.06121555 0.0035 0.06284131 -0.06442802 0.0065 0.06284131 -0.06442802 0.0035 0.05955172 -0.06748031 0.0035 0.05955172 -0.06748031 0.0065 0.05611408 -0.07036483 0.0035 0.05611408 -0.07036483 0.0065 0.05253693 -0.07307442 0.0035 0.05253693 -0.07307442 0.0065 0.04882916 -0.07560233 0.0035 0.04882916 -0.07560233 0.0065 0.045 -0.07794228 0.0035 0.045 -0.07794228 0.0065 0.04105896 -0.08008846 0.0035 0.04105896 -0.08008846 0.0065 0.03701584 -0.08203553 0.0065 0.03701584 -0.08203553 0.0035 0.03288069 -0.08377864 0.0035 0.03288069 -0.08377864 0.0065 0.0286638 -0.08531346 0.0035 0.0286638 -0.08531346 0.0065 0.02437564 -0.08663618 0.0065 0.02437564 -0.08663618 0.0035 0.02002688 -0.08774352 0.0035 0.02002688 -0.08774352 0.0065 0.01562834 -0.0886327 0.0065 0.01562834 -0.0886327 0.0035 0.01119093 -0.08930153 0.0035 0.01119093 -0.08930153 0.0065 0.006725708 -0.08974834 0.0035 0.006725708 -0.08974834 0.0065 0.002243762 -0.08997202 0.0035 0.002243762 -0.08997202 0.0065 -0.002243762 -0.08997202 0.0065 -0.002243762 -0.08997202 0.0035 -0.006725708 -0.08974834 0.0035 -0.006725708 -0.08974834 0.0065 -0.01119093 -0.08930153 0.0035 -0.01119093 -0.08930153 0.0065 -0.01562834 -0.0886327 0.0035 -0.01562834 -0.0886327 0.0065 -0.02002688 -0.08774352 0.0035 -0.02002688 -0.08774352 0.0065 -0.02437564 -0.08663618 0.0035 -0.02437564 -0.08663618 0.0065 -0.0286638 -0.08531346 0.0035 -0.0286638 -0.08531346 0.0065 -0.03288069 -0.08377864 0.0065 -0.03288069 -0.08377864 0.0035 -0.03701584 -0.08203553 0.0035 -0.03701584 -0.08203553 0.0065 -0.04105896 -0.08008846 0.0035 -0.04105896 -0.08008846 0.0065 -0.045 -0.07794228 0.0035 -0.045 -0.07794228 0.0065 -0.04882916 -0.07560233 0.0035 -0.04882916 -0.07560233 0.0065 -0.05253693 -0.07307442 0.0035 -0.05253693 -0.07307442 0.0065 -0.05611408 -0.07036483 0.0035 -0.05611408 -0.07036483 0.0065 -0.05955172 -0.06748031 0.0035 -0.05955172 -0.06748031 0.0065 -0.06284131 -0.06442802 0.0035 -0.06284131 -0.06442802 0.0065 -0.06597467 -0.06121555 0.0065 -0.06597467 -0.06121555 0.0035 -0.068944 -0.05785088 0.0035 -0.068944 -0.05785088 0.0065 -0.07174193 -0.0543424 0.0035 -0.07174193 -0.0543424 0.0065 -0.07436149 -0.05069881 0.0035 -0.07436149 -0.05069881 0.0065 -0.07679618 -0.04692917 0.0035 -0.07679618 -0.04692917 0.0065 -0.07903994 -0.04304286 0.0035 -0.07903994 -0.04304286 0.0065 -0.0810872 -0.03904954 0.0035 -0.0810872 -0.03904954 0.0065 -0.08293286 -0.03495913 0.0065 -0.08293286 -0.03495913 0.0035 -0.08457233 -0.03078181 0.0035 -0.08457233 -0.03078181 0.0065 -0.08600155 -0.02652797 0.0035 -0.08600155 -0.02652797 0.0065 -0.08721696 -0.02220817 0.0035 -0.08721696 -0.02220817 0.0065 -0.08821552 -0.01783315 0.0035 -0.08821552 -0.01783315 0.0065 -0.08899477 -0.0134138 0.0035 -0.08899477 -0.0134138 0.0065 -0.08955277 -0.008961106 0.0035 -0.08955277 -0.008961106 0.0065 -0.08988812 -0.00448613 0.0035 -0.08988812 -0.00448613 0.0065 -0.09 -3.087224e-16 0.0035 -0.09 -3.087224e-16 0.0065 -0.08988812 0.00448613 0.0035 -0.08988812 0.00448613 0.0065 -0.08955277 0.008961106 0.0035 -0.08955277 0.008961106 0.0065 -0.08899477 0.0134138 0.0035 -0.08899477 0.0134138 0.0065 -0.08821552 0.01783315 0.0035 -0.08821552 0.01783315 0.0065 -0.08721696 0.02220817 0.0035 -0.08721696 0.02220817 0.0065 -0.08600155 0.02652797 0.0035 -0.08600155 0.02652797 0.0065 -0.08457233 0.03078181 0.0035 -0.08457233 0.03078181 0.0065 -0.08293286 0.03495913 0.0035 -0.08293286 0.03495913 0.0065 -0.0810872 0.03904954 0.0035 -0.0810872 0.03904954 0.0065 -0.07903994 0.04304286 0.0035 -0.07903994 0.04304286 0.0065 -0.07679618 0.04692917 0.0035 -0.07679618 0.04692917 0.0065 -0.07436149 0.05069881 0.0035 -0.07436149 0.05069881 0.0065 -0.07174193 0.0543424 0.0035 -0.07174193 0.0543424 0.0065 -0.068944 0.05785088 0.0035 -0.068944 0.05785088 0.0065 -0.06597467 0.06121555 0.0035 -0.06597467 0.06121555 0.0065 -0.06284131 0.06442802 0.0035 -0.06284131 0.06442802 0.0065 -0.05955172 0.06748031 0.0035 -0.05955172 0.06748031 0.0065 -0.05611408 0.07036483 0.0035 -0.05611408 0.07036483 0.0065 -0.05253693 0.07307442 0.0035 -0.05253693 0.07307442 0.0065 -0.04882916 0.07560233 0.0035 -0.04882916 0.07560233 0.0065 -0.045 0.07794228 0.0035 -0.045 0.07794228 0.0065 -0.04105896 0.08008846 0.0035 -0.04105896 0.08008846 0.0065 -0.03701584 0.08203553 0.0035 -0.03701584 0.08203553 0.0065 -0.03288069 0.08377864 0.0035 -0.03288069 0.08377864 0.0065 -0.0286638 0.08531346 0.0035 -0.0286638 0.08531346 0.0065 -0.02437564 0.08663618 0.0035 -0.02437564 0.08663618 0.0065 -0.02002688 0.08774352 0.0035 -0.02002688 0.08774352 0.0065 -0.01562834 0.0886327 0.0035 -0.01562834 0.0886327 0.0065 -0.01119093 0.08930153 0.0035 -0.01119093 0.08930153 0.0065 -0.006725708 0.08974834 0.0035 -0.006725708 0.08974834 0.0065 -0.002243762 0.08997202 0.0035 -0.002243762 0.08997202 0.0065 0.002243762 0.08997202 0.0035 0.002243762 0.08997202 0.0065 0.006725708 0.08974834 0.0035 0.006725708 0.08974834 0.0065 0.01119093 0.08930153 0.0035 0.01119093 0.08930153 0.0065 0.01562834 0.0886327 0.0035 0.01562834 0.0886327 0.0065 0.02002688 0.08774352 0.0035 0.02002688 0.08774352 0.0065 0.02437564 0.08663618 0.0065 0.02437564 0.08663618 0.0035 0.0286638 0.08531346 0.0035 0.0286638 0.08531346 0.0065 0.03288069 0.08377864 0.0065 0.03288069 0.08377864 0.0035 0.03701584 0.08203553 0.0035 0.03701584 0.08203553 0.0065 0.04105896 0.08008846 0.0035 0.04105896 0.08008846 0.0065 0.045 0.07794228 0.0035 0.045 0.07794228 0.0065 0.04882916 0.07560233 0.0065 0.04882916 0.07560233 0.0035 0.05253693 0.07307442 0.0035 0.05253693 0.07307442 0.0065 0.05611408 0.07036483 0.0035 0.05611408 0.07036483 0.0065 0.05955172 0.06748031 0.0035 0.05955172 0.06748031 0.0065 0.06284131 0.06442802 0.0035 0.06284131 0.06442802 0.0065 0.06597467 0.06121555 0.0035 0.06597467 0.06121555 0.0065 0.068944 0.05785088 0.0035 0.068944 0.05785088 0.0065 0.07174193 0.0543424 0.0035 0.07174193 0.0543424 0.0065 0.07436149 0.05069881 0.0065 0.07436149 0.05069881 0.0035 0.07679618 0.04692917 0.0065 0.07679618 0.04692917 0.0035 0.07903994 0.04304286 0.0035 0.07903994 0.04304286 0.0065 0.0810872 0.03904954 0.0035 0.0810872 0.03904954 0.0065 0.08293286 0.03495913 0.0035 0.08293286 0.03495913 0.0065 0.08457233 0.03078181 0.0035 0.08457233 0.03078181 0.0065 0.08600155 0.02652797 0.0035 0.08600155 0.02652797 0.0065 0.08721696 0.02220817 0.0035 0.08721696 0.02220817 0.0065 0.08821552 0.01783315 0.0035 0.08821552 0.01783315 0.0065 0.08899477 0.0134138 0.0035 0.08899477 0.0134138 0.0065 0.08955277 0.008961106 0.0035 0.08955277 0.008961106 0.0065 0.08988812 0.00448613 0.0035 0.08988812 0.00448613 0.0065 0.04723 0.061 0.0065 0.04722691 0.06090053 0.0035 0.04722691 0.06090053 0.0065 0.04723 0.061 0.0035 0.04721763 0.06080144 0.0035 0.04721763 0.06080144 0.0065 0.04720222 0.06070313 0.0035 0.04720222 0.06070313 0.0065 0.04718072 0.06060595 0.0035 0.04718072 0.06060595 0.0065 0.04715322 0.06051031 0.0035 0.04715322 0.06051031 0.0065 0.04711983 0.06041656 0.0065 0.04711983 0.06041656 0.0035 0.04708068 0.06032507 0.0035 0.04708068 0.06032507 0.0065 0.04703591 0.06023618 0.0065 0.04703591 0.06023618 0.0035 0.0469857 0.06015025 0.0035 0.0469857 0.06015025 0.0065 0.04693025 0.06006762 0.0035 0.04693025 0.06006762 0.0065 0.04686977 0.05998858 0.0035 0.04686977 0.05998858 0.0065 0.04680449 0.05991346 0.0035 0.04680449 0.05991346 0.0065 0.04673467 0.05984254 0.0035 0.04673467 0.05984254 0.0065 0.04666058 0.05977611 0.0035 0.04666058 0.05977611 0.0065 0.04658249 0.05971441 0.0035 0.04658249 0.05971441 0.0065 0.04650072 0.05965768 0.0035 0.04650072 0.05965768 0.0065 0.04641559 0.05960614 0.0035 0.04641559 0.05960614 0.0065 0.04632742 0.05956 0.0035 0.04632742 0.05956 0.0065 0.04623654 0.05951942 0.0035 0.04623654 0.05951942 0.0065 0.04614332 0.05948458 0.0035 0.04614332 0.05948458 0.0065 0.04604811 0.0594556 0.0035 0.04604811 0.0594556 0.0065 0.04595129 0.05943259 0.0035 0.04595129 0.05943259 0.0065 0.04585323 0.05941565 0.0035 0.04585323 0.05941565 0.0065 0.0457543 0.05940483 0.0035 0.0457543 0.05940483 0.0065 0.04565488 0.05940019 0.0035 0.04565488 0.05940019 0.0065 0.04555537 0.05940174 0.0065 0.04555537 0.05940174 0.0035 0.04545616 0.05940947 0.0035 0.04545616 0.05940947 0.0065 0.04535761 0.05942336 0.0035 0.04535761 0.05942336 0.0065 0.04526012 0.05944334 0.0035 0.04526012 0.05944334 0.0065 0.04516405 0.05946935 0.0035 0.04516405 0.05946935 0.0065 0.0450698 0.05950128 0.0035 0.0450698 0.05950128 0.0065 0.04497771 0.059539 0.0065 0.04497771 0.059539 0.0035 0.04488814 0.05958238 0.0035 0.04488814 0.05958238 0.0065 0.04480144 0.05963124 0.0065 0.04480144 0.05963124 0.0035 0.04471795 0.05968541 0.0035 0.04471795 0.05968541 0.0065 0.04463799 0.05974465 0.0035 0.04463799 0.05974465 0.0065 0.04456186 0.05980875 0.0065 0.04456186 0.05980875 0.0035 0.04448986 0.05987746 0.0035 0.04448986 0.05987746 0.0065 0.04442228 0.05995052 0.0035 0.04442228 0.05995052 0.0065 0.04435937 0.06002763 0.0035 0.04435937 0.06002763 0.0065 0.04430138 0.0601085 0.0035 0.04430138 0.0601085 0.0065 0.04424852 0.06019283 0.0035 0.04424852 0.06019283 0.0065 0.04420102 0.06028027 0.0065 0.04420102 0.06028027 0.0035 0.04415903 0.06037051 0.0065 0.04415903 0.06037051 0.0035 0.04412275 0.06046317 0.0035 0.04412275 0.06046317 0.0065 0.04409229 0.06055792 0.0035 0.04409229 0.06055792 0.0065 0.04406778 0.06065437 0.0035 0.04406778 0.06065437 0.0065 0.04404931 0.06075216 0.0035 0.04404931 0.06075216 0.0065 0.04403696 0.06085091 0.0035 0.04403696 0.06085091 0.0065 0.04403077 0.06095024 0.0035 0.04403077 0.06095024 0.0065 0.04403077 0.06104976 0.0035 0.04403077 0.06104976 0.0065 0.04403696 0.06114909 0.0035 0.04403696 0.06114909 0.0065 0.04404931 0.06124784 0.0035 0.04404931 0.06124784 0.0065 0.04406778 0.06134563 0.0035 0.04406778 0.06134563 0.0065 0.04409229 0.06144208 0.0065 0.04409229 0.06144208 0.0035 0.04412275 0.06153683 0.0035 0.04412275 0.06153683 0.0065 0.04415903 0.06162949 0.0035 0.04415903 0.06162949 0.0065 0.04420102 0.06171973 0.0035 0.04420102 0.06171973 0.0065 0.04424852 0.06180717 0.0065 0.04424852 0.06180717 0.0035 0.04430138 0.0618915 0.0065 0.04430138 0.0618915 0.0035 0.04435937 0.06197237 0.0065 0.04435937 0.06197237 0.0035 0.04442228 0.06204948 0.0035 0.04442228 0.06204948 0.0065 0.04448986 0.06212254 0.0065 0.04448986 0.06212254 0.0035 0.04456186 0.06219125 0.0065 0.04456186 0.06219125 0.0035 0.04463799 0.06225535 0.0035 0.04463799 0.06225535 0.0065 0.04471795 0.06231459 0.0065 0.04471795 0.06231459 0.0035 0.04480144 0.06236876 0.0065 0.04480144 0.06236876 0.0035 0.04488814 0.06241762 0.0065 0.04488814 0.06241762 0.0035 0.04497771 0.062461 0.0035 0.04497771 0.062461 0.0065 0.0450698 0.06249872 0.0065 0.0450698 0.06249872 0.0035 0.04516405 0.06253065 0.0065 0.04516405 0.06253065 0.0035 0.04526012 0.06255666 0.0035 0.04526012 0.06255666 0.0065 0.04535761 0.06257664 0.0035 0.04535761 0.06257664 0.0065 0.04545616 0.06259053 0.0035 0.04545616 0.06259053 0.0065 0.04555537 0.06259826 0.0035 0.04555537 0.06259826 0.0065 0.04565488 0.06259981 0.0035 0.04565488 0.06259981 0.0065 0.0457543 0.06259517 0.0035 0.0457543 0.06259517 0.0065 0.04585323 0.06258435 0.0035 0.04585323 0.06258435 0.0065 0.04595129 0.06256741 0.0035 0.04595129 0.06256741 0.0065 0.04604811 0.0625444 0.0035 0.04604811 0.0625444 0.0065 0.04614332 0.06251542 0.0035 0.04614332 0.06251542 0.0065 0.04623654 0.06248058 0.0035 0.04623654 0.06248058 0.0065 0.04632742 0.06244 0.0035 0.04632742 0.06244 0.0065 0.04641559 0.06239386 0.0035 0.04641559 0.06239386 0.0065 0.04650072 0.06234232 0.0035 0.04650072 0.06234232 0.0065 0.04658249 0.06228559 0.0035 0.04658249 0.06228559 0.0065 0.04666058 0.06222389 0.0035 0.04666058 0.06222389 0.0065 0.04673467 0.06215746 0.0035 0.04673467 0.06215746 0.0065 0.04680449 0.06208654 0.0035 0.04680449 0.06208654 0.0065 0.04686977 0.06201142 0.0035 0.04686977 0.06201142 0.0065 0.04693025 0.06193238 0.0035 0.04693025 0.06193238 0.0065 0.0469857 0.06184975 0.0035 0.0469857 0.06184975 0.0065 0.04703591 0.06176382 0.0035 0.04703591 0.06176382 0.0065 0.04708068 0.06167493 0.0035 0.04708068 0.06167493 0.0065 0.04711983 0.06158344 0.0035 0.04711983 0.06158344 0.0065 0.04715322 0.06148969 0.0035 0.04715322 0.06148969 0.0065 0.04718072 0.06139405 0.0035 0.04718072 0.06139405 0.0065 0.04720222 0.06129688 0.0035 0.04720222 0.06129688 0.0065 0.04721763 0.06119856 0.0035 0.04721763 0.06119856 0.0065 0.04722691 0.06109947 0.0035 0.04722691 0.06109947 0.0065 0.0772 0.009 0.0065 0.07719691 0.008900529 0.0035 0.07719691 0.008900529 0.0065 0.0772 0.009 0.0035 0.07718763 0.008801442 0.0035 0.07718763 0.008801442 0.0065 0.07717222 0.008703124 0.0035 0.07717222 0.008703124 0.0065 0.07715072 0.008605954 0.0035 0.07715072 0.008605954 0.0065 0.07712322 0.008510308 0.0035 0.07712322 0.008510308 0.0065 0.07708983 0.008416557 0.0065 0.07708983 0.008416557 0.0035 0.07705067 0.008325064 0.0035 0.07705067 0.008325064 0.0065 0.07700591 0.008236181 0.0065 0.07700591 0.008236181 0.0035 0.0769557 0.008150254 0.0035 0.0769557 0.008150254 0.0065 0.07690025 0.008067615 0.0035 0.07690025 0.008067615 0.0065 0.07683978 0.007988582 0.0035 0.07683978 0.007988582 0.0065 0.07677449 0.007913462 0.0035 0.07677449 0.007913462 0.0065 0.07670467 0.007842546 0.0035 0.07670467 0.007842546 0.0065 0.07663058 0.007776108 0.0035 0.07663058 0.007776108 0.0065 0.0765525 0.007714405 0.0035 0.0765525 0.007714405 0.0065 0.07647073 0.007657676 0.0035 0.07647073 0.007657676 0.0065 0.07638559 0.007606139 0.0035 0.07638559 0.007606139 0.0065 0.07629742 0.007559996 0.0035 0.07629742 0.007559996 0.0065 0.07620654 0.007519423 0.0035 0.07620654 0.007519423 0.0065 0.07611332 0.007484579 0.0035 0.07611332 0.007484579 0.0065 0.07601811 0.007455597 0.0035 0.07601811 0.007455597 0.0065 0.07592129 0.00743259 0.0035 0.07592129 0.00743259 0.0065 0.07582323 0.007415648 0.0035 0.07582323 0.007415648 0.0065 0.0757243 0.007404835 0.0035 0.0757243 0.007404835 0.0065 0.07562489 0.007400194 0.0035 0.07562489 0.007400194 0.0065 0.07552538 0.007401741 0.0065 0.07552538 0.007401741 0.0035 0.07542616 0.007409472 0.0035 0.07542616 0.007409472 0.0065 0.07532761 0.007423357 0.0035 0.07532761 0.007423357 0.0065 0.07523012 0.007443341 0.0035 0.07523012 0.007443341 0.0065 0.07513406 0.007469347 0.0035 0.07513406 0.007469347 0.0065 0.07503979 0.007501276 0.0035 0.07503979 0.007501276 0.0065 0.07494771 0.007539003 0.0065 0.07494771 0.007539003 0.0035 0.07485814 0.007582382 0.0035 0.07485814 0.007582382 0.0065 0.07477144 0.007631245 0.0065 0.07477144 0.007631245 0.0035 0.07468795 0.007685404 0.0035 0.07468795 0.007685404 0.0065 0.07460799 0.007744649 0.0035 0.07460799 0.007744649 0.0065 0.07453186 0.007808751 0.0065 0.07453186 0.007808751 0.0035 0.07445987 0.007877461 0.0035 0.07445987 0.007877461 0.0065 0.07439228 0.007950514 0.0035 0.07439228 0.007950514 0.0065 0.07432938 0.008027628 0.0035 0.07432938 0.008027628 0.0065 0.07427138 0.008108503 0.0035 0.07427138 0.008108503 0.0065 0.07421853 0.008192827 0.0035 0.07421853 0.008192827 0.0065 0.07417101 0.008280274 0.0065 0.07417101 0.008280274 0.0035 0.07412904 0.008370506 0.0065 0.07412904 0.008370506 0.0035 0.07409274 0.008463173 0.0035 0.07409274 0.008463173 0.0065 0.07406229 0.008557918 0.0035 0.07406229 0.008557918 0.0065 0.07403777 0.008654371 0.0035 0.07403777 0.008654371 0.0065 0.07401931 0.008752163 0.0035 0.07401931 0.008752163 0.0065 0.07400696 0.008850913 0.0035 0.07400696 0.008850913 0.0065 0.07400077 0.00895024 0.0035 0.07400077 0.00895024 0.0065 0.07400077 0.00904976 0.0035 0.07400077 0.00904976 0.0065 0.07400696 0.009149087 0.0035 0.07400696 0.009149087 0.0065 0.07401931 0.009247837 0.0035 0.07401931 0.009247837 0.0065 0.07403777 0.009345629 0.0035 0.07403777 0.009345629 0.0065 0.07406229 0.009442082 0.0065 0.07406229 0.009442082 0.0035 0.07409274 0.009536827 0.0035 0.07409274 0.009536827 0.0065 0.07412904 0.009629494 0.0035 0.07412904 0.009629494 0.0065 0.07417101 0.009719726 0.0035 0.07417101 0.009719726 0.0065 0.07421853 0.009807173 0.0065 0.07421853 0.009807173 0.0035 0.07427138 0.009891497 0.0065 0.07427138 0.009891497 0.0035 0.07432938 0.009972372 0.0065 0.07432938 0.009972372 0.0035 0.07439228 0.01004949 0.0035 0.07439228 0.01004949 0.0065 0.07445987 0.01012254 0.0065 0.07445987 0.01012254 0.0035 0.07453186 0.01019125 0.0065 0.07453186 0.01019125 0.0035 0.07460799 0.01025535 0.0035 0.07460799 0.01025535 0.0065 0.07468795 0.0103146 0.0065 0.07468795 0.0103146 0.0035 0.07477144 0.01036875 0.0065 0.07477144 0.01036875 0.0035 0.07485814 0.01041762 0.0065 0.07485814 0.01041762 0.0035 0.07494771 0.010461 0.0035 0.07494771 0.010461 0.0065 0.07503979 0.01049872 0.0065 0.07503979 0.01049872 0.0035 0.07513406 0.01053065 0.0065 0.07513406 0.01053065 0.0035 0.07523012 0.01055666 0.0035 0.07523012 0.01055666 0.0065 0.07532761 0.01057664 0.0035 0.07532761 0.01057664 0.0065 0.07542616 0.01059053 0.0035 0.07542616 0.01059053 0.0065 0.07552538 0.01059826 0.0035 0.07552538 0.01059826 0.0065 0.07562489 0.01059981 0.0035 0.07562489 0.01059981 0.0065 0.0757243 0.01059517 0.0035 0.0757243 0.01059517 0.0065 0.07582323 0.01058435 0.0035 0.07582323 0.01058435 0.0065 0.07592129 0.01056741 0.0035 0.07592129 0.01056741 0.0065 0.07601811 0.0105444 0.0035 0.07601811 0.0105444 0.0065 0.07611332 0.01051542 0.0035 0.07611332 0.01051542 0.0065 0.07620654 0.01048058 0.0035 0.07620654 0.01048058 0.0065 0.07629742 0.01044 0.0035 0.07629742 0.01044 0.0065 0.07638559 0.01039386 0.0035 0.07638559 0.01039386 0.0065 0.07647073 0.01034232 0.0035 0.07647073 0.01034232 0.0065 0.0765525 0.01028559 0.0035 0.0765525 0.01028559 0.0065 0.07663058 0.01022389 0.0035 0.07663058 0.01022389 0.0065 0.07670467 0.01015745 0.0035 0.07670467 0.01015745 0.0065 0.07677449 0.01008654 0.0035 0.07677449 0.01008654 0.0065 0.07683978 0.01001142 0.0035 0.07683978 0.01001142 0.0065 0.07690025 0.009932385 0.0035 0.07690025 0.009932385 0.0065 0.0769557 0.009849746 0.0035 0.0769557 0.009849746 0.0065 0.07700591 0.009763819 0.0035 0.07700591 0.009763819 0.0065 0.07705067 0.009674936 0.0035 0.07705067 0.009674936 0.0065 0.07708983 0.009583443 0.0035 0.07708983 0.009583443 0.0065 0.07712322 0.009489692 0.0035 0.07712322 0.009489692 0.0065 0.07715072 0.009394046 0.0035 0.07715072 0.009394046 0.0065 0.07717222 0.009296876 0.0035 0.07717222 0.009296876 0.0065 0.07718763 0.009198558 0.0035 0.07718763 0.009198558 0.0065 0.07719691 0.009099471 0.0035 0.07719691 0.009099471 0.0065</float_array>
          <technique_common>
            <accessor count="656" source="#cubeverts-array0-array" stride="3">
              <param type="float" name="X"/>
              <param type="float" name="Y"/>
              <param type="float" name="Z"/>
            </accessor>
          </technique_common>
        </source>
        <source id="cubenormals-array0">
          <float_array count="3948" id="cubenormals-array0-array">0.9996892 -0.02493077 0 0.9996892 -0.02493077 0 0.9972039 -0.07472941 0 0.9972039 -0.07472941 0 0.9922391 -0.1243444 0 0.9922391 -0.1243444 0 0.9848077 -0.1736483 0 0.9848077 -0.1736483 0 0.974928 -0.2225204 0 0.974928 -0.2225204 0 0.962624 -0.2708415 0 0.962624 -0.2708415 0 0.9479275 -0.3184862 0 0.9479275 -0.3184862 0 0.9308741 -0.3653401 0 0.9308741 -0.3653401 0 0.9115055 -0.4112879 0 0.9115055 -0.4112879 0 0.8660257 -0.4999994 0 0.8898718 -0.4562108 0 0.8898718 -0.4562108 0 0.8400257 -0.5425466 0 0.8660257 -0.4999994 0 0.8400257 -0.5425466 0 0.8119382 -0.5837435 0 0.8119382 -0.5837435 0 0.7818313 -0.6234901 0 0.7497814 -0.6616855 0 0.7818313 -0.6234901 0 0.7497814 -0.6616855 0 0.7158666 -0.6982371 0 0.7158666 -0.6982371 0 0.6801727 -0.733052 0 0.6801727 -0.733052 0 0.6427873 -0.7660447 0 0.6427873 -0.7660447 0 0.6038043 -0.7971326 0 0.6038043 -0.7971326 0 0.5633205 -0.8262385 0 0.5633205 -0.8262385 0 0.5214349 -0.8532911 0 0.5214349 -0.8532911 0 0.4338842 -0.9009686 0 0.4782545 -0.8782213 0 0.4782545 -0.8782213 0 0.4338842 -0.9009686 0 0.3884348 -0.9214762 0 0.3884348 -0.9214762 0 0.2947556 -0.9555727 0 0.3420196 -0.9396928 0 0.3420196 -0.9396928 0 0.2947556 -0.9555727 0 0.1981456 -0.9801726 0 0.2467574 -0.9690772 0 0.2467574 -0.9690772 0 0.1981456 -0.9801726 0 0.1490423 -0.9888308 0 0.1490423 -0.9888308 0 0.09956837 -0.9950307 0 0.09956837 -0.9950307 0 0 -1 0 0.04984454 -0.998757 0 0.04984454 -0.998757 0 0 -1 0 -0.04984454 -0.998757 0 -0.04984454 -0.998757 0 -0.09956837 -0.9950307 0 -0.09956837 -0.9950307 0 -0.1490423 -0.9888308 0 -0.1490423 -0.9888308 0 -0.1981456 -0.9801726 0 -0.1981456 -0.9801726 0 -0.2467574 -0.9690772 0 -0.2467574 -0.9690772 0 -0.2947556 -0.9555727 0 -0.3420196 -0.9396928 0 -0.2947556 -0.9555727 0 -0.3420196 -0.9396928 0 -0.3884348 -0.9214762 0 -0.3884348 -0.9214762 0 -0.4338842 -0.9009686 0 -0.4338842 -0.9009686 0 -0.4782545 -0.8782213 0 -0.4782545 -0.8782213 0 -0.5214349 -0.8532911 0 -0.5214349 -0.8532911 0 -0.5633205 -0.8262385 0 -0.5633205 -0.8262385 0 -0.6038043 -0.7971326 0 -0.6038043 -0.7971326 0 -0.6427873 -0.7660447 0 -0.6427873 -0.7660447 0 -0.7158666 -0.6982371 0 -0.6801727 -0.733052 0 -0.6801727 -0.733052 0 -0.7158666 -0.6982371 0 -0.7497814 -0.6616855 0 -0.7497814 -0.6616855 0 -0.7818313 -0.6234901 0 -0.7818313 -0.6234901 0 -0.8119382 -0.5837435 0 -0.8119382 -0.5837435 0 -0.8400257 -0.5425466 0 -0.8400257 -0.5425466 0 -0.8660257 -0.4999994 0 -0.8660257 -0.4999994 0 -0.8898718 -0.4562108 0 -0.9115055 -0.4112879 0 -0.8898718 -0.4562108 0 -0.9115055 -0.4112879 0 -0.9308741 -0.3653401 0 -0.9308741 -0.3653401 0 -0.9479275 -0.3184862 0 -0.9479275 -0.3184862 0 -0.962624 -0.2708415 0 -0.962624 -0.2708415 0 -0.974928 -0.2225204 0 -0.974928 -0.2225204 0 -0.9848077 -0.1736483 0 -0.9848077 -0.1736483 0 -0.9922391 -0.1243444 0 -0.9922391 -0.1243444 0 -0.9972039 -0.07472941 0 -0.9972039 -0.07472941 0 -0.9996892 -0.02493077 0 -0.9996892 -0.02493077 0 -0.9996892 0.02493077 0 -0.9996892 0.02493077 0 -0.9972039 0.07472941 0 -0.9972039 0.07472941 0 -0.9922391 0.1243444 0 -0.9922391 0.1243444 0 -0.9848077 0.1736483 0 -0.9848077 0.1736483 0 -0.974928 0.2225204 0 -0.974928 0.2225204 0 -0.962624 0.2708415 0 -0.962624 0.2708415 0 -0.9479275 0.3184862 0 -0.9479275 0.3184862 0 -0.9308741 0.3653401 0 -0.9308741 0.3653401 0 -0.9115055 0.4112879 0 -0.9115055 0.4112879 0 -0.8898718 0.4562108 0 -0.8898718 0.4562108 0 -0.8660257 0.4999994 0 -0.8660257 0.4999994 0 -0.8400257 0.5425466 0 -0.8400257 0.5425466 0 -0.8119382 0.5837435 0 -0.8119382 0.5837435 0 -0.7818313 0.6234901 0 -0.7818313 0.6234901 0 -0.7497814 0.6616855 0 -0.7497814 0.6616855 0 -0.7158666 0.6982371 0 -0.7158666 0.6982371 0 -0.6801727 0.733052 0 -0.6801727 0.733052 0 -0.6427873 0.7660447 0 -0.6427873 0.7660447 0 -0.6038043 0.7971326 0 -0.6038043 0.7971326 0 -0.5633205 0.8262385 0 -0.5633205 0.8262385 0 -0.5214349 0.8532911 0 -0.5214349 0.8532911 0 -0.4782545 0.8782213 0 -0.4782545 0.8782213 0 -0.4338842 0.9009686 0 -0.4338842 0.9009686 0 -0.3884348 0.9214762 0 -0.3884348 0.9214762 0 -0.3420196 0.9396928 0 -0.3420196 0.9396928 0 -0.2947556 0.9555727 0 -0.2947556 0.9555727 0 -0.2467574 0.9690772 0 -0.2467574 0.9690772 0 -0.1981456 0.9801726 0 -0.1981456 0.9801726 0 -0.1490423 0.9888308 0 -0.1490423 0.9888308 0 -0.09956837 0.9950307 0 -0.09956837 0.9950307 0 -0.04984454 0.998757 0 -0.04984454 0.998757 0 0 1 0 0 1 -0 0.04984454 0.998757 0 0.04984454 0.998757 -0 0.09956837 0.9950307 0 0.09956837 0.9950307 -0 0.1490423 0.9888308 0 0.1490423 0.9888308 -0 0.1981456 0.9801726 0 0.2467574 0.9690772 -0 0.1981456 0.9801726 -0 0.2467574 0.9690772 -0 0.2947556 0.9555727 0 0.3420196 0.9396928 -0 0.2947556 0.9555727 -0 0.3420196 0.9396928 -0 0.3884348 0.9214762 -0 0.3884348 0.9214762 0 0.4338842 0.9009686 -0 0.4338842 0.9009686 0 0.5214349 0.8532911 -0 0.4782545 0.8782213 -0 0.4782545 0.8782213 0 0.5214349 0.8532911 -0 0.5633205 0.8262385 -0 0.5633205 0.8262385 0 0.6038043 0.7971326 -0 0.6038043 0.7971326 0 0.6427873 0.7660447 -0 0.6427873 0.7660447 0 0.6801727 0.733052 -0 0.6801727 0.733052 0 0.7158666 0.6982371 -0 0.7158666 0.6982371 0 0.7497814 0.6616855 -0 0.7497814 0.6616855 0 0.7818313 0.6234901 0 0.8119382 0.5837435 -0 0.7818313 0.6234901 -0 0.8119382 0.5837435 -0 0.8400257 0.5425466 -0 0.8400257 0.5425466 -0 0.8660257 0.4999994 0 0.8660257 0.4999994 -0 0.8898718 0.4562108 0 0.8898718 0.4562108 -0 0.9115055 0.4112879 0 0.9115055 0.4112879 -0 0.9308741 0.3653401 0 0.9308741 0.3653401 -0 0.9479275 0.3184862 -0 0.9479275 0.3184862 0 0.962624 0.2708415 0 0.962624 0.2708415 -0 0.974928 0.2225204 -0 0.974928 0.2225204 0 0.9848077 0.1736483 -0 0.9848077 0.1736483 0 0.9922391 0.1243444 -0 0.9922391 0.1243444 0 0.9972039 0.07472941 -0 0.9972039 0.07472941 0 0.9996892 0.02493077 -0 0.9996892 0.02493077 0 -0.9995167 0.03108636 0 -0.9995167 0.03108636 0 -0.995649 0.09318278 0 -0.995649 0.09318278 0 -0.9879302 0.1548996 0 -0.9879302 0.1548996 0 -0.9763868 0.2160294 0 -0.9763868 0.2160294 0 -0.9610742 0.2762901 0 -0.9420347 0.3355155 0 -0.9610742 0.2762901 0 -0.9420347 0.3355155 0 -0.9193511 0.3934381 0 -0.8931047 0.4498488 0 -0.9193511 0.3934381 0 -0.8931047 0.4498488 0 -0.8634311 0.5044667 0 -0.8634311 0.5044667 0 -0.8303835 0.5571922 0 -0.8303835 0.5571922 0 -0.7941391 0.6077361 0 -0.7941391 0.6077361 0 -0.7548233 0.6559281 0 -0.7548233 0.6559281 0 -0.7126049 0.7015656 0 -0.7126049 0.7015656 0 -0.6675743 0.7445431 0 -0.6675743 0.7445431 0 -0.6200046 0.7845981 0 -0.6200046 0.7845981 0 -0.5700229 0.8216287 0 -0.5700229 0.8216287 0 -0.5178683 0.8554603 0 -0.5178683 0.8554603 0 -0.4636503 0.8860182 0 -0.4636503 0.8860182 0 -0.4076885 0.9131211 0 -0.4076885 0.9131211 0 -0.3501529 0.9366926 0 -0.3501529 0.9366926 0 -0.2911997 0.9566622 0 -0.2911997 0.9566622 0 -0.2311731 0.9729127 0 -0.2311731 0.9729127 0 -0.170233 0.9854038 0 -0.170233 0.9854038 0 -0.1086686 0.994078 0 -0.1086686 0.994078 0 -0.04664908 0.9989114 0 0.01556202 0.9998789 0 -0.04664908 0.9989114 0 0.01556202 0.9998789 0 0.07769895 0.9969769 -0 0.07769895 0.9969769 0 0.1394839 0.9902243 -0 0.1394839 0.9902243 0 0.2008168 0.9796288 -0 0.2008168 0.9796288 0 0.2613396 0.9652469 -0 0.2613396 0.9652469 0 0.3208353 0.947135 -0 0.3790641 0.9253704 0 0.3208353 0.947135 0 0.3790641 0.9253704 0 0.4358935 0.8999982 -0 0.4909908 0.8711647 0 0.4358935 0.8999982 0 0.4909908 0.8711647 0 0.5442188 0.8389433 -0 0.5442188 0.8389433 0 0.5952917 0.8035097 -0 0.6441121 0.7649311 0 0.5952917 0.8035097 0 0.6441121 0.7649311 0 0.6904128 0.7234156 -0 0.6904128 0.7234156 0 0.7340741 0.6790693 -0 0.7340741 0.6790693 0 0.7748532 0.6321413 0 0.7748532 0.6321413 -0 0.8126547 0.5827456 0 0.8126547 0.5827456 -0 0.8473129 0.5310941 0 0.8473129 0.5310941 -0 0.906675 0.4218297 0 0.8786913 0.4773904 0 0.8786913 0.4773904 -0 0.906675 0.4218297 0 0.931146 0.3646465 0 0.931146 0.3646465 -0 0.9520099 0.3060675 0 0.9520099 0.3060675 -0 0.9691995 0.2462767 0 0.9691995 0.2462767 -0 0.9826393 0.1855266 0 0.9826393 0.1855266 -0 0.9922678 0.1241149 -0 0.9922678 0.1241149 0 0.9980654 0.06217306 -0 0.9980654 0.06217306 0 1 0 0 1 -0 0 0.9980654 -0.06217306 0 0.9980654 -0.06217306 0 0.9922678 -0.1241149 0 0.9922678 -0.1241149 0 0.9826393 -0.1855266 0 0.9691995 -0.2462767 0 0.9826393 -0.1855266 0 0.9691995 -0.2462767 0 0.9520099 -0.3060675 0 0.9520099 -0.3060675 0 0.931146 -0.3646465 0 0.931146 -0.3646465 0 0.906675 -0.4218297 0 0.8786913 -0.4773904 0 0.906675 -0.4218297 0 0.8786913 -0.4773904 0 0.8126547 -0.5827456 0 0.8473129 -0.5310941 0 0.8473129 -0.5310941 0 0.8126547 -0.5827456 0 0.7748532 -0.6321413 0 0.7748532 -0.6321413 0 0.6904128 -0.7234156 0 0.7340741 -0.6790693 0 0.7340741 -0.6790693 0 0.6904128 -0.7234156 0 0.6441121 -0.7649311 0 0.6441121 -0.7649311 0 0.5442188 -0.8389433 0 0.5952917 -0.8035097 0 0.5952917 -0.8035097 0 0.4909908 -0.8711647 0 0.5442188 -0.8389433 0 0.4909908 -0.8711647 0 0.4358935 -0.8999982 0 0.4358935 -0.8999982 0 0.3208353 -0.947135 0 0.3790641 -0.9253704 0 0.3790641 -0.9253704 0 0.3208353 -0.947135 0 0.2613396 -0.9652469 0 0.2613396 -0.9652469 0 0.2008168 -0.9796288 0 0.2008168 -0.9796288 0 0.1394839 -0.9902243 0 0.1394839 -0.9902243 0 0.07769895 -0.9969769 0 0.07769895 -0.9969769 0 0.01556202 -0.9998789 0 0.01556202 -0.9998789 0 -0.04664908 -0.9989114 0 -0.04664908 -0.9989114 0 -0.1086686 -0.994078 0 -0.1086686 -0.994078 0 -0.170233 -0.9854038 0 -0.170233 -0.9854038 0 -0.2311731 -0.9729127 0 -0.2311731 -0.9729127 0 -0.2911997 -0.9566622 0 -0.2911997 -0.9566622 0 -0.3501529 -0.9366926 0 -0.3501529 -0.9366926 0 -0.4076885 -0.9131211 0 -0.4076885 -0.9131211 0 -0.4636503 -0.8860182 0 -0.4636503 -0.8860182 0 -0.5178683 -0.8554603 0 -0.5178683 -0.8554603 0 -0.5700229 -0.8216287 0 -0.5700229 -0.8216287 0 -0.6200046 -0.7845981 0 -0.6200046 -0.7845981 0 -0.6675743 -0.7445431 0 -0.6675743 -0.7445431 0 -0.7126049 -0.7015656 0 -0.7126049 -0.7015656 0 -0.7548233 -0.6559281 0 -0.7548233 -0.6559281 0 -0.7941391 -0.6077361 0 -0.7941391 -0.6077361 0 -0.8303835 -0.5571922 0 -0.8303835 -0.5571922 0 -0.8634311 -0.5044667 0 -0.8634311 -0.5044667 0 -0.8931047 -0.4498488 0 -0.8931047 -0.4498488 0 -0.9193511 -0.3934381 0 -0.9193511 -0.3934381 0 -0.9420347 -0.3355155 0 -0.9420347 -0.3355155 0 -0.9610742 -0.2762901 0 -0.9610742 -0.2762901 0 -0.9763868 -0.2160294 0 -0.9763868 -0.2160294 0 -0.9879302 -0.1548996 0 -0.9879302 -0.1548996 0 -0.995649 -0.09318278 0 -0.995649 -0.09318278 0 -0.9995167 -0.03108636 0 -0.9995167 -0.03108636 0 -0.9995179 0.03104837 0 -0.9995179 0.03104837 0 -0.9956455 0.09322078 0 -0.9956455 0.09322078 0 -0.9879366 0.1548592 0 -0.9879366 0.1548592 0 -0.976386 0.2160334 0 -0.976386 0.2160334 0 -0.9610742 0.2762901 0 -0.9420236 0.3355465 0 -0.9610742 0.2762901 0 -0.9420236 0.3355465 0 -0.9193541 0.3934312 0 -0.8931356 0.4497877 0 -0.9193541 0.3934312 0 -0.8931356 0.4497877 0 -0.8634071 0.5045078 0 -0.8634071 0.5045078 0 -0.8303895 0.5571834 0 -0.8303895 0.5571834 0 -0.7941576 0.6077119 0 -0.7941576 0.6077119 0 -0.7547874 0.6559694 0 -0.7547874 0.6559694 0 -0.7126098 0.7015605 0 -0.7126098 0.7015605 0 -0.6675823 0.7445361 0 -0.6675823 0.7445361 0 -0.6200233 0.7845834 0 -0.6200233 0.7845834 0 -0.5700114 0.8216367 0 -0.5700114 0.8216367 0 -0.5178514 0.8554706 0 -0.5178514 0.8554706 0 -0.4636736 0.8860061 0 -0.4636736 0.8860061 0 -0.4076805 0.9131246 0 -0.4076805 0.9131246 0 -0.3501193 0.9367051 0 -0.3501193 0.9367051 0 -0.2912085 0.9566596 0 -0.2912085 0.9566596 0 -0.2311776 0.9729115 0 -0.2311776 0.9729115 0 -0.1702533 0.9854003 0 -0.1702533 0.9854003 0 -0.1086496 0.99408 0 -0.1086496 0.99408 0 -0.04663952 0.9989117 0 0.01554765 0.9998791 0 -0.04663952 0.9989117 0 0.01554765 0.9998791 0 0.07768647 0.9969779 -0 0.07768647 0.9969779 0 0.1395227 0.9902189 -0 0.1395227 0.9902189 0 0.2007955 0.9796332 -0 0.2007955 0.9796332 0 0.2613218 0.9652518 -0 0.2613218 0.9652518 0 0.3208194 0.9471404 -0 0.3791063 0.9253531 0 0.3208194 0.9471404 0 0.3791063 0.9253531 0 0.435878 0.9000058 -0 0.4909817 0.8711699 0 0.435878 0.9000058 0 0.4909817 0.8711699 0 0.5442228 0.8389407 -0 0.5442228 0.8389407 0 0.5953103 0.8034959 -0 0.6441066 0.7649358 0 0.5953103 0.8034959 0 0.6441066 0.7649358 0 0.690432 0.7233973 -0 0.690432 0.7233973 0 0.734027 0.6791202 -0 0.734027 0.6791202 0 0.7748853 0.6321018 0 0.7748853 0.6321018 -0 0.8126365 0.5827709 0 0.8126365 0.5827709 -0 0.8473365 0.5310563 0 0.8473365 0.5310563 -0 0.906688 0.4218018 0 0.8786657 0.4774376 0 0.8786657 0.4774376 -0 0.906688 0.4218018 0 0.931133 0.3646797 0 0.931133 0.3646797 -0 0.95202 0.3060355 0 0.95202 0.3060355 -0 0.9691899 0.246315 0 0.9691899 0.246315 -0 0.98264 0.1855231 0 0.98264 0.1855231 -0 0.9922677 0.1241161 -0 0.9922677 0.1241161 0 0.9980654 0.06217306 -0 0.9980654 0.06217306 0 1 0 0 1 -0 0 0.9980654 -0.06217306 0 0.9980654 -0.06217306 0 0.9922677 -0.1241161 0 0.9922677 -0.1241161 0 0.98264 -0.1855231 0 0.9691899 -0.246315 0 0.98264 -0.1855231 0 0.9691899 -0.246315 0 0.95202 -0.3060355 0 0.95202 -0.3060355 0 0.931133 -0.3646797 0 0.931133 -0.3646797 0 0.906688 -0.4218018 0 0.8786657 -0.4774376 0 0.906688 -0.4218018 0 0.8786657 -0.4774376 0 0.8126365 -0.5827709 0 0.8473365 -0.5310563 0 0.8473365 -0.5310563 0 0.8126365 -0.5827709 0 0.7748873 -0.6320994 0 0.7748873 -0.6320994 0 0.690432 -0.7233973 0 0.7340227 -0.679125 0 0.7340227 -0.679125 0 0.690432 -0.7233973 0 0.6441121 -0.7649311 0 0.6441121 -0.7649311 0 0.5442161 -0.8389451 0 0.5953103 -0.8034959 0 0.5953103 -0.8034959 0 0.4909817 -0.8711699 0 0.5442161 -0.8389451 0 0.4909817 -0.8711699 0 0.4358858 -0.900002 0 0.4358858 -0.900002 0 0.3208151 -0.9471418 0 0.3791022 -0.9253548 0 0.3791022 -0.9253548 0 0.3208151 -0.9471418 0 0.2613218 -0.9652518 0 0.2613218 -0.9652518 0 0.2008001 -0.9796322 0 0.2008001 -0.9796322 0 0.1395227 -0.9902189 0 0.1395227 -0.9902189 0 0.07768647 -0.9969779 0 0.07768647 -0.9969779 0 0.01555244 -0.999879 0 0.01555244 -0.999879 0 -0.04663952 -0.9989117 0 -0.04663952 -0.9989117 0 -0.1086591 -0.9940791 0 -0.1086591 -0.9940791 0 -0.1702487 -0.9854011 0 -0.1702487 -0.9854011 0 -0.2311731 -0.9729127 0 -0.2311731 -0.9729127 0 -0.2912173 -0.9566569 0 -0.2912173 -0.9566569 0 -0.3501151 -0.9367066 0 -0.3501151 -0.9367066 0 -0.4076805 -0.9131246 0 -0.4076805 -0.9131246 0 -0.4636736 -0.8860061 0 -0.4636736 -0.8860061 0 -0.5178514 -0.8554706 0 -0.5178514 -0.8554706 0 -0.5700114 -0.8216367 0 -0.5700114 -0.8216367 0 -0.6200233 -0.7845834 0 -0.6200233 -0.7845834 0 -0.667585 -0.7445336 0 -0.667585 -0.7445336 0 -0.7126052 -0.7015653 0 -0.7126052 -0.7015653 0 -0.7547895 -0.6559671 0 -0.7547895 -0.6559671 0 -0.7941576 -0.6077119 0 -0.7941576 -0.6077119 0 -0.8303895 -0.5571834 0 -0.8303895 -0.5571834 0 -0.8634071 -0.5045078 0 -0.8634071 -0.5045078 0 -0.8931356 -0.4497877 0 -0.8931356 -0.4497877 0 -0.9193541 -0.3934312 0 -0.9193541 -0.3934312 0 -0.9420236 -0.3355465 0 -0.9420236 -0.3355465 0 -0.9610742 -0.2762901 0 -0.9610742 -0.2762901 0 -0.976386 -0.2160334 0 -0.976386 -0.2160334 0 -0.9879366 -0.1548592 0 -0.9879366 -0.1548592 0 -0.9956455 -0.09322078 0 -0.9956455 -0.09322078 0 -0.9995179 -0.03104837 0 -0.9995179 -0.03104837 0 0 0 -1 0 0 -1 0 0 -1 0 0 -1 0 0 -1 0 0 -1 0 0 -1 0 0 -1 0 0 -1 0 0 -1 0 0 -1 0 0 -1 0 0 -1 0 0 -1 0 0 -1 0 0 -1 0 0 -1 0 0 -1 0 0 -1 0 0 -1 0 0 -1 0 0 -1 0 0 -1 0 0 -1 0 0 -1 0 0 -1 0 0 -1 0 0 -1 0 0 -1 0 0 -1 0 0 -1 0 0 -1 0 0 -1 0 0 -1 0 0 -1 0 0 -1 0 0 -1 0 0 -1 0 0 -1 0 0 -1 0 0 -1 0 0 -1 0 0 -1 0 0 -1 0 0 -1 0 0 -1 0 0 -1 0 0 -1 0 0 -1 0 0 -1 0 0 -1 0 0 -1 0 0 -1 0 0 -1 0 0 -1 0 0 -1 0 0 -1 0 0 -1 0 0 -1 0 0 -1 0 0 -1 0 0 -1 0 0 -1 0 0 -1 0 0 -1 0 0 -1 0 0 -1 0 0 -1 0 0 -1 0 0 -1 0 0 -1 0 0 -1 0 0 -1 0 0 -1 0 0 -1 0 -0 -1 0 -0 -1 0 -0 -1 0 -0 -1 0 -0 -1 0 0 -1 0 -0 -1 0 -0 -1 0 -0 -1 0 -0 -1 0 -0 -1 0 -0 -1 0 0 -1 0 -0 -1 0 -0 -1 0 -0 -1 0 -0 -1 0 -0 -1 0 -0 -1 0 -0 -1 0 -0 -1 0 0 -1 0 -0 -1 0 -0 -1 0 -0 -1 0 -0 -1 0 -0 -1 0 0 -1 0 0 -1 0 0 -1 0 0 -1 0 0 -1 0 0 -1 0 0 -1 0 0 -1 0 0 -1 0 0 -1 0 0 -1 0 0 -1 0 0 -1 0 -0 -1 0 -0 -1 0 -0 -1 0 -0 -1 0 -0 -1 0 -0 -1 0 -0 -1 0 -0 -1 0 -0 -1 0 -0 -1 0 -0 -1 0 -0 -1 0 -0 -1 0 0 -1 0 0 -1 0 0 -1 0 0 -1 0 0 -1 0 0 -1 0 -0 -1 0 0 -1 0 -0 -1 0 -0 -1 0 -0 -1 0 -0 -1 0 -0 -1 0 -0 -1 0 -0 -1 0 0 -1 0 0 -1 0 0 -1 0 0 -1 0 0 -1 0 0 -1 0 0 -1 0 -0 -1 0 -0 -1 0 -0 -1 0 -0 -1 0 0 -1 0 0 -1 0 0 -1 0 -0 -1 0 -0 -1 0 -0 -1 0 0 -1 0 0 -1 0 -0 -1 0 -0 -1 0 0 -1 0 0 -1 0 0 -1 0 -0 -1 0 -0 -1 0 0 -1 0 0 -1 0 0 -1 -0 -0 -1 0 -0 -1 0 0 -1 0 0 -1 0 0 -1 -0 -0 -1 0 0 -1 0 0 -1 0 0 -1 0 0 -1 -0 -0 -1 0 0 -1 0 0 -1 -0 -0 -1 0 0 -1 0 0 -1 0 0 -1 0 0 -1 0 0 -1 0 0 -1 0 0 -1 0 0 -1 0 0 -1 0 0 -1 0 0 -1 0 0 -1 0 0 -1 0 0 -1 0 0 -1 0 0 -1 0 0 -1 0 0 -1 0 0 -1 0 0 -1 0 0 -1 0 0 -1 0 0 -1 0 0 -1 0 0 -1 0 0 -1 0 0 -1 0 0 -1 0 0 -1 0 0 -1 0 0 -1 0 0 -1 0 0 -1 0 0 -1 0 0 -1 0 0 -1 0 0 -1 0 0 -1 0 0 -1 0 0 -1 0 0 -1 0 0 -1 0 0 -1 0 0 -1 0 0 -1 0 0 -1 0 0 -1 0 0 -1 0 0 -1 0 0 -1 0 0 -1 0 0 -1 0 0 -1 0 0 -1 0 0 -1 0 0 -1 0 0 -1 0 0 -1 0 0 -1 0 0 -1 0 0 -1 0 0 -1 0 0 -1 0 0 -1 0 0 -1 0 0 -1 0 0 -1 0 0 -1 0 0 -1 0 0 -1 0 0 -1 0 0 -1 0 0 -1 0 0 -1 0 0 -1 0 0 -1 0 0 -1 0 0 -1 0 0 -1 0 0 -1 0 -0 -1 0 -0 -1 0 0 -1 0 0 -1 0 0 -1 0 0 -1 0 0 -1 0 0 -1 0 0 -1 0 0 -1 0 0 -1 0 0 -1 0 0 -1 0 -0 -1 0 -0 -1 0 0 -1 0 0 -1 0 0 -1 0 -0 -1 0 0 -1 0 0 -1 0 0 -1 0 0 -1 0 0 -1 0 0 -1 0 -0 -1 0 -0 -1 0 -0 -1 0 0 -1 0 0 -1 0 0 -1 0 0 -1 0 0 -1 0 0 -1 0 0 -1 0 0 -1 0 0 -1 0 -0 -1 0 -0 -1 0 -0 -1 0 -0 -1 0 0 -1 0 -0 -1 0 -0 -1 0 0 -1 0 0 -1 0 0 -1 0 0 -1 0 0 -1 0 0 -1 0 -0 -1 0 -0 -1 0 -0 -1 0 -0 -1 0 -0 -1 0 0 -1 0 -0 -1 0 -0 -1 0 -0 -1 0 -0 -1 0 -0 -1 0 -0 -1 0 0 -1 0 -0 -1 0 0 1 0 0 1 0 0 1 0 0 1 0 0 1 0 0 1 0 0 1 0 0 1 0 0 1 0 0 1 0 0 1 0 0 1 0 0 1 0 0 1 0 0 1 0 0 1 0 0 1 0 0 1 0 0 1 0 0 1 0 0 1 0 0 1 0 0 1 0 0 1 0 0 1 0 0 1 0 0 1 0 0 1 0 0 1 0 0 1 0 0 1 0 0 1 0 0 1 0 0 1 0 0 1 0 0 1 0 0 1 0 0 1 0 0 1 0 0 1 0 0 1 0 0 1 0 0 1 0 0 1 0 0 1 0 0 1 0 0 1 0 0 1 0 0 1 0 0 1 0 0 1 0 0 1 0 0 1 0 0 1 0 0 1 0 0 1 0 0 1 0 0 1 0 0 1 0 0 1 0 0 1 0 0 1 0 0 1 0 0 1 0 0 1 0 0 1 0 0 1 0 0 1 0 0 1 0 0 1 0 0 1 0 0 1 0 0 1 0 0 1 0 0 1 0 0 1 0 0 1 0 0 1 0 0 1 0 0 1 0 0 1 0 0 1 0 0 1 0 0 1 0 0 1 0 0 1 0 0 1 0 0 1 0 0 1 0 0 1 0 0 1 0 0 1 0 0 1 0 0 1 0 0 1 0 0 1 0 0 1 0 0 1 0 0 1 0 0 1 0 0 1 0 0 1 0 0 1 0 0 1 0 0 1 0 0 1 0 0 1 0 0 1 0 0 1 0 0 1 0 0 1 0 0 1 0 0 1 0 0 1 0 0 1 0 0 1 0 0 1 0 0 1 0 0 1 0 0 1 0 0 1 0 0 1 0 0 1 0 0 1 0 0 1 0 0 1 0 0 1 0 0 1 0 0 1 0 0 1 0 0 1 0 0 1 0 0 1 0 0 1 0 0 1 0 0 1 0 0 1 0 0 1 0 0 1 0 0 1 0 0 1 0 0 1 0 0 1 0 0 1 0 0 1 0 0 1 0 0 1 0 0 1 0 0 1 0 0 1 0 0 1 0 0 1 0 0 1 0 0 1 0 0 1 0 0 1 0 0 1 0 0 1 0 0 1 0 0 1 0 0 1 0 0 1 0 0 1 0 0 1 0 0 1 0 0 1 0 0 1 0 0 1 0 0 1 0 0 1 0 0 1 0 0 1 0 0 1 0 0 1 0 0 1 0 0 1 0 0 1 0 0 1 0 0 1 0 0 1 0 0 1 0 0 1 0 0 1 0 0 1 0 0 1 0 0 1 0 0 1 0 0 1 0 0 1 0 0 1 0 0 1 0 0 1 0 0 1 0 0 1 0 0 1 0 0 1 0 0 1 0 0 1 0 0 1 0 0 1 0 0 1 0 0 1 0 0 1 0 0 1 0 0 1 0 0 1 0 0 1 0 0 1 0 0 1 0 0 1 0 0 1 0 0 1 0 0 1 0 0 1 0 0 1 0 0 1 0 0 1 0 0 1 0 0 1 0 0 1 0 0 1 0 0 1 0 0 1 0 0 1 0 0 1 0 0 1 0 0 1 0 0 1 0 0 1 0 0 1 0 0 1 0 0 1 0 0 1 0 0 1 0 0 1 0 0 1 0 0 1 0 0 1 0 0 1 0 0 1 0 0 1 0 0 1 0 0 1 0 0 1 0 0 1 0 0 1 0 0 1 0 0 1 0 0 1 0 0 1 0 0 1 0 0 1 0 0 1 0 0 1 0 0 1 0 0 1 0 0 1 0 0 1 0 0 1 0 0 1 0 0 1 0 0 1 0 0 1 0 0 1 0 0 1 0 0 1 0 0 1 0 0 1 0 0 1 0 0 1 0 0 1 0 0 1 0 0 1 0 0 1 0 0 1 0 0 1 0 0 1 0 0 1 0 0 1 0 0 1 0 0 1 0 0 1 0 0 1 0 0 1 0 0 1 0 0 1 0 0 1 0 0 1 0 0 1 0 0 1 0 0 1 0 0 1 0 0 1 0 0 1 0 0 1 0 0 1 0 0 1 0 0 1 0 0 1 0 0 1 0 0 1 0 0 1 0 0 1 0 0 1 0 0 1 0 0 1 0 0 1 0 0 1 0 0 1 0 0 1 0 0 1 0 0 1 0 0 1 0 0 1 0 0 1 0 0 1 0 0 1 0 0 1 0 0 1 0 0 1 0 0 1 0 0 1 0 0 1 0 0 1 0 0 1 0 0 1 0 0 1 0 0 1 0 0 1 0 0 1</float_array>
          <technique_common>
            <accessor count="1316" source="#cubenormals-array0-array" stride="3">
              <param type="float" name="X"/>
              <param type="float" name="Y"/>
              <param type="float" name="Z"/>
            </accessor>
          </technique_common>
        </source>
        <vertices id="cubeverts-array0-vertices">
          <input semantic="POSITION" source="#cubeverts-array0"/>
        </vertices>
        <triangles count="1316" material="ref_Body003_shape">
          <input offset="0" semantic="VERTEX" source="#cubeverts-array0-vertices"/>
          <input offset="1" semantic="NORMAL" source="#cubenormals-array0"/>
          <p>0 0 1 0 2 0 0 1 2 1 3 1 4 2 3 2 5 2 4 3 0 3 3 3 6 4 5 4 7 4 6 5 4 5 5 5 8 6 7 6 9 6 8 7 6 7 7 7 10 8 9 8 11 8 10 9 8 9 9 9 12 10 11 10 13 10 12 11 10 11 11 11 14 12 13 12 15 12 14 13 12 13 13 13 16 14 15 14 17 14 16 15 14 15 15 15 18 16 17 16 19 16 18 17 16 17 17 17 20 18 21 18 22 18 20 19 19 19 21 19 20 20 18 20 19 20 23 21 22 21 24 21 23 22 20 22 22 22 25 23 23 23 24 23 26 24 25 24 24 24 26 25 24 25 27 25 28 26 26 26 27 26 28 27 29 27 30 27 28 28 27 28 29 28 31 29 28 29 30 29 31 30 30 30 32 30 33 31 31 31 32 31 34 32 33 32 32 32 34 33 32 33 35 33 36 34 34 34 35 34 36 35 35 35 37 35 38 36 37 36 39 36 38 37 36 37 37 37 40 38 39 38 41 38 40 39 38 39 39 39 42 40 41 40 43 40 42 41 40 41 41 41 44 42 45 42 46 42 44 43 43 43 45 43 44 44 42 44 43 44 47 45 44 45 46 45 48 46 46 46 49 46 48 47 47 47 46 47 50 48 51 48 52 48 50 49 49 49 51 49 50 50 48 50 49 50 53 51 50 51 52 51 54 52 55 52 56 52 54 53 52 53 55 53 54 54 53 54 52 54 57 55 54 55 56 55 58 56 56 56 59 56 58 57 57 57 56 57 60 58 59 58 61 58 60 59 58 59 59 59 62 60 63 60 64 60 62 61 61 61 63 61 62 62 60 62 61 62 65 63 62 63 64 63 66 64 64 64 67 64 66 65 65 65 64 65 68 66 67 66 69 66 68 67 66 67 67 67 70 68 69 68 71 68 70 69 68 69 69 69 72 70 70 70 71 70 72 71 71 71 73 71 74 72 72 72 73 72 74 73 73 73 75 73 76 74 74 74 75 74 76 75 77 75 78 75 76 76 75 76 77 76 79 77 76 77 78 77 80 78 78 78 81 78 80 79 79 79 78 79 82 80 81 80 83 80 82 81 80 81 81 81 84 82 83 82 85 82 84 83 82 83 83 83 86 84 85 84 87 84 86 85 84 85 85 85 88 86 87 86 89 86 88 87 86 87 87 87 90 88 89 88 91 88 90 89 88 89 89 89 92 90 91 90 93 90 92 91 90 91 91 91 94 92 95 92 96 92 94 93 93 93 95 93 94 94 92 94 93 94 97 95 94 95 96 95 98 96 96 96 99 96 98 97 97 97 96 97 100 98 99 98 101 98 100 99 98 99 99 99 102 100 101 100 103 100 102 101 100 101 101 101 104 102 103 102 105 102 104 103 102 103 103 103 106 104 104 104 105 104 106 105 105 105 107 105 108 106 106 106 107 106 108 107 109 107 110 107 108 108 107 108 109 108 111 109 108 109 110 109 112 110 111 110 110 110 112 111 110 111 113 111 114 112 112 112 113 112 114 113 113 113 115 113 116 114 114 114 115 114 116 115 115 115 117 115 118 116 117 116 119 116 118 117 116 117 117 117 120 118 119 118 121 118 120 119 118 119 119 119 122 120 121 120 123 120 122 121 120 121 121 121 124 122 122 122 123 122 124 123 123 123 125 123 126 124 124 124 125 124 126 125 125 125 127 125 128 126 126 126 127 126 128 127 127 127 129 127 130 128 128 128 129 128 130 129 129 129 131 129 132 130 130 130 131 130 132 131 131 131 133 131 134 132 132 132 133 132 134 133 133 133 135 133 136 134 134 134 135 134 136 135 135 135 137 135 138 136 136 136 137 136 138 137 137 137 139 137 140 138 138 138 139 138 140 139 139 139 141 139 142 140 140 140 141 140 142 141 141 141 143 141 144 142 142 142 143 142 144 143 143 143 145 143 146 144 144 144 145 144 146 145 145 145 147 145 148 146 146 146 147 146 148 147 147 147 149 147 150 148 148 148 149 148 150 149 149 149 151 149 152 150 150 150 151 150 152 151 151 151 153 151 154 152 152 152 153 152 154 153 153 153 155 153 156 154 154 154 155 154 156 155 155 155 157 155 158 156 156 156 157 156 158 157 157 157 159 157 160 158 159 158 161 158 160 159 158 159 159 159 162 160 160 160 161 160 162 161 161 161 163 161 164 162 163 162 165 162 164 163 162 163 163 163 166 164 165 164 167 164 166 165 164 165 165 165 168 166 167 166 169 166 168 167 166 167 167 167 170 168 169 168 171 168 170 169 168 169 169 169 172 170 171 170 173 170 172 171 170 171 171 171 174 172 172 172 173 172 174 173 173 173 175 173 176 174 174 174 175 174 176 175 175 175 177 175 178 176 176 176 177 176 178 177 177 177 179 177 180 178 178 178 179 178 180 179 179 179 181 179 182 180 180 180 181 180 182 181 181 181 183 181 184 182 182 182 183 182 184 183 183 183 185 183 186 184 184 184 185 184 186 185 185 185 187 185 188 186 186 186 187 186 188 187 187 187 189 187 190 188 188 188 189 188 190 189 189 189 191 189 192 190 190 190 191 190 192 191 191 191 193 191 194 192 192 192 193 192 194 193 193 193 195 193 196 194 194 194 195 194 196 195 195 195 197 195 198 196 196 196 197 196 198 197 199 197 200 197 198 198 197 198 199 198 201 199 198 199 200 199 202 200 201 200 200 200 202 201 203 201 204 201 202 202 200 202 203 202 205 203 202 203 204 203 206 204 204 204 207 204 206 205 205 205 204 205 208 206 207 206 209 206 208 207 206 207 207 207 210 208 211 208 212 208 210 209 209 209 211 209 210 210 208 210 209 210 213 211 210 211 212 211 214 212 212 212 215 212 214 213 213 213 212 213 216 214 215 214 217 214 216 215 214 215 215 215 218 216 217 216 219 216 218 217 216 217 217 217 220 218 219 218 221 218 220 219 218 219 219 219 222 220 221 220 223 220 222 221 220 221 221 221 224 222 223 222 225 222 224 223 222 223 223 223 226 224 224 224 225 224 226 225 227 225 228 225 226 226 225 226 227 226 229 227 226 227 228 227 229 228 228 228 230 228 231 229 229 229 230 229 232 230 231 230 230 230 232 231 230 231 233 231 234 232 232 232 233 232 234 233 233 233 235 233 236 234 234 234 235 234 236 235 235 235 237 235 238 236 236 236 237 236 238 237 237 237 239 237 240 238 239 238 241 238 240 239 238 239 239 239 242 240 240 240 241 240 242 241 241 241 243 241 244 242 243 242 245 242 244 243 242 243 243 243 246 244 245 244 247 244 246 245 244 245 245 245 248 246 247 246 249 246 248 247 246 247 247 247 250 248 249 248 251 248 250 249 248 249 249 249 1 250 251 250 2 250 1 251 250 251 251 251 252 252 253 252 254 252 255 253 253 253 252 253 254 254 256 254 257 254 253 255 256 255 254 255 256 256 258 256 257 256 257 257 258 257 259 257 258 258 260 258 259 258 259 259 260 259 261 259 260 260 262 260 261 260 263 261 262 261 264 261 261 262 262 262 263 262 262 263 265 263 264 263 265 264 266 264 264 264 267 265 266 265 268 265 264 266 266 266 267 266 266 267 269 267 268 267 269 268 270 268 268 268 268 269 270 269 271 269 270 270 272 270 271 270 271 271 272 271 273 271 272 272 274 272 273 272 273 273 274 273 275 273 274 274 276 274 275 274 275 275 276 275 277 275 276 276 278 276 277 276 277 277 278 277 279 277 278 278 280 278 279 278 279 279 280 279 281 279 280 280 282 280 281 280 281 281 282 281 283 281 282 282 284 282 283 282 283 283 284 283 285 283 284 284 286 284 285 284 285 285 286 285 287 285 286 286 288 286 287 286 287 287 288 287 289 287 289 288 290 288 291 288 288 289 290 289 289 289 291 290 292 290 293 290 290 291 292 291 291 291 293 292 294 292 295 292 292 293 294 293 293 293 295 294 296 294 297 294 294 295 296 295 295 295 297 296 298 296 299 296 296 297 298 297 297 297 298 298 300 298 299 298 299 299 300 299 301 299 300 300 302 300 301 300 303 301 302 301 304 301 301 302 302 302 303 302 302 303 305 303 304 303 305 304 306 304 304 304 304 305 306 305 307 305 306 306 308 306 307 306 307 307 308 307 309 307 308 308 310 308 309 308 309 309 310 309 311 309 310 310 312 310 311 310 311 311 312 311 313 311 312 312 314 312 313 312 315 313 314 313 316 313 313 314 314 314 315 314 314 315 317 315 316 315 317 316 318 316 316 316 319 317 318 317 320 317 316 318 318 318 319 318 318 319 321 319 320 319 321 320 322 320 320 320 320 321 322 321 323 321 322 322 324 322 323 322 325 323 324 323 326 323 323 324 324 324 325 324 324 325 327 325 326 325 327 326 328 326 326 326 326 327 328 327 329 327 328 328 330 328 329 328 329 329 330 329 331 329 331 330 332 330 333 330 330 331 332 331 331 331 333 332 334 332 335 332 332 333 334 333 333 333 335 334 336 334 337 334 334 335 336 335 335 335 338 336 339 336 340 336 337 337 339 337 338 337 336 338 339 338 337 338 339 339 341 339 340 339 340 340 342 340 343 340 341 341 342 341 340 341 343 342 344 342 345 342 342 343 344 343 343 343 345 344 346 344 347 344 344 345 346 345 345 345 347 346 348 346 349 346 346 347 348 347 347 347 348 348 350 348 349 348 349 349 350 349 351 349 350 350 352 350 351 350 351 351 352 351 353 351 352 352 354 352 353 352 353 353 354 353 355 353 354 354 356 354 355 354 355 355 356 355 357 355 356 356 358 356 357 356 357 357 358 357 359 357 358 358 360 358 359 358 361 359 360 359 362 359 359 360 360 360 361 360 360 361 363 361 362 361 363 362 364 362 362 362 362 363 364 363 365 363 364 364 366 364 365 364 365 365 366 365 367 365 366 366 368 366 367 366 369 367 368 367 370 367 367 368 368 368 369 368 368 369 371 369 370 369 372 370 373 370 374 370 370 371 373 371 372 371 371 372 373 372 370 372 373 373 375 373 374 373 374 374 376 374 377 374 375 375 376 375 374 375 378 376 379 376 380 376 377 377 379 377 378 377 376 378 379 378 377 378 379 379 381 379 380 379 380 380 382 380 383 380 381 381 382 381 380 381 384 382 385 382 386 382 383 383 385 383 384 383 382 384 385 384 383 384 386 385 387 385 388 385 385 386 387 386 386 386 387 387 389 387 388 387 388 388 390 388 391 388 389 389 390 389 388 389 392 390 393 390 394 390 391 391 393 391 392 391 390 392 393 392 391 392 393 393 395 393 394 393 394 394 396 394 397 394 395 395 396 395 394 395 397 396 398 396 399 396 396 397 398 397 397 397 399 398 400 398 401 398 398 399 400 399 399 399 400 400 402 400 401 400 401 401 402 401 403 401 402 402 404 402 403 402 403 403 404 403 405 403 404 404 406 404 405 404 405 405 406 405 407 405 406 406 408 406 407 406 407 407 408 407 409 407 408 408 410 408 409 408 409 409 410 409 411 409 411 410 412 410 413 410 410 411 412 411 411 411 412 412 414 412 413 412 413 413 414 413 415 413 415 414 416 414 417 414 414 415 416 415 415 415 417 416 418 416 419 416 416 417 418 417 417 417 419 418 420 418 421 418 418 419 420 419 419 419 421 420 422 420 423 420 420 421 422 421 421 421 423 422 424 422 425 422 422 423 424 423 423 423 425 424 426 424 427 424 424 425 426 425 425 425 427 426 428 426 429 426 426 427 428 427 427 427 429 428 430 428 431 428 428 429 430 429 429 429 431 430 432 430 433 430 430 431 432 431 431 431 433 432 434 432 435 432 432 433 434 433 433 433 435 434 436 434 437 434 434 435 436 435 435 435 437 436 438 436 439 436 436 437 438 437 437 437 439 438 440 438 441 438 438 439 440 439 439 439 441 440 442 440 443 440 440 441 442 441 441 441 443 442 444 442 445 442 442 443 444 443 443 443 445 444 446 444 447 444 444 445 446 445 445 445 447 446 448 446 449 446 446 447 448 447 447 447 449 448 450 448 451 448 448 449 450 449 449 449 451 450 452 450 453 450 450 451 452 451 451 451 453 452 255 452 252 452 452 453 255 453 453 453 454 454 455 454 456 454 457 455 455 455 454 455 456 456 458 456 459 456 455 457 458 457 456 457 458 458 460 458 459 458 459 459 460 459 461 459 460 460 462 460 461 460 461 461 462 461 463 461 462 462 464 462 463 462 465 463 464 463 466 463 463 464 464 464 465 464 464 465 467 465 466 465 467 466 468 466 466 466 469 467 468 467 470 467 466 468 468 468 469 468 468 469 471 469 470 469 471 470 472 470 470 470 470 471 472 471 473 471 472 472 474 472 473 472 473 473 474 473 475 473 474 474 476 474 475 474 475 475 476 475 477 475 476 476 478 476 477 476 477 477 478 477 479 477 478 478 480 478 479 478 479 479 480 479 481 479 480 480 482 480 481 480 481 481 482 481 483 481 482 482 484 482 483 482 483 483 484 483 485 483 484 484 486 484 485 484 485 485 486 485 487 485 486 486 488 486 487 486 487 487 488 487 489 487 488 488 490 488 489 488 489 489 490 489 491 489 491 490 492 490 493 490 490 491 492 491 491 491 493 492 494 492 495 492 492 493 494 493 493 493 495 494 496 494 497 494 494 495 496 495 495 495 497 496 498 496 499 496 496 497 498 497 497 497 499 498 500 498 501 498 498 499 500 499 499 499 500 500 502 500 501 500 501 501 502 501 503 501 502 502 504 502 503 502 505 503 504 503 506 503 503 504 504 504 505 504 504 505 507 505 506 505 507 506 508 506 506 506 506 507 508 507 509 507 508 508 510 508 509 508 509 509 510 509 511 509 510 510 512 510 511 510 511 511 512 511 513 511 512 512 514 512 513 512 513 513 514 513 515 513 514 514 516 514 515 514 517 515 516 515 518 515 515 516 516 516 517 516 516 517 519 517 518 517 519 518 520 518 518 518 521 519 520 519 522 519 518 520 520 520 521 520 520 521 523 521 522 521 523 522 524 522 522 522 522 523 524 523 525 523 524 524 526 524 525 524 527 525 526 525 528 525 525 526 526 526 527 526 526 527 529 527 528 527 529 528 530 528 528 528 528 529 530 529 531 529 530 530 532 530 531 530 531 531 532 531 533 531 533 532 534 532 535 532 532 533 534 533 533 533 535 534 536 534 537 534 534 535 536 535 535 535 537 536 538 536 539 536 536 537 538 537 537 537 540 538 541 538 542 538 539 539 541 539 540 539 538 540 541 540 539 540 541 541 543 541 542 541 542 542 544 542 545 542 543 543 544 543 542 543 545 544 546 544 547 544 544 545 546 545 545 545 547 546 548 546 549 546 546 547 548 547 547 547 549 548 550 548 551 548 548 549 550 549 549 549 550 550 552 550 551 550 551 551 552 551 553 551 552 552 554 552 553 552 553 553 554 553 555 553 554 554 556 554 555 554 555 555 556 555 557 555 556 556 558 556 557 556 557 557 558 557 559 557 558 558 560 558 559 558 559 559 560 559 561 559 560 560 562 560 561 560 563 561 562 561 564 561 561 562 562 562 563 562 562 563 565 563 564 563 565 564 566 564 564 564 564 565 566 565 567 565 566 566 568 566 567 566 567 567 568 567 569 567 568 568 570 568 569 568 571 569 570 569 572 569 569 570 570 570 571 570 570 571 573 571 572 571 574 572 575 572 576 572 572 573 575 573 574 573 573 574 575 574 572 574 575 575 577 575 576 575 576 576 578 576 579 576 577 577 578 577 576 577 580 578 581 578 582 578 579 579 581 579 580 579 578 580 581 580 579 580 581 581 583 581 582 581 582 582 584 582 585 582 583 583 584 583 582 583 586 584 587 584 588 584 585 585 587 585 586 585 584 586 587 586 585 586 588 587 589 587 590 587 587 588 589 588 588 588 589 589 591 589 590 589 590 590 592 590 593 590 591 591 592 591 590 591 594 592 595 592 596 592 593 593 595 593 594 593 592 594 595 594 593 594 595 595 597 595 596 595 596 596 598 596 599 596 597 597 598 597 596 597 599 598 600 598 601 598 598 599 600 599 599 599 601 600 602 600 603 600 600 601 602 601 601 601 602 602 604 602 603 602 603 603 604 603 605 603 604 604 606 604 605 604 605 605 606 605 607 605 606 606 608 606 607 606 607 607 608 607 609 607 608 608 610 608 609 608 609 609 610 609 611 609 610 610 612 610 611 610 611 611 612 611 613 611 613 612 614 612 615 612 612 613 614 613 613 613 614 614 616 614 615 614 615 615 616 615 617 615 617 616 618 616 619 616 616 617 618 617 617 617 619 618 620 618 621 618 618 619 620 619 619 619 621 620 622 620 623 620 620 621 622 621 621 621 623 622 624 622 625 622 622 623 624 623 623 623 625 624 626 624 627 624 624 625 626 625 625 625 627 626 628 626 629 626 626 627 628 627 627 627 629 628 630 628 631 628 628 629 630 629 629 629 631 630 632 630 633 630 630 631 632 631 631 631 633 632 634 632 635 632 632 633 634 633 633 633 635 634 636 634 637 634 634 635 636 635 635 635 637 636 638 636 639 636 636 637 638 637 637 637 639 638 640 638 641 638 638 639 640 639 639 639 641 640 642 640 643 640 640 641 642 641 641 641 643 642 644 642 645 642 642 643 644 643 643 643 645 644 646 644 647 644 644 645 646 645 645 645 647 646 648 646 649 646 646 647 648 647 647 647 649 648 650 648 651 648 648 649 650 649 649 649 651 650 652 650 653 650 650 651 652 651 651 651 653 652 654 652 655 652 652 653 654 653 653 653 655 654 457 654 454 654 654 655 457 655 655 655 18 656 530 656 16 656 16 657 529 657 14 657 530 658 529 658 16 658 20 659 532 659 18 659 18 660 532 660 530 660 14 661 526 661 12 661 529 662 526 662 14 662 23 663 534 663 20 663 20 664 534 664 532 664 526 665 524 665 12 665 12 666 524 666 10 666 23 667 536 667 534 667 26 668 536 668 25 668 25 669 536 669 23 669 524 670 523 670 10 670 33 671 538 671 31 671 31 672 538 672 28 672 28 673 538 673 26 673 26 674 538 674 536 674 10 675 520 675 8 675 523 676 520 676 10 676 38 677 541 677 36 677 36 678 541 678 34 678 34 679 541 679 33 679 33 680 541 680 538 680 520 681 519 681 8 681 47 682 543 682 44 682 44 683 543 683 42 683 38 684 543 684 541 684 42 685 543 685 40 685 40 686 543 686 38 686 8 687 516 687 6 687 519 688 516 688 8 688 53 689 544 689 50 689 50 690 544 690 48 690 48 691 544 691 47 691 47 692 544 692 543 692 57 693 544 693 54 693 54 694 544 694 53 694 516 695 514 695 6 695 57 696 546 696 544 696 72 697 546 697 70 697 70 698 546 698 68 698 68 699 546 699 66 699 66 700 546 700 65 700 65 701 546 701 62 701 62 702 546 702 60 702 60 703 546 703 58 703 58 704 546 704 57 704 514 705 512 705 6 705 72 706 548 706 546 706 92 707 548 707 90 707 90 708 548 708 88 708 88 709 548 709 86 709 86 710 548 710 84 710 84 711 548 711 82 711 82 712 548 712 80 712 80 713 548 713 79 713 79 714 548 714 76 714 76 715 548 715 74 715 74 716 548 716 72 716 512 717 510 717 6 717 6 718 510 718 4 718 92 719 550 719 548 719 106 720 550 720 104 720 104 721 550 721 102 721 102 722 550 722 100 722 100 723 550 723 98 723 98 724 550 724 97 724 97 725 550 725 94 725 94 726 550 726 92 726 510 727 508 727 4 727 508 728 507 728 4 728 507 729 504 729 4 729 504 730 502 730 4 730 500 731 0 731 502 731 498 732 0 732 500 732 496 733 0 733 498 733 494 734 0 734 496 734 492 735 0 735 494 735 502 736 0 736 4 736 490 737 1 737 492 737 488 738 1 738 490 738 486 739 1 739 488 739 484 740 1 740 486 740 482 741 1 741 484 741 480 742 1 742 482 742 492 743 1 743 0 743 478 744 250 744 480 744 476 745 250 745 478 745 474 746 250 746 476 746 472 747 250 747 474 747 471 748 250 748 472 748 468 749 250 749 471 749 467 750 250 750 468 750 464 751 250 751 467 751 480 752 250 752 1 752 462 753 248 753 464 753 460 754 248 754 462 754 458 755 248 755 460 755 455 756 248 756 458 756 457 757 248 757 455 757 654 758 248 758 457 758 652 759 248 759 654 759 650 760 248 760 652 760 464 761 248 761 250 761 650 762 246 762 248 762 648 763 246 763 650 763 646 764 246 764 648 764 644 765 246 765 646 765 642 766 246 766 644 766 640 767 246 767 642 767 638 768 246 768 640 768 636 769 246 769 638 769 634 770 246 770 636 770 152 771 328 771 150 771 150 772 328 772 148 772 148 773 328 773 146 773 146 774 328 774 144 774 144 775 328 775 142 775 142 776 328 776 140 776 140 777 328 777 138 777 138 778 328 778 136 778 136 779 327 779 134 779 134 780 327 780 132 780 132 781 327 781 130 781 130 782 327 782 128 782 128 783 327 783 126 783 126 784 327 784 124 784 124 785 327 785 122 785 122 786 327 786 120 786 120 787 327 787 118 787 118 788 327 788 116 788 116 789 327 789 114 789 328 790 327 790 136 790 152 791 330 791 328 791 164 792 330 792 162 792 162 793 330 793 160 793 160 794 330 794 158 794 158 795 330 795 156 795 156 796 330 796 154 796 154 797 330 797 152 797 327 798 324 798 114 798 106 799 324 799 550 799 114 800 324 800 112 800 112 801 324 801 111 801 111 802 324 802 108 802 108 803 324 803 106 803 550 804 324 804 552 804 164 805 332 805 330 805 172 806 332 806 170 806 170 807 332 807 168 807 168 808 332 808 166 808 166 809 332 809 164 809 324 810 322 810 552 810 552 811 322 811 554 811 172 812 334 812 332 812 178 813 334 813 176 813 176 814 334 814 174 814 174 815 334 815 172 815 322 816 321 816 554 816 554 817 321 817 556 817 182 818 336 818 180 818 180 819 336 819 178 819 178 820 336 820 334 820 321 821 318 821 556 821 556 822 318 822 558 822 186 823 339 823 184 823 184 824 339 824 182 824 182 825 339 825 336 825 318 826 317 826 558 826 558 827 317 827 560 827 190 828 341 828 188 828 188 829 341 829 186 829 186 830 341 830 339 830 317 831 314 831 560 831 560 832 314 832 562 832 192 833 342 833 190 833 190 834 342 834 341 834 314 835 312 835 562 835 562 836 312 836 565 836 192 837 344 837 342 837 194 838 344 838 192 838 312 839 310 839 565 839 565 840 310 840 566 840 196 841 346 841 194 841 194 842 346 842 344 842 310 843 308 843 566 843 566 844 308 844 568 844 196 845 348 845 346 845 568 846 306 846 570 846 308 847 306 847 568 847 570 848 305 848 573 848 306 849 305 849 570 849 305 850 302 850 573 850 573 851 302 851 575 851 575 852 300 852 577 852 302 853 300 853 575 853 577 854 298 854 578 854 300 855 298 855 577 855 298 856 296 856 578 856 632 857 244 857 634 857 630 858 244 858 632 858 628 859 244 859 630 859 626 860 244 860 628 860 624 861 244 861 626 861 622 862 244 862 624 862 620 863 244 863 622 863 634 864 244 864 246 864 196 865 198 865 348 865 350 866 198 866 352 866 348 867 198 867 350 867 618 868 242 868 620 868 616 869 242 869 618 869 614 870 242 870 616 870 612 871 242 871 614 871 610 872 242 872 612 872 608 873 242 873 610 873 620 874 242 874 244 874 198 875 201 875 352 875 352 876 201 876 354 876 606 877 240 877 608 877 604 878 240 878 606 878 602 879 240 879 604 879 600 880 240 880 602 880 598 881 240 881 600 881 608 882 240 882 242 882 201 883 202 883 354 883 358 884 202 884 360 884 356 885 202 885 358 885 354 886 202 886 356 886 597 887 238 887 598 887 595 888 238 888 597 888 592 889 238 889 595 889 598 890 238 890 240 890 202 891 205 891 360 891 363 892 205 892 364 892 360 893 205 893 363 893 592 894 236 894 238 894 591 895 236 895 592 895 589 896 236 896 591 896 587 897 236 897 589 897 205 898 206 898 364 898 371 899 206 899 373 899 368 900 206 900 371 900 366 901 206 901 368 901 364 902 206 902 366 902 584 903 234 903 587 903 583 904 234 904 584 904 587 905 234 905 236 905 381 906 208 906 382 906 379 907 208 907 381 907 376 908 208 908 379 908 375 909 208 909 376 909 373 910 208 910 375 910 206 911 208 911 373 911 583 912 232 912 234 912 581 913 232 913 583 913 578 914 232 914 581 914 208 915 210 915 382 915 393 916 210 916 395 916 390 917 210 917 393 917 389 918 210 918 390 918 387 919 210 919 389 919 385 920 210 920 387 920 382 921 210 921 385 921 294 922 231 922 296 922 292 923 231 923 294 923 578 924 231 924 232 924 296 925 231 925 578 925 210 926 213 926 395 926 408 927 213 927 410 927 406 928 213 928 408 928 404 929 213 929 406 929 402 930 213 930 404 930 400 931 213 931 402 931 398 932 213 932 400 932 396 933 213 933 398 933 395 934 213 934 396 934 290 935 229 935 292 935 288 936 229 936 290 936 292 937 229 937 231 937 424 938 214 938 426 938 422 939 214 939 424 939 213 940 214 940 410 940 420 941 214 941 422 941 418 942 214 942 420 942 416 943 214 943 418 943 414 944 214 944 416 944 412 945 214 945 414 945 410 946 214 946 412 946 286 947 226 947 288 947 284 948 226 948 286 948 282 949 226 949 284 949 288 950 226 950 229 950 440 951 216 951 442 951 438 952 216 952 440 952 436 953 216 953 438 953 434 954 216 954 436 954 432 955 216 955 434 955 430 956 216 956 432 956 428 957 216 957 430 957 426 958 216 958 428 958 214 959 216 959 426 959 280 960 224 960 282 960 278 961 224 961 280 961 276 962 224 962 278 962 282 963 224 963 226 963 253 964 218 964 256 964 255 965 218 965 253 965 452 966 218 966 255 966 450 967 218 967 452 967 448 968 218 968 450 968 446 969 218 969 448 969 444 970 218 970 446 970 442 971 218 971 444 971 216 972 218 972 442 972 274 973 222 973 276 973 272 974 222 974 274 974 270 975 222 975 272 975 269 976 222 976 270 976 276 977 222 977 224 977 266 978 220 978 269 978 265 979 220 979 266 979 262 980 220 980 265 980 260 981 220 981 262 981 258 982 220 982 260 982 256 983 220 983 258 983 269 984 220 984 222 984 218 985 220 985 256 985 531 986 19 986 17 986 528 987 17 987 15 987 528 988 531 988 17 988 533 989 21 989 19 989 533 990 19 990 531 990 527 991 15 991 13 991 527 992 528 992 15 992 535 993 22 993 21 993 535 994 21 994 533 994 525 995 527 995 13 995 525 996 13 996 11 996 537 997 22 997 535 997 537 998 27 998 24 998 537 999 24 999 22 999 522 1000 525 1000 11 1000 539 1001 32 1001 30 1001 539 1002 30 1002 29 1002 539 1003 29 1003 27 1003 539 1004 27 1004 537 1004 521 1005 11 1005 9 1005 521 1006 522 1006 11 1006 540 1007 39 1007 37 1007 540 1008 37 1008 35 1008 540 1009 35 1009 32 1009 540 1010 32 1010 539 1010 518 1011 521 1011 9 1011 542 1012 46 1012 45 1012 542 1013 45 1013 43 1013 542 1014 39 1014 540 1014 542 1015 43 1015 41 1015 542 1016 41 1016 39 1016 517 1017 9 1017 7 1017 517 1018 518 1018 9 1018 545 1019 52 1019 51 1019 545 1020 51 1020 49 1020 545 1021 49 1021 46 1021 545 1022 46 1022 542 1022 545 1023 56 1023 55 1023 545 1024 55 1024 52 1024 515 1025 517 1025 7 1025 547 1026 56 1026 545 1026 547 1027 73 1027 71 1027 547 1028 71 1028 69 1028 547 1029 69 1029 67 1029 547 1030 67 1030 64 1030 547 1031 64 1031 63 1031 547 1032 63 1032 61 1032 547 1033 61 1033 59 1033 547 1034 59 1034 56 1034 513 1035 515 1035 7 1035 549 1036 73 1036 547 1036 549 1037 93 1037 91 1037 549 1038 91 1038 89 1038 549 1039 89 1039 87 1039 549 1040 87 1040 85 1040 549 1041 85 1041 83 1041 549 1042 83 1042 81 1042 549 1043 81 1043 78 1043 549 1044 78 1044 77 1044 549 1045 77 1045 75 1045 549 1046 75 1046 73 1046 511 1047 513 1047 7 1047 511 1048 7 1048 5 1048 551 1049 93 1049 549 1049 551 1050 107 1050 105 1050 551 1051 105 1051 103 1051 551 1052 103 1052 101 1052 551 1053 101 1053 99 1053 551 1054 99 1054 96 1054 551 1055 96 1055 95 1055 551 1056 95 1056 93 1056 509 1057 511 1057 5 1057 506 1058 509 1058 5 1058 505 1059 506 1059 5 1059 503 1060 505 1060 5 1060 3 1061 501 1061 503 1061 3 1062 499 1062 501 1062 3 1063 497 1063 499 1063 3 1064 495 1064 497 1064 3 1065 493 1065 495 1065 3 1066 503 1066 5 1066 2 1067 491 1067 493 1067 2 1068 489 1068 491 1068 2 1069 487 1069 489 1069 2 1070 485 1070 487 1070 2 1071 483 1071 485 1071 2 1072 481 1072 483 1072 2 1073 493 1073 3 1073 251 1074 479 1074 481 1074 251 1075 477 1075 479 1075 251 1076 475 1076 477 1076 251 1077 473 1077 475 1077 251 1078 470 1078 473 1078 251 1079 469 1079 470 1079 251 1080 466 1080 469 1080 251 1081 465 1081 466 1081 251 1082 481 1082 2 1082 249 1083 463 1083 465 1083 249 1084 461 1084 463 1084 249 1085 459 1085 461 1085 249 1086 456 1086 459 1086 249 1087 454 1087 456 1087 249 1088 655 1088 454 1088 249 1089 653 1089 655 1089 249 1090 651 1090 653 1090 249 1091 465 1091 251 1091 247 1092 651 1092 249 1092 247 1093 649 1093 651 1093 247 1094 647 1094 649 1094 247 1095 645 1095 647 1095 247 1096 643 1096 645 1096 247 1097 641 1097 643 1097 247 1098 639 1098 641 1098 247 1099 637 1099 639 1099 247 1100 635 1100 637 1100 329 1101 153 1101 151 1101 329 1102 151 1102 149 1102 329 1103 149 1103 147 1103 329 1104 147 1104 145 1104 329 1105 145 1105 143 1105 329 1106 143 1106 141 1106 329 1107 141 1107 139 1107 329 1108 139 1108 137 1108 326 1109 137 1109 135 1109 326 1110 135 1110 133 1110 326 1111 133 1111 131 1111 326 1112 131 1112 129 1112 326 1113 129 1113 127 1113 326 1114 127 1114 125 1114 326 1115 125 1115 123 1115 326 1116 123 1116 121 1116 326 1117 121 1117 119 1117 326 1118 119 1118 117 1118 326 1119 117 1119 115 1119 326 1120 329 1120 137 1120 331 1121 153 1121 329 1121 331 1122 165 1122 163 1122 331 1123 163 1123 161 1123 331 1124 161 1124 159 1124 331 1125 159 1125 157 1125 331 1126 157 1126 155 1126 331 1127 155 1127 153 1127 325 1128 326 1128 115 1128 325 1129 107 1129 551 1129 325 1130 115 1130 113 1130 325 1131 113 1131 110 1131 325 1132 110 1132 109 1132 325 1133 109 1133 107 1133 325 1134 551 1134 553 1134 333 1135 165 1135 331 1135 333 1136 173 1136 171 1136 333 1137 171 1137 169 1137 333 1138 169 1138 167 1138 333 1139 167 1139 165 1139 323 1140 325 1140 553 1140 323 1141 553 1141 555 1141 335 1142 173 1142 333 1142 335 1143 179 1143 177 1143 335 1144 177 1144 175 1144 335 1145 175 1145 173 1145 320 1146 323 1146 555 1146 320 1147 555 1147 557 1147 337 1148 183 1148 181 1148 337 1149 181 1149 179 1149 337 1150 179 1150 335 1150 319 1151 320 1151 557 1151 319 1152 557 1152 559 1152 338 1153 187 1153 185 1153 338 1154 185 1154 183 1154 338 1155 183 1155 337 1155 316 1156 319 1156 559 1156 316 1157 559 1157 561 1157 340 1158 191 1158 189 1158 340 1159 189 1159 187 1159 340 1160 187 1160 338 1160 315 1161 316 1161 561 1161 315 1162 561 1162 563 1162 343 1163 193 1163 191 1163 343 1164 191 1164 340 1164 313 1165 315 1165 563 1165 313 1166 563 1166 564 1166 345 1167 193 1167 343 1167 345 1168 195 1168 193 1168 311 1169 313 1169 564 1169 311 1170 564 1170 567 1170 347 1171 197 1171 195 1171 347 1172 195 1172 345 1172 309 1173 311 1173 567 1173 309 1174 567 1174 569 1174 349 1175 197 1175 347 1175 307 1176 569 1176 571 1176 307 1177 309 1177 569 1177 304 1178 571 1178 572 1178 304 1179 307 1179 571 1179 303 1180 304 1180 572 1180 303 1181 572 1181 574 1181 301 1182 574 1182 576 1182 301 1183 303 1183 574 1183 299 1184 576 1184 579 1184 299 1185 301 1185 576 1185 297 1186 299 1186 579 1186 245 1187 633 1187 635 1187 245 1188 631 1188 633 1188 245 1189 629 1189 631 1189 245 1190 627 1190 629 1190 245 1191 625 1191 627 1191 245 1192 623 1192 625 1192 245 1193 621 1193 623 1193 245 1194 635 1194 247 1194 199 1195 197 1195 349 1195 199 1196 351 1196 353 1196 199 1197 349 1197 351 1197 243 1198 619 1198 621 1198 243 1199 617 1199 619 1199 243 1200 615 1200 617 1200 243 1201 613 1201 615 1201 243 1202 611 1202 613 1202 243 1203 609 1203 611 1203 243 1204 621 1204 245 1204 200 1205 199 1205 353 1205 200 1206 353 1206 355 1206 241 1207 607 1207 609 1207 241 1208 605 1208 607 1208 241 1209 603 1209 605 1209 241 1210 601 1210 603 1210 241 1211 599 1211 601 1211 241 1212 609 1212 243 1212 203 1213 200 1213 355 1213 203 1214 359 1214 361 1214 203 1215 357 1215 359 1215 203 1216 355 1216 357 1216 239 1217 596 1217 599 1217 239 1218 594 1218 596 1218 239 1219 593 1219 594 1219 239 1220 599 1220 241 1220 204 1221 203 1221 361 1221 204 1222 362 1222 365 1222 204 1223 361 1223 362 1223 237 1224 593 1224 239 1224 237 1225 590 1225 593 1225 237 1226 588 1226 590 1226 237 1227 586 1227 588 1227 207 1228 204 1228 365 1228 207 1229 370 1229 372 1229 207 1230 369 1230 370 1230 207 1231 367 1231 369 1231 207 1232 365 1232 367 1232 235 1233 585 1233 586 1233 235 1234 582 1234 585 1234 235 1235 586 1235 237 1235 209 1236 380 1236 383 1236 209 1237 378 1237 380 1237 209 1238 377 1238 378 1238 209 1239 374 1239 377 1239 209 1240 372 1240 374 1240 209 1241 207 1241 372 1241 233 1242 582 1242 235 1242 233 1243 580 1243 582 1243 233 1244 579 1244 580 1244 211 1245 209 1245 383 1245 211 1246 392 1246 394 1246 211 1247 391 1247 392 1247 211 1248 388 1248 391 1248 211 1249 386 1249 388 1249 211 1250 384 1250 386 1250 211 1251 383 1251 384 1251 230 1252 295 1252 297 1252 230 1253 293 1253 295 1253 230 1254 579 1254 233 1254 230 1255 297 1255 579 1255 212 1256 211 1256 394 1256 212 1257 409 1257 411 1257 212 1258 407 1258 409 1258 212 1259 405 1259 407 1259 212 1260 403 1260 405 1260 212 1261 401 1261 403 1261 212 1262 399 1262 401 1262 212 1263 397 1263 399 1263 212 1264 394 1264 397 1264 228 1265 291 1265 293 1265 228 1266 289 1266 291 1266 228 1267 293 1267 230 1267 215 1268 425 1268 427 1268 215 1269 423 1269 425 1269 215 1270 212 1270 411 1270 215 1271 421 1271 423 1271 215 1272 419 1272 421 1272 215 1273 417 1273 419 1273 215 1274 415 1274 417 1274 215 1275 413 1275 415 1275 215 1276 411 1276 413 1276 227 1277 287 1277 289 1277 227 1278 285 1278 287 1278 227 1279 283 1279 285 1279 227 1280 289 1280 228 1280 217 1281 441 1281 443 1281 217 1282 439 1282 441 1282 217 1283 437 1283 439 1283 217 1284 435 1284 437 1284 217 1285 433 1285 435 1285 217 1286 431 1286 433 1286 217 1287 429 1287 431 1287 217 1288 427 1288 429 1288 217 1289 215 1289 427 1289 225 1290 281 1290 283 1290 225 1291 279 1291 281 1291 225 1292 277 1292 279 1292 225 1293 283 1293 227 1293 219 1294 254 1294 257 1294 219 1295 252 1295 254 1295 219 1296 453 1296 252 1296 219 1297 451 1297 453 1297 219 1298 449 1298 451 1298 219 1299 447 1299 449 1299 219 1300 445 1300 447 1300 219 1301 443 1301 445 1301 219 1302 217 1302 443 1302 223 1303 275 1303 277 1303 223 1304 273 1304 275 1304 223 1305 271 1305 273 1305 223 1306 268 1306 271 1306 223 1307 277 1307 225 1307 221 1308 267 1308 268 1308 221 1309 264 1309 267 1309 221 1310 263 1310 264 1310 221 1311 261 1311 263 1311 221 1312 259 1312 261 1312 221 1313 257 1313 259 1313 221 1314 268 1314 223 1314 221 1315 219 1315 257 1315</p>
        </triangles>
      </mesh>
    </geometry>
  </library_geometries>
  <library_materials>
    <material id="mat_Body003_shape" name="Body003_shape">
      <instance_effect url="#effect_Body003_shape"/>
    </material>
  </library_materials>
  <library_visual_scenes>
    <visual_scene id="myscene">
      <node id="node0" name="node0">
        <instance_geometry url="#geometry0">
          <bind_material>
            <technique_common>
              <instance_material symbol="ref_Body003_shape" target="#mat_Body003_shape"/>
            </technique_common>
          </bind_material>
        </instance_geometry>
      </node>
    </visual_scene>
  </library_visual_scenes>
  <scene>
    <instance_visual_scene url="#myscene"/>
  </scene>
</COLLADA>
