<COLLADA xmlns="http://www.collada.org/2005/11/COLLADASchema" version="1.4.1">
  <asset>
    <contributor/>
    <created>2026-08-18T17:07:06.374148</created>
    <modified>2026-08-18T17:07:06.374152</modified>
    <unit name="meter" meter="1.0"/>
    <up_axis>Z_UP</up_axis>
  </asset>
  <library_effects>
    <effect id="effect_COMPOUND_shape" name="effect_COMPOUND_shape">
      <profile_COMMON>
        <technique sid="common">
          <phong>
            <emission>
              <color>0.0 0.0 0.0 1.0</color>
            </emission>
            <ambient>
              <color>0.0 0.0 0.0 1.0</color>
            </ambient>
            <diffuse>
              <color>0.6784313917160034 0.7098039388656616 0.7411764860153198 1.0</color>
            </diffuse>
            <specular>
              <color>1 1 1 1.0</color>
            </specular>
            <shininess>
              <float>0.0</float>
            </shininess>
            <reflective>
              <color>0.0 0.0 0.0 1.0</color>
            </reflective>
            <reflectivity>
              <float>0.0</float>
            </reflectivity>
            <transparent>
              <color>0.0 0.0 0.0 1.0</color>
            </transparent>
            <transparency>
              <float>1.0</float>
            </transparency>
          </phong>
        </technique>
        <extra>
          <technique profile="GOOGLEEARTH">
            <double_sided>0</double_sided>
          </technique>
        </extra>
      </profile_COMMON>
    </effect>
  </library_effects>
  <library_geometries>
    <geometry id="geometry0" name="COMPOUND_shape">
      <mesh>
        <source id="cubeverts-array0">
          <float_array count="3072" id="cubeverts-array0-array">0.001 0 -0.008 0.0009951847 0.00195 -0.008098017 0.0009951847 0 -0.008098017 0.001 0.00195 -0.008 0.0009807853 0.00195 -0.00819509 0.0009807853 0 -0.00819509 0.0009569404 0.00195 -0.008290285 0.0009569404 0 -0.008290285 0.0009238795 0.00195 -0.008382684 0.0009238795 0 -0.008382684 0.0008819213 0.00195 -0.008471396 0.0008819213 0 -0.008471396 0.0008314696 0.00195 -0.008555571 0.0008314696 0 -0.008555571 0.0007730104 0.00195 -0.008634394 0.0007730104 0 -0.008634394 0.0007071068 0.00195 -0.008707107 0.0007071068 0 -0.008707107 0.0006343933 0.00195 -0.00877301 0.0006343933 0 -0.00877301 0.0005555702 0.00195 -0.00883147 0.0005555702 0 -0.00883147 0.0004713967 0.00195 -0.008881921 0.0004713967 0 -0.008881921 0.0003826834 0.00195 -0.00892388 0.0003826834 0 -0.00892388 0.0002902847 0.00195 -0.008956941 0.0002902847 0 -0.008956941 0.0001950903 0.00195 -0.008980785 0.0001950903 0 -0.008980785 9.801714e-05 0.00195 -0.008995185 9.801714e-05 0 -0.008995185 3.828569e-19 0.00195 -0.009 -3.828569e-19 0 -0.009 -9.801714e-05 0.00195 -0.008995185 -9.801714e-05 0 -0.008995185 -0.0001950903 0.00195 -0.008980785 -0.0001950903 0 -0.008980785 -0.0002902847 0.00195 -0.008956941 -0.0002902847 0 -0.008956941 -0.0003826834 0.00195 -0.00892388 -0.0003826834 0 -0.00892388 -0.0004713967 0.00195 -0.008881921 -0.0004713967 0 -0.008881921 -0.0005555702 0.00195 -0.00883147 -0.0005555702 0 -0.00883147 -0.0006343933 0.00195 -0.00877301 -0.0006343933 0 -0.00877301 -0.0007071068 0.00195 -0.008707107 -0.0007071068 0 -0.008707107 -0.0007730104 0 -0.008634394 -0.0007730104 0.00195 -0.008634394 -0.0008314696 0.00195 -0.008555571 -0.0008314696 0 -0.008555571 -0.0008819213 0 -0.008471396 -0.0008819213 0.00195 -0.008471396 -0.0009238795 0.00195 -0.008382684 -0.0009238795 0 -0.008382684 -0.0009569404 0.00195 -0.008290285 -0.0009569404 0 -0.008290285 -0.0009807853 0 -0.00819509 -0.0009807853 0.00195 -0.00819509 -0.0009951847 0.00195 -0.008098017 -0.0009951847 0 -0.008098017 -0.001 0 -0.008 -0.001 0.00195 -0.008 -0.0009951847 0.00195 -0.007901983 -0.0009951847 0 -0.007901983 -0.0009807853 0.00195 -0.00780491 -0.0009807853 0 -0.00780491 -0.0009569404 0.00195 -0.007709715 -0.0009569404 0 -0.007709715 -0.0009238795 0.00195 -0.007617317 -0.0009238795 0 -0.007617317 -0.0008819213 0.00195 -0.007528603 -0.0008819213 0 -0.007528603 -0.0008314696 0.00195 -0.00744443 -0.0008314696 0 -0.00744443 -0.0007730104 0.00195 -0.007365607 -0.0007730104 0 -0.007365607 -0.0007071068 0.00195 -0.007292893 -0.0007071068 0 -0.007292893 -0.0006343933 0.00195 -0.00722699 -0.0006343933 0 -0.00722699 -0.0005555702 0.00195 -0.00716853 -0.0005555702 0 -0.00716853 -0.0004713967 0.00195 -0.007118079 -0.0004713967 0 -0.007118079 -0.0003826834 0.00195 -0.00707612 -0.0003826834 0 -0.00707612 -0.0002902847 0.00195 -0.00704306 -0.0002902847 0 -0.00704306 -0.0001950903 0.00195 -0.007019215 -0.0001950903 0 -0.007019215 -9.801714e-05 0.00195 -0.007004815 -9.801714e-05 0 -0.007004815 -3.828569e-19 0.00195 -0.007 3.828569e-19 0 -0.007 9.801714e-05 0.00195 -0.007004815 9.801714e-05 0 -0.007004815 0.0001950903 0.00195 -0.007019215 0.0001950903 0 -0.007019215 0.0002902847 0.00195 -0.00704306 0.0002902847 0 -0.00704306 0.0003826834 0.00195 -0.00707612 0.0003826834 0 -0.00707612 0.0004713967 0.00195 -0.007118079 0.0004713967 0 -0.007118079 0.0005555702 0 -0.00716853 0.0005555702 0.00195 -0.00716853 0.0006343933 0.00195 -0.00722699 0.0006343933 0 -0.00722699 0.0007071068 0.00195 -0.007292893 0.0007071068 0 -0.007292893 0.0007730104 0 -0.007365607 0.0007730104 0.00195 -0.007365607 0.0008314696 0.00195 -0.00744443 0.0008314696 0 -0.00744443 0.0008819213 0.00195 -0.007528603 0.0008819213 0 -0.007528603 0.0009238795 0.00195 -0.007617317 0.0009238795 0 -0.007617317 0.0009569404 0.00195 -0.007709715 0.0009569404 0 -0.007709715 0.0009807853 0 -0.00780491 0.0009807853 0.00195 -0.00780491 0.0009951847 0.00195 -0.007901983 0.0009951847 0 -0.007901983 0.006656854 0 -0.005656854 0.006652039 0.00195 -0.005754871 0.006652039 0 -0.005754871 0.006656854 0.00195 -0.005656854 0.00663764 0.00195 -0.005851944 0.00663764 0 -0.005851944 0.006613795 0.00195 -0.005947139 0.006613795 0 -0.005947139 0.006580734 0.00195 -0.006039538 0.006580734 0 -0.006039538 0.006538775 0.00195 -0.006128251 0.006538775 0 -0.006128251 0.006488324 0.00195 -0.006212424 0.006488324 0 -0.006212424 0.006429865 0.00195 -0.006291247 0.006429865 0 -0.006291247 0.006363961 0.00195 -0.006363961 0.006363961 0 -0.006363961 0.006291247 0.00195 -0.006429865 0.006291247 0 -0.006429865 0.006212424 0.00195 -0.006488324 0.006212424 0 -0.006488324 0.006128251 0.00195 -0.006538775 0.006128251 0 -0.006538775 0.006039538 0.00195 -0.006580734 0.006039538 0 -0.006580734 0.005947139 0.00195 -0.006613795 0.005947139 0 -0.006613795 0.005851944 0.00195 -0.00663764 0.005851944 0 -0.00663764 0.005754871 0.00195 -0.006652039 0.005754871 0 -0.006652039 0.005656854 0.00195 -0.006656854 0.005656854 0 -0.006656854 0.005558837 0.00195 -0.006652039 0.005558837 0 -0.006652039 0.005461764 0.00195 -0.00663764 0.005461764 0 -0.00663764 0.00536657 0.00195 -0.006613795 0.00536657 0 -0.006613795 0.005274171 0.00195 -0.006580734 0.005274171 0 -0.006580734 0.005185458 0.00195 -0.006538775 0.005185458 0 -0.006538775 0.005101284 0.00195 -0.006488324 0.005101284 0 -0.006488324 0.005022461 0.00195 -0.006429865 0.005022461 0 -0.006429865 0.004949748 0.00195 -0.006363961 0.004949748 0 -0.006363961 0.004883844 0 -0.006291247 0.004883844 0.00195 -0.006291247 0.004825385 0.00195 -0.006212424 0.004825385 0 -0.006212424 0.004774933 0 -0.006128251 0.004774933 0.00195 -0.006128251 0.004732975 0.00195 -0.006039538 0.004732975 0 -0.006039538 0.004699914 0.00195 -0.005947139 0.004699914 0 -0.005947139 0.004676069 0 -0.005851944 0.004676069 0.00195 -0.005851944 0.00466167 0.00195 -0.005754871 0.00466167 0 -0.005754871 0.004656854 0 -0.005656854 0.004656854 0.00195 -0.005656854 0.00466167 0.00195 -0.005558837 0.00466167 0 -0.005558837 0.004676069 0.00195 -0.005461764 0.004676069 0 -0.005461764 0.004699914 0.00195 -0.00536657 0.004699914 0 -0.00536657 0.004732975 0.00195 -0.005274171 0.004732975 0 -0.005274171 0.004774933 0.00195 -0.005185458 0.004774933 0 -0.005185458 0.004825385 0.00195 -0.005101284 0.004825385 0 -0.005101284 0.004883844 0.00195 -0.005022461 0.004883844 0 -0.005022461 0.004949748 0.00195 -0.004949748 0.004949748 0 -0.004949748 0.005022461 0.00195 -0.004883844 0.005022461 0 -0.004883844 0.005101284 0.00195 -0.004825385 0.005101284 0 -0.004825385 0.005185458 0.00195 -0.004774933 0.005185458 0 -0.004774933 0.005274171 0.00195 -0.004732975 0.005274171 0 -0.004732975 0.00536657 0.00195 -0.004699914 0.00536657 0 -0.004699914 0.005461764 0.00195 -0.004676069 0.005461764 0 -0.004676069 0.005558837 0.00195 -0.00466167 0.005558837 0 -0.00466167 0.005656854 0.00195 -0.004656854 0.005656854 0 -0.004656854 0.005754871 0.00195 -0.00466167 0.005754871 0 -0.00466167 0.005851944 0.00195 -0.004676069 0.005851944 0 -0.004676069 0.005947139 0.00195 -0.004699914 0.005947139 0 -0.004699914 0.006039538 0.00195 -0.004732975 0.006039538 0 -0.004732975 0.006128251 0.00195 -0.004774933 0.006128251 0 -0.004774933 0.006212424 0 -0.004825385 0.006212424 0.00195 -0.004825385 0.006291247 0.00195 -0.004883844 0.006291247 0 -0.004883844 0.006363961 0.00195 -0.004949748 0.006363961 0 -0.004949748 0.006429865 0 -0.005022461 0.006429865 0.00195 -0.005022461 0.006488324 0.00195 -0.005101284 0.006488324 0 -0.005101284 0.006538775 0.00195 -0.005185458 0.006538775 0 -0.005185458 0.006580734 0.00195 -0.005274171 0.006580734 0 -0.005274171 0.006613795 0.00195 -0.00536657 0.006613795 0 -0.00536657 0.00663764 0 -0.005461764 0.00663764 0.00195 -0.005461764 0.006652039 0.00195 -0.005558837 0.006652039 0 -0.005558837 0.009 0 0 0.008995185 0.00195 -9.801714e-05 0.008995185 0 -9.801714e-05 0.009 0.00195 0 0.008980785 0.00195 -0.0001950903 0.008980785 0 -0.0001950903 0.008956941 0.00195 -0.0002902847 0.008956941 0 -0.0002902847 0.00892388 0.00195 -0.0003826834 0.00892388 0 -0.0003826834 0.008881921 0.00195 -0.0004713967 0.008881921 0 -0.0004713967 0.00883147 0.00195 -0.0005555702 0.00883147 0 -0.0005555702 0.00877301 0.00195 -0.0006343933 0.00877301 0 -0.0006343933 0.008707107 0.00195 -0.0007071068 0.008707107 0 -0.0007071068 0.008634394 0.00195 -0.0007730104 0.008634394 0 -0.0007730104 0.008555571 0.00195 -0.0008314696 0.008555571 0 -0.0008314696 0.008471396 0.00195 -0.0008819213 0.008471396 0 -0.0008819213 0.008382684 0.00195 -0.0009238795 0.008382684 0 -0.0009238795 0.008290285 0.00195 -0.0009569404 0.008290285 0 -0.0009569404 0.00819509 0.00195 -0.0009807853 0.00819509 0 -0.0009807853 0.008098017 0.00195 -0.0009951847 0.008098017 0 -0.0009951847 0.008 0.00195 -0.001 0.008 0 -0.001 0.007901983 0.00195 -0.0009951847 0.007901983 0 -0.0009951847 0.00780491 0.00195 -0.0009807853 0.00780491 0 -0.0009807853 0.007709715 0.00195 -0.0009569404 0.007709715 0 -0.0009569404 0.007617317 0.00195 -0.0009238795 0.007617317 0 -0.0009238795 0.007528603 0.00195 -0.0008819213 0.007528603 0 -0.0008819213 0.00744443 0.00195 -0.0008314696 0.00744443 0 -0.0008314696 0.007365607 0.00195 -0.0007730104 0.007365607 0 -0.0007730104 0.007292893 0.00195 -0.0007071068 0.007292893 0 -0.0007071068 0.00722699 0 -0.0006343933 0.00722699 0.00195 -0.0006343933 0.00716853 0.00195 -0.0005555702 0.00716853 0 -0.0005555702 0.007118079 0 -0.0004713967 0.007118079 0.00195 -0.0004713967 0.00707612 0.00195 -0.0003826834 0.00707612 0 -0.0003826834 0.00704306 0.00195 -0.0002902847 0.00704306 0 -0.0002902847 0.007019215 0 -0.0001950903 0.007019215 0.00195 -0.0001950903 0.007004815 0.00195 -9.801714e-05 0.007004815 0 -9.801714e-05 0.007 0 0 0.007 0.00195 0 0.007004815 0.00195 9.801714e-05 0.007004815 0 9.801714e-05 0.007019215 0.00195 0.0001950903 0.007019215 0 0.0001950903 0.00704306 0.00195 0.0002902847 0.00704306 0 0.0002902847 0.00707612 0.00195 0.0003826834 0.00707612 0 0.0003826834 0.007118079 0.00195 0.0004713967 0.007118079 0 0.0004713967 0.00716853 0.00195 0.0005555702 0.00716853 0 0.0005555702 0.00722699 0.00195 0.0006343933 0.00722699 0 0.0006343933 0.007292893 0.00195 0.0007071068 0.007292893 0 0.0007071068 0.007365607 0.00195 0.0007730104 0.007365607 0 0.0007730104 0.00744443 0.00195 0.0008314696 0.00744443 0 0.0008314696 0.007528603 0.00195 0.0008819213 0.007528603 0 0.0008819213 0.007617317 0.00195 0.0009238795 0.007617317 0 0.0009238795 0.007709715 0.00195 0.0009569404 0.007709715 0 0.0009569404 0.00780491 0.00195 0.0009807853 0.00780491 0 0.0009807853 0.007901983 0.00195 0.0009951847 0.007901983 0 0.0009951847 0.008 0.00195 0.001 0.008 0 0.001 0.008098017 0.00195 0.0009951847 0.008098017 0 0.0009951847 0.00819509 0.00195 0.0009807853 0.00819509 0 0.0009807853 0.008290285 0.00195 0.0009569404 0.008290285 0 0.0009569404 0.008382684 0.00195 0.0009238795 0.008382684 0 0.0009238795 0.008471396 0.00195 0.0008819213 0.008471396 0 0.0008819213 0.008555571 0 0.0008314696 0.008555571 0.00195 0.0008314696 0.008634394 0.00195 0.0007730104 0.008634394 0 0.0007730104 0.008707107 0.00195 0.0007071068 0.008707107 0 0.0007071068 0.00877301 0 0.0006343933 0.00877301 0.00195 0.0006343933 0.00883147 0.00195 0.0005555702 0.00883147 0 0.0005555702 0.008881921 0.00195 0.0004713967 0.008881921 0 0.0004713967 0.00892388 0.00195 0.0003826834 0.00892388 0 0.0003826834 0.008956941 0.00195 0.0002902847 0.008956941 0 0.0002902847 0.008980785 0 0.0001950903 0.008980785 0.00195 0.0001950903 0.008995185 0.00195 9.801714e-05 0.008995185 0 9.801714e-05 0.006656854 0 0.005656854 0.006652039 0.00195 0.005558837 0.006652039 0 0.005558837 0.006656854 0.00195 0.005656854 0.00663764 0.00195 0.005461764 0.00663764 0 0.005461764 0.006613795 0.00195 0.00536657 0.006613795 0 0.00536657 0.006580734 0.00195 0.005274171 0.006580734 0 0.005274171 0.006538775 0.00195 0.005185458 0.006538775 0 0.005185458 0.006488324 0.00195 0.005101284 0.006488324 0 0.005101284 0.006429865 0.00195 0.005022461 0.006429865 0 0.005022461 0.006363961 0.00195 0.004949748 0.006363961 0 0.004949748 0.006291247 0.00195 0.004883844 0.006291247 0 0.004883844 0.006212424 0.00195 0.004825385 0.006212424 0 0.004825385 0.006128251 0.00195 0.004774933 0.006128251 0 0.004774933 0.006039538 0.00195 0.004732975 0.006039538 0 0.004732975 0.005947139 0.00195 0.004699914 0.005947139 0 0.004699914 0.005851944 0.00195 0.004676069 0.005851944 0 0.004676069 0.005754871 0.00195 0.00466167 0.005754871 0 0.00466167 0.005656854 0.00195 0.004656854 0.005656854 0 0.004656854 0.005558837 0.00195 0.00466167 0.005558837 0 0.00466167 0.005461764 0.00195 0.004676069 0.005461764 0 0.004676069 0.00536657 0.00195 0.004699914 0.00536657 0 0.004699914 0.005274171 0.00195 0.004732975 0.005274171 0 0.004732975 0.005185458 0.00195 0.004774933 0.005185458 0 0.004774933 0.005101284 0.00195 0.004825385 0.005101284 0 0.004825385 0.005022461 0.00195 0.004883844 0.005022461 0 0.004883844 0.004949748 0.00195 0.004949748 0.004949748 0 0.004949748 0.004883844 0 0.005022461 0.004883844 0.00195 0.005022461 0.004825385 0.00195 0.005101284 0.004825385 0 0.005101284 0.004774933 0 0.005185458 0.004774933 0.00195 0.005185458 0.004732975 0.00195 0.005274171 0.004732975 0 0.005274171 0.004699914 0.00195 0.00536657 0.004699914 0 0.00536657 0.004676069 0 0.005461764 0.004676069 0.00195 0.005461764 0.00466167 0.00195 0.005558837 0.00466167 0 0.005558837 0.004656854 0 0.005656854 0.004656854 0.00195 0.005656854 0.00466167 0.00195 0.005754871 0.00466167 0 0.005754871 0.004676069 0.00195 0.005851944 0.004676069 0 0.005851944 0.004699914 0.00195 0.005947139 0.004699914 0 0.005947139 0.004732975 0.00195 0.006039538 0.004732975 0 0.006039538 0.004774933 0.00195 0.006128251 0.004774933 0 0.006128251 0.004825385 0.00195 0.006212424 0.004825385 0 0.006212424 0.004883844 0.00195 0.006291247 0.004883844 0 0.006291247 0.004949748 0.00195 0.006363961 0.004949748 0 0.006363961 0.005022461 0.00195 0.006429865 0.005022461 0 0.006429865 0.005101284 0.00195 0.006488324 0.005101284 0 0.006488324 0.005185458 0.00195 0.006538775 0.005185458 0 0.006538775 0.005274171 0.00195 0.006580734 0.005274171 0 0.006580734 0.00536657 0.00195 0.006613795 0.00536657 0 0.006613795 0.005461764 0.00195 0.00663764 0.005461764 0 0.00663764 0.005558837 0.00195 0.006652039 0.005558837 0 0.006652039 0.005656854 0.00195 0.006656854 0.005656854 0 0.006656854 0.005754871 0.00195 0.006652039 0.005754871 0 0.006652039 0.005851944 0.00195 0.00663764 0.005851944 0 0.00663764 0.005947139 0.00195 0.006613795 0.005947139 0 0.006613795 0.006039538 0.00195 0.006580734 0.006039538 0 0.006580734 0.006128251 0.00195 0.006538775 0.006128251 0 0.006538775 0.006212424 0 0.006488324 0.006212424 0.00195 0.006488324 0.006291247 0.00195 0.006429865 0.006291247 0 0.006429865 0.006363961 0.00195 0.006363961 0.006363961 0 0.006363961 0.006429865 0 0.006291247 0.006429865 0.00195 0.006291247 0.006488324 0.00195 0.006212424 0.006488324 0 0.006212424 0.006538775 0.00195 0.006128251 0.006538775 0 0.006128251 0.006580734 0.00195 0.006039538 0.006580734 0 0.006039538 0.006613795 0.00195 0.005947139 0.006613795 0 0.005947139 0.00663764 0 0.005851944 0.00663764 0.00195 0.005851944 0.006652039 0.00195 0.005754871 0.006652039 0 0.005754871 0.001 0 0.008 0.0009951847 0.00195 0.007901983 0.0009951847 0 0.007901983 0.001 0.00195 0.008 0.0009807853 0.00195 0.00780491 0.0009807853 0 0.00780491 0.0009569404 0.00195 0.007709715 0.0009569404 0 0.007709715 0.0009238795 0.00195 0.007617317 0.0009238795 0 0.007617317 0.0008819213 0.00195 0.007528603 0.0008819213 0 0.007528603 0.0008314696 0.00195 0.00744443 0.0008314696 0 0.00744443 0.0007730104 0.00195 0.007365607 0.0007730104 0 0.007365607 0.0007071068 0.00195 0.007292893 0.0007071068 0 0.007292893 0.0006343933 0.00195 0.00722699 0.0006343933 0 0.00722699 0.0005555702 0.00195 0.00716853 0.0005555702 0 0.00716853 0.0004713967 0.00195 0.007118079 0.0004713967 0 0.007118079 0.0003826834 0.00195 0.00707612 0.0003826834 0 0.00707612 0.0002902847 0.00195 0.00704306 0.0002902847 0 0.00704306 0.0001950903 0.00195 0.007019215 0.0001950903 0 0.007019215 9.801714e-05 0.00195 0.007004815 9.801714e-05 0 0.007004815 3.828569e-19 0.00195 0.007 -3.828569e-19 0 0.007 -9.801714e-05 0.00195 0.007004815 -9.801714e-05 0 0.007004815 -0.0001950903 0.00195 0.007019215 -0.0001950903 0 0.007019215 -0.0002902847 0.00195 0.00704306 -0.0002902847 0 0.00704306 -0.0003826834 0.00195 0.00707612 -0.0003826834 0 0.00707612 -0.0004713967 0.00195 0.007118079 -0.0004713967 0 0.007118079 -0.0005555702 0.00195 0.00716853 -0.0005555702 0 0.00716853 -0.0006343933 0.00195 0.00722699 -0.0006343933 0 0.00722699 -0.0007071068 0.00195 0.007292893 -0.0007071068 0 0.007292893 -0.0007730104 0 0.007365607 -0.0007730104 0.00195 0.007365607 -0.0008314696 0.00195 0.00744443 -0.0008314696 0 0.00744443 -0.0008819213 0 0.007528603 -0.0008819213 0.00195 0.007528603 -0.0009238795 0.00195 0.007617317 -0.0009238795 0 0.007617317 -0.0009569404 0.00195 0.007709715 -0.0009569404 0 0.007709715 -0.0009807853 0 0.00780491 -0.0009807853 0.00195 0.00780491 -0.0009951847 0.00195 0.007901983 -0.0009951847 0 0.007901983 -0.001 0 0.008 -0.001 0.00195 0.008 -0.0009951847 0.00195 0.008098017 -0.0009951847 0 0.008098017 -0.0009807853 0.00195 0.00819509 -0.0009807853 0 0.00819509 -0.0009569404 0.00195 0.008290285 -0.0009569404 0 0.008290285 -0.0009238795 0.00195 0.008382684 -0.0009238795 0 0.008382684 -0.0008819213 0.00195 0.008471396 -0.0008819213 0 0.008471396 -0.0008314696 0.00195 0.008555571 -0.0008314696 0 0.008555571 -0.0007730104 0.00195 0.008634394 -0.0007730104 0 0.008634394 -0.0007071068 0.00195 0.008707107 -0.0007071068 0 0.008707107 -0.0006343933 0.00195 0.00877301 -0.0006343933 0 0.00877301 -0.0005555702 0.00195 0.00883147 -0.0005555702 0 0.00883147 -0.0004713967 0.00195 0.008881921 -0.0004713967 0 0.008881921 -0.0003826834 0.00195 0.00892388 -0.0003826834 0 0.00892388 -0.0002902847 0.00195 0.008956941 -0.0002902847 0 0.008956941 -0.0001950903 0.00195 0.008980785 -0.0001950903 0 0.008980785 -9.801714e-05 0.00195 0.008995185 -9.801714e-05 0 0.008995185 -3.828569e-19 0.00195 0.009 3.828569e-19 0 0.009 9.801714e-05 0.00195 0.008995185 9.801714e-05 0 0.008995185 0.0001950903 0.00195 0.008980785 0.0001950903 0 0.008980785 0.0002902847 0.00195 0.008956941 0.0002902847 0 0.008956941 0.0003826834 0.00195 0.00892388 0.0003826834 0 0.00892388 0.0004713967 0.00195 0.008881921 0.0004713967 0 0.008881921 0.0005555702 0 0.00883147 0.0005555702 0.00195 0.00883147 0.0006343933 0.00195 0.00877301 0.0006343933 0 0.00877301 0.0007071068 0.00195 0.008707107 0.0007071068 0 0.008707107 0.0007730104 0 0.008634394 0.0007730104 0.00195 0.008634394 0.0008314696 0.00195 0.008555571 0.0008314696 0 0.008555571 0.0008819213 0.00195 0.008471396 0.0008819213 0 0.008471396 0.0009238795 0.00195 0.008382684 0.0009238795 0 0.008382684 0.0009569404 0.00195 0.008290285 0.0009569404 0 0.008290285 0.0009807853 0 0.00819509 0.0009807853 0.00195 0.00819509 0.0009951847 0.00195 0.008098017 0.0009951847 0 0.008098017 -0.004656854 0 0.005656854 -0.00466167 0.00195 0.005558837 -0.00466167 0 0.005558837 -0.004656854 0.00195 0.005656854 -0.004676069 0.00195 0.005461764 -0.004676069 0 0.005461764 -0.004699914 0.00195 0.00536657 -0.004699914 0 0.00536657 -0.004732975 0.00195 0.005274171 -0.004732975 0 0.005274171 -0.004774933 0.00195 0.005185458 -0.004774933 0 0.005185458 -0.004825385 0.00195 0.005101284 -0.004825385 0 0.005101284 -0.004883844 0.00195 0.005022461 -0.004883844 0 0.005022461 -0.004949748 0.00195 0.004949748 -0.004949748 0 0.004949748 -0.005022461 0.00195 0.004883844 -0.005022461 0 0.004883844 -0.005101284 0.00195 0.004825385 -0.005101284 0 0.004825385 -0.005185458 0.00195 0.004774933 -0.005185458 0 0.004774933 -0.005274171 0.00195 0.004732975 -0.005274171 0 0.004732975 -0.00536657 0.00195 0.004699914 -0.00536657 0 0.004699914 -0.005461764 0.00195 0.004676069 -0.005461764 0 0.004676069 -0.005558837 0.00195 0.00466167 -0.005558837 0 0.00466167 -0.005656854 0.00195 0.004656854 -0.005656854 0 0.004656854 -0.005754871 0.00195 0.00466167 -0.005754871 0 0.00466167 -0.005851944 0.00195 0.004676069 -0.005851944 0 0.004676069 -0.005947139 0.00195 0.004699914 -0.005947139 0 0.004699914 -0.006039538 0.00195 0.004732975 -0.006039538 0 0.004732975 -0.006128251 0.00195 0.004774933 -0.006128251 0 0.004774933 -0.006212424 0.00195 0.004825385 -0.006212424 0 0.004825385 -0.006291247 0.00195 0.004883844 -0.006291247 0 0.004883844 -0.006363961 0.00195 0.004949748 -0.006363961 0 0.004949748 -0.006429865 0 0.005022461 -0.006429865 0.00195 0.005022461 -0.006488324 0.00195 0.005101284 -0.006488324 0 0.005101284 -0.006538775 0 0.005185458 -0.006538775 0.00195 0.005185458 -0.006580734 0.00195 0.005274171 -0.006580734 0 0.005274171 -0.006613795 0.00195 0.00536657 -0.006613795 0 0.00536657 -0.00663764 0 0.005461764 -0.00663764 0.00195 0.005461764 -0.006652039 0.00195 0.005558837 -0.006652039 0 0.005558837 -0.006656854 0 0.005656854 -0.006656854 0.00195 0.005656854 -0.006652039 0.00195 0.005754871 -0.006652039 0 0.005754871 -0.00663764 0.00195 0.005851944 -0.00663764 0 0.005851944 -0.006613795 0.00195 0.005947139 -0.006613795 0 0.005947139 -0.006580734 0.00195 0.006039538 -0.006580734 0 0.006039538 -0.006538775 0.00195 0.006128251 -0.006538775 0 0.006128251 -0.006488324 0.00195 0.006212424 -0.006488324 0 0.006212424 -0.006429865 0.00195 0.006291247 -0.006429865 0 0.006291247 -0.006363961 0.00195 0.006363961 -0.006363961 0 0.006363961 -0.006291247 0.00195 0.006429865 -0.006291247 0 0.006429865 -0.006212424 0.00195 0.006488324 -0.006212424 0 0.006488324 -0.006128251 0.00195 0.006538775 -0.006128251 0 0.006538775 -0.006039538 0.00195 0.006580734 -0.006039538 0 0.006580734 -0.005947139 0.00195 0.006613795 -0.005947139 0 0.006613795 -0.005851944 0.00195 0.00663764 -0.005851944 0 0.00663764 -0.005754871 0.00195 0.006652039 -0.005754871 0 0.006652039 -0.005656854 0.00195 0.006656854 -0.005656854 0 0.006656854 -0.005558837 0.00195 0.006652039 -0.005558837 0 0.006652039 -0.005461764 0.00195 0.00663764 -0.005461764 0 0.00663764 -0.00536657 0.00195 0.006613795 -0.00536657 0 0.006613795 -0.005274171 0.00195 0.006580734 -0.005274171 0 0.006580734 -0.005185458 0.00195 0.006538775 -0.005185458 0 0.006538775 -0.005101284 0 0.006488324 -0.005101284 0.00195 0.006488324 -0.005022461 0.00195 0.006429865 -0.005022461 0 0.006429865 -0.004949748 0.00195 0.006363961 -0.004949748 0 0.006363961 -0.004883844 0 0.006291247 -0.004883844 0.00195 0.006291247 -0.004825385 0.00195 0.006212424 -0.004825385 0 0.006212424 -0.004774933 0.00195 0.006128251 -0.004774933 0 0.006128251 -0.004732975 0.00195 0.006039538 -0.004732975 0 0.006039538 -0.004699914 0.00195 0.005947139 -0.004699914 0 0.005947139 -0.004676069 0 0.005851944 -0.004676069 0.00195 0.005851944 -0.00466167 0.00195 0.005754871 -0.00466167 0 0.005754871 -0.007 0 0 -0.007004815 0.00195 -9.801714e-05 -0.007004815 0 -9.801714e-05 -0.007 0.00195 0 -0.007019215 0.00195 -0.0001950903 -0.007019215 0 -0.0001950903 -0.00704306 0.00195 -0.0002902847 -0.00704306 0 -0.0002902847 -0.00707612 0.00195 -0.0003826834 -0.00707612 0 -0.0003826834 -0.007118079 0.00195 -0.0004713967 -0.007118079 0 -0.0004713967 -0.00716853 0.00195 -0.0005555702 -0.00716853 0 -0.0005555702 -0.00722699 0.00195 -0.0006343933 -0.00722699 0 -0.0006343933 -0.007292893 0.00195 -0.0007071068 -0.007292893 0 -0.0007071068 -0.007365607 0.00195 -0.0007730104 -0.007365607 0 -0.0007730104 -0.00744443 0.00195 -0.0008314696 -0.00744443 0 -0.0008314696 -0.007528603 0.00195 -0.0008819213 -0.007528603 0 -0.0008819213 -0.007617317 0.00195 -0.0009238795 -0.007617317 0 -0.0009238795 -0.007709715 0.00195 -0.0009569404 -0.007709715 0 -0.0009569404 -0.00780491 0.00195 -0.0009807853 -0.00780491 0 -0.0009807853 -0.007901983 0.00195 -0.0009951847 -0.007901983 0 -0.0009951847 -0.008 0.00195 -0.001 -0.008 0 -0.001 -0.008098017 0.00195 -0.0009951847 -0.008098017 0 -0.0009951847 -0.00819509 0.00195 -0.0009807853 -0.00819509 0 -0.0009807853 -0.008290285 0.00195 -0.0009569404 -0.008290285 0 -0.0009569404 -0.008382684 0.00195 -0.0009238795 -0.008382684 0 -0.0009238795 -0.008471396 0.00195 -0.0008819213 -0.008471396 0 -0.0008819213 -0.008555571 0.00195 -0.0008314696 -0.008555571 0 -0.0008314696 -0.008634394 0.00195 -0.0007730104 -0.008634394 0 -0.0007730104 -0.008707107 0.00195 -0.0007071068 -0.008707107 0 -0.0007071068 -0.00877301 0 -0.0006343933 -0.00877301 0.00195 -0.0006343933 -0.00883147 0.00195 -0.0005555702 -0.00883147 0 -0.0005555702 -0.008881921 0 -0.0004713967 -0.008881921 0.00195 -0.0004713967 -0.00892388 0.00195 -0.0003826834 -0.00892388 0 -0.0003826834 -0.008956941 0.00195 -0.0002902847 -0.008956941 0 -0.0002902847 -0.008980785 0 -0.0001950903 -0.008980785 0.00195 -0.0001950903 -0.008995185 0.00195 -9.801714e-05 -0.008995185 0 -9.801714e-05 -0.009 0 0 -0.009 0.00195 0 -0.008995185 0.00195 9.801714e-05 -0.008995185 0 9.801714e-05 -0.008980785 0.00195 0.0001950903 -0.008980785 0 0.0001950903 -0.008956941 0.00195 0.0002902847 -0.008956941 0 0.0002902847 -0.00892388 0.00195 0.0003826834 -0.00892388 0 0.0003826834 -0.008881921 0.00195 0.0004713967 -0.008881921 0 0.0004713967 -0.00883147 0.00195 0.0005555702 -0.00883147 0 0.0005555702 -0.00877301 0.00195 0.0006343933 -0.00877301 0 0.0006343933 -0.008707107 0.00195 0.0007071068 -0.008707107 0 0.0007071068 -0.008634394 0.00195 0.0007730104 -0.008634394 0 0.0007730104 -0.008555571 0.00195 0.0008314696 -0.008555571 0 0.0008314696 -0.008471396 0.00195 0.0008819213 -0.008471396 0 0.0008819213 -0.008382684 0.00195 0.0009238795 -0.008382684 0 0.0009238795 -0.008290285 0.00195 0.0009569404 -0.008290285 0 0.0009569404 -0.00819509 0.00195 0.0009807853 -0.00819509 0 0.0009807853 -0.008098017 0.00195 0.0009951847 -0.008098017 0 0.0009951847 -0.008 0.00195 0.001 -0.008 0 0.001 -0.007901983 0.00195 0.0009951847 -0.007901983 0 0.0009951847 -0.00780491 0.00195 0.0009807853 -0.00780491 0 0.0009807853 -0.007709715 0.00195 0.0009569404 -0.007709715 0 0.0009569404 -0.007617317 0.00195 0.0009238795 -0.007617317 0 0.0009238795 -0.007528603 0.00195 0.0008819213 -0.007528603 0 0.0008819213 -0.00744443 0 0.0008314696 -0.00744443 0.00195 0.0008314696 -0.007365607 0.00195 0.0007730104 -0.007365607 0 0.0007730104 -0.007292893 0.00195 0.0007071068 -0.007292893 0 0.0007071068 -0.00722699 0 0.0006343933 -0.00722699 0.00195 0.0006343933 -0.00716853 0.00195 0.0005555702 -0.00716853 0 0.0005555702 -0.007118079 0.00195 0.0004713967 -0.007118079 0 0.0004713967 -0.00707612 0.00195 0.0003826834 -0.00707612 0 0.0003826834 -0.00704306 0.00195 0.0002902847 -0.00704306 0 0.0002902847 -0.007019215 0 0.0001950903 -0.007019215 0.00195 0.0001950903 -0.007004815 0.00195 9.801714e-05 -0.007004815 0 9.801714e-05 -0.004656854 0 -0.005656854 -0.00466167 0.00195 -0.005754871 -0.00466167 0 -0.005754871 -0.004656854 0.00195 -0.005656854 -0.004676069 0.00195 -0.005851944 -0.004676069 0 -0.005851944 -0.004699914 0.00195 -0.005947139 -0.004699914 0 -0.005947139 -0.004732975 0.00195 -0.006039538 -0.004732975 0 -0.006039538 -0.004774933 0.00195 -0.006128251 -0.004774933 0 -0.006128251 -0.004825385 0.00195 -0.006212424 -0.004825385 0 -0.006212424 -0.004883844 0.00195 -0.006291247 -0.004883844 0 -0.006291247 -0.004949748 0.00195 -0.006363961 -0.004949748 0 -0.006363961 -0.005022461 0.00195 -0.006429865 -0.005022461 0 -0.006429865 -0.005101284 0.00195 -0.006488324 -0.005101284 0 -0.006488324 -0.005185458 0.00195 -0.006538775 -0.005185458 0 -0.006538775 -0.005274171 0.00195 -0.006580734 -0.005274171 0 -0.006580734 -0.00536657 0.00195 -0.006613795 -0.00536657 0 -0.006613795 -0.005461764 0.00195 -0.00663764 -0.005461764 0 -0.00663764 -0.005558837 0.00195 -0.006652039 -0.005558837 0 -0.006652039 -0.005656854 0.00195 -0.006656854 -0.005656854 0 -0.006656854 -0.005754871 0.00195 -0.006652039 -0.005754871 0 -0.006652039 -0.005851944 0.00195 -0.00663764 -0.005851944 0 -0.00663764 -0.005947139 0.00195 -0.006613795 -0.005947139 0 -0.006613795 -0.006039538 0.00195 -0.006580734 -0.006039538 0 -0.006580734 -0.006128251 0.00195 -0.006538775 -0.006128251 0 -0.006538775 -0.006212424 0.00195 -0.006488324 -0.006212424 0 -0.006488324 -0.006291247 0.00195 -0.006429865 -0.006291247 0 -0.006429865 -0.006363961 0.00195 -0.006363961 -0.006363961 0 -0.006363961 -0.006429865 0 -0.006291247 -0.006429865 0.00195 -0.006291247 -0.006488324 0.00195 -0.006212424 -0.006488324 0 -0.006212424 -0.006538775 0 -0.006128251 -0.006538775 0.00195 -0.006128251 -0.006580734 0.00195 -0.006039538 -0.006580734 0 -0.006039538 -0.006613795 0.00195 -0.005947139 -0.006613795 0 -0.005947139 -0.00663764 0 -0.005851944 -0.00663764 0.00195 -0.005851944 -0.006652039 0.00195 -0.005754871 -0.006652039 0 -0.005754871 -0.006656854 0 -0.005656854 -0.006656854 0.00195 -0.005656854 -0.006652039 0.00195 -0.005558837 -0.006652039 0 -0.005558837 -0.00663764 0.00195 -0.005461764 -0.00663764 0 -0.005461764 -0.006613795 0.00195 -0.00536657 -0.006613795 0 -0.00536657 -0.006580734 0.00195 -0.005274171 -0.006580734 0 -0.005274171 -0.006538775 0.00195 -0.005185458 -0.006538775 0 -0.005185458 -0.006488324 0.00195 -0.005101284 -0.006488324 0 -0.005101284 -0.006429865 0.00195 -0.005022461 -0.006429865 0 -0.005022461 -0.006363961 0.00195 -0.004949748 -0.006363961 0 -0.004949748 -0.006291247 0.00195 -0.004883844 -0.006291247 0 -0.004883844 -0.006212424 0.00195 -0.004825385 -0.006212424 0 -0.004825385 -0.006128251 0.00195 -0.004774933 -0.006128251 0 -0.004774933 -0.006039538 0.00195 -0.004732975 -0.006039538 0 -0.004732975 -0.005947139 0.00195 -0.004699914 -0.005947139 0 -0.004699914 -0.005851944 0.00195 -0.004676069 -0.005851944 0 -0.004676069 -0.005754871 0.00195 -0.00466167 -0.005754871 0 -0.00466167 -0.005656854 0.00195 -0.004656854 -0.005656854 0 -0.004656854 -0.005558837 0.00195 -0.00466167 -0.005558837 0 -0.00466167 -0.005461764 0.00195 -0.004676069 -0.005461764 0 -0.004676069 -0.00536657 0.00195 -0.004699914 -0.00536657 0 -0.004699914 -0.005274171 0.00195 -0.004732975 -0.005274171 0 -0.004732975 -0.005185458 0.00195 -0.004774933 -0.005185458 0 -0.004774933 -0.005101284 0 -0.004825385 -0.005101284 0.00195 -0.004825385 -0.005022461 0.00195 -0.004883844 -0.005022461 0 -0.004883844 -0.004949748 0.00195 -0.004949748 -0.004949748 0 -0.004949748 -0.004883844 0 -0.005022461 -0.004883844 0.00195 -0.005022461 -0.004825385 0.00195 -0.005101284 -0.004825385 0 -0.005101284 -0.004774933 0.00195 -0.005185458 -0.004774933 0 -0.005185458 -0.004732975 0.00195 -0.005274171 -0.004732975 0 -0.005274171 -0.004699914 0.00195 -0.00536657 -0.004699914 0 -0.00536657 -0.004676069 0 -0.005461764 -0.004676069 0.00195 -0.005461764 -0.00466167 0.00195 -0.005558837 -0.00466167 0 -0.005558837</float_array>
          <technique_common>
            <accessor count="1024" source="#cubeverts-array0-array" stride="3">
              <param type="float" name="X"/>
              <param type="float" name="Y"/>
              <param type="float" name="Z"/>
            </accessor>
          </technique_common>
        </source>
        <source id="cubenormals-array0">
          <float_array count="3072" id="cubenormals-array0-array">-0.9987954 0 0.04906795 -0.9987954 0 0.04906795 -0.9891766 0 0.1467302 -0.9891766 0 0.1467302 -0.9700316 0 0.2429786 -0.9700316 0 0.2429786 -0.9415438 0 0.3368906 -0.9415438 0 0.3368906 -0.9039884 0 0.427557 -0.9039884 0 0.427557 -0.8577302 0 0.5141001 -0.8577302 0 0.5141001 -0.8032076 0 0.5956991 -0.8032076 0 0.5956991 -0.7409484 0 0.671562 -0.7409484 0 0.671562 -0.6715589 0 0.7409512 -0.6715589 0 0.7409512 -0.5957002 0 0.8032068 -0.5957002 0 0.8032068 -0.5141 0 0.8577303 -0.5141 0 0.8577303 -0.4275595 0 0.9039872 -0.4275595 0 0.9039872 -0.3368918 0 0.9415433 -0.3368918 0 0.9415433 -0.2429781 0 0.9700318 -0.2429781 0 0.9700318 -0.1467313 0 0.9891764 -0.1467313 0 0.9891764 -0.04906593 0 0.9987955 -0.04906593 0 0.9987955 0.04906593 0 0.9987955 0.04906593 -1.92669e-17 0.9987955 0.1467313 0 0.9891764 0.1467313 0 0.9891764 0.2429781 0 0.9700318 0.2429781 0 0.9700318 0.3368918 0 0.9415433 0.3368918 0 0.9415433 0.4275595 0 0.9039872 0.4275595 0 0.9039872 0.5141 0 0.8577303 0.5141 0 0.8577303 0.5957002 0 0.8032068 0.5957002 0 0.8032068 0.6715589 0 0.7409512 0.7409484 -0 0.671562 0.6715589 0 0.7409512 0.7409484 0 0.671562 0.8032076 0 0.5956991 0.8577302 -0 0.5141001 0.8032076 0 0.5956991 0.8577302 0 0.5141001 0.9039884 0 0.427557 0.9039884 0 0.427557 0.9415438 0 0.3368906 0.9700316 -0 0.2429786 0.9415438 0 0.3368906 0.9700316 0 0.2429786 0.9891766 0 0.1467302 0.9987954 -0 0.04906795 0.9891766 0 0.1467302 0.9987954 0 0.04906795 0.9987954 0 -0.04906771 0.9987954 0 -0.04906771 0.9891765 0 -0.1467309 0.9891765 0 -0.1467309 0.9700314 0 -0.2429798 0.9700314 0 -0.2429798 0.9415438 0 -0.3368906 0.9415438 0 -0.3368906 0.9039901 0 -0.4275533 0.9039901 0 -0.4275533 0.8577276 0 -0.5141044 0.8577276 0 -0.5141044 0.8032076 0 -0.5956991 0.8032076 0 -0.5956991 0.7409506 0 -0.6715595 0.7409506 0 -0.6715595 0.6715589 0 -0.7409512 0.6715589 0 -0.7409512 0.5957002 0 -0.8032068 0.5957002 0 -0.8032068 0.5141035 0 -0.8577281 0.5141035 0 -0.8577281 0.4275556 0 -0.903989 0.4275556 0 -0.903989 0.3368876 0 -0.9415448 0.3368876 0 -0.9415448 0.2429826 0 -0.9700307 0.2429826 0 -0.9700307 0.1467313 0 -0.9891764 0.1467313 0 -0.9891764 0.04906593 0 -0.9987955 0.04906593 0 -0.9987955 -0.04906593 0 -0.9987955 -0.04906593 -1.92669e-17 -0.9987955 -0.1467313 0 -0.9891764 -0.1467313 -0 -0.9891764 -0.2429826 0 -0.9700307 -0.2429826 -0 -0.9700307 -0.3368876 0 -0.9415448 -0.3368876 -0 -0.9415448 -0.4275556 0 -0.903989 -0.5141035 0 -0.8577281 -0.4275556 -0 -0.903989 -0.5141035 0 -0.8577281 -0.5957002 0 -0.8032068 -0.5957002 -0 -0.8032068 -0.6715589 0 -0.7409512 -0.7409506 0 -0.6715595 -0.6715589 -0 -0.7409512 -0.7409506 0 -0.6715595 -0.8032076 0 -0.5956991 -0.8032076 -0 -0.5956991 -0.8577276 0 -0.5141044 -0.8577276 -0 -0.5141044 -0.9039901 0 -0.4275533 -0.9039901 -0 -0.4275533 -0.9415438 0 -0.3368906 -0.9700314 0 -0.2429798 -0.9415438 -0 -0.3368906 -0.9700314 0 -0.2429798 -0.9891765 0 -0.1467309 -0.9891765 -0 -0.1467309 -0.9987954 0 -0.04906771 -0.9987954 -0 -0.04906771 -0.9987955 0 0.04906589 -0.9987955 0 0.04906589 -0.9891764 0 0.1467315 -0.9891764 0 0.1467315 -0.9700318 0 0.2429781 -0.9700318 0 0.2429781 -0.9415438 0 0.3368907 -0.9415438 0 0.3368907 -0.9039888 0 0.4275562 -0.9039888 0 0.4275562 -0.8577274 0 0.5141048 -0.8577274 0 0.5141048 -0.8032094 0 0.5956968 -0.8032094 0 0.5956968 -0.7409528 0 0.6715571 -0.7409528 0 0.6715571 -0.6715571 0 0.7409528 -0.6715571 0 0.7409528 -0.5956968 0 0.8032094 -0.5956968 0 0.8032094 -0.5141048 0 0.8577274 -0.5141048 0 0.8577274 -0.4275562 0 0.9039888 -0.4275562 0 0.9039888 -0.3368907 0 0.9415438 -0.3368907 0 0.9415438 -0.2429781 0 0.9700318 -0.2429781 0 0.9700318 -0.1467315 0 0.9891764 -0.1467315 0 0.9891764 -0.04906589 0 0.9987955 -0.04906589 0 0.9987955 0.04906589 0 0.9987955 0.04906589 0 0.9987955 0.1467315 0 0.9891764 0.1467315 0 0.9891764 0.2429781 0 0.9700318 0.2429781 0 0.9700318 0.3368922 0 0.9415432 0.3368922 0 0.9415432 0.4275562 0 0.9039888 0.4275562 0 0.9039888 0.5141027 0 0.8577286 0.5141027 0 0.8577286 0.5956968 0 0.8032094 0.5956968 0 0.8032094 0.6715595 0 0.7409506 0.7409528 -0 0.6715571 0.6715595 0 0.7409506 0.7409528 0 0.6715571 0.8032071 0 0.5956999 0.8577274 -0 0.5141048 0.8032071 0 0.5956999 0.8577274 0 0.5141048 0.9039888 0 0.4275562 0.9039888 0 0.4275562 0.9415453 0 0.3368864 0.9700307 -0 0.2429826 0.9415453 0 0.3368864 0.9700307 0 0.2429826 0.9891771 0 0.1467267 0.9987953 -0 0.04907074 0.9891771 0 0.1467267 0.9987953 0 0.04907074 0.9987953 0 -0.04907074 0.9987953 0 -0.04907074 0.9891771 0 -0.1467267 0.9891771 0 -0.1467267 0.9700307 0 -0.2429826 0.9700307 0 -0.2429826 0.9415448 0 -0.336888 0.9415448 0 -0.336888 0.9039888 0 -0.4275562 0.9039888 0 -0.4275562 0.8577286 0 -0.5141027 0.8577286 0 -0.5141027 0.8032071 0 -0.5956999 0.8032071 0 -0.5956999 0.7409506 0 -0.6715595 0.7409506 0 -0.6715595 0.6715595 0 -0.7409506 0.6715595 0 -0.7409506 0.5956999 0 -0.8032071 0.5956999 0 -0.8032071 0.5141027 0 -0.8577286 0.5141027 0 -0.8577286 0.4275562 0 -0.9039888 0.4275562 0 -0.9039888 0.336888 0 -0.9415448 0.336888 0 -0.9415448 0.2429826 0 -0.9700307 0.2429826 0 -0.9700307 0.1467267 0 -0.9891771 0.1467267 0 -0.9891771 0.04907074 0 -0.9987953 0.04907074 0 -0.9987953 -0.04907074 0 -0.9987953 -0.04907074 -0 -0.9987953 -0.1467267 0 -0.9891771 -0.1467267 -0 -0.9891771 -0.2429826 0 -0.9700307 -0.2429826 -0 -0.9700307 -0.3368864 0 -0.9415453 -0.3368864 -0 -0.9415453 -0.4275562 0 -0.9039888 -0.5141048 0 -0.8577274 -0.4275562 -0 -0.9039888 -0.5141048 0 -0.8577274 -0.5956999 0 -0.8032071 -0.5956999 -0 -0.8032071 -0.6715571 0 -0.7409528 -0.7409506 0 -0.6715595 -0.6715571 -0 -0.7409528 -0.7409506 0 -0.6715595 -0.8032094 0 -0.5956968 -0.8032094 -0 -0.5956968 -0.8577286 0 -0.5141027 -0.8577286 -0 -0.5141027 -0.9039888 0 -0.4275562 -0.9039888 -0 -0.4275562 -0.9415432 0 -0.3368922 -0.9700318 0 -0.2429781 -0.9415432 -0 -0.3368922 -0.9700318 0 -0.2429781 -0.9891764 0 -0.1467315 -0.9891764 -0 -0.1467315 -0.9987955 0 -0.04906589 -0.9987955 -0 -0.04906589 -0.9987955 0 0.04906593 -0.9987955 0 0.04906593 -0.9891764 0 0.1467313 -0.9891764 0 0.1467313 -0.9700318 0 0.2429781 -0.9700318 0 0.2429781 -0.9415433 0 0.3368918 -0.9415433 0 0.3368918 -0.9039872 0 0.4275595 -0.9039872 0 0.4275595 -0.8577303 0 0.5141 -0.8577303 0 0.5141 -0.8032068 0 0.5957002 -0.8032068 0 0.5957002 -0.7409512 0 0.6715589 -0.7409512 0 0.6715589 -0.671562 0 0.7409484 -0.671562 0 0.7409484 -0.5956991 0 0.8032076 -0.5956991 0 0.8032076 -0.5141001 0 0.8577302 -0.5141001 0 0.8577302 -0.427557 0 0.9039884 -0.427557 0 0.9039884 -0.3368906 0 0.9415438 -0.3368906 0 0.9415438 -0.2429786 0 0.9700316 -0.2429786 0 0.9700316 -0.1467302 0 0.9891766 -0.1467302 0 0.9891766 -0.04906795 0 0.9987954 -0.04906795 0 0.9987954 0.04906771 0 0.9987954 0.04906771 0 0.9987954 0.1467309 0 0.9891765 0.1467309 0 0.9891765 0.2429798 0 0.9700314 0.2429798 0 0.9700314 0.3368906 0 0.9415438 0.3368906 0 0.9415438 0.4275533 0 0.9039901 0.4275533 0 0.9039901 0.5141044 0 0.8577276 0.5141044 0 0.8577276 0.5956991 0 0.8032076 0.5956991 0 0.8032076 0.6715595 0 0.7409506 0.7409512 -0 0.6715589 0.6715595 0 0.7409506 0.7409512 0 0.6715589 0.8032068 0 0.5957002 0.8577281 -0 0.5141035 0.8032068 0 0.5957002 0.8577281 0 0.5141035 0.903989 0 0.4275556 0.903989 0 0.4275556 0.9415448 0 0.3368876 0.9700307 -0 0.2429826 0.9415448 0 0.3368876 0.9700307 0 0.2429826 0.9891764 0 0.1467313 0.9987955 -0 0.04906593 0.9891764 0 0.1467313 0.9987955 0 0.04906593 0.9987955 0 -0.04906593 0.9987955 0 -0.04906593 0.9891764 0 -0.1467313 0.9891764 0 -0.1467313 0.9700307 0 -0.2429826 0.9700307 0 -0.2429826 0.9415448 0 -0.3368876 0.9415448 0 -0.3368876 0.903989 0 -0.4275556 0.903989 0 -0.4275556 0.8577281 0 -0.5141035 0.8577281 0 -0.5141035 0.8032068 0 -0.5957002 0.8032068 0 -0.5957002 0.7409512 0 -0.6715589 0.7409512 0 -0.6715589 0.6715595 0 -0.7409506 0.6715595 0 -0.7409506 0.5956991 0 -0.8032076 0.5956991 0 -0.8032076 0.5141044 0 -0.8577276 0.5141044 0 -0.8577276 0.4275533 0 -0.9039901 0.4275533 0 -0.9039901 0.3368906 0 -0.9415438 0.3368906 0 -0.9415438 0.2429798 0 -0.9700314 0.2429798 0 -0.9700314 0.1467309 0 -0.9891765 0.1467309 0 -0.9891765 0.04906771 0 -0.9987954 0.04906771 0 -0.9987954 -0.04906795 0 -0.9987954 -0.04906795 -0 -0.9987954 -0.1467302 0 -0.9891766 -0.1467302 -0 -0.9891766 -0.2429786 0 -0.9700316 -0.2429786 -0 -0.9700316 -0.3368906 0 -0.9415438 -0.3368906 -0 -0.9415438 -0.427557 0 -0.9039884 -0.5141001 0 -0.8577302 -0.427557 -0 -0.9039884 -0.5141001 0 -0.8577302 -0.5956991 0 -0.8032076 -0.5956991 -0 -0.8032076 -0.671562 0 -0.7409484 -0.7409512 0 -0.6715589 -0.671562 -0 -0.7409484 -0.7409512 0 -0.6715589 -0.8032068 0 -0.5957002 -0.8032068 -0 -0.5957002 -0.8577303 0 -0.5141 -0.8577303 -0 -0.5141 -0.9039872 0 -0.4275595 -0.9039872 -0 -0.4275595 -0.9415433 0 -0.3368918 -0.9700318 0 -0.2429781 -0.9415433 -0 -0.3368918 -0.9700318 0 -0.2429781 -0.9891764 0 -0.1467313 -0.9891764 -0 -0.1467313 -0.9987955 0 -0.04906593 -0.9987955 -0 -0.04906593 -0.9987955 0 0.04906589 -0.9987955 0 0.04906589 -0.9891764 0 0.1467315 -0.9891764 0 0.1467315 -0.9700318 0 0.2429781 -0.9700318 0 0.2429781 -0.9415432 0 0.3368922 -0.9415432 0 0.3368922 -0.9039888 0 0.4275562 -0.9039888 0 0.4275562 -0.8577286 0 0.5141027 -0.8577286 0 0.5141027 -0.8032094 0 0.5956968 -0.8032094 0 0.5956968 -0.7409506 0 0.6715595 -0.7409506 0 0.6715595 -0.6715571 0 0.7409528 -0.6715571 0 0.7409528 -0.5956999 0 0.8032071 -0.5956999 0 0.8032071 -0.5141048 0 0.8577274 -0.5141048 0 0.8577274 -0.4275562 0 0.9039888 -0.4275562 0 0.9039888 -0.3368864 0 0.9415453 -0.3368864 0 0.9415453 -0.2429826 0 0.9700307 -0.2429826 0 0.9700307 -0.1467267 0 0.9891771 -0.1467267 0 0.9891771 -0.04907074 0 0.9987953 -0.04907074 0 0.9987953 0.04907074 0 0.9987953 0.04907074 0 0.9987953 0.1467267 0 0.9891771 0.1467267 0 0.9891771 0.2429826 0 0.9700307 0.2429826 0 0.9700307 0.336888 0 0.9415448 0.336888 0 0.9415448 0.4275562 0 0.9039888 0.4275562 0 0.9039888 0.5141027 0 0.8577286 0.5141027 0 0.8577286 0.5956999 0 0.8032071 0.5956999 0 0.8032071 0.6715595 0 0.7409506 0.7409506 -0 0.6715595 0.6715595 0 0.7409506 0.7409506 0 0.6715595 0.8032071 0 0.5956999 0.8577286 -0 0.5141027 0.8032071 0 0.5956999 0.8577286 0 0.5141027 0.9039888 0 0.4275562 0.9039888 0 0.4275562 0.9415448 0 0.336888 0.9700307 -0 0.2429826 0.9415448 0 0.336888 0.9700307 0 0.2429826 0.9891771 0 0.1467267 0.9987953 -0 0.04907074 0.9891771 0 0.1467267 0.9987953 0 0.04907074 0.9987953 0 -0.04907074 0.9987953 0 -0.04907074 0.9891771 0 -0.1467267 0.9891771 0 -0.1467267 0.9700307 0 -0.2429826 0.9700307 0 -0.2429826 0.9415453 0 -0.3368864 0.9415453 0 -0.3368864 0.9039888 0 -0.4275562 0.9039888 0 -0.4275562 0.8577274 0 -0.5141048 0.8577274 0 -0.5141048 0.8032071 0 -0.5956999 0.8032071 0 -0.5956999 0.7409528 0 -0.6715571 0.7409528 0 -0.6715571 0.6715595 0 -0.7409506 0.6715595 0 -0.7409506 0.5956968 0 -0.8032094 0.5956968 0 -0.8032094 0.5141027 0 -0.8577286 0.5141027 0 -0.8577286 0.4275562 0 -0.9039888 0.4275562 0 -0.9039888 0.3368922 0 -0.9415432 0.3368922 0 -0.9415432 0.2429781 0 -0.9700318 0.2429781 0 -0.9700318 0.1467315 0 -0.9891764 0.1467315 0 -0.9891764 0.04906589 0 -0.9987955 0.04906589 0 -0.9987955 -0.04906589 0 -0.9987955 -0.04906589 -0 -0.9987955 -0.1467315 0 -0.9891764 -0.1467315 -0 -0.9891764 -0.2429781 0 -0.9700318 -0.2429781 -0 -0.9700318 -0.3368907 0 -0.9415438 -0.3368907 -0 -0.9415438 -0.4275562 0 -0.9039888 -0.5141048 0 -0.8577274 -0.4275562 -0 -0.9039888 -0.5141048 0 -0.8577274 -0.5956968 0 -0.8032094 -0.5956968 -0 -0.8032094 -0.6715571 0 -0.7409528 -0.7409528 0 -0.6715571 -0.6715571 -0 -0.7409528 -0.7409528 0 -0.6715571 -0.8032094 0 -0.5956968 -0.8032094 -0 -0.5956968 -0.8577274 0 -0.5141048 -0.8577274 -0 -0.5141048 -0.9039888 0 -0.4275562 -0.9039888 -0 -0.4275562 -0.9415438 0 -0.3368907 -0.9700318 0 -0.2429781 -0.9415438 -0 -0.3368907 -0.9700318 0 -0.2429781 -0.9891764 0 -0.1467315 -0.9891764 -0 -0.1467315 -0.9987955 0 -0.04906589 -0.9987955 -0 -0.04906589 -0.9987954 0 0.04906771 -0.9987954 0 0.04906771 -0.9891765 0 0.1467309 -0.9891765 0 0.1467309 -0.9700314 0 0.2429798 -0.9700314 0 0.2429798 -0.9415438 0 0.3368906 -0.9415438 0 0.3368906 -0.9039901 0 0.4275533 -0.9039901 0 0.4275533 -0.8577276 0 0.5141044 -0.8577276 0 0.5141044 -0.8032076 0 0.5956991 -0.8032076 0 0.5956991 -0.7409506 0 0.6715595 -0.7409506 0 0.6715595 -0.6715589 0 0.7409512 -0.6715589 0 0.7409512 -0.5957002 0 0.8032068 -0.5957002 0 0.8032068 -0.5141035 0 0.8577281 -0.5141035 0 0.8577281 -0.4275556 0 0.903989 -0.4275556 0 0.903989 -0.3368876 0 0.9415448 -0.3368876 0 0.9415448 -0.2429826 0 0.9700307 -0.2429826 0 0.9700307 -0.1467313 0 0.9891764 -0.1467313 0 0.9891764 -0.04906593 0 0.9987955 -0.04906593 0 0.9987955 0.04906593 0 0.9987955 0.04906593 -1.92669e-17 0.9987955 0.1467313 0 0.9891764 0.1467313 0 0.9891764 0.2429826 0 0.9700307 0.2429826 0 0.9700307 0.3368876 0 0.9415448 0.3368876 0 0.9415448 0.4275556 0 0.903989 0.4275556 0 0.903989 0.5141035 0 0.8577281 0.5141035 0 0.8577281 0.5957002 0 0.8032068 0.5957002 0 0.8032068 0.6715589 0 0.7409512 0.7409506 -0 0.6715595 0.6715589 0 0.7409512 0.7409506 0 0.6715595 0.8032076 0 0.5956991 0.8577276 -0 0.5141044 0.8032076 0 0.5956991 0.8577276 0 0.5141044 0.9039901 0 0.4275533 0.9039901 0 0.4275533 0.9415438 0 0.3368906 0.9700314 -0 0.2429798 0.9415438 0 0.3368906 0.9700314 0 0.2429798 0.9891765 0 0.1467309 0.9987954 -0 0.04906771 0.9891765 0 0.1467309 0.9987954 0 0.04906771 0.9987954 0 -0.04906795 0.9987954 0 -0.04906795 0.9891766 0 -0.1467302 0.9891766 0 -0.1467302 0.9700316 0 -0.2429786 0.9700316 0 -0.2429786 0.9415438 0 -0.3368906 0.9415438 0 -0.3368906 0.9039884 0 -0.427557 0.9039884 0 -0.427557 0.8577302 0 -0.5141001 0.8577302 0 -0.5141001 0.8032076 0 -0.5956991 0.8032076 0 -0.5956991 0.7409484 0 -0.671562 0.7409484 0 -0.671562 0.6715589 0 -0.7409512 0.6715589 0 -0.7409512 0.5957002 0 -0.8032068 0.5957002 0 -0.8032068 0.5141 0 -0.8577303 0.5141 0 -0.8577303 0.4275595 0 -0.9039872 0.4275595 0 -0.9039872 0.3368918 0 -0.9415433 0.3368918 0 -0.9415433 0.2429781 0 -0.9700318 0.2429781 0 -0.9700318 0.1467313 0 -0.9891764 0.1467313 0 -0.9891764 0.04906593 0 -0.9987955 0.04906593 0 -0.9987955 -0.04906593 0 -0.9987955 -0.04906593 -1.92669e-17 -0.9987955 -0.1467313 0 -0.9891764 -0.1467313 -0 -0.9891764 -0.2429781 0 -0.9700318 -0.2429781 -0 -0.9700318 -0.3368918 0 -0.9415433 -0.3368918 -0 -0.9415433 -0.4275595 0 -0.9039872 -0.5141 0 -0.8577303 -0.4275595 -0 -0.9039872 -0.5141 0 -0.8577303 -0.5957002 0 -0.8032068 -0.5957002 -0 -0.8032068 -0.6715589 0 -0.7409512 -0.7409484 0 -0.671562 -0.6715589 -0 -0.7409512 -0.7409484 0 -0.671562 -0.8032076 0 -0.5956991 -0.8032076 -0 -0.5956991 -0.8577302 0 -0.5141001 -0.8577302 -0 -0.5141001 -0.9039884 0 -0.427557 -0.9039884 -0 -0.427557 -0.9415438 0 -0.3368906 -0.9700316 0 -0.2429786 -0.9415438 -0 -0.3368906 -0.9700316 0 -0.2429786 -0.9891766 0 -0.1467302 -0.9891766 -0 -0.1467302 -0.9987954 0 -0.04906795 -0.9987954 -0 -0.04906795 -0.9987953 0 0.04907074 -0.9987953 0 0.04907074 -0.9891771 0 0.1467267 -0.9891771 0 0.1467267 -0.9700307 0 0.2429826 -0.9700307 0 0.2429826 -0.9415448 0 0.336888 -0.9415448 0 0.336888 -0.9039888 0 0.4275562 -0.9039888 0 0.4275562 -0.8577286 0 0.5141027 -0.8577286 0 0.5141027 -0.8032071 0 0.5956999 -0.8032071 0 0.5956999 -0.7409506 0 0.6715595 -0.7409506 0 0.6715595 -0.6715595 0 0.7409506 -0.6715595 0 0.7409506 -0.5956999 0 0.8032071 -0.5956999 0 0.8032071 -0.5141027 0 0.8577286 -0.5141027 0 0.8577286 -0.4275562 0 0.9039888 -0.4275562 0 0.9039888 -0.336888 0 0.9415448 -0.336888 0 0.9415448 -0.2429826 0 0.9700307 -0.2429826 0 0.9700307 -0.1467267 0 0.9891771 -0.1467267 0 0.9891771 -0.04907074 0 0.9987953 -0.04907074 0 0.9987953 0.04907074 0 0.9987953 0.04907074 0 0.9987953 0.1467267 0 0.9891771 0.1467267 0 0.9891771 0.2429826 0 0.9700307 0.2429826 0 0.9700307 0.3368864 0 0.9415453 0.3368864 0 0.9415453 0.4275562 0 0.9039888 0.4275562 0 0.9039888 0.5141048 0 0.8577274 0.5141048 0 0.8577274 0.5956999 0 0.8032071 0.5956999 0 0.8032071 0.6715571 0 0.7409528 0.7409506 -0 0.6715595 0.6715571 0 0.7409528 0.7409506 0 0.6715595 0.8032094 0 0.5956968 0.8577286 -0 0.5141027 0.8032094 0 0.5956968 0.8577286 0 0.5141027 0.9039888 0 0.4275562 0.9039888 0 0.4275562 0.9415432 0 0.3368922 0.9700318 -0 0.2429781 0.9415432 0 0.3368922 0.9700318 0 0.2429781 0.9891764 0 0.1467315 0.9987955 -0 0.04906589 0.9891764 0 0.1467315 0.9987955 0 0.04906589 0.9987955 0 -0.04906589 0.9987955 0 -0.04906589 0.9891764 0 -0.1467315 0.9891764 0 -0.1467315 0.9700318 0 -0.2429781 0.9700318 0 -0.2429781 0.9415438 0 -0.3368907 0.9415438 0 -0.3368907 0.9039888 0 -0.4275562 0.9039888 0 -0.4275562 0.8577274 0 -0.5141048 0.8577274 0 -0.5141048 0.8032094 0 -0.5956968 0.8032094 0 -0.5956968 0.7409528 0 -0.6715571 0.7409528 0 -0.6715571 0.6715571 0 -0.7409528 0.6715571 0 -0.7409528 0.5956968 0 -0.8032094 0.5956968 0 -0.8032094 0.5141048 0 -0.8577274 0.5141048 0 -0.8577274 0.4275562 0 -0.9039888 0.4275562 0 -0.9039888 0.3368907 0 -0.9415438 0.3368907 0 -0.9415438 0.2429781 0 -0.9700318 0.2429781 0 -0.9700318 0.1467315 0 -0.9891764 0.1467315 0 -0.9891764 0.04906589 0 -0.9987955 0.04906589 0 -0.9987955 -0.04906589 0 -0.9987955 -0.04906589 -0 -0.9987955 -0.1467315 0 -0.9891764 -0.1467315 -0 -0.9891764 -0.2429781 0 -0.9700318 -0.2429781 -0 -0.9700318 -0.3368922 0 -0.9415432 -0.3368922 -0 -0.9415432 -0.4275562 0 -0.9039888 -0.5141027 0 -0.8577286 -0.4275562 -0 -0.9039888 -0.5141027 0 -0.8577286 -0.5956968 0 -0.8032094 -0.5956968 -0 -0.8032094 -0.6715595 0 -0.7409506 -0.7409528 0 -0.6715571 -0.6715595 -0 -0.7409506 -0.7409528 0 -0.6715571 -0.8032071 0 -0.5956999 -0.8032071 -0 -0.5956999 -0.8577274 0 -0.5141048 -0.8577274 -0 -0.5141048 -0.9039888 0 -0.4275562 -0.9039888 -0 -0.4275562 -0.9415453 0 -0.3368864 -0.9700307 0 -0.2429826 -0.9415453 -0 -0.3368864 -0.9700307 0 -0.2429826 -0.9891771 0 -0.1467267 -0.9891771 -0 -0.1467267 -0.9987953 0 -0.04907074 -0.9987953 -0 -0.04907074 -0.9987955 0 0.04906593 -0.9987955 0 0.04906593 -0.9891764 0 0.1467313 -0.9891764 0 0.1467313 -0.9700307 0 0.2429826 -0.9700307 0 0.2429826 -0.9415448 0 0.3368876 -0.9415448 0 0.3368876 -0.903989 0 0.4275556 -0.903989 0 0.4275556 -0.8577281 0 0.5141035 -0.8577281 0 0.5141035 -0.8032068 0 0.5957002 -0.8032068 0 0.5957002 -0.7409512 0 0.6715589 -0.7409512 0 0.6715589 -0.6715595 0 0.7409506 -0.6715595 0 0.7409506 -0.5956991 0 0.8032076 -0.5956991 0 0.8032076 -0.5141044 0 0.8577276 -0.5141044 0 0.8577276 -0.4275533 0 0.9039901 -0.4275533 0 0.9039901 -0.3368906 0 0.9415438 -0.3368906 0 0.9415438 -0.2429798 0 0.9700314 -0.2429798 0 0.9700314 -0.1467309 0 0.9891765 -0.1467309 0 0.9891765 -0.04906771 0 0.9987954 -0.04906771 0 0.9987954 0.04906795 0 0.9987954 0.04906795 0 0.9987954 0.1467302 0 0.9891766 0.1467302 0 0.9891766 0.2429786 0 0.9700316 0.2429786 0 0.9700316 0.3368906 0 0.9415438 0.3368906 0 0.9415438 0.427557 0 0.9039884 0.427557 0 0.9039884 0.5141001 0 0.8577302 0.5141001 0 0.8577302 0.5956991 0 0.8032076 0.5956991 0 0.8032076 0.671562 0 0.7409484 0.7409512 -0 0.6715589 0.671562 0 0.7409484 0.7409512 0 0.6715589 0.8032068 0 0.5957002 0.8577303 -0 0.5141 0.8032068 0 0.5957002 0.8577303 0 0.5141 0.9039872 0 0.4275595 0.9039872 0 0.4275595 0.9415433 0 0.3368918 0.9700318 -0 0.2429781 0.9415433 0 0.3368918 0.9700318 0 0.2429781 0.9891764 0 0.1467313 0.9987955 -0 0.04906593 0.9891764 0 0.1467313 0.9987955 0 0.04906593 0.9987955 0 -0.04906593 0.9987955 0 -0.04906593 0.9891764 0 -0.1467313 0.9891764 0 -0.1467313 0.9700318 0 -0.2429781 0.9700318 0 -0.2429781 0.9415433 0 -0.3368918 0.9415433 0 -0.3368918 0.9039872 0 -0.4275595 0.9039872 0 -0.4275595 0.8577303 0 -0.5141 0.8577303 0 -0.5141 0.8032068 0 -0.5957002 0.8032068 0 -0.5957002 0.7409512 0 -0.6715589 0.7409512 0 -0.6715589 0.671562 0 -0.7409484 0.671562 0 -0.7409484 0.5956991 0 -0.8032076 0.5956991 0 -0.8032076 0.5141001 0 -0.8577302 0.5141001 0 -0.8577302 0.427557 0 -0.9039884 0.427557 0 -0.9039884 0.3368906 0 -0.9415438 0.3368906 0 -0.9415438 0.2429786 0 -0.9700316 0.2429786 0 -0.9700316 0.1467302 0 -0.9891766 0.1467302 0 -0.9891766 0.04906795 0 -0.9987954 0.04906795 0 -0.9987954 -0.04906771 0 -0.9987954 -0.04906771 -0 -0.9987954 -0.1467309 0 -0.9891765 -0.1467309 -0 -0.9891765 -0.2429798 0 -0.9700314 -0.2429798 -0 -0.9700314 -0.3368906 0 -0.9415438 -0.3368906 -0 -0.9415438 -0.4275533 0 -0.9039901 -0.5141044 0 -0.8577276 -0.4275533 -0 -0.9039901 -0.5141044 0 -0.8577276 -0.5956991 0 -0.8032076 -0.5956991 -0 -0.8032076 -0.6715595 0 -0.7409506 -0.7409512 0 -0.6715589 -0.6715595 -0 -0.7409506 -0.7409512 0 -0.6715589 -0.8032068 0 -0.5957002 -0.8032068 -0 -0.5957002 -0.8577281 0 -0.5141035 -0.8577281 -0 -0.5141035 -0.903989 0 -0.4275556 -0.903989 -0 -0.4275556 -0.9415448 0 -0.3368876 -0.9700307 0 -0.2429826 -0.9415448 -0 -0.3368876 -0.9700307 0 -0.2429826 -0.9891764 0 -0.1467313 -0.9891764 -0 -0.1467313 -0.9987955 0 -0.04906593 -0.9987955 -0 -0.04906593 -0.9987953 0 0.04907074 -0.9987953 0 0.04907074 -0.9891771 0 0.1467267 -0.9891771 0 0.1467267 -0.9700307 0 0.2429826 -0.9700307 0 0.2429826 -0.9415453 0 0.3368864 -0.9415453 0 0.3368864 -0.9039888 0 0.4275562 -0.9039888 0 0.4275562 -0.8577274 0 0.5141048 -0.8577274 0 0.5141048 -0.8032071 0 0.5956999 -0.8032071 0 0.5956999 -0.7409528 0 0.6715571 -0.7409528 0 0.6715571 -0.6715595 0 0.7409506 -0.6715595 0 0.7409506 -0.5956968 0 0.8032094 -0.5956968 0 0.8032094 -0.5141027 0 0.8577286 -0.5141027 0 0.8577286 -0.4275562 0 0.9039888 -0.4275562 0 0.9039888 -0.3368922 0 0.9415432 -0.3368922 0 0.9415432 -0.2429781 0 0.9700318 -0.2429781 0 0.9700318 -0.1467315 0 0.9891764 -0.1467315 0 0.9891764 -0.04906589 0 0.9987955 -0.04906589 0 0.9987955 0.04906589 0 0.9987955 0.04906589 0 0.9987955 0.1467315 0 0.9891764 0.1467315 0 0.9891764 0.2429781 0 0.9700318 0.2429781 0 0.9700318 0.3368907 0 0.9415438 0.3368907 0 0.9415438 0.4275562 0 0.9039888 0.4275562 0 0.9039888 0.5141048 0 0.8577274 0.5141048 0 0.8577274 0.5956968 0 0.8032094 0.5956968 0 0.8032094 0.6715571 0 0.7409528 0.7409528 -0 0.6715571 0.6715571 0 0.7409528 0.7409528 0 0.6715571 0.8032094 0 0.5956968 0.8577274 -0 0.5141048 0.8032094 0 0.5956968 0.8577274 0 0.5141048 0.9039888 0 0.4275562 0.9039888 0 0.4275562 0.9415438 0 0.3368907 0.9700318 -0 0.2429781 0.9415438 0 0.3368907 0.9700318 0 0.2429781 0.9891764 0 0.1467315 0.9987955 -0 0.04906589 0.9891764 0 0.1467315 0.9987955 0 0.04906589 0.9987955 0 -0.04906589 0.9987955 0 -0.04906589 0.9891764 0 -0.1467315 0.9891764 0 -0.1467315 0.9700318 0 -0.2429781 0.9700318 0 -0.2429781 0.9415432 0 -0.3368922 0.9415432 0 -0.3368922 0.9039888 0 -0.4275562 0.9039888 0 -0.4275562 0.8577286 0 -0.5141027 0.8577286 0 -0.5141027 0.8032094 0 -0.5956968 0.8032094 0 -0.5956968 0.7409506 0 -0.6715595 0.7409506 0 -0.6715595 0.6715571 0 -0.7409528 0.6715571 0 -0.7409528 0.5956999 0 -0.8032071 0.5956999 0 -0.8032071 0.5141048 0 -0.8577274 0.5141048 0 -0.8577274 0.4275562 0 -0.9039888 0.4275562 0 -0.9039888 0.3368864 0 -0.9415453 0.3368864 0 -0.9415453 0.2429826 0 -0.9700307 0.2429826 0 -0.9700307 0.1467267 0 -0.9891771 0.1467267 0 -0.9891771 0.04907074 0 -0.9987953 0.04907074 0 -0.9987953 -0.04907074 0 -0.9987953 -0.04907074 -0 -0.9987953 -0.1467267 0 -0.9891771 -0.1467267 -0 -0.9891771 -0.2429826 0 -0.9700307 -0.2429826 -0 -0.9700307 -0.336888 0 -0.9415448 -0.336888 -0 -0.9415448 -0.4275562 0 -0.9039888 -0.5141027 0 -0.8577286 -0.4275562 -0 -0.9039888 -0.5141027 0 -0.8577286 -0.5956999 0 -0.8032071 -0.5956999 -0 -0.8032071 -0.6715595 0 -0.7409506 -0.7409506 0 -0.6715595 -0.6715595 -0 -0.7409506 -0.7409506 0 -0.6715595 -0.8032071 0 -0.5956999 -0.8032071 -0 -0.5956999 -0.8577286 0 -0.5141027 -0.8577286 -0 -0.5141027 -0.9039888 0 -0.4275562 -0.9039888 -0 -0.4275562 -0.9415448 0 -0.336888 -0.9700307 0 -0.2429826 -0.9415448 -0 -0.336888 -0.9700307 0 -0.2429826 -0.9891771 0 -0.1467267 -0.9891771 -0 -0.1467267 -0.9987953 0 -0.04907074 -0.9987953 -0 -0.04907074</float_array>
          <technique_common>
            <accessor count="1024" source="#cubenormals-array0-array" stride="3">
              <param type="float" name="X"/>
              <param type="float" name="Y"/>
              <param type="float" name="Z"/>
            </accessor>
          </technique_common>
        </source>
        <vertices id="cubeverts-array0-vertices">
          <input semantic="POSITION" source="#cubeverts-array0"/>
        </vertices>
        <triangles count="1024" material="ref_COMPOUND_shape">
          <input offset="0" semantic="VERTEX" source="#cubeverts-array0-vertices"/>
          <input offset="1" semantic="NORMAL" source="#cubenormals-array0"/>
          <p>0 0 1 0 2 0 3 1 1 1 0 1 2 2 4 2 5 2 1 3 4 3 2 3 5 4 6 4 7 4 4 5 6 5 5 5 7 6 8 6 9 6 6 7 8 7 7 7 9 8 10 8 11 8 8 9 10 9 9 9 11 10 12 10 13 10 10 11 12 11 11 11 13 12 14 12 15 12 12 13 14 13 13 13 14 14 16 14 15 14 15 15 16 15 17 15 16 16 18 16 17 16 17 17 18 17 19 17 19 18 20 18 21 18 18 19 20 19 19 19 21 20 22 20 23 20 20 21 22 21 21 21 23 22 24 22 25 22 22 23 24 23 23 23 25 24 26 24 27 24 24 25 26 25 25 25 27 26 28 26 29 26 26 27 28 27 27 27 29 28 30 28 31 28 28 29 30 29 29 29 31 30 32 30 33 30 30 31 32 31 31 31 33 32 34 32 35 32 32 33 34 33 33 33 35 34 36 34 37 34 34 35 36 35 35 35 37 36 38 36 39 36 36 37 38 37 37 37 39 38 40 38 41 38 38 39 40 39 39 39 41 40 42 40 43 40 40 41 42 41 41 41 43 42 44 42 45 42 42 43 44 43 43 43 45 44 46 44 47 44 44 45 46 45 45 45 47 46 48 46 49 46 49 47 48 47 50 47 46 48 48 48 47 48 48 49 51 49 50 49 50 50 52 50 53 50 53 51 52 51 54 51 51 52 52 52 50 52 52 53 55 53 54 53 54 54 56 54 57 54 55 55 56 55 54 55 57 56 58 56 59 56 59 57 58 57 60 57 56 58 58 58 57 58 58 59 61 59 60 59 60 60 62 60 63 60 63 61 62 61 64 61 61 62 62 62 60 62 62 63 65 63 64 63 64 64 66 64 67 64 65 65 66 65 64 65 67 66 68 66 69 66 66 67 68 67 67 67 69 68 70 68 71 68 68 69 70 69 69 69 71 70 72 70 73 70 70 71 72 71 71 71 73 72 74 72 75 72 72 73 74 73 73 73 75 74 76 74 77 74 74 75 76 75 75 75 77 76 78 76 79 76 76 77 78 77 77 77 78 78 80 78 79 78 79 79 80 79 81 79 80 80 82 80 81 80 81 81 82 81 83 81 83 82 84 82 85 82 82 83 84 83 83 83 85 84 86 84 87 84 84 85 86 85 85 85 87 86 88 86 89 86 86 87 88 87 87 87 89 88 90 88 91 88 88 89 90 89 89 89 91 90 92 90 93 90 90 91 92 91 91 91 93 92 94 92 95 92 92 93 94 93 93 93 95 94 96 94 97 94 94 95 96 95 95 95 97 96 98 96 99 96 96 97 98 97 97 97 99 98 100 98 101 98 98 99 100 99 99 99 101 100 102 100 103 100 100 101 102 101 101 101 103 102 104 102 105 102 102 103 104 103 103 103 105 104 106 104 107 104 107 105 106 105 108 105 104 106 106 106 105 106 106 107 109 107 108 107 108 108 110 108 111 108 109 109 110 109 108 109 111 110 112 110 113 110 113 111 112 111 114 111 110 112 112 112 111 112 112 113 115 113 114 113 114 114 116 114 117 114 115 115 116 115 114 115 117 116 118 116 119 116 116 117 118 117 117 117 119 118 120 118 121 118 118 119 120 119 119 119 121 120 122 120 123 120 123 121 122 121 124 121 120 122 122 122 121 122 122 123 125 123 124 123 124 124 126 124 127 124 125 125 126 125 124 125 127 126 3 126 0 126 126 127 3 127 127 127 128 128 129 128 130 128 131 129 129 129 128 129 130 130 132 130 133 130 129 131 132 131 130 131 133 132 134 132 135 132 132 133 134 133 133 133 135 134 136 134 137 134 134 135 136 135 135 135 137 136 138 136 139 136 136 137 138 137 137 137 139 138 140 138 141 138 138 139 140 139 139 139 141 140 142 140 143 140 140 141 142 141 141 141 142 142 144 142 143 142 143 143 144 143 145 143 144 144 146 144 145 144 145 145 146 145 147 145 147 146 148 146 149 146 146 147 148 147 147 147 149 148 150 148 151 148 148 149 150 149 149 149 151 150 152 150 153 150 150 151 152 151 151 151 153 152 154 152 155 152 152 153 154 153 153 153 155 154 156 154 157 154 154 155 156 155 155 155 157 156 158 156 159 156 156 157 158 157 157 157 159 158 160 158 161 158 158 159 160 159 159 159 161 160 162 160 163 160 160 161 162 161 161 161 163 162 164 162 165 162 162 163 164 163 163 163 165 164 166 164 167 164 164 165 166 165 165 165 167 166 168 166 169 166 166 167 168 167 167 167 169 168 170 168 171 168 168 169 170 169 169 169 171 170 172 170 173 170 170 171 172 171 171 171 173 172 174 172 175 172 172 173 174 173 173 173 175 174 176 174 177 174 177 175 176 175 178 175 174 176 176 176 175 176 176 177 179 177 178 177 178 178 180 178 181 178 181 179 180 179 182 179 179 180 180 180 178 180 180 181 183 181 182 181 182 182 184 182 185 182 183 183 184 183 182 183 185 184 186 184 187 184 187 185 186 185 188 185 184 186 186 186 185 186 186 187 189 187 188 187 188 188 190 188 191 188 191 189 190 189 192 189 189 190 190 190 188 190 190 191 193 191 192 191 192 192 194 192 195 192 193 193 194 193 192 193 195 194 196 194 197 194 194 195 196 195 195 195 197 196 198 196 199 196 196 197 198 197 197 197 199 198 200 198 201 198 198 199 200 199 199 199 201 200 202 200 203 200 200 201 202 201 201 201 203 202 204 202 205 202 202 203 204 203 203 203 205 204 206 204 207 204 204 205 206 205 205 205 206 206 208 206 207 206 207 207 208 207 209 207 208 208 210 208 209 208 209 209 210 209 211 209 211 210 212 210 213 210 210 211 212 211 211 211 213 212 214 212 215 212 212 213 214 213 213 213 215 214 216 214 217 214 214 215 216 215 215 215 217 216 218 216 219 216 216 217 218 217 217 217 219 218 220 218 221 218 218 219 220 219 219 219 221 220 222 220 223 220 220 221 222 221 221 221 223 222 224 222 225 222 222 223 224 223 223 223 225 224 226 224 227 224 224 225 226 225 225 225 227 226 228 226 229 226 226 227 228 227 227 227 229 228 230 228 231 228 228 229 230 229 229 229 231 230 232 230 233 230 230 231 232 231 231 231 233 232 234 232 235 232 235 233 234 233 236 233 232 234 234 234 233 234 234 235 237 235 236 235 236 236 238 236 239 236 237 237 238 237 236 237 239 238 240 238 241 238 241 239 240 239 242 239 238 240 240 240 239 240 240 241 243 241 242 241 242 242 244 242 245 242 243 243 244 243 242 243 245 244 246 244 247 244 244 245 246 245 245 245 247 246 248 246 249 246 246 247 248 247 247 247 249 248 250 248 251 248 251 249 250 249 252 249 248 250 250 250 249 250 250 251 253 251 252 251 252 252 254 252 255 252 253 253 254 253 252 253 255 254 131 254 128 254 254 255 131 255 255 255 256 256 257 256 258 256 259 257 257 257 256 257 258 258 260 258 261 258 257 259 260 259 258 259 261 260 262 260 263 260 260 261 262 261 261 261 263 262 264 262 265 262 262 263 264 263 263 263 265 264 266 264 267 264 264 265 266 265 265 265 267 266 268 266 269 266 266 267 268 267 267 267 269 268 270 268 271 268 268 269 270 269 269 269 270 270 272 270 271 270 271 271 272 271 273 271 272 272 274 272 273 272 273 273 274 273 275 273 275 274 276 274 277 274 274 275 276 275 275 275 277 276 278 276 279 276 276 277 278 277 277 277 279 278 280 278 281 278 278 279 280 279 279 279 281 280 282 280 283 280 280 281 282 281 281 281 283 282 284 282 285 282 282 283 284 283 283 283 285 284 286 284 287 284 284 285 286 285 285 285 287 286 288 286 289 286 286 287 288 287 287 287 289 288 290 288 291 288 288 289 290 289 289 289 291 290 292 290 293 290 290 291 292 291 291 291 293 292 294 292 295 292 292 293 294 293 293 293 295 294 296 294 297 294 294 295 296 295 295 295 297 296 298 296 299 296 296 297 298 297 297 297 299 298 300 298 301 298 298 299 300 299 299 299 301 300 302 300 303 300 300 301 302 301 301 301 303 302 304 302 305 302 305 303 304 303 306 303 302 304 304 304 303 304 304 305 307 305 306 305 306 306 308 306 309 306 309 307 308 307 310 307 307 308 308 308 306 308 308 309 311 309 310 309 310 310 312 310 313 310 311 311 312 311 310 311 313 312 314 312 315 312 315 313 314 313 316 313 312 314 314 314 313 314 314 315 317 315 316 315 316 316 318 316 319 316 319 317 318 317 320 317 317 318 318 318 316 318 318 319 321 319 320 319 320 320 322 320 323 320 321 321 322 321 320 321 323 322 324 322 325 322 322 323 324 323 323 323 325 324 326 324 327 324 324 325 326 325 325 325 327 326 328 326 329 326 326 327 328 327 327 327 329 328 330 328 331 328 328 329 330 329 329 329 331 330 332 330 333 330 330 331 332 331 331 331 333 332 334 332 335 332 332 333 334 333 333 333 334 334 336 334 335 334 335 335 336 335 337 335 336 336 338 336 337 336 337 337 338 337 339 337 339 338 340 338 341 338 338 339 340 339 339 339 341 340 342 340 343 340 340 341 342 341 341 341 343 342 344 342 345 342 342 343 344 343 343 343 345 344 346 344 347 344 344 345 346 345 345 345 347 346 348 346 349 346 346 347 348 347 347 347 349 348 350 348 351 348 348 349 350 349 349 349 351 350 352 350 353 350 350 351 352 351 351 351 353 352 354 352 355 352 352 353 354 353 353 353 355 354 356 354 357 354 354 355 356 355 355 355 357 356 358 356 359 356 356 357 358 357 357 357 359 358 360 358 361 358 358 359 360 359 359 359 361 360 362 360 363 360 363 361 362 361 364 361 360 362 362 362 361 362 362 363 365 363 364 363 364 364 366 364 367 364 365 365 366 365 364 365 367 366 368 366 369 366 369 367 368 367 370 367 366 368 368 368 367 368 368 369 371 369 370 369 370 370 372 370 373 370 371 371 372 371 370 371 373 372 374 372 375 372 372 373 374 373 373 373 375 374 376 374 377 374 374 375 376 375 375 375 377 376 378 376 379 376 379 377 378 377 380 377 376 378 378 378 377 378 378 379 381 379 380 379 380 380 382 380 383 380 381 381 382 381 380 381 383 382 259 382 256 382 382 383 259 383 383 383 384 384 385 384 386 384 387 385 385 385 384 385 386 386 388 386 389 386 385 387 388 387 386 387 389 388 390 388 391 388 388 389 390 389 389 389 391 390 392 390 393 390 390 391 392 391 391 391 393 392 394 392 395 392 392 393 394 393 393 393 395 394 396 394 397 394 394 395 396 395 395 395 397 396 398 396 399 396 396 397 398 397 397 397 398 398 400 398 399 398 399 399 400 399 401 399 400 400 402 400 401 400 401 401 402 401 403 401 403 402 404 402 405 402 402 403 404 403 403 403 405 404 406 404 407 404 404 405 406 405 405 405 407 406 408 406 409 406 406 407 408 407 407 407 409 408 410 408 411 408 408 409 410 409 409 409 411 410 412 410 413 410 410 411 412 411 411 411 413 412 414 412 415 412 412 413 414 413 413 413 415 414 416 414 417 414 414 415 416 415 415 415 417 416 418 416 419 416 416 417 418 417 417 417 419 418 420 418 421 418 418 419 420 419 419 419 421 420 422 420 423 420 420 421 422 421 421 421 423 422 424 422 425 422 422 423 424 423 423 423 425 424 426 424 427 424 424 425 426 425 425 425 427 426 428 426 429 426 426 427 428 427 427 427 429 428 430 428 431 428 428 429 430 429 429 429 431 430 432 430 433 430 433 431 432 431 434 431 430 432 432 432 431 432 432 433 435 433 434 433 434 434 436 434 437 434 437 435 436 435 438 435 435 436 436 436 434 436 436 437 439 437 438 437 438 438 440 438 441 438 439 439 440 439 438 439 441 440 442 440 443 440 443 441 442 441 444 441 440 442 442 442 441 442 442 443 445 443 444 443 444 444 446 444 447 444 447 445 446 445 448 445 445 446 446 446 444 446 446 447 449 447 448 447 448 448 450 448 451 448 449 449 450 449 448 449 451 450 452 450 453 450 450 451 452 451 451 451 453 452 454 452 455 452 452 453 454 453 453 453 455 454 456 454 457 454 454 455 456 455 455 455 457 456 458 456 459 456 456 457 458 457 457 457 459 458 460 458 461 458 458 459 460 459 459 459 461 460 462 460 463 460 460 461 462 461 461 461 462 462 464 462 463 462 463 463 464 463 465 463 464 464 466 464 465 464 465 465 466 465 467 465 467 466 468 466 469 466 466 467 468 467 467 467 469 468 470 468 471 468 468 469 470 469 469 469 471 470 472 470 473 470 470 471 472 471 471 471 473 472 474 472 475 472 472 473 474 473 473 473 475 474 476 474 477 474 474 475 476 475 475 475 477 476 478 476 479 476 476 477 478 477 477 477 479 478 480 478 481 478 478 479 480 479 479 479 481 480 482 480 483 480 480 481 482 481 481 481 483 482 484 482 485 482 482 483 484 483 483 483 485 484 486 484 487 484 484 485 486 485 485 485 487 486 488 486 489 486 486 487 488 487 487 487 489 488 490 488 491 488 491 489 490 489 492 489 488 490 490 490 489 490 490 491 493 491 492 491 492 492 494 492 495 492 493 493 494 493 492 493 495 494 496 494 497 494 497 495 496 495 498 495 494 496 496 496 495 496 496 497 499 497 498 497 498 498 500 498 501 498 499 499 500 499 498 499 501 500 502 500 503 500 500 501 502 501 501 501 503 502 504 502 505 502 502 503 504 503 503 503 505 504 506 504 507 504 507 505 506 505 508 505 504 506 506 506 505 506 506 507 509 507 508 507 508 508 510 508 511 508 509 509 510 509 508 509 511 510 387 510 384 510 510 511 387 511 511 511 512 512 513 512 514 512 515 513 513 513 512 513 514 514 516 514 517 514 513 515 516 515 514 515 517 516 518 516 519 516 516 517 518 517 517 517 519 518 520 518 521 518 518 519 520 519 519 519 521 520 522 520 523 520 520 521 522 521 521 521 523 522 524 522 525 522 522 523 524 523 523 523 525 524 526 524 527 524 524 525 526 525 525 525 526 526 528 526 527 526 527 527 528 527 529 527 528 528 530 528 529 528 529 529 530 529 531 529 531 530 532 530 533 530 530 531 532 531 531 531 533 532 534 532 535 532 532 533 534 533 533 533 535 534 536 534 537 534 534 535 536 535 535 535 537 536 538 536 539 536 536 537 538 537 537 537 539 538 540 538 541 538 538 539 540 539 539 539 541 540 542 540 543 540 540 541 542 541 541 541 543 542 544 542 545 542 542 543 544 543 543 543 545 544 546 544 547 544 544 545 546 545 545 545 547 546 548 546 549 546 546 547 548 547 547 547 549 548 550 548 551 548 548 549 550 549 549 549 551 550 552 550 553 550 550 551 552 551 551 551 553 552 554 552 555 552 552 553 554 553 553 553 555 554 556 554 557 554 554 555 556 555 555 555 557 556 558 556 559 556 556 557 558 557 557 557 559 558 560 558 561 558 561 559 560 559 562 559 558 560 560 560 559 560 560 561 563 561 562 561 562 562 564 562 565 562 565 563 564 563 566 563 563 564 564 564 562 564 564 565 567 565 566 565 566 566 568 566 569 566 567 567 568 567 566 567 569 568 570 568 571 568 571 569 570 569 572 569 568 570 570 570 569 570 570 571 573 571 572 571 572 572 574 572 575 572 575 573 574 573 576 573 573 574 574 574 572 574 574 575 577 575 576 575 576 576 578 576 579 576 577 577 578 577 576 577 579 578 580 578 581 578 578 579 580 579 579 579 581 580 582 580 583 580 580 581 582 581 581 581 583 582 584 582 585 582 582 583 584 583 583 583 585 584 586 584 587 584 584 585 586 585 585 585 587 586 588 586 589 586 586 587 588 587 587 587 589 588 590 588 591 588 588 589 590 589 589 589 590 590 592 590 591 590 591 591 592 591 593 591 592 592 594 592 593 592 593 593 594 593 595 593 595 594 596 594 597 594 594 595 596 595 595 595 597 596 598 596 599 596 596 597 598 597 597 597 599 598 600 598 601 598 598 599 600 599 599 599 601 600 602 600 603 600 600 601 602 601 601 601 603 602 604 602 605 602 602 603 604 603 603 603 605 604 606 604 607 604 604 605 606 605 605 605 607 606 608 606 609 606 606 607 608 607 607 607 609 608 610 608 611 608 608 609 610 609 609 609 611 610 612 610 613 610 610 611 612 611 611 611 613 612 614 612 615 612 612 613 614 613 613 613 615 614 616 614 617 614 614 615 616 615 615 615 617 616 618 616 619 616 619 617 618 617 620 617 616 618 618 618 617 618 618 619 621 619 620 619 620 620 622 620 623 620 621 621 622 621 620 621 623 622 624 622 625 622 625 623 624 623 626 623 622 624 624 624 623 624 624 625 627 625 626 625 626 626 628 626 629 626 627 627 628 627 626 627 629 628 630 628 631 628 628 629 630 629 629 629 631 630 632 630 633 630 630 631 632 631 631 631 633 632 634 632 635 632 635 633 634 633 636 633 632 634 634 634 633 634 634 635 637 635 636 635 636 636 638 636 639 636 637 637 638 637 636 637 639 638 515 638 512 638 638 639 515 639 639 639 640 640 641 640 642 640 643 641 641 641 640 641 642 642 644 642 645 642 641 643 644 643 642 643 645 644 646 644 647 644 644 645 646 645 645 645 647 646 648 646 649 646 646 647 648 647 647 647 649 648 650 648 651 648 648 649 650 649 649 649 651 650 652 650 653 650 650 651 652 651 651 651 653 652 654 652 655 652 652 653 654 653 653 653 654 654 656 654 655 654 655 655 656 655 657 655 656 656 658 656 657 656 657 657 658 657 659 657 659 658 660 658 661 658 658 659 660 659 659 659 661 660 662 660 663 660 660 661 662 661 661 661 663 662 664 662 665 662 662 663 664 663 663 663 665 664 666 664 667 664 664 665 666 665 665 665 667 666 668 666 669 666 666 667 668 667 667 667 669 668 670 668 671 668 668 669 670 669 669 669 671 670 672 670 673 670 670 671 672 671 671 671 673 672 674 672 675 672 672 673 674 673 673 673 675 674 676 674 677 674 674 675 676 675 675 675 677 676 678 676 679 676 676 677 678 677 677 677 679 678 680 678 681 678 678 679 680 679 679 679 681 680 682 680 683 680 680 681 682 681 681 681 683 682 684 682 685 682 682 683 684 683 683 683 685 684 686 684 687 684 684 685 686 685 685 685 687 686 688 686 689 686 689 687 688 687 690 687 686 688 688 688 687 688 688 689 691 689 690 689 690 690 692 690 693 690 693 691 692 691 694 691 691 692 692 692 690 692 692 693 695 693 694 693 694 694 696 694 697 694 695 695 696 695 694 695 697 696 698 696 699 696 699 697 698 697 700 697 696 698 698 698 697 698 698 699 701 699 700 699 700 700 702 700 703 700 703 701 702 701 704 701 701 702 702 702 700 702 702 703 705 703 704 703 704 704 706 704 707 704 705 705 706 705 704 705 707 706 708 706 709 706 706 707 708 707 707 707 709 708 710 708 711 708 708 709 710 709 709 709 711 710 712 710 713 710 710 711 712 711 711 711 713 712 714 712 715 712 712 713 714 713 713 713 715 714 716 714 717 714 714 715 716 715 715 715 717 716 718 716 719 716 716 717 718 717 717 717 718 718 720 718 719 718 719 719 720 719 721 719 720 720 722 720 721 720 721 721 722 721 723 721 723 722 724 722 725 722 722 723 724 723 723 723 725 724 726 724 727 724 724 725 726 725 725 725 727 726 728 726 729 726 726 727 728 727 727 727 729 728 730 728 731 728 728 729 730 729 729 729 731 730 732 730 733 730 730 731 732 731 731 731 733 732 734 732 735 732 732 733 734 733 733 733 735 734 736 734 737 734 734 735 736 735 735 735 737 736 738 736 739 736 736 737 738 737 737 737 739 738 740 738 741 738 738 739 740 739 739 739 741 740 742 740 743 740 740 741 742 741 741 741 743 742 744 742 745 742 742 743 744 743 743 743 745 744 746 744 747 744 747 745 746 745 748 745 744 746 746 746 745 746 746 747 749 747 748 747 748 748 750 748 751 748 749 749 750 749 748 749 751 750 752 750 753 750 753 751 752 751 754 751 750 752 752 752 751 752 752 753 755 753 754 753 754 754 756 754 757 754 755 755 756 755 754 755 757 756 758 756 759 756 756 757 758 757 757 757 759 758 760 758 761 758 758 759 760 759 759 759 761 760 762 760 763 760 763 761 762 761 764 761 760 762 762 762 761 762 762 763 765 763 764 763 764 764 766 764 767 764 765 765 766 765 764 765 767 766 643 766 640 766 766 767 643 767 767 767 768 768 769 768 770 768 771 769 769 769 768 769 770 770 772 770 773 770 769 771 772 771 770 771 773 772 774 772 775 772 772 773 774 773 773 773 775 774 776 774 777 774 774 775 776 775 775 775 777 776 778 776 779 776 776 777 778 777 777 777 779 778 780 778 781 778 778 779 780 779 779 779 781 780 782 780 783 780 780 781 782 781 781 781 782 782 784 782 783 782 783 783 784 783 785 783 784 784 786 784 785 784 785 785 786 785 787 785 787 786 788 786 789 786 786 787 788 787 787 787 789 788 790 788 791 788 788 789 790 789 789 789 791 790 792 790 793 790 790 791 792 791 791 791 793 792 794 792 795 792 792 793 794 793 793 793 795 794 796 794 797 794 794 795 796 795 795 795 797 796 798 796 799 796 796 797 798 797 797 797 799 798 800 798 801 798 798 799 800 799 799 799 801 800 802 800 803 800 800 801 802 801 801 801 803 802 804 802 805 802 802 803 804 803 803 803 805 804 806 804 807 804 804 805 806 805 805 805 807 806 808 806 809 806 806 807 808 807 807 807 809 808 810 808 811 808 808 809 810 809 809 809 811 810 812 810 813 810 810 811 812 811 811 811 813 812 814 812 815 812 812 813 814 813 813 813 815 814 816 814 817 814 817 815 816 815 818 815 814 816 816 816 815 816 816 817 819 817 818 817 818 818 820 818 821 818 821 819 820 819 822 819 819 820 820 820 818 820 820 821 823 821 822 821 822 822 824 822 825 822 823 823 824 823 822 823 825 824 826 824 827 824 827 825 826 825 828 825 824 826 826 826 825 826 826 827 829 827 828 827 828 828 830 828 831 828 831 829 830 829 832 829 829 830 830 830 828 830 830 831 833 831 832 831 832 832 834 832 835 832 833 833 834 833 832 833 835 834 836 834 837 834 834 835 836 835 835 835 837 836 838 836 839 836 836 837 838 837 837 837 839 838 840 838 841 838 838 839 840 839 839 839 841 840 842 840 843 840 840 841 842 841 841 841 843 842 844 842 845 842 842 843 844 843 843 843 845 844 846 844 847 844 844 845 846 845 845 845 846 846 848 846 847 846 847 847 848 847 849 847 848 848 850 848 849 848 849 849 850 849 851 849 851 850 852 850 853 850 850 851 852 851 851 851 853 852 854 852 855 852 852 853 854 853 853 853 855 854 856 854 857 854 854 855 856 855 855 855 857 856 858 856 859 856 856 857 858 857 857 857 859 858 860 858 861 858 858 859 860 859 859 859 861 860 862 860 863 860 860 861 862 861 861 861 863 862 864 862 865 862 862 863 864 863 863 863 865 864 866 864 867 864 864 865 866 865 865 865 867 866 868 866 869 866 866 867 868 867 867 867 869 868 870 868 871 868 868 869 870 869 869 869 871 870 872 870 873 870 870 871 872 871 871 871 873 872 874 872 875 872 875 873 874 873 876 873 872 874 874 874 873 874 874 875 877 875 876 875 876 876 878 876 879 876 877 877 878 877 876 877 879 878 880 878 881 878 881 879 880 879 882 879 878 880 880 880 879 880 880 881 883 881 882 881 882 882 884 882 885 882 883 883 884 883 882 883 885 884 886 884 887 884 884 885 886 885 885 885 887 886 888 886 889 886 886 887 888 887 887 887 889 888 890 888 891 888 891 889 890 889 892 889 888 890 890 890 889 890 890 891 893 891 892 891 892 892 894 892 895 892 893 893 894 893 892 893 895 894 771 894 768 894 894 895 771 895 895 895 896 896 897 896 898 896 899 897 897 897 896 897 898 898 900 898 901 898 897 899 900 899 898 899 901 900 902 900 903 900 900 901 902 901 901 901 903 902 904 902 905 902 902 903 904 903 903 903 905 904 906 904 907 904 904 905 906 905 905 905 907 906 908 906 909 906 906 907 908 907 907 907 909 908 910 908 911 908 908 909 910 909 909 909 910 910 912 910 911 910 911 911 912 911 913 911 912 912 914 912 913 912 913 913 914 913 915 913 915 914 916 914 917 914 914 915 916 915 915 915 917 916 918 916 919 916 916 917 918 917 917 917 919 918 920 918 921 918 918 919 920 919 919 919 921 920 922 920 923 920 920 921 922 921 921 921 923 922 924 922 925 922 922 923 924 923 923 923 925 924 926 924 927 924 924 925 926 925 925 925 927 926 928 926 929 926 926 927 928 927 927 927 929 928 930 928 931 928 928 929 930 929 929 929 931 930 932 930 933 930 930 931 932 931 931 931 933 932 934 932 935 932 932 933 934 933 933 933 935 934 936 934 937 934 934 935 936 935 935 935 937 936 938 936 939 936 936 937 938 937 937 937 939 938 940 938 941 938 938 939 940 939 939 939 941 940 942 940 943 940 940 941 942 941 941 941 943 942 944 942 945 942 945 943 944 943 946 943 942 944 944 944 943 944 944 945 947 945 946 945 946 946 948 946 949 946 949 947 948 947 950 947 947 948 948 948 946 948 948 949 951 949 950 949 950 950 952 950 953 950 951 951 952 951 950 951 953 952 954 952 955 952 955 953 954 953 956 953 952 954 954 954 953 954 954 955 957 955 956 955 956 956 958 956 959 956 959 957 958 957 960 957 957 958 958 958 956 958 958 959 961 959 960 959 960 960 962 960 963 960 961 961 962 961 960 961 963 962 964 962 965 962 962 963 964 963 963 963 965 964 966 964 967 964 964 965 966 965 965 965 967 966 968 966 969 966 966 967 968 967 967 967 969 968 970 968 971 968 968 969 970 969 969 969 971 970 972 970 973 970 970 971 972 971 971 971 973 972 974 972 975 972 972 973 974 973 973 973 974 974 976 974 975 974 975 975 976 975 977 975 976 976 978 976 977 976 977 977 978 977 979 977 979 978 980 978 981 978 978 979 980 979 979 979 981 980 982 980 983 980 980 981 982 981 981 981 983 982 984 982 985 982 982 983 984 983 983 983 985 984 986 984 987 984 984 985 986 985 985 985 987 986 988 986 989 986 986 987 988 987 987 987 989 988 990 988 991 988 988 989 990 989 989 989 991 990 992 990 993 990 990 991 992 991 991 991 993 992 994 992 995 992 992 993 994 993 993 993 995 994 996 994 997 994 994 995 996 995 995 995 997 996 998 996 999 996 996 997 998 997 997 997 999 998 1000 998 1001 998 998 999 1000 999 999 999 1001 1000 1002 1000 1003 1000 1003 1001 1002 1001 1004 1001 1000 1002 1002 1002 1001 1002 1002 1003 1005 1003 1004 1003 1004 1004 1006 1004 1007 1004 1005 1005 1006 1005 1004 1005 1007 1006 1008 1006 1009 1006 1009 1007 1008 1007 1010 1007 1006 1008 1008 1008 1007 1008 1008 1009 1011 1009 1010 1009 1010 1010 1012 1010 1013 1010 1011 1011 1012 1011 1010 1011 1013 1012 1014 1012 1015 1012 1012 1013 1014 1013 1013 1013 1015 1014 1016 1014 1017 1014 1014 1015 1016 1015 1015 1015 1017 1016 1018 1016 1019 1016 1019 1017 1018 1017 1020 1017 1016 1018 1018 1018 1017 1018 1018 1019 1021 1019 1020 1019 1020 1020 1022 1020 1023 1020 1021 1021 1022 1021 1020 1021 1023 1022 899 1022 896 1022 1022 1023 899 1023 1023 1023</p>
        </triangles>
      </mesh>
    </geometry>
  </library_geometries>
  <library_materials>
    <material id="mat_COMPOUND_shape" name="COMPOUND_shape">
      <instance_effect url="#effect_COMPOUND_shape"/>
    </material>
  </library_materials>
  <library_visual_scenes>
    <visual_scene id="myscene">
      <node id="node0" name="node0">
        <instance_geometry url="#geometry0">
          <bind_material>
            <technique_common>
              <instance_material symbol="ref_COMPOUND_shape" target="#mat_COMPOUND_shape"/>
            </technique_common>
          </bind_material>
        </instance_geometry>
      </node>
    </visual_scene>
  </library_visual_scenes>
  <scene>
    <instance_visual_scene url="#myscene"/>
  </scene>
</COLLADA>
