<COLLADA xmlns="http://www.collada.org/2005/11/COLLADASchema" version="1.4.1">
  <asset>
    <contributor/>
    <created>2026-08-18T17:07:08.768717</created>
    <modified>2026-08-18T17:07:08.768720</modified>
    <unit name="meter" meter="1.0"/>
    <up_axis>Z_UP</up_axis>
  </asset>
  <library_effects>
    <effect id="effect_Nut_Predeterminado_shape" name="effect_Nut_Predeterminado_shape">
      <profile_COMMON>
        <technique sid="common">
          <phong>
            <emission>
              <color>0.0 0.0 0.0 1.0</color>
            </emission>
            <ambient>
              <color>0.0 0.0 0.0 1.0</color>
            </ambient>
            <diffuse>
              <color>0.6784313917160034 0.7098039388656616 0.7411764860153198 1.0</color>
            </diffuse>
            <specular>
              <color>1 1 1 1.0</color>
            </specular>
            <shininess>
              <float>0.0</float>
            </shininess>
            <reflective>
              <color>0.0 0.0 0.0 1.0</color>
            </reflective>
            <reflectivity>
              <float>0.0</float>
            </reflectivity>
            <transparent>
              <color>0.0 0.0 0.0 1.0</color>
            </transparent>
            <transparency>
              <float>1.0</float>
            </transparency>
          </phong>
        </technique>
        <extra>
          <technique profile="GOOGLEEARTH">
            <double_sided>0</double_sided>
          </technique>
        </extra>
      </profile_COMMON>
    </effect>
  </library_effects>
  <library_geometries>
    <geometry id="geometry0" name="Nut_Predeterminado_shape">
      <mesh>
        <source id="cubeverts-array0">
          <float_array count="1260" id="cubeverts-array0-array">0.00210346 -0.006638646 0.04534859 0.002496826 -0.006638646 0.0455 0.002263843 -0.006543795 0.0455 0.002034749 -0.0064399 0.0455 0.001717504 -0.006638646 0.04518101 0.001809895 -0.006327122 0.0455 0.001589626 -0.006205633 0.0455 0.001339626 -0.006638646 0.045 0.008649746 0.004699855 0.04365141 0.008647794 0.004513534 0.0435 0.008443272 0.004659987 0.0435 0.00884643 0.00435919 0.0435 0.008456769 0.005034102 0.04381899 0.008233176 0.004798327 0.0435 0.00801783 0.004928341 0.0435 0.00826783 0.005361354 0.044 0.005803728 0.001093405 0.0455 0.005888821 0.001041406 0.0435 0.005888821 0.001041406 0.0455 0.005803728 0.001093405 0.0435 0.005971215 0.0009852301 0.0435 0.005971215 0.0009852301 0.0455 0.006050708 0.0009250171 0.0435 0.006050708 0.0009250171 0.0455 0.0061271 0.0008609165 0.0435 0.0061271 0.0008609165 0.0455 0.006200202 0.0007930878 0.0435 0.006200202 0.0007930878 0.0455 0.006269832 0.0007216995 0.0435 0.006269832 0.0007216995 0.0455 0.006335817 0.0006469293 0.0435 0.006335817 0.0006469293 0.0455 0.006397993 0.0005689629 0.0435 0.006397993 0.0005689629 0.0455 0.006456205 0.0004879942 0.0435 0.006456205 0.0004879942 0.0455 0.00651031 0.0004042245 0.0435 0.00651031 0.0004042245 0.0455 0.006560171 0.000317862 0.0435 0.006560171 0.000317862 0.0455 0.006605666 0.0002291216 0.0435 0.006605666 0.0002291216 0.0455 0.00664668 0.0001382237 0.0435 0.00664668 0.0001382237 0.0455 0.006683113 4.539437e-05 0.0435 0.006683113 4.539437e-05 0.0455 0.006714874 -4.913557e-05 0.0435 0.006714874 -4.913557e-05 0.0455 0.006741883 -0.0001451311 0.0435 0.006741883 -0.0001451311 0.0455 0.006764073 -0.0002423536 0.0435 0.006764073 -0.0002423536 0.0455 0.00678139 -0.0003405614 0.0435 0.00678139 -0.0003405614 0.0455 0.006793789 -0.0004395102 0.0455 0.006793789 -0.0004395102 0.0435 0.006801242 -0.0005389541 0.0455 0.006801242 -0.0005389541 0.0435 0.006803728 -0.0006386459 0.0435 0.006803728 -0.0006386459 0.0455 0.006801242 -0.0007383377 0.0435 0.006801242 -0.0007383377 0.0455 0.006793789 -0.0008377816 0.0435 0.006793789 -0.0008377816 0.0455 0.00678139 -0.0009367304 0.0435 0.00678139 -0.0009367304 0.0455 0.006764073 -0.001034938 0.0435 0.006764073 -0.001034938 0.0455 0.006741883 -0.001132161 0.0435 0.006741883 -0.001132161 0.0455 0.006714874 -0.001228156 0.0435 0.006714874 -0.001228156 0.0455 0.006683113 -0.001322686 0.0435 0.006683113 -0.001322686 0.0455 0.00664668 -0.001415516 0.0435 0.00664668 -0.001415516 0.0455 0.006605666 -0.001506413 0.0435 0.006605666 -0.001506413 0.0455 0.006560171 -0.001595154 0.0435 0.006560171 -0.001595154 0.0455 0.00651031 -0.001681516 0.0435 0.00651031 -0.001681516 0.0455 0.006456205 -0.001765286 0.0435 0.006456205 -0.001765286 0.0455 0.006397993 -0.001846255 0.0435 0.006397993 -0.001846255 0.0455 0.006335817 -0.001924221 0.0435 0.006335817 -0.001924221 0.0455 0.006269832 -0.001998991 0.0435 0.006269832 -0.001998991 0.0455 0.006200202 -0.00207038 0.0455 0.006200202 -0.00207038 0.0435 0.0061271 -0.002138208 0.0435 0.0061271 -0.002138208 0.0455 0.006050708 -0.002202309 0.0435 0.006050708 -0.002202309 0.0455 0.005971215 -0.002262522 0.0435 0.005971215 -0.002262522 0.0455 0.005888821 -0.002318698 0.0435 0.005888821 -0.002318698 0.0455 0.005803728 -0.002370697 0.0455 0.005803728 -0.002370697 0.0435 0.005716149 -0.00241839 0.0435 0.005716149 -0.00241839 0.0455 0.005626302 -0.002461658 0.0435 0.005626302 -0.002461658 0.0455 0.00553441 -0.002500393 0.0435 0.00553441 -0.002500393 0.0455 0.005440701 -0.002534501 0.0435 0.005440701 -0.002534501 0.0455 0.005345409 -0.002563895 0.0435 0.005345409 -0.002563895 0.0455 0.00524877 -0.002588502 0.0435 0.00524877 -0.002588502 0.0455 0.005151024 -0.002608261 0.0435 0.005151024 -0.002608261 0.0455 0.005052415 -0.002623124 0.0435 0.005052415 -0.002623124 0.0455 0.004953188 -0.002633054 0.0435 0.004953188 -0.002633054 0.0455 0.00485359 -0.002638024 0.0435 0.00485359 -0.002638024 0.0455 0.004753867 -0.002638024 0.0435 0.004753867 -0.002638024 0.0455 0.004654268 -0.002633054 0.0435 0.004654268 -0.002633054 0.0455 0.00455504 -0.002623124 0.0435 0.00455504 -0.002623124 0.0455 0.004456432 -0.002608261 0.0435 0.004456432 -0.002608261 0.0455 0.004358686 -0.002588502 0.0435 0.004358686 -0.002588502 0.0455 0.004262047 -0.002563895 0.0435 0.004262047 -0.002563895 0.0455 0.004166755 -0.002534501 0.0435 0.004166755 -0.002534501 0.0455 0.004073046 -0.002500393 0.0435 0.004073046 -0.002500393 0.0455 0.003981154 -0.002461658 0.0435 0.003981154 -0.002461658 0.0455 0.003891307 -0.00241839 0.0435 0.003891307 -0.00241839 0.0455 0.003803728 -0.002370697 0.0435 0.003803728 -0.002370697 0.0455 0.00711063 -0.006638646 0.0455 0.007376587 -0.006529502 0.0455 0.007637399 -0.006408577 0.0455 0.007892543 -0.006276112 0.0455 0.008141509 -0.006132371 0.0455 0.0083838 -0.005977643 0.0455 0.00861893 -0.005812236 0.0455 0.00884643 -0.005636482 0.0455 0.001374279 -0.006075619 0.0455 0.01115333 -0.00164081 0.0455 0.003718636 -0.002318698 0.0455 0.001164184 -0.005937279 0.0455 0.003636241 -0.002262522 0.0455 0.000959662 -0.005790825 0.0455 0.003556748 -0.002202309 0.0455 0.0007610266 -0.005636482 0.0455 0.003480356 -0.002138208 0.0455 0.003407254 -0.00207038 0.0455 0.003337624 -0.001998991 0.0455 0.003271639 -0.001924221 0.0455 0.01119179 -0.001355913 0.0455 0.003209463 -0.001846255 0.0455 0.01121747 -0.001069581 0.0455 0.00315125 -0.001765286 0.0455 0.01123032 -0.0007823867 0.0455 0.003097146 -0.001681516 0.0455 0.01123032 -0.0004949052 0.0455 0.01121747 -0.0002077112 0.0455 0.01119179 7.862085e-05 0.0455 0.01115333 0.0003635184 0.0455 -0.001545875 -0.00164081 0.0455 0.002843383 -0.001034938 0.0455 0.002826066 -0.0009367304 0.0455 0.002865573 -0.001132161 0.0455 0.002892582 -0.001228156 0.0455 0.002924343 -0.001322686 0.0455 0.002960776 -0.001415516 0.0455 0.00300179 -0.001506413 0.0455 0.003047285 -0.001595154 0.0455 -0.001584333 -0.001355913 0.0455 0.002813666 -0.0008377816 0.0455 -0.001610014 -0.001069581 0.0455 0.002806214 -0.0007383377 0.0455 -0.001622868 -0.0007823867 0.0455 0.002803728 -0.0006386459 0.0455 -0.001622868 -0.0004949052 0.0455 0.002806214 -0.0005389541 0.0455 -0.001610014 -0.0002077112 0.0455 0.002813666 -0.0004395102 0.0455 -0.001584333 7.862085e-05 0.0455 0.002826066 -0.0003405614 0.0455 -0.001545875 0.0003635184 0.0455 0.00300179 0.0002291216 0.0455 0.003047285 0.000317862 0.0455 0.002960776 0.0001382237 0.0455 0.002924343 4.539437e-05 0.0455 0.002892582 -4.913557e-05 0.0455 0.002865573 -0.0001451311 0.0455 0.002843383 -0.0002423536 0.0455 0.00884643 0.00435919 0.0455 0.00861893 0.004534944 0.0455 0.0083838 0.004700351 0.0455 0.008141509 0.004855079 0.0455 0.007892543 0.00499882 0.0455 0.005716149 0.001141098 0.0455 0.007637399 0.005131285 0.0455 0.005626302 0.001184366 0.0455 0.007376587 0.005252211 0.0455 0.00553441 0.001223102 0.0455 0.00711063 0.005361354 0.0455 0.005440701 0.001257209 0.0455 0.005345409 0.001286603 0.0455 0.00524877 0.00131121 0.0455 0.005151024 0.00133097 0.0455 0.005052415 0.001345832 0.0455 0.004953188 0.001355762 0.0455 0.00485359 0.001360732 0.0455 0.004753867 0.001360732 0.0455 0.0007610266 0.00435919 0.0455 0.003480356 0.0008609165 0.0455 0.003556748 0.0009250171 0.0455 0.003407254 0.0007930878 0.0455 0.003337624 0.0007216995 0.0455 0.003271639 0.0006469293 0.0455 0.003209463 0.0005689629 0.0455 0.00315125 0.0004879942 0.0455 0.003097146 0.0004042245 0.0455 0.0009885262 0.004534944 0.0455 0.003636241 0.0009852301 0.0455 0.001223656 0.004700351 0.0455 0.003718636 0.001041406 0.0455 0.001465947 0.004855079 0.0455 0.003803728 0.001093405 0.0455 0.001714913 0.00499882 0.0455 0.003891307 0.001141098 0.0455 0.001970057 0.005131285 0.0455 0.003981154 0.001184366 0.0455 0.002230869 0.005252211 0.0455 0.004073046 0.001223102 0.0455 0.002496826 0.005361354 0.0455 0.004654268 0.001355762 0.0455 0.00455504 0.001345832 0.0455 0.004456432 0.00133097 0.0455 0.004358686 0.00131121 0.0455 0.004262047 0.001286603 0.0455 0.004166755 0.001257209 0.0455 0.00711063 -0.006638646 0.0435 0.007376587 -0.006529502 0.0435 0.007637399 -0.006408577 0.0435 0.007892543 -0.006276112 0.0435 0.002496826 -0.006638646 0.0435 0.008141509 -0.006132371 0.0435 0.0083838 -0.005977643 0.0435 0.00861893 -0.005812236 0.0435 0.00884643 -0.005636482 0.0435 0.002230869 -0.006529502 0.0435 0.001970057 -0.006408577 0.0435 0.001714913 -0.006276112 0.0435 0.001465947 -0.006132371 0.0435 0.01115333 -0.00164081 0.0435 0.001223656 -0.005977643 0.0435 0.003718636 -0.002318698 0.0435 0.0009885262 -0.005812236 0.0435 0.003636241 -0.002262522 0.0435 0.0007610266 -0.005636482 0.0435 0.003556748 -0.002202309 0.0435 0.003480356 -0.002138208 0.0435 0.003407254 -0.00207038 0.0435 0.003337624 -0.001998991 0.0435 0.003271639 -0.001924221 0.0435 0.01119179 -0.001355913 0.0435 0.003209463 -0.001846255 0.0435 0.01121747 -0.001069581 0.0435 0.00315125 -0.001765286 0.0435 0.01123032 -0.0007823867 0.0435 0.003097146 -0.001681516 0.0435 0.01123032 -0.0004949052 0.0435 0.01121747 -0.0002077112 0.0435 0.01119179 7.862085e-05 0.0435 0.01115333 0.0003635184 0.0435 0.003047285 -0.001595154 0.0435 -0.001545875 -0.00164081 0.0435 0.00300179 -0.001506413 0.0435 0.002843383 -0.001034938 0.0435 0.002826066 -0.0009367304 0.0435 0.002865573 -0.001132161 0.0435 0.002892582 -0.001228156 0.0435 0.002924343 -0.001322686 0.0435 0.002960776 -0.001415516 0.0435 -0.001584333 -0.001355913 0.0435 0.002813666 -0.0008377816 0.0435 -0.001610014 -0.001069581 0.0435 0.002806214 -0.0007383377 0.0435 -0.001622868 -0.0007823867 0.0435 0.002803728 -0.0006386459 0.0435 -0.001622868 -0.0004949052 0.0435 0.002806214 -0.0005389541 0.0435 -0.001610014 -0.0002077112 0.0435 0.002813666 -0.0004395102 0.0435 -0.001584333 7.862085e-05 0.0435 0.002826066 -0.0003405614 0.0435 0.00300179 0.0002291216 0.0435 -0.001545875 0.0003635184 0.0435 0.003047285 0.000317862 0.0435 0.002960776 0.0001382237 0.0435 0.002924343 4.539437e-05 0.0435 0.002892582 -4.913557e-05 0.0435 0.002865573 -0.0001451311 0.0435 0.002843383 -0.0002423536 0.0435 0.005716149 0.001141098 0.0435 0.007797561 0.00504983 0.0435 0.005626302 0.001184366 0.0435 0.007572707 0.005162609 0.0435 0.007343613 0.005266503 0.0435 0.00553441 0.001223102 0.0435 0.00711063 0.005361354 0.0435 0.005440701 0.001257209 0.0435 0.005345409 0.001286603 0.0435 0.00524877 0.00131121 0.0435 0.005151024 0.00133097 0.0435 0.005052415 0.001345832 0.0435 0.004953188 0.001355762 0.0435 0.00485359 0.001360732 0.0435 0.004753867 0.001360732 0.0435 0.0007610266 0.00435919 0.0435 0.003480356 0.0008609165 0.0435 0.003556748 0.0009250171 0.0435 0.003407254 0.0007930878 0.0435 0.003337624 0.0007216995 0.0435 0.003271639 0.0006469293 0.0435 0.003209463 0.0005689629 0.0435 0.00315125 0.0004879942 0.0435 0.003097146 0.0004042245 0.0435 0.0009885262 0.004534944 0.0435 0.003636241 0.0009852301 0.0435 0.001223656 0.004700351 0.0435 0.003718636 0.001041406 0.0435 0.001465947 0.004855079 0.0435 0.003803728 0.001093405 0.0435 0.001714913 0.00499882 0.0435 0.003891307 0.001141098 0.0435 0.001970057 0.005131285 0.0435 0.003981154 0.001184366 0.0435 0.002230869 0.005252211 0.0435 0.004073046 0.001223102 0.0435 0.002496826 0.005361354 0.0435 0.004654268 0.001355762 0.0435 0.00455504 0.001345832 0.0435 0.004456432 0.00133097 0.0435 0.004358686 0.00131121 0.0435 0.004262047 0.001286603 0.0435 0.004166755 0.001257209 0.0435 0.001339626 -0.006638646 0.044 0.001150687 -0.006311394 0.04381899 0.001149945 -0.006310108 0.04518172 0.0009577098 -0.005977147 0.04365141 0.000957214 -0.005976288 0.04534904 -0.001742063 -0.001301004 0.04365096 -0.001742559 -0.001300145 0.04534859 -0.001934794 -0.0009671841 0.04381828 -0.001935536 -0.0009658979 0.04518101 -0.002124475 -0.0006386459 0.044 -0.002124475 -0.0006386459 0.045 0.00826783 -0.006638646 0.044 0.00826783 -0.006638646 0.045 0.007889952 -0.006638646 0.04381899 0.007888466 -0.006638646 0.04518172 0.007503996 -0.006638646 0.04365141 0.007503005 -0.006638646 0.04534904 0.002104451 -0.006638646 0.04365096 0.00171899 -0.006638646 0.04381828 0.01173193 -0.0006386459 0.044 0.01173193 -0.0006386459 0.045 0.01154247 -0.0009667951 0.04381847 0.01154215 -0.0009673627 0.04518176 0.01134976 -0.001300591 0.04365116 0.01134912 -0.001301693 0.0453493 0.00865064 -0.005975598 0.0436507 0.008650003 -0.005976701 0.04534884 0.008457614 -0.006309929 0.04381824 0.008457287 -0.006310497 0.04518153 0.00826783 0.005361354 0.045 0.008457511 0.005032816 0.04518172 0.008650242 0.004698997 0.04534904 0.01134952 2.371179e-05 0.04365096 0.01135001 2.285296e-05 0.04534859 0.01154225 -0.0003101077 0.04381828 0.01154299 -0.000311394 0.04518101 0.001339626 0.005361354 0.044 0.001339626 0.005361354 0.045 0.001717504 0.005361354 0.04381899 0.00171899 0.005361354 0.04518172 0.00210346 0.005361354 0.04365141 0.002104451 0.005361354 0.04534904 0.007503005 0.005361354 0.04365096 0.007503996 0.005361354 0.04534859 0.007888466 0.005361354 0.04381828 0.007889952 0.005361354 0.04518101 -0.001935018 -0.0003104967 0.04381847 -0.00193469 -0.0003099291 0.04518176 -0.001742301 2.329882e-05 0.04365116 -0.001741665 2.440162e-05 0.0453493 0.0009568157 0.004698307 0.0436507 0.0009574524 0.004699409 0.04534884 0.001149842 0.005032637 0.04381824 0.001150169 0.005033205 0.04518153 0.001464626 0.005144848 0.04525 -0.001874475 -0.0006386459 0.04525 -0.001874475 -0.0006386459 0.04375 0.001464626 0.005144848 0.04375 0.00814283 0.005144848 0.04525 0.01148193 -0.0006386459 0.04525 0.01148193 -0.0006386459 0.04375 0.00814283 -0.00642214 0.04525 0.00814283 -0.00642214 0.04375 0.001464626 -0.00642214 0.04375</float_array>
          <technique_common>
            <accessor count="420" source="#cubeverts-array0-array" stride="3">
              <param type="float" name="X"/>
              <param type="float" name="Y"/>
              <param type="float" name="Z"/>
            </accessor>
          </technique_common>
        </source>
        <source id="cubenormals-array0">
          <float_array count="2520" id="cubenormals-array0-array">-0.2693586 -0.6616238 0.6997855 -0.2908795 -0.641409 0.709918 -0.3165756 -0.6311786 0.7080914 -0.342355 -0.6207158 0.7053403 -0.3054844 -0.6416187 0.7035657 -0.3386617 -0.6208501 0.7070031 0.4100362 0.5726137 -0.7099183 0.4383026 0.5640836 -0.6997861 0.366379 0.6068455 -0.7053404 0.3883293 0.5897514 -0.7080916 0.4029156 0.5853664 -0.7035661 0.3683414 0.6037148 -0.7070028 -0.5214352 -0.8532909 0 -0.5214352 -0.8532909 0 -0.563321 -0.8262381 0 -0.563321 -0.8262381 0 -0.6038028 -0.7971337 0 -0.6038028 -0.7971337 0 -0.6427895 -0.7660429 0 -0.6427895 -0.7660429 0 -0.6801726 -0.733052 0 -0.6801726 -0.733052 0 -0.7158667 -0.6982369 0 -0.7158667 -0.6982369 0 -0.7497807 -0.6616864 0 -0.7497807 -0.6616864 0 -0.7818312 -0.6234902 0 -0.7818312 -0.6234902 0 -0.8119391 -0.5837421 0 -0.8119391 -0.5837421 0 -0.8400254 -0.542547 0 -0.8400254 -0.542547 0 -0.8660251 -0.5000004 0 -0.8660251 -0.5000004 0 -0.8898719 -0.4562104 0 -0.8898719 -0.4562104 0 -0.9115059 -0.411287 0 -0.9115059 -0.411287 0 -0.930874 -0.3653404 0 -0.930874 -0.3653404 0 -0.9479264 -0.3184896 0 -0.9479264 -0.3184896 0 -0.9626242 -0.2708409 0 -0.9626242 -0.2708409 0 -0.9749286 -0.222518 0 -0.9749286 -0.222518 0 -0.9848075 -0.1736495 0 -0.9848075 -0.1736495 0 -0.9972036 -0.07473206 -0 -0.9922395 -0.1243415 0 -0.9922395 -0.1243415 0 -0.9972036 -0.07473206 0 -0.9996891 -0.0249314 0 -0.9996891 -0.0249314 0 -0.9996892 0.02493141 0 -0.9996892 0.02493141 0 -0.9972036 0.07473206 0 -0.9972036 0.07473206 0 -0.9922395 0.1243415 0 -0.9922395 0.1243415 0 -0.9848075 0.1736495 0 -0.9848075 0.1736495 0 -0.9749286 0.2225181 0 -0.9749286 0.2225181 0 -0.9626241 0.2708409 0 -0.9626241 0.2708409 0 -0.9479264 0.3184894 0 -0.9479264 0.3184894 0 -0.930874 0.3653402 0 -0.930874 0.3653402 0 -0.9115058 0.4112873 0 -0.9115058 0.4112873 0 -0.8898722 0.45621 0 -0.8898722 0.45621 0 -0.866025 0.5000008 0 -0.866025 0.5000008 0 -0.8400257 0.5425466 0 -0.8400257 0.5425466 0 -0.8119389 0.5837424 0 -0.8119389 0.5837424 0 -0.7818312 0.6234902 0 -0.7818312 0.6234902 0 -0.7497807 0.6616864 0 -0.7158673 0.6982363 0 -0.7497807 0.6616864 0 -0.7158673 0.6982363 0 -0.6801723 0.7330523 0 -0.6801723 0.7330523 0 -0.6427891 0.7660432 0 -0.6427891 0.7660432 0 -0.6038032 0.7971334 0 -0.6038032 0.7971334 0 -0.5633202 0.8262386 0 -0.5214361 0.8532904 0 -0.5633202 0.8262386 0 -0.5214361 0.8532904 0 -0.4782534 0.8782219 0 -0.4782534 0.8782219 0 -0.4338828 0.9009693 0 -0.4338828 0.9009693 0 -0.3884351 0.9214761 0 -0.3884351 0.9214761 0 -0.342021 0.9396923 0 -0.342021 0.9396923 0 -0.2947556 0.9555727 0 -0.2947556 0.9555727 0 -0.2467558 0.9690777 0 -0.2467558 0.9690777 0 -0.1981461 0.9801725 0 -0.1981461 0.9801725 0 -0.1490433 0.9888306 0 -0.1490433 0.9888306 0 -0.09956811 0.9950308 0 -0.09956811 0.9950308 0 -0.04984604 0.9987569 0 -0.04984604 0.9987569 0 0 1 -0 0 1 0 0.04984604 0.9987569 -0 0.04984604 0.9987569 0 0.09956763 0.9950308 -0 0.09956763 0.9950308 0 0.149044 0.9888306 -0 0.149044 0.9888306 0 0.1981451 0.9801727 -0 0.1981451 0.9801727 0 0.2467569 0.9690774 -0 0.2467569 0.9690774 0 0.2947556 0.9555727 -0 0.2947556 0.9555727 0 0.3420195 0.9396929 0 0.3420195 0.9396929 -0 0.388436 0.9214756 0 0.388436 0.9214756 -0 0.4338828 0.9009693 0 0.4338828 0.9009693 -0 0.4782543 0.8782213 0 0.4782543 0.8782213 -0 -0 0 1 0 0 1 -0 0 1 0 0 1 0 0 1 -0 0 1 0 0 1 0 0 1 -0 0 1 0 0 1 0 0 1 -0 0 1 0 0 1 0 0 1 0 0 1 -0 0 1 0 0 1 0 0 1 0 0 1 0 0 1 0 0 1 0 0 1 0 0 1 0 0 1 0 0 1 0 0 1 0 0 1 0 0 1 0 0 1 0 0 1 0 0 1 0 0 1 0 0 1 0 0 1 0 0 1 0 0 1 0 0 1 0 0 1 0 0 1 0 0 1 0 0 1 0 0 1 0 0 1 0 0 1 0 0 1 0 0 1 0 0 1 0 0 1 0 0 1 0 0 1 0 0 1 0 0 1 0 0 1 0 0 1 0 0 1 0 0 1 0 0 1 0 0 1 0 0 1 0 0 1 0 0 1 0 0 1 0 0 1 0 0 1 0 0 1 0 0 1 0 0 1 0 0 1 0 0 1 0 0 1 0 0 1 -0 0 1 0 0 1 0 0 1 -0 0 1 0 0 1 -0 0 1 0 0 1 -0 0 1 -0 0 1 -0 0 1 -0 0 1 -0 0 1 -0 0 1 -0 0 1 -0 0 1 0 0 1 0 0 1 0 0 1 0 0 1 0 0 1 0 0 1 0 0 1 0 0 1 -0 0 1 0 0 1 0 0 1 -0 0 1 0 0 1 -0 0 1 -0 0 1 0 0 1 0 0 1 0 0 1 0 0 1 0 0 1 0 0 1 0 0 1 0 0 1 0 0 1 0 0 1 0 0 1 0 0 1 0 0 1 0 0 1 0 0 1 0 0 1 0 0 1 0 0 1 0 0 1 0 0 1 0 0 1 0 0 1 0 0 1 0 0 1 0 0 1 0 0 1 0 0 1 0 0 1 0 0 1 0 0 1 0 0 1 0 0 1 0 0 1 0 0 1 0 0 1 0 0 1 0 0 1 0 0 1 0 0 1 0 0 1 0 0 1 0 0 1 0 0 1 0 0 1 0 0 1 0 0 1 0 0 1 0 0 1 0 0 1 0 0 1 0 0 1 0 0 1 0 0 1 0 0 1 0 0 1 0 0 1 0 0 1 0 0 1 0 0 1 0 0 1 0 0 1 0 0 1 0 0 1 0 0 1 0 0 1 -0 0 1 0 0 1 0 0 1 0 0 1 0 0 1 0 0 1 0 0 1 0 0 1 0 0 1 0 0 -1 0 0 -1 0 0 -1 0 0 -1 0 0 -1 0 0 -1 0 0 -1 0 0 -1 0 0 -1 0 0 -1 0 0 -1 0 0 -1 0 0 -1 0 0 -1 0 0 -1 0 0 -1 0 0 -1 0 0 -1 0 0 -1 0 0 -1 0 0 -1 0 0 -1 0 0 -1 0 0 -1 0 0 -1 0 0 -1 0 0 -1 0 0 -1 0 0 -1 0 0 -1 0 0 -1 0 0 -1 0 0 -1 0 0 -1 0 0 -1 0 0 -1 0 0 -1 0 0 -1 0 0 -1 0 0 -1 0 0 -1 0 0 -1 0 0 -1 0 0 -1 0 0 -1 0 0 -1 0 0 -1 0 0 -1 0 0 -1 0 0 -1 0 0 -1 0 0 -1 0 0 -1 0 0 -1 0 0 -1 0 0 -1 0 0 -1 0 0 -1 0 0 -1 0 0 -1 0 0 -1 0 0 -1 0 0 -1 0 0 -1 0 0 -1 0 0 -1 0 0 -1 0 0 -1 0 0 -1 0 0 -1 0 0 -1 0 0 -1 0 0 -1 -0 0 -1 0 0 -1 -0 0 -1 0 0 -1 -0 0 -1 0 0 -1 0 0 -1 0 0 -1 0 0 -1 0 0 -1 0 0 -1 0 0 -1 0 0 -1 -0 0 -1 0 0 -1 0 0 -1 -0 0 -1 -0 0 -1 -0 0 -1 -0 0 -1 -0 0 -1 -0 0 -1 0 0 -1 -0 0 -1 -0 0 -1 0 0 -1 0 0 -1 -0 0 -1 0 0 -1 0 0 -1 0 0 -1 0 0 -1 0 0 -1 0 0 -1 0 0 -1 0 0 -1 0 0 -1 0 0 -1 0 0 -1 0 0 -1 0 0 -1 0 0 -1 0 0 -1 0 0 -1 0 0 -1 0 0 -1 0 0 -1 0 0 -1 0 0 -1 0 0 -1 0 0 -1 0 0 -1 0 0 -1 0 0 -1 0 0 -1 0 0 -1 0 0 -1 0 0 -1 0 0 -1 0 0 -1 0 0 -1 0 0 -1 0 0 -1 0 0 -1 0 0 -1 0 0 -1 0 0 -1 0 0 -1 0 0 -1 0 0 -1 0 0 -1 0 0 -1 0 0 -1 0 0 -1 0 0 -1 0 0 -1 0 0 -1 0 0 -1 0 0 -1 0 0 -1 0 0 -1 0 0 -1 0 0 -1 0 0 -1 0 0 -1 0 0 -1 0 0 -1 0 0 -1 0 0 -1 0 0 -1 0 0 -1 0 0 -1 0 0 -1 0 0 -1 0 0 -1 0 0 -1 0 0 -1 0 0 -1 0 0 -1 0 0 -1 0 0 -1 0 0 -1 -0.8660254 -0.5 0 -0.8660254 -0.4999998 5.768747e-08 -0.8660254 -0.4999998 5.767811e-08 -0.8660254 -0.5000001 -1.625258e-08 -0.8660253 -0.5000001 -2.277759e-08 -0.8660253 -0.5000001 0 -0.8660254 -0.5 0 -0.8660255 -0.4999998 0 -0.8660254 -0.5 -0 -0.8660253 -0.5000001 -4.671184e-08 -0.8660254 -0.5 -4.461835e-08 -0.8660253 -0.5 -2.948682e-08 -0.8660254 -0.5 -2.831831e-08 -0.8660254 -0.5 0 -0 -1 0 -0 -1 0 -0 -1 0 -0 -1 0 -0 -1 0 -0 -1 0 0 -1 0 0 -1 0 -0 -1 -0 0 -1 0 0 -1 0 0 -1 0 0 -1 0 0 -1 0 0.8660244 -0.5000018 0 0.8660259 -0.4999991 -3.822055e-07 0.866025 -0.5000008 -3.816425e-07 0.8660259 -0.4999992 1.789899e-07 0.8660248 -0.5000011 1.81899e-07 0.8660263 -0.4999985 0 0.8660254 -0.5 0 0.8660251 -0.5000006 0 0.8660254 -0.5 0 0.8660246 -0.5000013 1.42042e-07 0.8660247 -0.5000011 1.451457e-07 0.8660264 -0.4999984 -4.910751e-07 0.8660259 -0.4999991 -4.819931e-07 0.8660256 -0.4999997 0 0.8660253 0.5000002 -0 0.866026 0.499999 3.362806e-07 0.8660257 0.4999993 3.388595e-07 0.8660247 0.5000013 -4.590371e-08 0.8660253 0.5000004 -4.555517e-08 0.8660248 0.5000011 0 0.8660254 0.4999999 0 0.8660258 0.4999993 -0 0.8660254 0.4999999 0 0.8660253 0.5000002 -3.343233e-08 0.8660257 0.4999994 -3.346378e-08 0.866025 0.5000007 -1.693449e-07 0.866025 0.5000007 -1.699098e-07 0.8660253 0.5000002 0 -0 1 0 -0 1 0 -0 1 0 -0 1 0 -0 1 0 -0 1 0 0 1 0 0 1 0 -0 1 0 0 1 0 0 1 0 0 1 0 0 1 0 0 1 0 -0.8660253 0.5000001 0 -0.8660254 0.4999999 -4.014761e-09 -0.8660254 0.5 0 -0.8660254 0.4999999 -3.467274e-09 -0.8660254 0.5 1.136869e-08 -0.8660254 0.4999999 0 -0.8660254 0.4999999 0 -0.8660253 0.5000002 0 -0.8660254 0.4999999 0 -0.8660253 0.5000003 -3.939077e-08 -0.8660254 0.5000001 -4.466024e-08 -0.8660253 0.5000002 -1.134408e-07 -0.8660254 0.5 -1.134101e-07 -0.8660251 0.5000005 0 0.5214361 0.8532904 0 0.5214361 0.8532904 -0 0.5633191 0.8262394 0 0.5633191 0.8262394 -0 0.6038043 0.7971326 0 0.6038043 0.7971326 -0 0.6427868 0.7660452 0 0.6427868 0.7660452 -0 0.6801735 0.7330512 0 0.6801735 0.7330512 -0 0.7158673 0.6982363 0 0.7158673 0.6982363 -0 0.7497807 0.6616864 0 0.7497807 0.6616864 -0 0.8119378 0.583744 0 0.7818312 0.6234902 0 0.7818312 0.6234902 -0 0.8119378 0.583744 0 0.8400267 0.542545 0 0.8400267 0.542545 -0 0.866025 0.5000008 0 0.866025 0.5000008 -0 0.8898722 0.45621 0 0.8898722 0.45621 -0 0.9115058 0.4112873 0 0.9115058 0.4112873 -0 0.930874 0.3653402 0 0.930874 0.3653402 -0 0.9479271 0.3184873 0 0.9479271 0.3184873 -0 0.9626241 0.2708409 0 0.9626241 0.2708409 -0 0.9848075 0.1736495 0 0.974928 0.2225204 0 0.974928 0.2225204 -0 0.9848075 0.1736495 0 0.9922392 0.1243438 0 0.9922392 0.1243438 -0 0.9996892 0.02492902 0 0.9972039 0.07472968 0 0.9972039 0.07472968 -0 0.9996892 0.02492902 0 0.9996892 -0.02492901 0 0.9996892 -0.02492901 0 0.9972039 -0.07472968 0 0.9972039 -0.07472968 0 0.9922392 -0.1243438 0 0.9922392 -0.1243438 0 0.9749281 -0.2225203 0 0.9848075 -0.1736495 0 0.9848075 -0.1736495 0 0.9626242 -0.2708409 0 0.9749281 -0.2225203 0 0.9626242 -0.2708409 0 0.9479271 -0.3184874 0 0.9479271 -0.3184874 0 0.930874 -0.3653404 0 0.930874 -0.3653404 0 0.9115059 -0.411287 0 0.9115059 -0.411287 0 0.8898719 -0.4562104 0 0.8898719 -0.4562104 0 0.8660251 -0.5000004 0 0.8660251 -0.5000004 0 0.8400265 -0.5425454 0 0.811938 -0.5837437 0 0.8400265 -0.5425454 0 0.811938 -0.5837437 0 0.7818312 -0.6234902 0 0.7818312 -0.6234902 0 0.7497807 -0.6616864 0 0.7497807 -0.6616864 0 0.7158667 -0.6982369 0 0.7158667 -0.6982369 0 0.6801738 -0.7330509 0 0.6801738 -0.7330509 0 0.6427872 -0.7660449 0 0.6427872 -0.7660449 0 0.6038039 -0.7971328 0 0.6038039 -0.7971328 0 0.5633199 -0.8262389 0 0.5633199 -0.8262389 0 0.5214352 -0.8532909 0 0.5214352 -0.8532909 0 0.4782543 -0.8782213 0 0.4782543 -0.8782213 0 0.4338838 -0.9009688 0 0.4338838 -0.9009688 0 0.388436 -0.9214756 0 0.388436 -0.9214756 0 0.3420195 -0.9396929 0 0.3420195 -0.9396929 0 0.2947545 -0.955573 0 0.2947545 -0.955573 0 0.246758 -0.9690771 0 0.246758 -0.9690771 0 0.1981451 -0.9801727 0 0.1981451 -0.9801727 0 0.1490428 -0.9888307 0 0.1490428 -0.9888307 0 0.09956763 -0.9950308 0 0.09956763 -0.9950308 0 0.04984604 -0.9987569 0 0 -1 0 0.04984604 -0.9987569 0 0 -1 0 -0.04984604 -0.9987569 0 -0.04984604 -0.9987569 0 -0.09956811 -0.9950308 0 -0.09956811 -0.9950308 0 -0.1490421 -0.9888308 0 -0.1490421 -0.9888308 0 -0.1981461 -0.9801725 0 -0.1981461 -0.9801725 0 -0.2467569 -0.9690774 0 -0.2467569 -0.9690774 0 -0.2947545 -0.955573 0 -0.2947545 -0.955573 0 -0.342021 -0.9396923 0 -0.342021 -0.9396923 0 -0.3884351 -0.9214761 0 -0.3884351 -0.9214761 0 -0.4338838 -0.9009688 0 -0.4338838 -0.9009688 0 -0.4782534 -0.8782219 0 -0.4782534 -0.8782219 0 -0.4351788 0.5633042 0.7023587 -0.4051828 0.5759787 0.7099827 -0.3796191 0.5944486 0.7088867 -0.4019883 0.5851214 0.7042999 -0.3250017 0.6259918 0.708878 -0.2962254 0.6388977 0.7099721 -0.3057054 0.6407112 0.7042965 -0.2702364 0.6585048 0.7023844 -0.3682997 0.6037399 0.7070031 -0.3524186 0.6104071 0.7093689 -0.3386721 0.6208449 0.7070027 -0.3686804 0.6062582 0.7046459 -0.3406678 0.6224428 0.704635 -0.7055573 -0.09524175 0.7022235 -0.7014988 -0.06291774 0.7098879 -0.7046657 -0.03153767 0.7088382 -0.7077999 -0.05557558 0.7042236 -0.7046883 0.03153867 0.7088157 -0.7015673 0.06292392 0.7098197 -0.7077979 0.05574917 0.7042118 -0.7054909 0.09523282 0.7022915 -0.7048374 0 0.7093689 -0.7070016 0.0172538 0.7070016 -0.7070029 -0.0171356 0.7070029 -0.7093846 -0.01619211 0.7046355 -0.7094176 0.01631259 0.7045994 -0.7054254 0.09522396 -0.7023585 -0.7014037 0.06290922 -0.7099826 -0.7046171 0.03153543 -0.7088866 -0.7077242 0.05557146 -0.7042999 -0.7046256 -0.03153583 -0.7088782 -0.701414 -0.06291013 -0.7099723 -0.7077248 -0.05560682 -0.7042965 -0.7053998 -0.09522051 -0.7023847 -0.7070035 0.01708722 -0.7070035 -0.7048374 0 -0.7093689 -0.7070031 -0.01712341 -0.7070031 -0.7093752 0.01615768 -0.7046459 -0.7093852 -0.01619395 -0.704635 -0.2702968 0.658652 -0.7022229 -0.2962613 0.638975 -0.7098874 -0.3250203 0.6260275 -0.708838 -0.3057699 0.6407608 -0.7042233 -0.3796575 0.5945089 -0.7088154 -0.4052774 0.5761132 -0.7098196 -0.4021792 0.5850967 -0.7042115 -0.4352194 0.5633568 -0.7022914 -0.3524186 0.6104071 -0.7093689 -0.3684435 0.6036546 -0.7070011 -0.3386614 0.6208509 -0.7070025 -0.3406691 0.6224416 -0.7046355 -0.3688364 0.6062174 -0.7045994 0.2702968 0.658652 0.7022229 0.2962614 0.638975 0.7098874 0.3250201 0.6260275 0.708838 0.3057699 0.6407607 0.7042234 0.3796237 0.5944559 0.708878 0.4051888 0.5759873 0.7099723 0.4020192 0.5851045 0.7042964 0.4351627 0.5632842 0.7023847 0.3386612 0.620851 0.7070025 0.3524184 0.6104069 0.7093692 0.3683316 0.603721 0.7070027 0.3406687 0.6224416 0.7046356 0.3687176 0.6062481 0.7046351 0.338672 0.6208447 -0.7070029 0.3165495 0.6311261 -0.7081499 0.342357 0.62072 -0.7053356 0.2908371 0.641316 -0.7100194 0.3054173 0.6415778 -0.7036322 0.2692981 0.6614786 -0.6999462 0.705556 0.09523952 0.7022251 0.7014978 0.06291825 0.7098888 0.7046651 0.03153792 0.7088388 0.7077993 0.05557562 0.7042241 0.7046878 -0.03153889 0.7088161 0.7015671 -0.06292443 0.7098198 0.7077975 -0.05575 0.7042122 0.7054904 -0.09523067 0.7022923 0.707003 0.01713585 0.707003 0.7048365 0 0.7093697 0.7070015 -0.01725432 0.7070015 0.7093839 0.01619264 0.7046362 0.709417 -0.01631335 0.7046002 0.705424 -0.09522171 -0.7023602 0.7014027 -0.06290971 -0.7099836 0.7046173 -0.03153579 -0.7088864 0.7077242 -0.05557069 -0.7042999 0.7046252 0.03153614 -0.7088785 0.7014129 0.06291066 -0.7099733 0.7077243 0.05560663 -0.704297 0.7053984 0.09521827 -0.7023863 0.7048365 0 -0.7093697 0.7070031 0.01712418 -0.7070031 0.7070035 -0.01708902 -0.7070035 0.7093748 -0.0161596 -0.7046461 0.7093846 0.01619494 -0.7046355 0.4351784 -0.5633047 0.7023585 0.4051829 -0.5759789 0.7099825 0.379619 -0.5944484 0.7088868 0.4019885 -0.5851211 0.7043 0.3250014 -0.6259915 0.7088786 0.2962249 -0.6388963 0.7099733 0.3057059 -0.6407101 0.7042971 0.2702368 -0.6585029 0.7023859 0.3682997 -0.6037393 0.7070037 0.3524184 -0.6104069 0.7093692 0.3386721 -0.6208442 0.7070033 0.3686805 -0.6062579 0.7046461 0.340668 -0.6224423 0.7046353 0.2702973 -0.6586504 -0.7022243 0.296261 -0.6389741 -0.7098885 0.3250198 -0.6260271 -0.7088386 0.3057701 -0.6407599 -0.704224 0.3796576 -0.5945091 -0.7088152 0.4052772 -0.576113 -0.7098199 0.4021788 -0.5850971 -0.7042115 0.4352187 -0.5633567 -0.7022918 0.3524184 -0.6104069 -0.7093692 0.3684441 -0.6036536 -0.7070016 0.3386615 -0.6208502 -0.7070032 0.3406693 -0.6224409 -0.7046357 0.3688371 -0.6062169 -0.7045994 -0.3683309 -0.6037207 0.7070033 -0.3663804 -0.6068498 0.7053359 -0.388297 -0.5897022 0.7081501 -0.4099764 -0.5725299 0.7100204 -0.4029129 -0.5852877 0.703633 -0.4382065 -0.563958 0.6999474 -0.4352604 -0.5634097 -0.7022235 -0.4052379 -0.576057 -0.7098879 -0.3796452 -0.5944895 -0.7088383 -0.40203 -0.5851848 -0.7042236 -0.3250014 -0.6259914 -0.7088785 -0.2962249 -0.6388966 -0.7099731 -0.3057056 -0.6407104 -0.704297 -0.2702369 -0.6585031 -0.7023857 -0.3524186 -0.6104071 -0.7093689 -0.3386724 -0.6208441 -0.7070032 -0.3683411 -0.6037146 -0.7070031 -0.3687149 -0.6062491 -0.7046356 -0.3406684 -0.6224422 -0.7046352</float_array>
          <technique_common>
            <accessor count="840" source="#cubenormals-array0-array" stride="3">
              <param type="float" name="X"/>
              <param type="float" name="Y"/>
              <param type="float" name="Z"/>
            </accessor>
          </technique_common>
        </source>
        <vertices id="cubeverts-array0-vertices">
          <input semantic="POSITION" source="#cubeverts-array0"/>
        </vertices>
        <triangles count="840" material="ref_Nut_Predeterminado_shape">
          <input offset="0" semantic="VERTEX" source="#cubeverts-array0-vertices"/>
          <input offset="1" semantic="NORMAL" source="#cubenormals-array0"/>
          <p>0 0 1 0 2 0 0 1 2 1 3 1 4 2 3 2 5 2 4 3 5 3 6 3 4 4 0 4 3 4 7 5 4 5 6 5 8 6 9 6 10 6 8 7 11 7 9 7 12 8 13 8 14 8 12 9 10 9 13 9 12 10 8 10 10 10 15 11 12 11 14 11 16 12 17 12 18 12 19 13 17 13 16 13 18 14 20 14 21 14 17 15 20 15 18 15 21 16 22 16 23 16 20 17 22 17 21 17 23 18 24 18 25 18 22 19 24 19 23 19 25 20 26 20 27 20 24 21 26 21 25 21 27 22 28 22 29 22 26 23 28 23 27 23 29 24 30 24 31 24 28 25 30 25 29 25 31 26 32 26 33 26 30 27 32 27 31 27 33 28 34 28 35 28 32 29 34 29 33 29 35 30 36 30 37 30 34 31 36 31 35 31 37 32 38 32 39 32 36 33 38 33 37 33 39 34 40 34 41 34 38 35 40 35 39 35 41 36 42 36 43 36 40 37 42 37 41 37 43 38 44 38 45 38 42 39 44 39 43 39 45 40 46 40 47 40 44 41 46 41 45 41 47 42 48 42 49 42 46 43 48 43 47 43 49 44 50 44 51 44 48 45 50 45 49 45 50 46 52 46 51 46 51 47 52 47 53 47 54 48 55 48 56 48 53 49 55 49 54 49 52 50 55 50 53 50 55 51 57 51 56 51 56 52 58 52 59 52 57 53 58 53 56 53 59 54 60 54 61 54 58 55 60 55 59 55 61 56 62 56 63 56 60 57 62 57 61 57 63 58 64 58 65 58 62 59 64 59 63 59 65 60 66 60 67 60 64 61 66 61 65 61 67 62 68 62 69 62 66 63 68 63 67 63 69 64 70 64 71 64 68 65 70 65 69 65 71 66 72 66 73 66 70 67 72 67 71 67 72 68 74 68 73 68 73 69 74 69 75 69 74 70 76 70 75 70 75 71 76 71 77 71 76 72 78 72 77 72 77 73 78 73 79 73 78 74 80 74 79 74 79 75 80 75 81 75 80 76 82 76 81 76 81 77 82 77 83 77 82 78 84 78 83 78 83 79 84 79 85 79 84 80 86 80 85 80 85 81 86 81 87 81 86 82 88 82 87 82 89 83 88 83 90 83 87 84 88 84 89 84 88 85 91 85 90 85 91 86 92 86 90 86 90 87 92 87 93 87 93 88 94 88 95 88 92 89 94 89 93 89 95 90 96 90 97 90 94 91 96 91 95 91 96 92 98 92 97 92 99 93 98 93 100 93 97 94 98 94 99 94 98 95 101 95 100 95 101 96 102 96 100 96 100 97 102 97 103 97 102 98 104 98 103 98 103 99 104 99 105 99 104 100 106 100 105 100 105 101 106 101 107 101 106 102 108 102 107 102 107 103 108 103 109 103 108 104 110 104 109 104 109 105 110 105 111 105 110 106 112 106 111 106 111 107 112 107 113 107 112 108 114 108 113 108 113 109 114 109 115 109 114 110 116 110 115 110 115 111 116 111 117 111 116 112 118 112 117 112 117 113 118 113 119 113 118 114 120 114 119 114 119 115 120 115 121 115 120 116 122 116 121 116 121 117 122 117 123 117 122 118 124 118 123 118 123 119 124 119 125 119 124 120 126 120 125 120 125 121 126 121 127 121 126 122 128 122 127 122 127 123 128 123 129 123 128 124 130 124 129 124 129 125 130 125 131 125 130 126 132 126 131 126 131 127 132 127 133 127 132 128 134 128 133 128 133 129 134 129 135 129 135 130 136 130 137 130 134 131 136 131 135 131 137 132 138 132 139 132 136 133 138 133 137 133 139 134 140 134 141 134 138 135 140 135 139 135 141 136 142 136 143 136 140 137 142 137 141 137 113 138 144 138 111 138 109 139 111 139 144 139 115 140 144 140 113 140 107 141 109 141 144 141 107 142 144 142 145 142 117 143 144 143 115 143 105 144 107 144 145 144 105 145 145 145 146 145 119 146 144 146 117 146 103 147 105 147 146 147 103 148 146 148 147 148 121 149 144 149 119 149 121 150 1 150 144 150 100 151 103 151 147 151 100 152 147 152 148 152 123 153 1 153 121 153 99 154 100 154 148 154 99 155 148 155 149 155 125 156 1 156 123 156 97 157 99 157 149 157 97 158 149 158 150 158 127 159 1 159 125 159 95 160 150 160 151 160 95 161 97 161 150 161 129 162 1 162 127 162 93 163 95 163 151 163 131 164 1 164 129 164 90 165 93 165 151 165 133 166 1 166 131 166 89 167 90 167 151 167 135 168 1 168 133 168 87 169 89 169 151 169 137 170 2 170 1 170 137 171 1 171 135 171 85 172 87 172 151 172 139 173 3 173 2 173 139 174 2 174 137 174 83 175 85 175 151 175 141 176 5 176 3 176 141 177 3 177 139 177 81 178 83 178 151 178 143 179 152 179 6 179 143 180 6 180 5 180 143 181 5 181 141 181 79 182 151 182 153 182 79 183 81 183 151 183 154 184 155 184 152 184 154 185 152 185 143 185 77 186 79 186 153 186 156 187 157 187 155 187 156 188 155 188 154 188 75 189 77 189 153 189 158 190 159 190 157 190 158 191 157 191 156 191 73 192 75 192 153 192 160 193 159 193 158 193 71 194 73 194 153 194 161 195 159 195 160 195 69 196 71 196 153 196 162 197 159 197 161 197 67 198 69 198 153 198 163 199 159 199 162 199 65 200 153 200 164 200 65 201 67 201 153 201 165 202 159 202 163 202 63 203 164 203 166 203 63 204 65 204 164 204 167 205 159 205 165 205 61 206 166 206 168 206 61 207 63 207 166 207 169 208 159 208 167 208 59 209 168 209 170 209 59 210 61 210 168 210 56 211 170 211 171 211 56 212 59 212 170 212 54 213 171 213 172 213 54 214 56 214 171 214 53 215 172 215 173 215 53 216 54 216 172 216 51 217 53 217 173 217 49 218 51 218 173 218 47 219 49 219 173 219 45 220 47 220 173 220 43 221 45 221 173 221 41 222 43 222 173 222 39 223 41 223 173 223 37 224 39 224 173 224 174 225 175 225 176 225 174 226 177 226 175 226 174 227 178 227 177 227 174 228 179 228 178 228 174 229 180 229 179 229 174 230 181 230 180 230 174 231 182 231 181 231 174 232 169 232 182 232 174 233 159 233 169 233 183 234 176 234 184 234 183 235 174 235 176 235 185 236 184 236 186 236 185 237 183 237 184 237 187 238 185 238 186 238 187 239 186 239 188 239 189 240 187 240 188 240 189 241 188 241 190 241 191 242 190 242 192 242 191 243 189 243 190 243 193 244 192 244 194 244 193 245 191 245 192 245 195 246 196 246 197 246 195 247 198 247 196 247 195 248 199 248 198 248 195 249 200 249 199 249 195 250 201 250 200 250 195 251 202 251 201 251 195 252 194 252 202 252 195 253 193 253 194 253 203 254 35 254 37 254 203 255 33 255 35 255 203 256 31 256 33 256 203 257 29 257 31 257 203 258 27 258 29 258 203 259 25 259 27 259 203 260 23 260 25 260 203 261 37 261 173 261 204 262 21 262 23 262 204 263 23 263 203 263 205 264 18 264 21 264 205 265 21 265 204 265 206 266 16 266 18 266 206 267 18 267 205 267 207 268 208 268 16 268 207 269 16 269 206 269 209 270 208 270 207 270 209 271 210 271 208 271 211 272 212 272 210 272 211 273 210 273 209 273 213 274 212 274 211 274 213 275 214 275 212 275 213 276 215 276 214 276 213 277 216 277 215 277 213 278 217 278 216 278 213 279 218 279 217 279 213 280 219 280 218 280 213 281 220 281 219 281 213 282 221 282 220 282 222 283 223 283 224 283 222 284 225 284 223 284 222 285 226 285 225 285 222 286 227 286 226 286 222 287 228 287 227 287 222 288 229 288 228 288 222 289 230 289 229 289 222 290 197 290 230 290 222 291 195 291 197 291 231 292 222 292 224 292 231 293 224 293 232 293 233 294 231 294 232 294 233 295 232 295 234 295 235 296 233 296 234 296 235 297 234 297 236 297 237 298 235 298 236 298 237 299 236 299 238 299 239 300 237 300 238 300 239 301 238 301 240 301 241 302 239 302 240 302 241 303 240 303 242 303 243 304 221 304 213 304 243 305 241 305 242 305 243 306 244 306 221 306 243 307 245 307 244 307 243 308 246 308 245 308 243 309 247 309 246 309 243 310 248 310 247 310 243 311 249 311 248 311 243 312 242 312 249 312 250 313 112 313 110 313 110 314 108 314 250 314 250 315 114 315 112 315 250 316 106 316 251 316 108 317 106 317 250 317 250 318 116 318 114 318 251 319 104 319 252 319 106 320 104 320 251 320 250 321 118 321 116 321 104 322 102 322 252 322 252 323 102 323 253 323 250 324 120 324 118 324 254 325 120 325 250 325 253 326 101 326 255 326 102 327 101 327 253 327 254 328 122 328 120 328 101 329 98 329 255 329 255 330 98 330 256 330 254 331 124 331 122 331 256 332 96 332 257 332 98 333 96 333 256 333 254 334 126 334 124 334 96 335 94 335 257 335 257 336 94 336 258 336 254 337 128 337 126 337 94 338 92 338 258 338 254 339 130 339 128 339 92 340 91 340 258 340 254 341 132 341 130 341 91 342 88 342 258 342 254 343 134 343 132 343 88 344 86 344 258 344 259 345 136 345 254 345 254 346 136 346 134 346 86 347 84 347 258 347 259 348 138 348 136 348 260 349 138 349 259 349 84 350 82 350 258 350 261 351 140 351 260 351 260 352 140 352 138 352 82 353 80 353 258 353 262 354 142 354 261 354 261 355 142 355 140 355 258 356 78 356 263 356 80 357 78 357 258 357 264 358 265 358 262 358 262 359 265 359 142 359 78 360 76 360 263 360 266 361 267 361 264 361 264 362 267 362 265 362 76 363 74 363 263 363 268 364 269 364 266 364 266 365 269 365 267 365 74 366 72 366 263 366 268 367 270 367 269 367 72 368 70 368 263 368 268 369 271 369 270 369 70 370 68 370 263 370 268 371 272 371 271 371 68 372 66 372 263 372 268 373 273 373 272 373 263 374 64 374 274 374 66 375 64 375 263 375 268 376 275 376 273 376 64 377 62 377 274 377 274 378 62 378 276 378 268 379 277 379 275 379 62 380 60 380 276 380 276 381 60 381 278 381 268 382 279 382 277 382 60 383 58 383 278 383 278 384 58 384 280 384 58 385 57 385 280 385 280 386 57 386 281 386 57 387 55 387 281 387 281 388 55 388 282 388 55 389 52 389 282 389 282 390 52 390 283 390 52 391 50 391 283 391 50 392 48 392 283 392 48 393 46 393 283 393 46 394 44 394 283 394 44 395 42 395 283 395 42 396 40 396 283 396 40 397 38 397 283 397 38 398 36 398 283 398 284 399 285 399 286 399 279 400 285 400 284 400 268 401 285 401 279 401 287 402 285 402 288 402 289 403 285 403 287 403 290 404 285 404 289 404 291 405 285 405 290 405 292 406 285 406 291 406 286 407 285 407 292 407 285 408 293 408 288 408 288 409 293 409 294 409 294 410 295 410 296 410 293 411 295 411 294 411 295 412 297 412 296 412 296 413 297 413 298 413 297 414 299 414 298 414 298 415 299 415 300 415 299 416 301 416 300 416 300 417 301 417 302 417 301 418 303 418 302 418 302 419 303 419 304 419 305 420 306 420 307 420 308 421 306 421 305 421 309 422 306 422 308 422 310 423 306 423 309 423 311 424 306 424 310 424 312 425 306 425 311 425 304 426 306 426 312 426 303 427 306 427 304 427 34 428 11 428 36 428 32 429 11 429 34 429 30 430 11 430 32 430 28 431 11 431 30 431 36 432 11 432 283 432 26 433 11 433 28 433 24 434 11 434 26 434 22 435 11 435 24 435 20 436 9 436 22 436 22 437 9 437 11 437 20 438 10 438 9 438 17 439 10 439 20 439 19 440 13 440 17 440 17 441 13 441 10 441 19 442 14 442 13 442 313 443 314 443 19 443 19 444 314 444 14 444 315 445 316 445 313 445 313 446 316 446 314 446 315 447 317 447 316 447 318 448 317 448 315 448 318 449 319 449 317 449 320 450 319 450 318 450 321 451 319 451 320 451 322 452 319 452 321 452 323 453 319 453 322 453 324 454 319 454 323 454 325 455 319 455 324 455 326 456 319 456 325 456 327 457 319 457 326 457 306 458 328 458 307 458 329 459 328 459 330 459 331 460 328 460 329 460 332 461 328 461 331 461 333 462 328 462 332 462 334 463 328 463 333 463 335 464 328 464 334 464 336 465 328 465 335 465 307 466 328 466 336 466 328 467 337 467 330 467 330 468 337 468 338 468 337 469 339 469 338 469 338 470 339 470 340 470 339 471 341 471 340 471 340 472 341 472 342 472 341 473 343 473 342 473 342 474 343 474 344 474 343 475 345 475 344 475 344 476 345 476 346 476 345 477 347 477 346 477 346 478 347 478 348 478 347 479 349 479 348 479 350 480 349 480 327 480 351 481 349 481 350 481 352 482 349 482 351 482 353 483 349 483 352 483 354 484 349 484 353 484 355 485 349 485 354 485 348 486 349 486 355 486 327 487 349 487 319 487 356 488 7 488 357 488 357 489 358 489 359 489 7 490 358 490 357 490 359 491 360 491 268 491 358 492 360 492 359 492 360 493 159 493 268 493 268 494 174 494 285 494 285 495 174 495 361 495 159 496 174 496 268 496 361 497 362 497 363 497 174 498 362 498 361 498 363 499 364 499 365 499 362 500 364 500 363 500 364 501 366 501 365 501 367 502 368 502 369 502 369 503 370 503 371 503 368 504 370 504 369 504 371 505 372 505 250 505 370 506 372 506 371 506 372 507 144 507 250 507 250 508 1 508 254 508 254 509 1 509 373 509 144 510 1 510 250 510 373 511 0 511 374 511 1 512 0 512 373 512 374 513 4 513 356 513 0 514 4 514 374 514 4 515 7 515 356 515 375 516 376 516 377 516 377 517 378 517 379 517 376 518 378 518 377 518 379 519 380 519 263 519 378 520 380 520 379 520 380 521 153 521 263 521 263 522 151 522 258 522 258 523 151 523 381 523 153 524 151 524 263 524 381 525 382 525 383 525 151 526 382 526 381 526 383 527 384 527 367 527 382 528 384 528 383 528 384 529 368 529 367 529 15 530 385 530 12 530 12 531 386 531 8 531 385 532 386 532 12 532 8 533 387 533 11 533 386 534 387 534 8 534 387 535 203 535 11 535 11 536 173 536 283 536 283 537 173 537 388 537 203 538 173 538 11 538 388 539 389 539 390 539 173 540 389 540 388 540 390 541 391 541 375 541 389 542 391 542 390 542 391 543 376 543 375 543 392 544 393 544 394 544 394 545 395 545 396 545 393 546 395 546 394 546 396 547 397 547 349 547 395 548 397 548 396 548 397 549 243 549 349 549 349 550 213 550 319 550 319 551 213 551 398 551 243 552 213 552 349 552 398 553 399 553 400 553 213 554 399 554 398 554 400 555 401 555 15 555 399 556 401 556 400 556 401 557 385 557 15 557 365 558 366 558 402 558 402 559 403 559 404 559 366 560 403 560 402 560 404 561 405 561 306 561 403 562 405 562 404 562 405 563 195 563 306 563 306 564 222 564 328 564 328 565 222 565 406 565 195 566 222 566 306 566 406 567 407 567 408 567 222 568 407 568 406 568 408 569 409 569 392 569 407 570 409 570 408 570 409 571 393 571 392 571 143 572 265 572 154 572 142 573 265 573 143 573 154 574 267 574 156 574 265 575 267 575 154 575 156 576 269 576 158 576 267 577 269 577 156 577 158 578 270 578 160 578 269 579 270 579 158 579 160 580 271 580 161 580 270 581 271 581 160 581 161 582 272 582 162 582 271 583 272 583 161 583 162 584 273 584 163 584 272 585 273 585 162 585 165 586 275 586 167 586 163 587 275 587 165 587 273 588 275 588 163 588 275 589 277 589 167 589 167 590 279 590 169 590 277 591 279 591 167 591 169 592 284 592 182 592 279 593 284 593 169 593 182 594 286 594 181 594 284 595 286 595 182 595 181 596 292 596 180 596 286 597 292 597 181 597 180 598 291 598 179 598 292 599 291 599 180 599 179 600 290 600 178 600 291 601 290 601 179 601 178 602 289 602 177 602 290 603 289 603 178 603 175 604 287 604 176 604 177 605 287 605 175 605 289 606 287 606 177 606 287 607 288 607 176 607 176 608 294 608 184 608 288 609 294 609 176 609 186 610 296 610 188 610 184 611 296 611 186 611 294 612 296 612 184 612 296 613 298 613 188 613 188 614 300 614 190 614 298 615 300 615 188 615 190 616 302 616 192 616 300 617 302 617 190 617 192 618 304 618 194 618 302 619 304 619 192 619 202 620 312 620 201 620 194 621 312 621 202 621 304 622 312 622 194 622 201 623 311 623 200 623 312 624 311 624 201 624 311 625 310 625 200 625 310 626 309 626 200 626 200 627 309 627 199 627 309 628 308 628 199 628 199 629 308 629 198 629 308 630 305 630 198 630 198 631 305 631 196 631 305 632 307 632 196 632 196 633 307 633 197 633 307 634 336 634 197 634 197 635 336 635 230 635 336 636 335 636 230 636 229 637 335 637 228 637 230 638 335 638 229 638 335 639 334 639 228 639 334 640 333 640 228 640 228 641 333 641 227 641 333 642 332 642 227 642 227 643 332 643 226 643 332 644 331 644 226 644 226 645 331 645 225 645 331 646 329 646 225 646 225 647 329 647 223 647 223 648 330 648 224 648 329 649 330 649 223 649 224 650 338 650 232 650 330 651 338 651 224 651 232 652 340 652 234 652 338 653 340 653 232 653 234 654 342 654 236 654 340 655 342 655 234 655 342 656 344 656 236 656 236 657 344 657 238 657 344 658 346 658 238 658 238 659 346 659 240 659 346 660 348 660 240 660 240 661 348 661 242 661 348 662 355 662 242 662 242 663 355 663 249 663 355 664 354 664 249 664 249 665 354 665 248 665 354 666 353 666 248 666 248 667 353 667 247 667 353 668 352 668 247 668 247 669 352 669 246 669 352 670 351 670 246 670 246 671 351 671 245 671 351 672 350 672 245 672 245 673 350 673 244 673 350 674 327 674 244 674 221 675 327 675 220 675 244 676 327 676 221 676 327 677 326 677 220 677 326 678 325 678 220 678 220 679 325 679 219 679 325 680 324 680 219 680 219 681 324 681 218 681 324 682 323 682 218 682 218 683 323 683 217 683 323 684 322 684 217 684 217 685 322 685 216 685 322 686 321 686 216 686 216 687 321 687 215 687 215 688 320 688 214 688 321 689 320 689 215 689 214 690 318 690 212 690 320 691 318 691 214 691 212 692 315 692 210 692 318 693 315 693 212 693 210 694 313 694 208 694 315 695 313 695 210 695 208 696 19 696 16 696 313 697 19 697 208 697 407 698 222 698 231 698 233 699 407 699 231 699 409 700 233 700 235 700 409 701 407 701 233 701 395 702 237 702 239 702 397 703 239 703 241 703 397 704 395 704 239 704 243 705 397 705 241 705 410 706 393 706 409 706 410 707 235 707 237 707 410 708 395 708 393 708 410 709 409 709 235 709 410 710 237 710 395 710 362 711 174 711 183 711 185 712 362 712 183 712 364 713 185 713 187 713 364 714 362 714 185 714 403 715 189 715 191 715 405 716 191 716 193 716 405 717 403 717 191 717 195 718 405 718 193 718 411 719 187 719 189 719 411 720 403 720 366 720 411 721 366 721 364 721 411 722 364 722 187 722 411 723 189 723 403 723 404 724 306 724 303 724 301 725 404 725 303 725 402 726 301 726 299 726 402 727 404 727 301 727 363 728 297 728 295 728 361 729 295 729 293 729 361 730 363 730 295 730 285 731 361 731 293 731 412 732 365 732 402 732 412 733 299 733 297 733 412 734 363 734 365 734 412 735 402 735 299 735 412 736 297 736 363 736 396 737 349 737 347 737 345 738 396 738 347 738 394 739 345 739 343 739 394 740 396 740 345 740 408 741 341 741 339 741 406 742 339 742 337 742 406 743 408 743 339 743 328 744 406 744 337 744 413 745 343 745 341 745 413 746 408 746 392 746 413 747 392 747 394 747 413 748 394 748 343 748 413 749 341 749 408 749 399 750 213 750 211 750 209 751 399 751 211 751 401 752 209 752 207 752 401 753 399 753 209 753 386 754 206 754 205 754 387 755 205 755 204 755 387 756 386 756 205 756 203 757 387 757 204 757 414 758 385 758 401 758 414 759 207 759 206 759 414 760 386 760 385 760 414 761 401 761 207 761 414 762 206 762 386 762 400 763 15 763 14 763 400 764 314 764 316 764 400 765 14 765 314 765 398 766 316 766 317 766 398 767 400 767 316 767 319 768 398 768 317 768 389 769 173 769 172 769 171 770 389 770 172 770 391 771 171 771 170 771 391 772 389 772 171 772 378 773 168 773 166 773 380 774 166 774 164 774 380 775 378 775 166 775 153 776 380 776 164 776 415 777 376 777 391 777 415 778 170 778 168 778 415 779 378 779 376 779 415 780 391 780 170 780 415 781 168 781 378 781 379 782 263 782 274 782 276 783 379 783 274 783 377 784 276 784 278 784 377 785 379 785 276 785 390 786 280 786 281 786 388 787 281 787 282 787 388 788 390 788 281 788 283 789 388 789 282 789 416 790 278 790 280 790 416 791 390 791 375 791 416 792 375 792 377 792 416 793 377 793 278 793 416 794 280 794 390 794 382 795 151 795 150 795 149 796 382 796 150 796 384 797 149 797 148 797 384 798 382 798 149 798 370 799 147 799 146 799 372 800 146 800 145 800 372 801 370 801 146 801 144 802 372 802 145 802 417 803 368 803 384 803 417 804 148 804 147 804 417 805 370 805 368 805 417 806 384 806 148 806 417 807 147 807 370 807 371 808 250 808 251 808 252 809 371 809 251 809 369 810 252 810 253 810 369 811 371 811 252 811 383 812 255 812 256 812 381 813 256 813 257 813 381 814 383 814 256 814 258 815 381 815 257 815 418 816 253 816 255 816 418 817 383 817 367 817 418 818 367 818 369 818 418 819 369 819 253 819 418 820 255 820 383 820 358 821 7 821 6 821 358 822 6 822 152 822 358 823 152 823 155 823 360 824 155 824 157 824 360 825 358 825 155 825 159 826 360 826 157 826 359 827 268 827 266 827 264 828 359 828 266 828 357 829 264 829 262 829 357 830 359 830 264 830 374 831 261 831 260 831 373 832 260 832 259 832 373 833 374 833 260 833 254 834 373 834 259 834 419 835 262 835 261 835 419 836 374 836 356 836 419 837 356 837 357 837 419 838 357 838 262 838 419 839 261 839 374 839</p>
        </triangles>
      </mesh>
    </geometry>
  </library_geometries>
  <library_materials>
    <material id="mat_Nut_Predeterminado_shape" name="Nut_Predeterminado_shape">
      <instance_effect url="#effect_Nut_Predeterminado_shape"/>
    </material>
  </library_materials>
  <library_visual_scenes>
    <visual_scene id="myscene">
      <node id="node0" name="node0">
        <instance_geometry url="#geometry0">
          <bind_material>
            <technique_common>
              <instance_material symbol="ref_Nut_Predeterminado_shape" target="#mat_Nut_Predeterminado_shape"/>
            </technique_common>
          </bind_material>
        </instance_geometry>
      </node>
    </visual_scene>
  </library_visual_scenes>
  <scene>
    <instance_visual_scene url="#myscene"/>
  </scene>
</COLLADA>
